<svg width="158" height="158" viewBox="0 0 158 158" fill="none" xmlns="http://www.w3.org/2000/svg">
<circle cx="79" cy="79" r="79" fill="#1E1E1E"/>
<path d="M126.995 114.102C123.894 113.141 120.774 112.553 117.504 112.71C114.516 112.867 111.529 112.671 108.542 112.847C102.87 113.2 98.5595 116.886 97.0092 122.512C96.9335 122.767 96.839 123.022 96.7256 123.336C91.1671 118.591 84.7578 116.729 77.8003 116.709C70.805 116.67 64.3957 118.572 58.894 123.394C58.7805 123.061 58.686 122.904 58.6482 122.708C57.2302 117.16 53.6947 113.847 48.3064 113.063C44.96 112.572 41.5379 112.729 38.1348 112.671C34.7127 112.612 31.3474 113.043 28.1144 114.278C26.7721 114.788 26.6775 115.102 27.6418 116.239C27.7741 116.395 27.8875 116.533 28.0199 116.67C31.4608 120.63 35.4879 123.826 39.8174 126.688C48.2497 132.295 57.3625 136 67.2884 137.529C68.3282 137.686 69.3681 137.882 70.4457 138.059C69.0845 140.529 69.0278 140.804 69.595 141.666C69.6706 141.607 69.7462 141.548 69.8029 141.47C70.9751 139.784 71.6557 139.706 73.1872 140.96C75.5505 142.901 76.9495 145.469 77.7814 148.41C77.8759 148.724 77.9705 149.018 78.065 149.332C78.3486 148.881 78.4242 148.469 78.5377 148.077C79.2939 145.097 80.693 142.529 83.0941 140.627C84.115 139.823 85.0414 139.941 85.93 140.921C86.1569 141.176 86.3649 141.411 86.6863 141.784C87.348 140.196 86.4405 139.235 85.8166 138.118C86.0624 138.059 86.2893 137.98 86.535 137.922C89.9004 137.216 93.3035 136.765 96.5932 135.804C108.599 132.295 118.959 125.865 127.656 116.552C129.188 115.003 129.112 114.768 126.995 114.102ZM100.242 119.277C100.772 118.532 101.49 117.905 102.057 117.199C103.551 115.356 105.574 114.592 107.767 114.435C110.263 114.259 112.777 114.396 115.424 114.396C115.254 114.749 115.235 114.847 115.178 114.905C113.647 116.493 112.021 118.003 110.622 119.709C109.204 121.453 107.54 122.571 105.366 122.845C103.551 123.081 101.755 123.277 99.9396 123.492C99.9018 123.414 99.8451 123.336 99.8073 123.257C100.261 122.865 100.677 122.414 101.187 122.1C102.624 121.218 104.08 120.395 105.536 119.532C106.443 119.003 107.275 118.395 107.616 117.336C106.765 117.944 105.952 118.63 105.044 119.101C102.984 120.179 100.979 121.316 99.3346 123.022C99.2212 123.14 99.0889 123.198 98.8431 123.375C98.8998 121.767 99.4103 120.454 100.242 119.277ZM94.022 123.806C92.4527 124.806 90.6944 125.649 89.2765 126.923C87.8396 128.198 86.743 129.864 85.3818 131.334C86.0246 129.727 86.6674 128.119 87.4047 126.296C85.5519 127.002 84.0961 128.002 82.5647 129.374C82.7916 128.021 82.9806 126.904 83.2264 125.472C82.7538 125.786 82.5269 125.923 82.2055 126.119C82.2055 125.276 82.2055 124.551 82.2055 123.826C82.1488 123.786 82.0731 123.747 82.0164 123.708C81.2602 124.669 80.5039 125.649 79.6909 126.688C79.1048 124.669 78.5377 122.689 77.9326 120.552C77.4789 122.669 77.063 124.629 76.647 126.57C75.834 125.551 74.9454 124.453 73.9812 123.238C73.9056 124.237 73.8111 125.178 73.7354 126.296C73.3573 125.884 73.0926 125.59 72.8279 125.296C72.7334 125.316 72.6578 125.335 72.5632 125.355C72.9036 126.688 73.2439 128.002 73.5653 129.256C72.2797 128.394 70.9751 127.511 69.6517 126.649C69.4815 126.531 69.2168 126.57 69.0089 126.531C69.0278 126.786 68.9899 127.041 69.0656 127.276C69.5004 128.609 69.9731 129.942 70.3323 131.374C68.2148 127.845 65.6813 124.884 61.4463 124.022C70.5781 115.866 87.2346 117.533 94.022 123.806ZM41.33 114.455C43.5987 114.455 45.8675 114.259 48.0984 114.533C51.218 114.905 53.846 116.435 55.4152 119.375C56.0391 120.532 56.3038 121.885 56.7386 123.159C54.0539 121.277 51.4638 119.434 48.8547 117.611C48.798 117.631 48.7602 117.67 48.7034 117.689C49.0816 118.16 49.3841 118.709 49.8567 119.042C50.8966 119.807 52.0499 120.454 53.1086 121.199C54.035 121.846 54.9047 122.571 55.8122 123.257C55.7744 123.355 55.7366 123.434 55.7177 123.532C54.9614 123.453 54.2052 123.375 53.4489 123.277C52.6738 123.179 51.8986 123.002 51.1234 122.924C48.4955 122.669 46.4536 121.453 44.8654 119.238C43.8823 117.866 42.6156 116.709 41.4812 115.454C41.2543 115.2 40.9896 114.964 40.6304 114.631C40.9329 114.553 41.122 114.455 41.33 114.455ZM30.7613 116.866C30.5722 116.65 30.3643 116.435 30.1941 116.219C30.1374 116.16 30.1374 116.043 30.0807 115.768C30.9126 115.905 31.6688 116.023 32.5763 116.18C32.1037 115.886 31.7633 115.69 31.1962 115.356C31.6877 115.219 31.9524 115.102 32.236 115.043C36.7168 114.141 40.101 115.945 42.7668 119.552C43.1072 120.022 43.4664 120.473 43.7878 120.963C45.6595 123.747 48.3442 125.002 51.5016 125.237C53.0708 125.355 54.64 125.237 56.2093 125.257C56.5874 125.257 56.9655 125.414 57.3436 125.492C57.1546 125.865 57.0411 126.414 56.7386 126.59C55.8311 127.139 54.8858 127.845 53.8838 127.943C49.5731 128.394 45.4137 128.119 41.5568 125.551C37.6999 122.983 33.9754 120.258 30.7613 116.866ZM57.9675 133.51C55.0749 132.354 52.2011 131.217 49.2139 130.021C51.1045 130.021 52.825 129.844 54.5077 130.06C56.266 130.276 57.1546 131.844 58.1566 133.138C58.081 133.275 58.0243 133.393 57.9675 133.51ZM66.4565 134.844C66.3052 135.02 65.9649 135.216 65.7759 135.157C63.0912 134.55 60.7846 133.334 59.3099 130.707C61.6921 130.962 64.1121 131.021 66.1729 132.491C67.1938 133.236 67.2695 133.903 66.4565 134.844ZM57.5894 128.864C57.5705 128.727 57.5516 128.609 57.5516 128.472C58.3646 127.492 59.1776 126.512 60.0283 125.571C60.1985 125.374 60.5955 125.296 60.8602 125.335C64.1121 125.884 66.2485 127.903 67.6287 130.923C67.6476 130.962 67.6098 131.04 67.5909 131.256C64.6037 128.845 61.0682 128.982 57.5894 128.864ZM67.5531 135.941C67.7421 135.53 67.8556 135.334 67.9312 135.118C68.3471 134.197 68.7253 133.138 69.8785 133.118C71.1831 133.099 72.1851 133.863 72.9414 134.922C73.4897 135.687 73.1493 136.432 72.2418 136.392C70.7293 136.334 69.2168 136.118 67.5531 135.941ZM72.9036 138.588C72.9036 138.471 72.9036 138.353 72.9036 138.255C73.4708 138.216 74.0758 138.02 74.5673 138.196C74.9454 138.333 75.1534 138.941 75.5126 139.451C74.1514 139.98 73.7354 138.765 72.9036 138.588ZM78.2352 143.685C78.1595 143.685 78.0839 143.666 78.0083 143.666C77.7058 142.313 77.4033 140.96 77.1386 139.608C76.8739 138.274 77.0441 138.098 78.3297 138.274C78.4809 138.294 78.6322 138.333 79.067 138.431C78.7834 140.215 78.5187 141.941 78.2352 143.685ZM79.8611 135.667C79.4641 136.628 78.9158 136.765 78.2162 136.04C77.8948 135.706 77.4978 135.471 77.3466 134.922C77.2709 134.648 76.7226 134.491 76.1933 134.157C75.9475 132.824 76.3256 131.962 77.8948 130.393C79.8044 131.432 80.6552 133.667 79.8611 135.667ZM80.9577 138.961C81.2034 137.922 81.5627 137.784 82.9239 138.353C82.3567 139.098 81.8274 139.666 80.9577 138.961ZM84.323 136.49C83.8125 136.51 83.1886 136.04 82.8105 135.608C82.6781 135.471 83.0563 134.667 83.3588 134.334C84.1339 133.491 85.0793 132.844 86.2893 133.177C87.2157 133.432 88.1421 134.824 88.1988 135.941C86.9132 136.138 85.6086 136.451 84.323 136.49ZM93.6249 134.02C92.8309 134.412 91.9801 134.648 91.186 135.02C90.373 135.393 89.8058 135.02 89.3899 134.393C88.9172 133.667 89.3521 133.099 89.9004 132.628C90.1462 132.413 90.3919 132.217 90.6755 132.079C92.6229 131.138 94.7026 131.001 97.047 130.668C96.1017 132.315 95.0051 133.334 93.6249 134.02ZM92.3015 129.354C92.4905 129.217 92.7741 129.041 93.0388 128.845C93.001 128.747 92.9443 128.668 92.9065 128.57C91.4318 129.393 89.976 130.197 88.5391 131.001C89.579 128.178 91.6398 125.669 94.8349 125.649C95.0429 125.649 95.3265 125.61 95.4777 125.727C96.4609 126.57 97.3684 127.472 97.8032 128.805C95.8937 129.001 94.0787 129.178 92.3015 129.354ZM99.3346 132.883C99.0889 133.001 98.7296 132.864 98.4271 132.844C98.4839 132.53 98.4839 132.158 98.6351 131.883C99.5237 130.295 100.847 129.648 102.624 129.962C103.21 130.06 103.815 129.982 104.402 129.982C104.458 130.08 104.515 130.197 104.572 130.295C102.832 131.158 101.093 132.04 99.3346 132.883ZM121.852 119.669C119.186 121.806 116.445 123.826 113.722 125.865C111.813 127.296 109.62 128.002 107.275 128.08C105.385 128.139 103.494 128.08 101.622 127.943C100.904 127.884 100.204 127.511 99.5048 127.198C98.6351 126.806 98.3326 126.119 98.6351 125.061C98.9565 125.1 99.2779 125.1 99.6182 125.159C101.811 125.551 104.005 125.453 106.198 125.002C108.939 124.433 111 122.826 112.531 120.434C113.893 118.297 115.594 116.552 117.901 115.513C119.621 114.749 121.361 114.611 123.176 114.964C123.591 115.043 123.97 115.278 124.48 115.494C124.045 115.709 123.743 115.886 123.194 116.16C123.932 116.16 124.423 116.16 124.896 116.16C124.934 116.258 124.991 116.337 125.028 116.435C123.989 117.513 123.024 118.728 121.852 119.669Z" fill="#FBFBFB"/>
<path d="M78.9177 122.884C78.0291 121.904 77.2917 120.787 76.3464 119.885C75.3444 118.944 74.1533 118.218 73.0567 117.395C73.0378 117.434 73.0189 117.473 73 117.532C74.2289 118.728 75.4956 119.865 76.6867 121.1C77.5375 121.983 78.2182 123.022 79.0689 123.865C79.9575 124.727 80.9785 125.453 81.9427 126.217C82.0183 126.119 82.0751 126.041 82.1507 125.943C81.8104 125.668 81.47 125.394 81.1486 125.08C80.3924 124.374 79.6172 123.669 78.9177 122.884Z" fill="#FBFBFB"/>
<path d="M74 124.904C74.4348 124.65 74.8697 124.355 75.1911 123.983C75.9663 123.12 76.628 122.14 77.441 121.356C78.9535 119.905 80.5416 118.552 81.9218 117.337C78.3863 118.552 76.2309 121.768 74 124.904Z" fill="#FBFBFB"/>
<path d="M110.399 105.087C109.263 105.588 108.003 105.839 106.619 105.839C104.951 105.839 103.053 105.588 100.923 105.087C99.007 104.622 97.552 104.138 96.5583 103.637C96.5583 103.566 96.6293 102.993 96.7713 101.919C96.8777 101.096 96.8777 100.487 96.7713 100.093C96.2744 98.3391 95.7066 96.8355 95.0679 95.5826C93.6483 93.3631 91.6788 90.2307 89.1591 86.1854C88.5204 85.1472 86.7105 82.8382 83.7295 79.2584C80.2517 75.0699 78.158 72.9757 77.4482 72.9757C76.2771 72.9757 73.8107 77.8264 70.049 87.5279C68.3811 91.8595 65.9502 97.1219 62.7563 103.315C62.3659 104.067 61.4965 104.443 60.1479 104.443C59.0123 104.443 57.7703 103.995 56.4217 103.1C54.9667 102.098 54.2392 101.096 54.2392 100.093C54.2392 99.8068 54.6473 98.9835 55.4636 97.6231C56.2798 96.227 56.6879 95.3499 56.6879 94.9919C56.6879 93.4168 53.7069 89.3536 47.745 82.8024C41.996 76.4661 38.7843 73.2979 38.1101 73.2979C37.2938 73.2979 36.0518 74.9088 34.3838 78.1307C33.5676 79.8848 32.7337 81.6211 31.882 83.3394C30.0721 86.9551 28.2445 90.5529 26.3991 94.1327C24.0214 98.6792 21.6083 102.187 19.1596 104.658C18.6273 105.23 17.3675 105.517 15.3802 105.517C14.2091 105.517 13.3041 105.302 12.6653 104.872C11.7427 104.192 10.8377 103.494 9.95054 102.778C8.74396 101.883 7.09378 100.738 5 99.3414C5.70975 99.055 6.15335 98.9119 6.33079 98.9119L6.49048 98.9656H6.75664C7.14701 98.9656 7.69707 98.9477 8.40682 98.9119C9.25853 98.8761 9.79084 98.8582 10.0038 98.8582C10.6425 98.8582 11.1394 98.536 11.4943 97.8916C13.1977 94.7055 15.9657 89.3357 19.7984 81.7822C28.209 64.4914 34.2596 55.846 37.9504 55.846C39.015 55.846 40.399 56.2577 42.1024 57.0811C43.9478 58.0118 44.8705 58.871 44.8705 59.6586C44.8705 59.945 44.2849 61.0547 43.1138 62.9878C41.9782 64.921 41.4104 66.0307 41.4104 66.3171C41.4104 67.3195 44.2849 70.792 50.0339 76.7345C54.7538 81.639 57.8412 84.6998 59.2962 85.9169C60.006 85.5947 60.7157 84.7177 61.4255 83.2857C61.8868 82.2118 62.3482 81.1378 62.8095 80.0638C65.0452 74.9804 67.281 69.897 69.5167 64.8136C73.1364 56.9379 75.6738 53 77.1288 53C77.945 53 79.4178 53.895 81.547 55.6849C83.6763 57.439 84.7409 58.8173 84.7409 59.8197C84.7409 60.1776 84.1731 61.2158 83.0375 62.9341C81.4761 65.1895 80.5534 66.6035 80.2695 67.1763L110.399 103.852V105.087Z" fill="#FBFBFB"/>
<path d="M152 61.6991C152 62.7015 151.45 63.6859 150.35 64.6525C149.285 65.619 148.309 66.1023 147.422 66.1023C146.748 66.1023 146.215 65.6548 145.825 64.7599C145.328 63.5427 144.743 62.7015 144.068 62.2361C143.217 61.6275 141.815 61.0547 139.863 60.5177C137.947 59.9808 136.279 59.7123 134.859 59.7123C132.056 59.7123 129.27 60.6072 126.502 62.3972C123.521 64.3661 121.197 67.0331 119.529 70.3982C118.677 72.0807 118.251 73.1189 118.251 73.5127C118.18 74.694 118.429 75.4458 118.996 75.768C119.209 75.8754 119.671 75.9291 120.38 75.9291H128.897C129.039 75.9291 129.643 76.0007 130.707 76.1439C131.807 76.2513 132.429 76.305 132.57 76.305H144.867C145.825 76.305 146.73 76.4482 147.582 76.7345C148.788 77.1641 149.392 77.7727 149.392 78.5603C149.392 79.3121 148.646 80.1891 147.156 81.1915C145.878 82.0507 144.956 82.5876 144.388 82.8024C144.033 82.9456 143.589 83.0172 143.057 83.0172C142.809 83.0172 142.046 82.6592 140.768 81.9433C139.491 81.1915 138.426 80.8156 137.574 80.8156L125.331 80.9767C125.26 80.9767 123.823 81.0662 121.019 81.2452C118.961 81.3526 117.914 81.6927 117.879 82.2655C117.772 83.232 117.719 83.8943 117.719 84.2523C117.861 85.1114 118.038 86.3286 118.251 87.9038C118.677 91.5552 120.824 94.6697 124.692 97.2472C128.028 99.5383 131.293 100.684 134.487 100.684C135.622 100.684 137.06 100.469 138.799 100.04C140.183 99.6457 141.567 99.2698 142.951 98.9119C143.376 98.8045 144.441 98.3749 146.145 97.6231C147.564 97.0145 148.593 96.7102 149.232 96.7102C149.906 96.7102 150.243 97.0861 150.243 97.8379C150.243 98.4823 149.658 99.3056 148.487 100.308C147.529 101.131 146.624 101.722 145.772 102.08C143.394 103.154 141.921 103.798 141.354 104.013C139.863 104.622 138.39 105.105 136.935 105.463C135.48 105.821 134.008 106 132.517 106C129.749 106 127.301 105.767 125.171 105.302C124.71 105.195 122.705 104.3 119.156 102.617C114.827 100.576 111.579 97.3546 109.415 92.9514C107.64 89.3357 106.753 85.3978 106.753 81.1378C106.753 79.67 106.806 78.6498 106.913 78.077C107.055 76.9672 107.498 75.3026 108.244 73.0831C109.628 68.823 111.934 65.2611 115.164 62.3972C117.293 60.4998 119.582 58.9963 122.031 57.8865C122.598 57.6001 124.426 57.0095 127.513 56.1145C130.352 55.2911 133.227 54.8794 136.137 54.8794C138.834 54.8794 141.691 55.2553 144.707 56.0071C149.569 57.2242 152 59.1216 152 61.6991Z" fill="#FBFBFB"/>
</svg>
