<svg width="286" height="73" viewBox="0 0 286 73" fill="none" xmlns="http://www.w3.org/2000/svg">
<path d="M261.019 1.22954C260.337 3.455 259.92 5.69403 260.032 8.04162C260.143 10.1857 260.004 12.3297 260.129 14.4737C260.379 18.5447 262.993 21.6386 266.982 22.7514C267.163 22.8056 267.344 22.8735 267.566 22.9549C264.202 26.9445 262.881 31.5446 262.867 36.5384C262.84 41.5592 264.188 46.1594 267.608 50.1082C267.372 50.1897 267.26 50.2575 267.121 50.2847C263.187 51.3024 260.838 53.84 260.282 57.7074C259.934 60.1093 260.045 62.5654 260.004 65.008C259.962 67.4641 260.268 69.8796 261.144 72.2C261.505 73.1635 261.728 73.2313 262.534 72.5393C262.645 72.4443 262.742 72.3629 262.84 72.2679C265.648 69.7981 267.914 66.9078 269.943 63.8003C273.919 57.7481 276.547 51.2074 277.631 44.0832C277.742 43.3369 277.881 42.5905 278.006 41.817C279.758 42.7941 279.953 42.8348 280.564 42.4277C280.523 42.3734 280.481 42.3191 280.425 42.2784C279.23 41.4371 279.174 40.9486 280.064 39.8494C281.44 38.1532 283.261 37.149 285.347 36.5519C285.569 36.4841 285.778 36.4162 286 36.3484C285.68 36.1448 285.388 36.0906 285.11 36.0091C282.997 35.4663 281.176 34.4622 279.828 32.7388C279.258 32.006 279.341 31.3411 280.036 30.7033C280.217 30.5405 280.384 30.3912 280.648 30.1605C279.522 29.6856 278.841 30.3369 278.048 30.7847C278.006 30.6083 277.951 30.4455 277.909 30.2691C277.409 27.8536 277.089 25.4111 276.408 23.0499C273.919 14.433 269.36 6.99674 262.756 0.754592C261.658 -0.344568 261.491 -0.290288 261.019 1.22954ZM264.689 20.4309C264.16 20.051 263.715 19.5353 263.215 19.1282C261.908 18.0562 261.366 16.6042 261.255 15.0301C261.13 13.2389 261.227 11.4341 261.227 9.5343C261.477 9.65643 261.547 9.67 261.589 9.71071C262.715 10.8099 263.785 11.9769 264.994 12.9811C266.232 13.9988 267.024 15.1929 267.219 16.7535C267.386 18.0562 267.525 19.3453 267.677 20.648C267.622 20.6752 267.566 20.7159 267.511 20.743C267.233 20.4173 266.913 20.1188 266.69 19.7524C266.065 18.7211 265.481 17.6762 264.869 16.6314C264.494 15.98 264.063 15.3829 263.312 15.1387C263.743 15.7493 264.23 16.3328 264.563 16.9842C265.328 18.4633 266.134 19.9017 267.344 21.0823C267.427 21.1637 267.469 21.2587 267.594 21.4351C266.454 21.3944 265.523 21.028 264.689 20.4309ZM267.9 24.8954C268.609 26.0217 269.207 27.2837 270.11 28.3014C271.014 29.3328 272.196 30.1198 273.238 31.0968C272.098 30.6355 270.958 30.1741 269.665 29.6449C270.166 30.9747 270.875 32.0196 271.848 33.1188C270.889 32.9559 270.096 32.8202 269.082 32.6438C269.304 32.9831 269.401 33.1459 269.54 33.3766C268.943 33.3766 268.428 33.3766 267.914 33.3766C267.886 33.4173 267.858 33.4716 267.83 33.5123C268.512 34.0551 269.207 34.5979 269.943 35.1814C268.512 35.602 267.107 36.0091 265.592 36.4434C267.094 36.7691 268.484 37.0676 269.86 37.3661C269.137 37.9496 268.359 38.5874 267.497 39.2795C268.206 39.3338 268.873 39.4016 269.665 39.4559C269.373 39.7273 269.165 39.9173 268.956 40.1072C268.97 40.1751 268.984 40.2294 268.998 40.2972C269.943 40.053 270.875 39.8087 271.765 39.578C271.153 40.5008 270.527 41.4371 269.916 42.387C269.832 42.5091 269.86 42.6991 269.832 42.8484C270.013 42.8348 270.194 42.8619 270.361 42.8077C271.306 42.4955 272.251 42.1563 273.266 41.8985C270.764 43.4183 268.664 45.2367 268.053 48.2763C262.27 41.7221 263.451 29.767 267.9 24.8954ZM261.269 62.7147C261.269 61.0863 261.13 59.4579 261.324 57.8567C261.589 55.6176 262.673 53.7314 264.758 52.6051C265.578 52.1573 266.538 51.9673 267.441 51.6552C266.107 53.5821 264.8 55.4412 263.507 57.3139C263.521 57.3546 263.549 57.3817 263.563 57.4224C263.896 57.151 264.285 56.9339 264.522 56.5947C265.064 55.8483 265.523 55.0205 266.051 54.2606C266.51 53.5957 267.024 52.9715 267.511 52.3201C267.58 52.3473 267.636 52.3744 267.705 52.388C267.65 52.9308 267.594 53.4736 267.525 54.0164C267.455 54.5727 267.33 55.1291 267.274 55.6855C267.094 57.5717 266.232 59.0372 264.661 60.1771C263.688 60.8827 262.867 61.7919 261.978 62.6061C261.797 62.7689 261.63 62.9589 261.394 63.2168C261.338 62.9996 261.269 62.8639 261.269 62.7147ZM262.979 70.3002C262.826 70.4359 262.673 70.5852 262.52 70.7073C262.478 70.748 262.395 70.748 262.2 70.7887C262.297 70.1917 262.381 69.6489 262.492 68.9975C262.284 69.3368 262.145 69.581 261.908 69.9881C261.811 69.6353 261.728 69.4453 261.686 69.2418C261.046 66.0257 262.325 63.5967 264.883 61.6834C265.217 61.4391 265.537 61.1813 265.884 60.9506C267.858 59.6072 268.748 57.6802 268.915 55.4141C268.998 54.2878 268.915 53.1615 268.929 52.0352C268.929 51.7638 269.04 51.4924 269.095 51.221C269.36 51.3567 269.749 51.4381 269.874 51.6552C270.263 52.3066 270.764 52.9851 270.833 53.7043C271.153 56.7982 270.958 59.7836 269.137 62.5518C267.316 65.3201 265.384 67.9934 262.979 70.3002ZM274.781 50.7732C273.961 52.8494 273.155 54.912 272.307 57.056C272.307 55.699 272.182 54.4642 272.335 53.2565C272.487 51.9945 273.6 51.3567 274.517 50.6375C274.614 50.6918 274.698 50.7325 274.781 50.7732ZM275.727 44.6803C275.852 44.7889 275.991 45.0331 275.949 45.1688C275.518 47.0957 274.656 48.7513 272.793 49.8097C272.974 48.0999 273.016 46.363 274.058 44.8838C274.587 44.1511 275.059 44.0968 275.727 44.6803ZM271.487 51.0446C271.389 51.0581 271.306 51.0717 271.209 51.0717C270.513 50.4882 269.818 49.9047 269.151 49.2941C269.012 49.1719 268.956 48.887 268.984 48.697C269.373 46.363 270.805 44.8296 272.946 43.839C272.974 43.8254 273.03 43.8525 273.183 43.8661C271.473 46.0101 271.57 48.5477 271.487 51.0446ZM276.505 43.8932C276.213 43.7575 276.074 43.6761 275.921 43.6218C275.268 43.3233 274.517 43.0519 274.503 42.2241C274.489 41.2878 275.032 40.5686 275.782 40.0258C276.324 39.6323 276.853 39.8766 276.825 40.5279C276.783 41.6135 276.63 42.6991 276.505 43.8932ZM278.382 40.053C278.298 40.053 278.215 40.053 278.146 40.053C278.118 39.6459 277.979 39.2116 278.104 38.8588C278.201 38.5874 278.632 38.4382 278.994 38.1803C279.369 39.1574 278.507 39.4559 278.382 40.053ZM281.996 36.2263C281.996 36.2805 281.982 36.3348 281.982 36.3891C281.023 36.6062 280.064 36.8233 279.105 37.0133C278.159 37.2033 278.034 37.0812 278.159 36.1584C278.173 36.0499 278.201 35.9413 278.271 35.6292C279.536 35.8327 280.759 36.0227 281.996 36.2263ZM276.31 35.0592C276.992 35.3442 277.089 35.7377 276.575 36.2398C276.338 36.4705 276.171 36.7555 275.782 36.864C275.588 36.9183 275.476 37.3118 275.24 37.6918C274.295 37.8682 273.683 37.5968 272.571 36.4705C273.308 35.1 274.892 34.4893 276.31 35.0592ZM278.646 34.2722C277.909 34.0958 277.812 33.838 278.215 32.8609C278.743 33.268 279.146 33.648 278.646 34.2722ZM276.894 31.8568C276.908 32.2231 276.575 32.6709 276.269 32.9423C276.171 33.0373 275.601 32.7659 275.365 32.5488C274.767 31.9925 274.309 31.314 274.545 30.4455C274.726 29.7806 275.713 29.1156 276.505 29.0749C276.644 29.9977 276.867 30.934 276.894 31.8568ZM275.143 25.1804C275.421 25.7503 275.588 26.361 275.852 26.9309C276.116 27.5144 275.852 27.9215 275.407 28.22C274.892 28.5593 274.489 28.2472 274.156 27.8536C274.003 27.6772 273.864 27.5008 273.766 27.2973C273.099 25.8996 273.002 24.4069 272.766 22.7242C273.933 23.4027 274.656 24.1898 275.143 25.1804ZM271.834 26.1303C271.737 25.9946 271.612 25.791 271.473 25.601C271.403 25.6282 271.348 25.6689 271.278 25.696C271.862 26.7545 272.432 27.7994 273.002 28.8307C271 28.0843 269.221 26.6052 269.207 24.3119C269.207 24.1626 269.179 23.9591 269.262 23.8505C269.86 23.1449 270.5 22.4935 271.445 22.1814C271.584 23.552 271.709 24.8547 271.834 26.1303ZM274.336 21.0823C274.42 21.2587 274.323 21.5165 274.309 21.7336C274.086 21.6929 273.822 21.6929 273.627 21.5844C272.501 20.9466 272.043 19.9967 272.265 18.7211C272.335 18.3004 272.279 17.8662 272.279 17.4455C272.348 17.4048 272.432 17.3641 272.501 17.3234C273.113 18.5718 273.739 19.8203 274.336 21.0823ZM264.967 4.92055C266.482 6.8339 267.914 8.80153 269.36 10.7556C270.374 12.1262 270.875 13.7003 270.93 15.3829C270.972 16.7399 270.93 18.0969 270.833 19.4403C270.791 19.956 270.527 20.4581 270.305 20.9601C270.027 21.5844 269.54 21.8015 268.79 21.5844C268.817 21.3537 268.817 21.123 268.859 20.8787C269.137 19.3046 269.068 17.7305 268.748 16.1564C268.345 14.1888 267.205 12.7097 265.509 11.6105C263.994 10.6335 262.756 9.41217 262.019 7.75664C261.477 6.52179 261.38 5.27336 261.63 3.97065C261.686 3.67212 261.853 3.40072 262.006 3.03433C262.158 3.34644 262.284 3.56355 262.478 3.95708C262.478 3.42785 262.478 3.07504 262.478 2.7358C262.548 2.70866 262.603 2.66794 262.673 2.6408C263.437 3.38714 264.299 4.07921 264.967 4.92055Z" fill="#DCA579"/>
<path d="M24.9815 71.7702C25.6626 69.5448 26.0797 67.3057 25.9685 64.9581C25.8573 62.8141 25.9963 60.6701 25.8712 58.526C25.6209 54.4551 23.0074 51.3611 19.0176 50.2484C18.8369 50.1941 18.6562 50.1263 18.4337 50.0448C21.798 46.0553 23.1186 41.4551 23.1325 36.4614C23.1603 31.4405 21.8119 26.8403 18.392 22.8915C18.6284 22.8101 18.7396 22.7422 18.8786 22.7151C22.8128 21.6974 25.1622 19.1598 25.7183 15.2924C26.0658 12.8905 25.9546 10.4344 25.9963 7.99178C26.038 5.53563 25.7322 3.12019 24.8564 0.79974C24.4949 -0.163721 24.2725 -0.231571 23.4662 0.460493C23.355 0.555482 23.2577 0.636902 23.1603 0.731891C20.3522 3.20161 18.0862 6.09199 16.0565 9.1995C12.0806 15.2517 9.4532 21.7923 8.36886 28.9165C8.25765 29.6629 8.11863 30.4092 7.99352 31.1827C6.24189 30.2057 6.04727 30.165 5.4356 30.5721C5.4773 30.6263 5.51901 30.6806 5.57461 30.7213C6.77017 31.5627 6.82577 32.0512 5.93606 33.1503C4.55978 34.8466 2.73865 35.8507 0.653387 36.4478C0.430959 36.5157 0.22243 36.5835 2.21261e-06 36.6514C0.319743 36.8549 0.611686 36.9092 0.889721 36.9906C3.00279 37.5334 4.82392 38.5376 6.17239 40.261C6.74236 40.9937 6.65895 41.6587 5.96386 42.2964C5.78314 42.4593 5.61631 42.6085 5.35218 42.8392C6.47822 43.3142 7.15941 42.6628 7.95181 42.215C7.99352 42.3914 8.04912 42.5543 8.09083 42.7307C8.59129 45.1461 8.91103 47.5887 9.59222 49.9499C12.0806 58.5667 16.6404 66.003 23.2437 72.2452C24.342 73.3443 24.5088 73.29 24.9815 71.7702ZM21.3114 52.5688C21.8397 52.9488 22.2845 53.4645 22.785 53.8715C24.0918 54.9436 24.6339 56.3955 24.7451 57.9696C24.8702 59.7609 24.7729 61.5657 24.7729 63.4655C24.5227 63.3433 24.4532 63.3298 24.4115 63.289C23.2855 62.1899 22.215 61.0229 21.0056 60.0187C19.7683 59.001 18.9759 57.8068 18.7813 56.2463C18.6145 54.9436 18.4754 53.6544 18.3225 52.3517C18.3781 52.3246 18.4337 52.2839 18.4893 52.2567C18.7674 52.5824 19.0871 52.8809 19.3095 53.2473C19.9351 54.2786 20.519 55.3235 21.1307 56.3684C21.506 57.0198 21.937 57.6168 22.6877 57.8611C22.2567 57.2504 21.7702 56.6669 21.4365 56.0156C20.6719 54.5365 19.8656 53.0981 18.6562 51.9175C18.5728 51.8361 18.531 51.7411 18.4059 51.5647C19.5459 51.6054 20.4773 51.9718 21.3114 52.5688ZM18.1001 48.1043C17.3911 46.978 16.7933 45.716 15.8897 44.6983C14.9861 43.667 13.8045 42.8799 12.7618 41.9029C13.9018 42.3643 15.0417 42.8257 16.3346 43.3549C15.8341 42.025 15.1251 40.9802 14.152 39.881C15.1112 40.0438 15.9036 40.1795 16.9184 40.3559C16.696 40.0167 16.5987 39.8539 16.4597 39.6232C17.0575 39.6232 17.5718 39.6232 18.0862 39.6232C18.114 39.5825 18.1418 39.5282 18.1696 39.4875C17.4884 38.9447 16.7933 38.4019 16.0565 37.8184C17.4884 37.3977 18.8925 36.9906 20.4078 36.5564C18.9064 36.2307 17.5162 35.9322 16.14 35.6336C16.8628 35.0501 17.6413 34.4123 18.5032 33.7203C17.7943 33.666 17.127 33.5981 16.3346 33.5439C16.6265 33.2725 16.835 33.0825 17.0436 32.8925C17.0297 32.8247 17.0158 32.7704 17.0019 32.7025C16.0565 32.9468 15.1251 33.191 14.2354 33.4217C14.8471 32.499 15.4727 31.5627 16.0843 30.6128C16.1678 30.4906 16.14 30.3007 16.1678 30.1514C15.987 30.165 15.8063 30.1378 15.6395 30.1921C14.6942 30.5042 13.7488 30.8435 12.734 31.1013C15.2363 29.5815 17.3355 27.7631 17.9472 24.7234C23.7303 31.2777 22.5487 43.2328 18.1001 48.1043ZM24.7312 10.2851C24.7312 11.9135 24.8703 13.5419 24.6756 15.1431C24.4115 17.3821 23.3272 19.2684 21.2419 20.3947C20.4217 20.8425 19.4625 21.0324 18.5589 21.3445C19.8934 19.4176 21.2002 17.5585 22.4931 15.6859C22.4792 15.6452 22.4513 15.618 22.4374 15.5773C22.1038 15.8487 21.7146 16.0659 21.4782 16.4051C20.9361 17.1514 20.4773 17.9792 19.949 18.7391C19.4903 19.404 18.9759 20.0283 18.4893 20.6796C18.4198 20.6525 18.3642 20.6253 18.2947 20.6118C18.3503 20.069 18.4059 19.5262 18.4754 18.9834C18.545 18.427 18.6701 17.8707 18.7257 17.3143C18.9064 15.4281 19.7683 13.9625 21.3392 12.8227C22.3123 12.117 23.1325 11.2078 24.0222 10.3936C24.203 10.2308 24.3698 10.0408 24.6061 9.783C24.6617 10.0001 24.7312 10.1358 24.7312 10.2851ZM23.0213 2.69952C23.1742 2.56382 23.3272 2.41456 23.4801 2.29243C23.5218 2.25172 23.6052 2.25172 23.7998 2.21101C23.7025 2.80808 23.6191 3.35088 23.5079 4.00223C23.7164 3.66298 23.8554 3.41873 24.0918 3.01163C24.1891 3.36445 24.2725 3.55443 24.3142 3.75797C24.9537 6.97404 23.6747 9.40305 21.1168 11.3164C20.7831 11.5607 20.4634 11.8185 20.1159 12.0492C18.1418 13.3926 17.2521 15.3195 17.0853 17.5857C17.0019 18.712 17.0853 19.8383 17.0714 20.9646C17.0714 21.236 16.9602 21.5074 16.9045 21.7788C16.6404 21.6431 16.2512 21.5617 16.126 21.3445C15.7368 20.6932 15.2363 20.0147 15.1668 19.2955C14.8471 16.2016 15.0417 13.2162 16.8628 10.4479C18.684 7.67967 20.6163 5.0064 23.0213 2.69952ZM11.2187 22.2266C12.0389 20.1504 12.8452 18.0878 13.6932 15.9437C13.6932 17.3007 13.8184 18.5356 13.6654 19.7433C13.5125 21.0053 12.4004 21.6431 11.4829 22.3623C11.3855 22.308 11.3021 22.2673 11.2187 22.2266ZM10.2734 28.3195C10.1483 28.2109 10.0093 27.9666 10.051 27.8309C10.4819 25.904 11.3438 24.2485 13.2067 23.19C13.026 24.8998 12.9842 26.6368 11.9416 28.1159C11.4134 28.8487 10.9407 28.903 10.2734 28.3195ZM14.5134 21.9552C14.6108 21.9416 14.6942 21.928 14.7915 21.928C15.4866 22.5116 16.1817 23.0951 16.8489 23.7057C16.988 23.8278 17.0436 24.1128 17.0158 24.3028C16.6265 26.6368 15.1946 28.1702 13.0538 29.1608C13.026 29.1744 12.9703 29.1472 12.8174 29.1337C14.5273 26.9896 14.43 24.452 14.5134 21.9552ZM9.49491 29.1065C9.78685 29.2422 9.92586 29.3236 10.0788 29.3779C10.7322 29.6764 11.4829 29.9478 11.4968 30.7756C11.5107 31.7119 10.9685 32.4311 10.2178 32.9739C9.67563 33.3675 9.14736 33.1232 9.17516 32.4718C9.21687 31.3863 9.36979 30.3007 9.49491 29.1065ZM7.61818 32.9468C7.70159 32.9468 7.78499 32.9468 7.8545 32.9468C7.8823 33.3539 8.02132 33.7881 7.89621 34.1409C7.7989 34.4123 7.36794 34.5616 7.00649 34.8194C6.63115 33.8424 7.49306 33.5439 7.61818 32.9468ZM4.00372 36.7735C4.00372 36.7192 4.01761 36.6649 4.01761 36.6107C4.97684 36.3935 5.93606 36.1764 6.89528 35.9864C7.8406 35.7965 7.96572 35.9186 7.8406 36.8413C7.8267 36.9499 7.79889 37.0585 7.72939 37.3706C6.46433 37.167 5.24097 36.977 4.00372 36.7735ZM9.68953 37.9405C9.00834 37.6555 8.91104 37.262 9.4254 36.7599C9.66173 36.5292 9.82855 36.2443 10.2178 36.1357C10.4124 36.0814 10.5236 35.6879 10.76 35.3079C11.7053 35.1315 12.317 35.4029 13.4291 36.5292C12.6923 37.8998 11.1075 38.5104 9.68953 37.9405ZM7.35404 38.7276C8.09083 38.904 8.18814 39.1618 7.78499 40.1388C7.25672 39.7317 6.85357 39.3518 7.35404 38.7276ZM9.10565 41.143C9.09175 40.7766 9.4254 40.3288 9.73123 40.0574C9.82855 39.9624 10.3985 40.2338 10.6348 40.4509C11.2326 41.0073 11.6914 41.6858 11.4551 42.5543C11.2743 43.2192 10.2873 43.8841 9.49491 43.9248C9.35589 43.0021 9.13346 42.0657 9.10565 41.143ZM10.8573 47.8194C10.5792 47.2494 10.4124 46.6388 10.1483 46.0689C9.88415 45.4854 10.1483 45.0783 10.5931 44.7797C11.1075 44.4405 11.5107 44.7526 11.8443 45.1461C11.9972 45.3225 12.1362 45.4989 12.2335 45.7025C12.9008 47.1002 12.9981 48.5929 13.2345 50.2755C12.0667 49.597 11.3438 48.81 10.8573 47.8194ZM14.1659 46.8695C14.2632 47.0052 14.3883 47.2087 14.5273 47.3987C14.5968 47.3716 14.6525 47.3309 14.722 47.3037C14.1381 46.2453 13.5681 45.2004 12.9981 44.1691C15 44.9154 16.7794 46.3945 16.7933 48.6879C16.7933 48.8371 16.8211 49.0407 16.7377 49.1492C16.1399 49.8549 15.5005 50.5062 14.5551 50.8183C14.4161 49.4478 14.291 48.1451 14.1659 46.8695ZM11.6636 51.9175C11.5802 51.7411 11.6775 51.4832 11.6914 51.2661C11.9138 51.3068 12.1779 51.3068 12.3726 51.4154C13.4986 52.0532 13.9574 53.0031 13.7349 54.2786C13.6654 54.6993 13.721 55.1335 13.721 55.5542C13.6515 55.5949 13.5681 55.6356 13.4986 55.6763C12.8869 54.4279 12.2614 53.1795 11.6636 51.9175ZM21.0334 68.0792C19.5181 66.1659 18.0862 64.1982 16.6404 62.2442C15.6256 60.8736 15.1251 59.2995 15.0695 57.6168C15.0278 56.2598 15.0695 54.9029 15.1668 53.5594C15.2085 53.0438 15.4727 52.5417 15.6951 52.0396C15.9731 51.4154 16.4597 51.1983 17.2104 51.4154C17.1826 51.6461 17.1826 51.8768 17.1409 52.121C16.8628 53.6951 16.9323 55.2692 17.2521 56.8434C17.6552 58.811 18.7952 60.2901 20.4912 61.3893C22.0065 62.3663 23.2437 63.5876 23.9805 65.2431C24.5227 66.478 24.62 67.7264 24.3698 69.0291C24.3142 69.3276 24.1474 69.599 23.9944 69.9654C23.8415 69.6533 23.7164 69.4362 23.5218 69.0427C23.5218 69.5719 23.5218 69.9247 23.5218 70.264C23.4523 70.2911 23.3967 70.3318 23.3272 70.359C22.5626 69.6126 21.7007 68.9205 21.0334 68.0792Z" fill="#DCA579"/>
</svg>
