<svg width="16" height="16" viewBox="0 0 16 16" fill="none" xmlns="http://www.w3.org/2000/svg">
<path d="M7.992 0.125244C3.576 0.125244 0 3.55991 0 7.79191C0 12.0239 3.576 15.4586 7.992 15.4586C12.416 15.4586 16 12.0239 16 7.79191C16 3.55991 12.416 0.125244 7.992 0.125244ZM8 13.9252C4.464 13.9252 1.6 11.1806 1.6 7.79191C1.6 4.40324 4.464 1.65858 8 1.65858C11.536 1.65858 14.4 4.40324 14.4 7.79191C14.4 11.1806 11.536 13.9252 8 13.9252ZM7.824 3.95858H7.776C7.456 3.95858 7.2 4.20391 7.2 4.51058V8.12924C7.2 8.39758 7.344 8.65058 7.592 8.78858L10.912 10.6976C11.184 10.8509 11.536 10.7742 11.696 10.5136C11.7362 10.4515 11.7629 10.3823 11.7746 10.3101C11.7863 10.2379 11.7827 10.1642 11.764 10.0934C11.7453 10.0226 11.712 9.9561 11.666 9.89789C11.6199 9.83967 11.5621 9.79094 11.496 9.75458L8.4 7.99124V4.51058C8.4 4.20391 8.144 3.95858 7.824 3.95858Z" fill="#DDA67B"/>
</svg>
