<svg width="48" height="48" viewBox="0 0 48 48" fill="none" xmlns="http://www.w3.org/2000/svg">
<circle opacity="0.8" cx="24" cy="24" r="24" fill="#0D1105"/>
<path d="M37.5651 23.2845C40.3479 18.4332 35.0689 15.614 32.0547 15.0188C22.0388 6.17185 13.8117 14.8212 12.7682 20.5293C11.7253 26.2374 11.9706 30.7876 11.3906 32.9278C15.8423 26.9352 18.8827 27.9966 19.6562 29.4837C21.0476 32.3381 23.3165 32.4125 24.4779 31.5501C27.2606 29.2674 31.6938 33.7557 33.4323 36.3718C30.0937 30.3792 29.6404 26.5405 29.9883 25.3509C31.3797 19.6435 35.7102 21.6203 37.5651 23.2845Z" stroke="#FBFBFB" stroke-width="2" stroke-linecap="round" stroke-linejoin="round"/>
<path d="M25.8553 19.8402C25.0945 19.8402 24.4777 19.2234 24.4777 18.4626C24.4777 17.7017 25.0945 17.085 25.8553 17.085C26.6161 17.085 27.2329 17.7017 27.2329 18.4626C27.2329 19.2234 26.6161 19.8402 25.8553 19.8402Z" fill="#FBFBFB"/>
</svg>
