<svg width="25" height="25" viewBox="0 0 25 25" fill="none" xmlns="http://www.w3.org/2000/svg">
<path fill-rule="evenodd" clip-rule="evenodd" d="M12.5 25C19.4036 25 25 19.4036 25 12.5C25 5.59644 19.4036 0 12.5 0C5.59644 0 0 5.59644 0 12.5C0 19.4036 5.59644 25 12.5 25ZM12.9688 3.07959C12.8229 3.02661 12.6666 3 12.5 3C12.3334 2.99927 12.1771 3.02563 12.0312 3.07959C11.8854 3.13354 11.75 3.22485 11.625 3.35327L3.375 11.8284C3.125 12.0842 3 12.3889 3 12.7424C3 13.0962 3.125 13.4014 3.375 13.6582C3.51062 13.7976 3.65845 13.8989 3.81848 13.9626C3.95361 14.0166 4.09741 14.0435 4.25 14.0435C4.58337 14.0435 4.875 13.915 5.125 13.6582L11.25 7.36597V21.7158C11.2491 22.0789 11.3688 22.3835 11.6088 22.6301C11.8488 22.8767 12.1459 23 12.5 23C12.8534 23 13.15 22.8823 13.39 22.647C13.63 22.4114 13.75 22.1118 13.75 21.748V7.36597L19.875 13.6582C20.125 13.915 20.4166 14.0435 20.75 14.0435C21.0834 14.0435 21.375 13.915 21.625 13.6582C21.875 13.4004 22 13.0952 22 12.7424C22 12.3899 21.875 12.0852 21.625 11.8284L13.375 3.35327C13.2991 3.27466 13.2194 3.21021 13.1357 3.15991C13.0817 3.1272 13.026 3.10059 12.9688 3.07959Z" fill="#DDA67B"/>
</svg>
