<svg width="48" height="48" viewBox="0 0 48 48" fill="none" xmlns="http://www.w3.org/2000/svg">
<circle opacity="0.8" cx="24" cy="24" r="24" fill="#0D1105"/>
<path d="M31.7147 32.0464C32.3141 32.0463 32.9144 31.7886 33.3885 31.3935C33.8625 30.9984 34.2234 30.4549 34.3301 29.8662C34.3301 29.866 34.3302 29.8657 34.3302 29.8654L34.41 29.4409L34.4434 29.2632H34.2626H33.9745C27.9454 29.2632 25.1049 25.9142 24.3729 23.9671L24.0475 23.0997L24.4098 22.2462C25.4466 19.8078 27.9002 18.5071 30.2417 17.8157C32.5757 17.1265 34.7596 17.0544 35.2055 17.0469L35.2436 17.0469L35.2456 17.0469L35.9563 17.0374L35.9744 17.0469H36.0115H36.5128H36.6628V16.8969V15.8355C36.6628 15.0878 36.1769 14.39 35.5096 14.2662L35.5076 14.2658C35.2681 14.2247 35.0219 14.2453 34.7928 14.3257C34.5641 14.4059 34.3601 14.543 34.2005 14.7239L33.4923 15.4953H20.5599L19.9567 15.0995L19.9565 15.0993L16.2888 12.6838L16.0563 12.5307V12.8091V17.3959L14.3593 17.902L14.3587 17.9022L12.0787 18.5716L11.8341 18.6434L12.0156 18.8223L14.6701 21.4389L13.9011 22.9557L13.901 22.9558L12.5621 25.5904L12.4514 25.8083H12.6959H15.4417L15.8993 26.0063L15.8999 26.0065C15.9028 26.0077 15.9127 26.012 15.9294 26.0192C16.245 26.1553 18.9759 27.3328 22.135 28.6217C25.457 29.977 29.2658 31.461 31.233 31.9823C31.3897 32.0261 31.5519 32.0476 31.7147 32.0464ZM31.7147 32.0464C31.7149 32.0464 31.7151 32.0464 31.7153 32.0464L31.7141 31.8964V32.0464C31.7143 32.0464 31.7145 32.0464 31.7147 32.0464ZM38.9011 15.8355V21.6253L35.326 19.2748L35.0936 19.122V19.4002V21.5448L33.0442 19.5237L32.9929 19.4731L32.9214 19.4815C32.8577 19.4889 32.7863 19.504 32.7264 19.5167C32.7083 19.5205 32.6913 19.5241 32.6758 19.5272L32.5553 19.5514V19.6743V21.5448L30.9869 19.998L30.9243 19.9364L30.84 19.9607L30.7983 19.9727C30.5742 20.0373 30.3468 20.1029 30.1179 20.1821L30.017 20.2171V20.3239V21.5448L29.1568 20.6964L29.0796 20.6203L28.9831 20.6697C27.8968 21.2257 26.9388 21.9943 26.4751 23.0969L26.452 23.1519L26.473 23.2078L26.6134 23.1551C26.473 23.2078 26.473 23.2079 26.4731 23.2081L26.4732 23.2084L26.4735 23.2093L26.4746 23.2121L26.4784 23.2217C26.4817 23.2299 26.4865 23.2415 26.4928 23.2563C26.5055 23.286 26.5246 23.3286 26.5509 23.3823C26.6034 23.4896 26.6845 23.6414 26.8005 23.8226C27.0325 24.1851 27.4042 24.6662 27.9652 25.1464C29.0898 26.1092 30.965 27.0599 33.9745 27.0599H34.0194L34.0569 27.0353L37.5694 24.7259L36.5341 30.2454L36.534 30.2461C36.1259 32.4816 33.9529 34.2497 31.7141 34.2497C31.3608 34.2497 31.0017 34.2027 30.6504 34.1131C29.6173 33.836 28.1221 33.3152 26.4511 32.6945L26.2283 32.6118L26.2495 32.8485C26.4108 34.6534 27.0341 35.908 27.9681 36.7786L27.9688 36.7792C29.0336 37.76 30.5695 38.298 32.5553 38.3236V40.527C30.1532 40.5002 27.9904 39.8252 26.4364 38.3778L26.4361 38.3775C24.849 36.9065 23.9712 34.6761 23.9712 31.9165C23.9712 31.9058 23.972 31.8955 23.9733 31.8792L23.9735 31.8773C23.9747 31.8624 23.9763 31.8417 23.9763 31.8188V31.7166L23.8812 31.6792C20.9078 30.5108 19.1793 29.7879 17.5344 29.085L17.3255 28.9957V29.223V40.5279H15.0872V28.1616V28.0116H14.9372H8.83565L11.8981 21.9713L11.9476 21.8735L11.8696 21.7966L7.6086 17.5944L13.7106 15.7891L13.818 15.7573V15.6453V8.41363L21.2005 13.2674L21.2381 13.292H21.2829H28.8979H29.0013L29.0381 13.1953L30.8016 8.55747L32.4953 13.0101L32.5752 13.22L32.7385 13.0658C33.3982 12.443 34.2711 12.0404 35.2436 12.0404H35.2437C35.4687 12.0403 35.6932 12.0608 35.9144 12.1017L35.915 12.1018C37.676 12.4192 38.9011 14.0524 38.9011 15.8355ZM20.1917 17.0469H26.0741C26.0415 17.0916 26.004 17.1418 25.9619 17.1963C25.784 17.4263 25.5241 17.7328 25.1959 18.0388C24.536 18.6543 23.6195 19.2502 22.5521 19.2502C21.4985 19.2502 20.9069 18.6687 20.5711 18.0747C20.4023 17.776 20.2997 17.4758 20.2395 17.2495C20.2188 17.1719 20.2032 17.1033 20.1917 17.0469Z" fill="#FBFBFB" stroke="#0D1105" stroke-width="0.3"/>
</svg>
