<svg width="16" height="17" viewBox="0 0 16 17" fill="none" xmlns="http://www.w3.org/2000/svg">
<path d="M15.0667 16.7919C15.3333 16.7919 15.5556 16.703 15.7333 16.5252C15.9111 16.3474 16 16.1252 16 15.8585V12.2585C16 12.0511 15.9333 11.8695 15.8 11.7136C15.6667 11.5578 15.4963 11.4579 15.2889 11.4141L12.2222 10.7919C12.0148 10.7622 11.8036 10.7809 11.5884 10.8479C11.3733 10.9148 11.1994 11.0147 11.0667 11.1474L8.97778 13.2363C7.85185 12.5548 6.82222 11.7474 5.88889 10.8141C4.95556 9.88076 4.17778 8.88076 3.55556 7.81409L5.68889 5.63631C5.82222 5.50298 5.90756 5.35098 5.94489 5.18031C5.98222 5.00965 5.98578 4.82091 5.95556 4.61409L5.37778 1.50298C5.34815 1.29557 5.25185 1.1252 5.08889 0.99187C4.92593 0.858537 4.74074 0.79187 4.53333 0.79187H0.933333C0.666666 0.79187 0.444444 0.880759 0.266666 1.05854C0.0888881 1.23631 -1.19209e-07 1.45854 -1.19209e-07 1.7252C-1.19209e-07 3.63631 0.426074 5.49943 1.27822 7.31454C2.13037 9.12965 3.2563 10.7371 4.656 12.1368C6.0557 13.5365 7.66311 14.6624 9.47822 15.5145C11.2933 16.3667 13.1561 16.7925 15.0667 16.7919Z" fill="#DDA67B"/>
</svg>
