<svg width="23" height="19" viewBox="0 0 23 19" fill="none" xmlns="http://www.w3.org/2000/svg">
<path d="M23 2.90952C22.1534 3.28011 21.2409 3.52364 20.2954 3.64011C21.2629 3.07893 22.0105 2.18952 22.3623 1.12011C21.4498 1.64952 20.4383 2.02011 19.3719 2.23187C18.5033 1.32128 17.283 0.79187 15.8977 0.79187C13.3141 0.79187 11.2032 2.82481 11.2032 5.33422C11.2032 5.69422 11.2471 6.04364 11.3241 6.37187C7.41013 6.18128 3.92495 4.37069 1.60516 1.62834C1.19837 2.2954 0.967495 3.07893 0.967495 3.90481C0.967495 5.48246 1.79207 6.88011 3.0674 7.67422C2.28681 7.67422 1.56119 7.46246 0.923518 7.14481V7.17658C0.923518 9.37893 2.55067 11.2213 4.70555 11.6342C4.01371 11.8166 3.28739 11.8419 2.58365 11.7083C2.88226 12.611 3.46708 13.4008 4.2559 13.9667C5.04471 14.5327 5.99786 14.8464 6.98136 14.8636C5.31422 16.1347 3.2477 16.8217 1.12142 16.8119C0.74761 16.8119 0.373805 16.7907 0 16.7483C2.08891 18.0401 4.57361 18.7919 7.23423 18.7919C15.8977 18.7919 20.6582 11.8672 20.6582 5.86364C20.6582 5.66246 20.6582 5.47187 20.6472 5.27069C21.5707 4.6354 22.3623 3.83069 23 2.90952Z" fill="#DDA67B"/>
</svg>
