<svg width="32" height="32" viewBox="0 0 32 32" fill="none" xmlns="http://www.w3.org/2000/svg">
<circle cx="16" cy="16" r="15.5" fill="#412814" stroke="#CE9468"/>
<path d="M16 6.00002C16.1754 6.00002 16.3399 6.02656 16.4934 6.07964C16.6469 6.13271 16.7895 6.22389 16.9211 6.35315L25.6053 14.8283C25.8684 15.0851 26 15.3898 26 15.7425C26 16.0952 25.8684 16.4004 25.6053 16.6581C25.3421 16.9149 25.0351 17.0433 24.6842 17.0433C24.3333 17.0433 24.0263 16.9149 23.7632 16.6581L17.3158 10.366L17.3158 24.748C17.3158 25.1118 17.1895 25.4114 16.9368 25.6469C16.6842 25.8823 16.3719 26 16 26C15.6272 26 15.3145 25.8767 15.0618 25.6302C14.8092 25.3836 14.6833 25.0789 14.6842 24.7159L14.6842 10.366L8.23684 16.6581C7.97368 16.9149 7.66667 17.0433 7.31579 17.0433C6.96491 17.0433 6.6579 16.9149 6.39474 16.6581C6.13158 16.4013 6 16.0961 6 15.7425C6 15.389 6.13158 15.0842 6.39474 14.8283L15.0789 6.35315C15.2105 6.22474 15.3531 6.13357 15.5066 6.07964C15.6601 6.0257 15.8246 5.99916 16 6.00002Z" fill="#FBFBFB"/>
</svg>
