<svg width="72" height="72" viewBox="0 0 72 72" fill="none" xmlns="http://www.w3.org/2000/svg">
<path d="M17.8286 63C16.1629 63 14.7365 62.4064 13.5493 61.2192C12.3621 60.032 11.7695 58.6065 11.7715 56.9429V29.6857C11.7715 28.7267 11.9865 27.8181 12.4166 26.96C12.8466 26.1019 13.4392 25.3952 14.1943 24.84L32.3658 11.2114C33.4258 10.4038 34.6372 10 36.0001 10C37.3629 10 38.5743 10.4038 39.6343 11.2114L57.8058 24.84C58.5629 25.3952 59.1565 26.1019 59.5866 26.96C60.0166 27.8181 60.2306 28.7267 60.2286 29.6857V56.9429C60.2286 58.6086 59.635 60.035 58.4478 61.2222C57.2606 62.4094 55.8352 63.002 54.1715 63H17.8286ZM29.9429 41.8V52.4C29.9429 52.8038 30.0943 53.1571 30.3972 53.46C30.7001 53.7629 31.0534 53.9143 31.4572 53.9143C31.861 53.9143 32.2143 53.7629 32.5172 53.46C32.8201 53.1571 32.9715 52.8038 32.9715 52.4V41.8C34.2334 41.8 35.3065 41.3578 36.1909 40.4735C37.0752 39.5891 37.5164 38.517 37.5143 37.2571V29.6857C37.5143 29.2819 37.3629 28.9286 37.0601 28.6257C36.7572 28.3229 36.4039 28.1714 36.0001 28.1714C35.5962 28.1714 35.2429 28.3229 34.9401 28.6257C34.6372 28.9286 34.4858 29.2819 34.4858 29.6857V37.2571H32.9715V29.6857C32.9715 29.2819 32.8201 28.9286 32.5172 28.6257C32.2143 28.3229 31.861 28.1714 31.4572 28.1714C31.0534 28.1714 30.7001 28.3229 30.3972 28.6257C30.0943 28.9286 29.9429 29.2819 29.9429 29.6857V37.2571H28.4286V29.6857C28.4286 29.2819 28.2772 28.9286 27.9743 28.6257C27.6715 28.3229 27.3182 28.1714 26.9143 28.1714C26.5105 28.1714 26.1572 28.3229 25.8543 28.6257C25.5515 28.9286 25.4001 29.2819 25.4001 29.6857V37.2571C25.4001 38.519 25.8422 39.5922 26.7266 40.4765C27.6109 41.3609 28.683 41.802 29.9429 41.8ZM43.5715 53.9143C43.9753 53.9143 44.3286 53.7629 44.6315 53.46C44.9343 53.1571 45.0858 52.8038 45.0858 52.4V29.9886C45.0858 29.5848 44.9343 29.2314 44.6315 28.9286C44.3286 28.6257 43.9753 28.4743 43.5715 28.4743C42.1582 28.4743 41.0477 29.0548 40.2401 30.2157C39.4324 31.3767 39.0286 32.7143 39.0286 34.2286V41.8C39.0286 42.2038 39.1801 42.5571 39.4829 42.86C39.7858 43.1629 40.1391 43.3143 40.5429 43.3143H42.0572V52.4C42.0572 52.8038 42.2086 53.1571 42.5115 53.46C42.8143 53.7629 43.1677 53.9143 43.5715 53.9143Z" fill="#242D14"/>
</svg>
