<svg width="72" height="72" viewBox="0 0 72 72" fill="none" xmlns="http://www.w3.org/2000/svg">
<path d="M30.5084 14.125C30.5084 11.8425 32.3509 10 34.6334 10C36.9159 10 38.7584 11.8425 38.7584 14.125C38.7584 16.4075 36.9159 18.25 34.6334 18.25C32.3509 18.25 30.5084 16.4075 30.5084 14.125ZM63.5084 26.5V36.125L60.6759 37.0875C60.4443 38.7253 59.6301 40.2247 58.3824 41.3107C57.1348 42.3967 55.5375 42.9964 53.8834 43H53.6634C53.2784 44.87 52.3709 46.5475 51.1334 47.895V65H44.2584V51.25H43.5709C42.9934 51.25 42.4159 51.1675 41.8659 51.085L29.6559 49.05L26.5759 54.5775L28.6384 65H21.6534L19.5084 54.6875C19.4259 53.8625 19.5084 53.0375 19.9484 52.3225L22.7534 47.345C21.3884 46.5855 20.2445 45.4838 19.4345 44.1482C18.6244 42.8125 18.176 41.289 18.1334 39.7275C18.0234 40.14 17.9684 40.745 18.0509 41.625C18.1334 42.835 18.4359 44.6225 18.2434 46.6025C18.1334 48.5825 17.2259 50.6175 16.0709 51.965C14.8884 53.3125 13.5959 54.2475 12.2209 54.9625L10.2959 53.0375C10.8184 51.745 11.3409 50.59 11.4509 49.5175C11.6159 48.5 11.4234 47.675 11.1209 46.9325L9.6634 43.825C9.0859 42.4225 8.3709 40.3875 8.5084 37.995C8.5909 35.6575 9.8834 32.605 12.3309 30.9275C14.8059 29.25 17.4734 29.0025 19.6459 29.47C21.0209 29.745 22.4234 30.405 23.6334 31.34C24.6509 30.8725 25.8334 30.625 27.0709 30.625H27.7584V26.8025C27.7584 24.0525 29.6284 21.5225 32.3234 21.0825C33.1129 20.9463 33.9227 20.9842 34.6961 21.1937C35.4694 21.4031 36.1877 21.779 36.8006 22.295C37.4135 22.811 37.9063 23.4547 38.2445 24.181C38.5826 24.9073 38.758 25.6988 38.7584 26.5V30.625H42.8834V29.25C42.8834 23.1725 47.8059 18.25 53.8834 18.25H63.5084L61.0609 21.935C62.5459 22.925 63.5084 24.6025 63.5084 26.5ZM58.0084 35.3L55.1484 30.735C54.7909 30.1575 53.8834 30.405 53.8834 31.0925V40.25C56.1659 40.25 58.0084 38.4075 58.0084 36.125V35.3Z" fill="#242D14"/>
</svg>
