<svg width="16" height="14" viewBox="0 0 16 14" fill="none" xmlns="http://www.w3.org/2000/svg">
<path d="M1.6 13.1252C1.16 13.1252 0.783201 12.97 0.469601 12.6597C0.156001 12.3493 -0.000531975 11.9767 1.35823e-06 11.5418V2.04183C1.35823e-06 1.60641 0.156801 1.23354 0.470401 0.923206C0.784001 0.612872 1.16053 0.45797 1.6 0.458497H14.4C14.84 0.458497 15.2168 0.613664 15.5304 0.923997C15.844 1.23433 16.0005 1.60694 16 2.04183V11.5418C16 11.9772 15.8432 12.3501 15.5296 12.6605C15.216 12.9708 14.8395 13.1257 14.4 13.1252H1.6ZM14.4 3.62516L8.42 7.3262C8.35333 7.36579 8.2832 7.39561 8.2096 7.41566C8.136 7.43572 8.06613 7.44548 8 7.44495C7.93333 7.44495 7.8632 7.43519 7.7896 7.41566C7.716 7.39613 7.64613 7.36632 7.58 7.3262L1.6 3.62516V11.5418H14.4V3.62516ZM8 6.00016L14.4 2.04183H1.6L8 6.00016ZM1.6 3.82308V2.65537V2.67516V2.66566V3.82308Z" fill="#DDA67B"/>
</svg>
