<svg width="17" height="24" viewBox="0 0 17 24" fill="none" xmlns="http://www.w3.org/2000/svg">
<path d="M8.37012 22.237C8.2094 22.0446 8.0245 21.8201 7.82065 21.5673C7.0822 20.6518 6.09903 19.3708 5.11763 17.9071C4.13453 16.4409 3.16418 14.8076 2.44231 13.1862C1.71524 11.5531 1.27012 9.99766 1.27012 8.66926C1.27012 6.77116 2.0195 4.95192 3.35164 3.61146C4.68358 2.27119 6.4889 1.51926 8.37012 1.51926C10.2513 1.51926 12.0567 2.27119 13.3886 3.61146C14.7207 4.95192 15.4701 6.77116 15.4701 8.66926C15.4701 9.99766 15.025 11.5531 14.2979 13.1862C13.5761 14.8076 12.6057 16.4409 11.6226 17.9071C10.6412 19.3708 9.65804 20.6518 8.91958 21.5673C8.71573 21.8201 8.53083 22.0446 8.37012 22.237Z" stroke="#DDA67B" stroke-width="1.8"/>
</svg>
