<svg width="72" height="72" viewBox="0 0 72 72" fill="none" xmlns="http://www.w3.org/2000/svg">
<path d="M16.814 63.5L21.9302 40.4767H25.8314L20.7151 63.5H16.814ZM24.4884 63.5L31.6512 27.4302L27.0465 29.2209V37.9186H21.9302V25.8954L34.8488 20.3954C36.0853 19.8837 37.343 19.83 38.6221 20.2342C39.9012 20.6384 40.9031 21.4169 41.6279 22.5698L44.1861 26.6628C45.2946 28.4535 46.7979 29.9244 48.6961 31.0756C50.5942 32.2267 52.7575 32.8023 55.1861 32.8023V37.9186C52.3721 37.9186 49.7389 37.3319 47.2865 36.1586C44.8341 34.9853 42.7774 33.4402 41.1163 31.5233L39.5814 39.1977L44.9535 44.314V63.5H39.8372V48.1512L34.4651 43.0349L29.8605 63.5H24.4884ZM41.1163 18.7326C39.7093 18.7326 38.5044 18.2312 37.5016 17.2284C36.4988 16.2256 35.9983 15.0216 36 13.6163C36 12.2093 36.5014 11.0044 37.5042 10.0016C38.507 8.99884 39.711 8.4983 41.1163 8.5C42.5233 8.5 43.7281 9.0014 44.7309 10.0042C45.7337 11.007 46.2343 12.211 46.2326 13.6163C46.2326 15.0233 45.7312 16.2281 44.7284 17.2309C43.7256 18.2337 42.5216 18.7343 41.1163 18.7326ZM51.3488 63.5V40.4767H55.1861V63.5H51.3488Z" fill="#242D14"/>
</svg>
