<svg width="72" height="72" viewBox="0 0 72 72" fill="none" xmlns="http://www.w3.org/2000/svg">
<path d="M20.0414 10L52.7838 42.7424L58.6169 36.9093L62.4964 40.7888L55.7003 47.5849L64.45 56.3346C65.523 57.4077 65.523 59.1411 64.45 60.2142L62.4964 62.1677C62.2419 62.4228 61.9395 62.6251 61.6067 62.7632C61.2738 62.9013 60.917 62.9723 60.5566 62.9723C60.1963 62.9723 59.8395 62.9013 59.5066 62.7632C59.1738 62.6251 58.8714 62.4228 58.6169 62.1677L49.7572 53.4456L43.0436 60.2417L39.164 56.3621L44.9971 50.529L12.2548 17.7866V10H20.0414ZM46.703 30.801L59.745 17.7591V10H51.9583L38.9164 23.0419L46.703 30.801ZM33.0833 44.5583L25.2967 36.6617L19.216 42.7424L13.3829 36.9093L9.5033 40.7888L16.2994 47.5849L7.54977 56.3621C7.2947 56.6167 7.09233 56.919 6.95426 57.2519C6.81619 57.5847 6.74512 57.9415 6.74512 58.3019C6.74512 58.6622 6.81619 59.0191 6.95426 59.3519C7.09233 59.6848 7.2947 59.9871 7.54977 60.2417L9.5033 62.1952C10.5764 63.2683 12.3098 63.2683 13.3829 62.1952L22.2426 53.4456L28.9561 60.2417L32.8357 56.3621L27.0026 50.529L33.0833 44.5583Z" fill="#242D14"/>
</svg>
