<svg width="48" height="48" viewBox="0 0 48 48" fill="none" xmlns="http://www.w3.org/2000/svg">
<circle opacity="0.8" cx="24" cy="24" r="24" fill="#0D1105"/>
<path d="M32.328 39.0508C32.0308 39.0508 31.7853 38.9541 31.5915 38.7607C31.3976 38.5672 31.3003 38.3234 31.2994 38.0291V26.7907H33.3566V38.0291C33.3566 38.3243 33.2592 38.5681 33.0644 38.7607C32.8697 38.9532 32.6242 39.0499 32.328 39.0508ZM14.1217 39.0508C13.756 39.0508 13.4643 38.926 13.2467 38.6762C13.0291 38.4265 12.9665 38.12 13.0588 37.7567L15.5275 26.7907H17.619L15.0475 38.3357C15.0018 38.54 14.8875 38.7103 14.7046 38.8465C14.5217 38.9827 14.3275 39.0508 14.1217 39.0508ZM25.8135 15.2117C25.0592 15.2117 24.4132 14.9447 23.8756 14.4107C23.338 13.8767 23.0696 13.2355 23.0706 12.4872C23.0706 11.7379 23.3394 11.0963 23.877 10.5623C24.4146 10.0283 25.0601 9.76179 25.8135 9.7627C26.5678 9.7627 27.2138 10.0297 27.7514 10.5637C28.289 11.0977 28.5573 11.7389 28.5564 12.4872C28.5564 13.2364 28.2876 13.878 27.75 14.412C27.2124 14.946 26.5669 15.2126 25.8135 15.2117ZM18.7161 39.0508C18.2133 39.0508 17.8133 38.8746 17.5161 38.5223C17.219 38.1699 17.1275 37.7558 17.2418 37.2799L20.7391 19.8433L18.2704 20.7968V24.0662C18.2704 24.4522 18.1388 24.7755 17.8754 25.0361C17.6121 25.2968 17.2866 25.4275 16.899 25.4284C16.5104 25.4284 16.1844 25.2977 15.9211 25.0361C15.6578 24.7746 15.5266 24.4513 15.5275 24.0662V20.8309C15.5275 20.286 15.6761 19.7865 15.9732 19.3324C16.2704 18.8783 16.6818 18.5378 17.2075 18.3107L22.4534 16.0971C23.1163 15.8247 23.7906 15.7961 24.4763 16.0113C25.162 16.2265 25.6992 16.6411 26.0878 17.255L27.4592 19.4346C27.9621 20.2292 28.6195 20.9104 29.4314 21.478C30.2433 22.0456 31.1631 22.4202 32.1908 22.6018C32.5337 22.6472 32.8139 22.7948 33.0315 23.0445C33.2491 23.2943 33.3575 23.5781 33.3566 23.8959C33.3566 24.35 33.2025 24.7187 32.8944 25.0021C32.5862 25.2854 32.226 25.3935 31.8137 25.3263C30.6022 25.1446 29.4822 24.7641 28.4536 24.1847C27.425 23.6053 26.5449 22.8847 25.8135 22.0228L24.9906 26.1096L27.0135 28.0167C27.2878 28.2891 27.4995 28.5902 27.6485 28.9199C27.7975 29.2495 27.8716 29.6069 27.8707 29.9919V37.6886C27.8707 38.0746 27.739 38.3983 27.4757 38.6599C27.2124 38.9214 26.8869 39.0517 26.4992 39.0508C26.1106 39.0508 25.7847 38.9201 25.5214 38.6585C25.258 38.397 25.1268 38.0736 25.1278 37.6886V30.8774L22.2477 28.1529L20.019 38.0291C19.9505 38.3016 19.7959 38.54 19.5555 38.7443C19.315 38.9487 19.0352 39.0508 18.7161 39.0508Z" fill="#FBFBFB"/>
</svg>
