<svg width="72" height="72" viewBox="0 0 72 72" fill="none" xmlns="http://www.w3.org/2000/svg">
<path d="M51.5832 32H48.8332V31.3423C49.7576 30.2969 50.3642 29.0092 50.5815 27.6307C50.7988 26.2522 50.6178 24.8403 50.0599 23.5611C49.5019 22.282 48.5902 21.1889 47.432 20.4104C46.2738 19.6319 44.9174 19.2004 43.5222 19.1667C42.9374 17.1249 41.8506 15.262 40.3609 13.7481C39.1967 12.5566 37.8052 11.6109 36.2688 10.9671C34.7324 10.3233 33.0824 9.99443 31.4165 10.0001C27.9893 10.0001 24.7959 11.4072 22.3645 13.9738C21.1711 13.5936 19.8925 13.5709 18.6864 13.9086C17.4803 14.2463 16.3994 14.9296 15.577 15.8742C14.7546 16.8188 14.2266 17.9835 14.0581 19.2246C13.8896 20.4657 14.0881 21.7289 14.6289 22.8586C13.761 23.629 13.0885 24.5946 12.667 25.6759C12.2456 26.7571 12.0871 27.9231 12.2047 29.0777C12.3223 30.2322 12.7126 31.3423 13.3435 32.3164C13.9744 33.2904 14.8277 34.1006 15.8332 34.6801V58.5833C15.835 60.2846 16.5117 61.9156 17.7146 63.1186C18.9176 64.3216 20.5486 64.9982 22.2499 65H42.4165C44.1178 64.9982 45.7488 64.3216 46.9518 63.1186C48.1547 61.9156 48.8314 60.2846 48.8332 58.5833V57.6667H51.5832C53.7705 57.6642 55.8675 56.7943 57.4141 55.2476C58.9608 53.701 59.8307 51.604 59.8332 49.4167V40.25C59.8307 38.0627 58.9608 35.9657 57.4141 34.4191C55.8675 32.8724 53.7705 32.0025 51.5832 32ZM26.8332 55.8333C26.8332 56.3196 26.64 56.7859 26.2962 57.1297C25.9524 57.4735 25.4861 57.6667 24.9999 57.6667C24.5136 57.6667 24.0473 57.4735 23.7035 57.1297C23.3597 56.7859 23.1665 56.3196 23.1665 55.8333V37.5C23.1665 37.0138 23.3597 36.5475 23.7035 36.2037C24.0473 35.8599 24.5136 35.6667 24.9999 35.6667C25.4861 35.6667 25.9524 35.8599 26.2962 36.2037C26.64 36.5475 26.8332 37.0138 26.8332 37.5V55.8333ZM34.1665 55.8333C34.1665 56.3196 33.9734 56.7859 33.6296 57.1297C33.2857 57.4735 32.8194 57.6667 32.3332 57.6667C31.847 57.6667 31.3806 57.4735 31.0368 57.1297C30.693 56.7859 30.4999 56.3196 30.4999 55.8333V37.5C30.4999 37.0138 30.693 36.5475 31.0368 36.2037C31.3806 35.8599 31.847 35.6667 32.3332 35.6667C32.8194 35.6667 33.2857 35.8599 33.6296 36.2037C33.9734 36.5475 34.1665 37.0138 34.1665 37.5V55.8333ZM41.4998 55.8333C41.4998 56.3196 41.3067 56.7859 40.9629 57.1297C40.6191 57.4735 40.1527 57.6667 39.6665 57.6667C39.1803 57.6667 38.714 57.4735 38.3702 57.1297C38.0263 56.7859 37.8332 56.3196 37.8332 55.8333V37.5C37.8332 37.0138 38.0263 36.5475 38.3702 36.2037C38.714 35.8599 39.1803 35.6667 39.6665 35.6667C40.1527 35.6667 40.6191 35.8599 40.9629 36.2037C41.3067 36.5475 41.4998 37.0138 41.4998 37.5V55.8333ZM43.3332 30.1667C42.3787 30.1667 40.9785 29.5732 40.275 28.8708C39.9313 28.5269 39.4652 28.3336 38.979 28.3334H24.9999C24.6243 28.3342 24.258 28.4504 23.9506 28.6662C23.6432 28.882 23.4095 29.187 23.2811 29.5399C22.4985 31.6804 20.577 32 19.4999 32C18.5274 32 17.5948 31.6137 16.9072 30.9261C16.2195 30.2385 15.8332 29.3058 15.8332 28.3334C15.8332 27.3609 16.2195 26.4283 16.9072 25.7407C17.5948 25.053 18.5274 24.6667 19.4999 24.6667C19.5102 24.6667 20.5449 24.7057 21.379 25.3313C21.5716 25.4758 21.7908 25.5809 22.024 25.6406C22.2573 25.7004 22.5 25.7136 22.7383 25.6795C22.9766 25.6455 23.2059 25.5648 23.4131 25.4422C23.6203 25.3195 23.8012 25.1572 23.9457 24.9646C24.0902 24.772 24.1953 24.5529 24.255 24.3196C24.3148 24.0864 24.328 23.8437 24.2939 23.6054C24.2599 23.367 24.1792 23.1377 24.0566 22.9306C23.9339 22.7234 23.7716 22.5424 23.579 22.398C22.3912 21.5318 20.9694 21.0445 19.4999 21.0001C18.9601 21.0004 18.4221 21.0607 17.8957 21.18C17.7138 20.7616 17.6388 20.3045 17.6775 19.85C17.7163 19.3954 17.8675 18.9576 18.1175 18.576C18.3676 18.1945 18.7087 17.8811 19.11 17.6642C19.5113 17.4472 19.9603 17.3336 20.4165 17.3334C20.8497 17.3313 21.277 17.4325 21.6632 17.6286C22.0494 17.8247 22.3833 18.11 22.6372 18.4609C22.8438 18.7459 23.0244 19.0488 23.1768 19.3661C23.2266 19.8333 23.4538 20.2636 23.8116 20.5681C24.1695 20.8727 24.6305 21.0282 25.0997 21.0026C25.5689 20.977 26.0103 20.7723 26.3329 20.4307C26.6554 20.089 26.8345 19.6366 26.8332 19.1667C26.8332 18.391 26.4196 17.4285 25.6003 16.3021C25.5476 16.23 25.4857 16.1589 25.4341 16.089C27.1071 14.5192 29.1982 13.6667 31.4165 13.6667C32.5954 13.6633 33.7631 13.8967 34.8501 14.3529C35.9372 14.8092 36.9216 15.479 37.745 16.3228C38.7747 17.3794 39.535 18.6684 39.9614 20.0808C40.3878 21.4933 40.4678 22.9876 40.1947 24.4376C40.1497 24.6741 40.1517 24.9172 40.2007 25.153C40.2496 25.3887 40.3445 25.6125 40.48 25.8116C40.6154 26.0107 40.7888 26.1812 40.9901 26.3132C41.1915 26.4453 41.4168 26.5364 41.6534 26.5814C41.7667 26.6027 41.8818 26.6134 41.9971 26.6135C42.4234 26.6131 42.8362 26.4641 43.1645 26.1922C43.4928 25.9204 43.7162 25.5426 43.7961 25.1239C43.9357 24.3901 44.0108 23.6456 44.0207 22.8987C44.9169 23.0701 45.7169 23.5696 46.2645 24.2994C46.8121 25.0292 47.068 25.937 46.9821 26.8453C46.8961 27.7537 46.4746 28.5974 45.7999 29.2116C45.1251 29.8258 44.2456 30.1663 43.3332 30.1667ZM56.1665 49.4167C56.1665 50.6323 55.6836 51.798 54.8241 52.6576C53.9645 53.5171 52.7987 54 51.5832 54H48.8332V35.6667H51.5832C52.7987 35.6667 53.9645 36.1496 54.8241 37.0091C55.6836 37.8687 56.1665 39.0345 56.1665 40.25V49.4167Z" fill="#242D14"/>
</svg>
