<svg width="17" height="17" viewBox="0 0 17 17" fill="none" xmlns="http://www.w3.org/2000/svg">
<path d="M8.36212 0.952576C3.94612 0.952576 0.370117 4.38724 0.370117 8.61924C0.370117 12.8512 3.94612 16.2859 8.36212 16.2859C12.7861 16.2859 16.3701 12.8512 16.3701 8.61924C16.3701 4.38724 12.7861 0.952576 8.36212 0.952576ZM8.37012 14.7526C4.83412 14.7526 1.97012 12.0079 1.97012 8.61924C1.97012 5.23058 4.83412 2.48591 8.37012 2.48591C11.9061 2.48591 14.7701 5.23058 14.7701 8.61924C14.7701 12.0079 11.9061 14.7526 8.37012 14.7526ZM8.19412 4.78591H8.14612C7.82612 4.78591 7.57012 5.03124 7.57012 5.33791V8.95658C7.57012 9.22491 7.71412 9.47791 7.96212 9.61591L11.2821 11.5249C11.5541 11.6782 11.9061 11.6016 12.0661 11.3409C12.1063 11.2788 12.133 11.2096 12.1447 11.1375C12.1564 11.0653 12.1528 10.9916 12.1341 10.9208C12.1155 10.8499 12.0821 10.7834 12.0361 10.7252C11.99 10.667 11.9322 10.6183 11.8661 10.5819L8.77012 8.81858V5.33791C8.77012 5.03124 8.51412 4.78591 8.19412 4.78591Z" fill="#DDA67B"/>
</svg>
