<svg width="18" height="19" viewBox="0 0 18 19" fill="none" xmlns="http://www.w3.org/2000/svg">
<path d="M13.1538 0.79187H4.84615C3.5613 0.793245 2.32946 1.30426 1.42092 2.21279C0.512391 3.12133 0.00137443 4.35317 0 5.63802V13.9457C0.00137443 15.2306 0.512391 16.4624 1.42092 17.3709C2.32946 18.2795 3.5613 18.7905 4.84615 18.7919H13.1538C14.4387 18.7905 15.6705 18.2795 16.5791 17.3709C17.4876 16.4624 17.9986 15.2306 18 13.9457V5.63802C17.9986 4.35317 17.4876 3.12133 16.5791 2.21279C15.6705 1.30426 14.4387 0.793245 13.1538 0.79187ZM9 13.9457C8.17845 13.9457 7.37534 13.7021 6.69225 13.2457C6.00915 12.7892 5.47674 12.1405 5.16235 11.3815C4.84795 10.6225 4.76569 9.78726 4.92597 8.98149C5.08625 8.17573 5.48186 7.43558 6.06279 6.85466C6.64371 6.27373 7.38386 5.87812 8.18962 5.71784C8.99539 5.55756 9.83059 5.63982 10.5896 5.95422C11.3486 6.26861 11.9974 6.80102 12.4538 7.48412C12.9102 8.16721 13.1538 8.97032 13.1538 9.79187C13.1527 10.8932 12.7147 11.9491 11.9359 12.7278C11.1572 13.5066 10.1013 13.9446 9 13.9457ZM14.1923 5.63802C13.9869 5.63802 13.7861 5.57712 13.6154 5.46301C13.4446 5.3489 13.3115 5.18672 13.2329 4.99696C13.1543 4.80721 13.1337 4.59841 13.1738 4.39697C13.2139 4.19553 13.3128 4.01049 13.458 3.86526C13.6032 3.72003 13.7883 3.62112 13.9897 3.58105C14.1912 3.54099 14.4 3.56155 14.5897 3.64015C14.7795 3.71875 14.9416 3.85185 15.0558 4.02262C15.1699 4.1934 15.2308 4.39417 15.2308 4.59956C15.2308 4.87498 15.1214 5.13912 14.9266 5.33387C14.7319 5.52861 14.4677 5.63802 14.1923 5.63802ZM11.7692 9.79187C11.7692 10.3396 11.6068 10.875 11.3025 11.3304C10.9982 11.7858 10.5657 12.1407 10.0597 12.3503C9.55373 12.5599 8.99693 12.6147 8.45975 12.5079C7.92257 12.401 7.42914 12.1373 7.04186 11.75C6.65457 11.3627 6.39083 10.8693 6.28398 10.3321C6.17713 9.79494 6.23197 9.23814 6.44156 8.73213C6.65116 8.22612 7.0061 7.79363 7.4615 7.48934C7.9169 7.18505 8.4523 7.02264 9 7.02264C9.73445 7.02264 10.4388 7.3144 10.9581 7.83373C11.4775 8.35306 11.7692 9.05742 11.7692 9.79187Z" fill="#DDA67B"/>
</svg>
