<svg width="17" height="17" viewBox="0 0 17 17" fill="none" xmlns="http://www.w3.org/2000/svg">
<path d="M15.4368 16.6193C15.7035 16.6193 15.9257 16.5304 16.1035 16.3526C16.2812 16.1748 16.3701 15.9526 16.3701 15.6859V12.0859C16.3701 11.8785 16.3035 11.6969 16.1701 11.541C16.0368 11.3852 15.8664 11.2853 15.659 11.2415L12.5923 10.6193C12.3849 10.5896 12.1737 10.6083 11.9586 10.6753C11.7435 10.7422 11.5695 10.8421 11.4368 10.9748L9.3479 13.0637C8.22197 12.3822 7.19234 11.5748 6.25901 10.6415C5.32567 9.70815 4.54789 8.70815 3.92567 7.64148L6.05901 5.46371C6.19234 5.33037 6.27767 5.17837 6.31501 5.00771C6.35234 4.83704 6.3559 4.6483 6.32567 4.44149L5.7479 1.33037C5.71827 1.12297 5.62197 0.952596 5.45901 0.819263C5.29604 0.685929 5.11086 0.619263 4.90345 0.619263H1.30345C1.03678 0.619263 0.814561 0.708152 0.636783 0.885929C0.459005 1.06371 0.370117 1.28593 0.370117 1.5526C0.370117 3.46371 0.796191 5.32682 1.64834 7.14193C2.50049 8.95704 3.62641 10.5644 5.02612 11.9642C6.42582 13.3639 8.03323 14.4898 9.84834 15.3419C11.6635 16.1941 13.5263 16.6199 15.4368 16.6193Z" fill="#DDA67B"/>
</svg>
