<svg width="17" height="13" viewBox="0 0 17 13" fill="none" xmlns="http://www.w3.org/2000/svg">
<path d="M1.97012 12.9526C1.53012 12.9526 1.15332 12.7974 0.839718 12.4871C0.526118 12.1767 0.369585 11.8041 0.370119 11.3692V1.86922C0.370119 1.43381 0.526919 1.06093 0.840518 0.750598C1.15412 0.440265 1.53065 0.285362 1.97012 0.28589H14.7701C15.2101 0.28589 15.5869 0.441056 15.9005 0.75139C16.2141 1.06172 16.3706 1.43433 16.3701 1.86922V11.3692C16.3701 11.8046 16.2133 12.1775 15.8997 12.4878C15.5861 12.7982 15.2096 12.9531 14.7701 12.9526H1.97012ZM14.7701 3.45256L8.79012 7.1536C8.72345 7.19318 8.65332 7.223 8.57972 7.24305C8.50612 7.26311 8.43625 7.27287 8.37012 7.27235C8.30345 7.27235 8.23332 7.26258 8.15972 7.24305C8.08612 7.22353 8.01625 7.19371 7.95012 7.1536L1.97012 3.45256V11.3692H14.7701V3.45256ZM8.37012 5.82756L14.7701 1.86922H1.97012L8.37012 5.82756ZM1.97012 3.65047V2.48276V2.50256V2.49306V3.65047Z" fill="#DDA67B"/>
</svg>
