<svg width="94" height="233" viewBox="0 0 94 233" fill="none" xmlns="http://www.w3.org/2000/svg">
<path d="M8 98.5H93.5V135.5H8C3.85786 135.5 0.5 132.142 0.5 128V106C0.5 101.858 3.85786 98.5 8 98.5Z" fill="#412814" stroke="#CE9468"/>
<g filter="url(#filter0_d_153_55)">
<path d="M19 107C19.1754 107 19.3399 107.027 19.4934 107.08C19.6469 107.133 19.7895 107.224 19.9211 107.353L28.6053 115.828C28.8684 116.085 29 116.39 29 116.743C29 117.095 28.8684 117.4 28.6053 117.658C28.3421 117.915 28.0351 118.043 27.6842 118.043C27.3333 118.043 27.0263 117.915 26.7632 117.658L20.3158 111.366L20.3158 125.748C20.3158 126.112 20.1895 126.411 19.9368 126.647C19.6842 126.882 19.3719 127 19 127C18.6272 127 18.3145 126.877 18.0618 126.63C17.8092 126.384 17.6833 126.079 17.6842 125.716L17.6842 111.366L11.2368 117.658C10.9737 117.915 10.6667 118.043 10.3158 118.043C9.96491 118.043 9.6579 117.915 9.39474 117.658C9.13158 117.401 9 117.096 9 116.743C9 116.389 9.13158 116.084 9.39474 115.828L18.0789 107.353C18.2105 107.225 18.3531 107.134 18.5066 107.08C18.6601 107.026 18.8246 106.999 19 107Z" fill="#FBFBFB"/>
</g>
<path opacity="0.3" d="M19 107C19 102.582 22.5817 99 27 99H92V135H27C22.5817 135 19 131.418 19 127V107Z" fill="url(#paint0_angular_153_55)"/>
<path d="M42.8594 112.047V122H41.6016V112.047H42.8594ZM46.0928 115.766V122H44.8828V114.604H46.0518L46.0928 115.766ZM47.9316 114.562L47.9385 115.738C47.8382 115.715 47.7471 115.702 47.665 115.697C47.5876 115.688 47.4964 115.684 47.3916 115.684C47.1637 115.684 46.9632 115.729 46.79 115.82C46.6214 115.911 46.4756 116.039 46.3525 116.203C46.2295 116.367 46.1315 116.563 46.0586 116.791C45.9857 117.014 45.9355 117.26 45.9082 117.529L45.5938 117.734C45.5938 117.288 45.6279 116.868 45.6963 116.477C45.7692 116.085 45.8809 115.738 46.0312 115.438C46.1816 115.132 46.373 114.895 46.6055 114.727C46.8424 114.553 47.125 114.467 47.4531 114.467C47.526 114.467 47.6149 114.478 47.7197 114.501C47.8291 114.519 47.8997 114.54 47.9316 114.562ZM55.9844 120.735V116.723C55.9844 116.431 55.9388 116.196 55.8477 116.019C55.7611 115.841 55.6289 115.711 55.4512 115.629C55.278 115.547 55.0592 115.506 54.7949 115.506C54.5397 115.506 54.3187 115.558 54.1318 115.663C53.9495 115.768 53.8083 115.907 53.708 116.08C53.6123 116.253 53.5645 116.445 53.5645 116.654H52.3545C52.3545 116.39 52.4115 116.128 52.5254 115.868C52.6439 115.608 52.8125 115.374 53.0312 115.164C53.25 114.95 53.512 114.781 53.8174 114.658C54.1273 114.531 54.4736 114.467 54.8564 114.467C55.3122 114.467 55.7155 114.542 56.0664 114.692C56.4173 114.838 56.693 115.077 56.8936 115.41C57.0941 115.743 57.1943 116.185 57.1943 116.736V120.387C57.1943 120.633 57.2126 120.895 57.249 121.173C57.29 121.451 57.347 121.69 57.4199 121.891V122H56.1689C56.1097 121.854 56.0641 121.66 56.0322 121.419C56.0003 121.173 55.9844 120.945 55.9844 120.735ZM56.1758 117.516L56.1895 118.404H55.3486C55.0615 118.404 54.7995 118.436 54.5625 118.5C54.3301 118.564 54.1296 118.657 53.9609 118.78C53.7923 118.899 53.6624 119.047 53.5713 119.225C53.4847 119.402 53.4414 119.605 53.4414 119.833C53.4414 120.129 53.4824 120.366 53.5645 120.544C53.6465 120.717 53.7695 120.842 53.9336 120.92C54.0977 120.997 54.305 121.036 54.5557 121.036C54.861 121.036 55.1299 120.965 55.3623 120.824C55.5947 120.683 55.7747 120.512 55.9023 120.312C56.0345 120.111 56.096 119.924 56.0869 119.751L56.3535 120.318C56.3353 120.496 56.276 120.69 56.1758 120.899C56.0801 121.104 55.9456 121.303 55.7725 121.494C55.5993 121.681 55.3942 121.836 55.1572 121.959C54.9248 122.077 54.6628 122.137 54.3711 122.137C53.9427 122.137 53.5667 122.055 53.2432 121.891C52.9242 121.727 52.6758 121.485 52.498 121.166C52.3203 120.847 52.2314 120.453 52.2314 119.983C52.2314 119.628 52.293 119.3 52.416 118.999C52.5391 118.698 52.7214 118.438 52.9629 118.22C53.2044 117.996 53.5075 117.823 53.8721 117.7C54.2412 117.577 54.6673 117.516 55.1504 117.516H56.1758ZM60.2842 115.766V122H59.0742V114.604H60.2432L60.2842 115.766ZM62.123 114.562L62.1299 115.738C62.0296 115.715 61.9385 115.702 61.8564 115.697C61.779 115.688 61.6878 115.684 61.583 115.684C61.3551 115.684 61.1546 115.729 60.9814 115.82C60.8128 115.911 60.667 116.039 60.5439 116.203C60.4209 116.367 60.3229 116.563 60.25 116.791C60.1771 117.014 60.127 117.26 60.0996 117.529L59.7852 117.734C59.7852 117.288 59.8193 116.868 59.8877 116.477C59.9606 116.085 60.0723 115.738 60.2227 115.438C60.373 115.132 60.5645 114.895 60.7969 114.727C61.0339 114.553 61.3164 114.467 61.6445 114.467C61.7174 114.467 61.8063 114.478 61.9111 114.501C62.0205 114.519 62.0911 114.54 62.123 114.562ZM64.5498 115.766V122H63.3398V114.604H64.5088L64.5498 115.766ZM66.3887 114.562L66.3955 115.738C66.2952 115.715 66.2041 115.702 66.1221 115.697C66.0446 115.688 65.9535 115.684 65.8486 115.684C65.6208 115.684 65.4202 115.729 65.2471 115.82C65.0785 115.911 64.9326 116.039 64.8096 116.203C64.6865 116.367 64.5885 116.563 64.5156 116.791C64.4427 117.014 64.3926 117.26 64.3652 117.529L64.0508 117.734C64.0508 117.288 64.085 116.868 64.1533 116.477C64.2262 116.085 64.3379 115.738 64.4883 115.438C64.6387 115.132 64.8301 114.895 65.0625 114.727C65.2995 114.553 65.582 114.467 65.9102 114.467C65.9831 114.467 66.0719 114.478 66.1768 114.501C66.2861 114.519 66.3568 114.54 66.3887 114.562ZM68.9043 114.604V122H67.7012V114.604H68.9043ZM67.6328 112.642C67.6328 112.437 67.6898 112.263 67.8037 112.122C67.9176 111.981 68.0885 111.91 68.3164 111.91C68.5443 111.91 68.7152 111.981 68.8291 112.122C68.9476 112.263 69.0068 112.437 69.0068 112.642C69.0068 112.838 68.9476 113.006 68.8291 113.147C68.7152 113.284 68.5443 113.353 68.3164 113.353C68.0885 113.353 67.9176 113.284 67.8037 113.147C67.6898 113.006 67.6328 112.838 67.6328 112.642ZM70.8184 111.5H72.0283V120.564L71.9258 122H70.8184V111.5ZM76.1777 117.967V118.657C76.1777 119.241 76.123 119.751 76.0137 120.188C75.9089 120.621 75.7516 120.984 75.542 121.275C75.3324 121.562 75.0771 121.779 74.7764 121.925C74.4756 122.066 74.1315 122.137 73.7441 122.137C73.3613 122.137 73.0309 122.059 72.7529 121.904C72.4749 121.749 72.2425 121.526 72.0557 121.234C71.8688 120.943 71.7207 120.59 71.6113 120.175C71.5065 119.76 71.4336 119.293 71.3926 118.773V117.851C71.4336 117.326 71.5065 116.857 71.6113 116.442C71.7161 116.023 71.862 115.668 72.0488 115.376C72.2357 115.08 72.4681 114.854 72.7461 114.699C73.0241 114.544 73.3545 114.467 73.7373 114.467C74.1292 114.467 74.4756 114.535 74.7764 114.672C75.0817 114.809 75.3369 115.021 75.542 115.308C75.7516 115.59 75.9089 115.952 76.0137 116.395C76.123 116.832 76.1777 117.356 76.1777 117.967ZM74.9678 118.657V117.967C74.9678 117.557 74.9404 117.199 74.8857 116.894C74.8356 116.588 74.7513 116.335 74.6328 116.135C74.5143 115.934 74.3548 115.784 74.1543 115.684C73.9583 115.583 73.7145 115.533 73.4229 115.533C73.1768 115.533 72.9603 115.583 72.7734 115.684C72.5911 115.784 72.4339 115.921 72.3018 116.094C72.1696 116.262 72.0602 116.456 71.9736 116.675C71.887 116.889 71.8232 117.112 71.7822 117.345V119.286C71.8415 119.582 71.9349 119.867 72.0625 120.141C72.1947 120.41 72.3724 120.631 72.5957 120.804C72.819 120.977 73.097 121.063 73.4297 121.063C73.7077 121.063 73.9424 121.016 74.1338 120.92C74.3298 120.824 74.4893 120.678 74.6123 120.482C74.7354 120.282 74.8242 120.031 74.8789 119.73C74.9382 119.425 74.9678 119.067 74.9678 118.657ZM81.3457 120.735V116.723C81.3457 116.431 81.3001 116.196 81.209 116.019C81.1224 115.841 80.9902 115.711 80.8125 115.629C80.6393 115.547 80.4206 115.506 80.1562 115.506C79.901 115.506 79.68 115.558 79.4932 115.663C79.3109 115.768 79.1696 115.907 79.0693 116.08C78.9736 116.253 78.9258 116.445 78.9258 116.654H77.7158C77.7158 116.39 77.7728 116.128 77.8867 115.868C78.0052 115.608 78.1738 115.374 78.3926 115.164C78.6113 114.95 78.8734 114.781 79.1787 114.658C79.4886 114.531 79.835 114.467 80.2178 114.467C80.6735 114.467 81.0768 114.542 81.4277 114.692C81.7786 114.838 82.0544 115.077 82.2549 115.41C82.4554 115.743 82.5557 116.185 82.5557 116.736V120.387C82.5557 120.633 82.5739 120.895 82.6104 121.173C82.6514 121.451 82.7083 121.69 82.7812 121.891V122H81.5303C81.471 121.854 81.4255 121.66 81.3936 121.419C81.3617 121.173 81.3457 120.945 81.3457 120.735ZM81.5371 117.516L81.5508 118.404H80.71C80.4229 118.404 80.1608 118.436 79.9238 118.5C79.6914 118.564 79.4909 118.657 79.3223 118.78C79.1536 118.899 79.0238 119.047 78.9326 119.225C78.846 119.402 78.8027 119.605 78.8027 119.833C78.8027 120.129 78.8438 120.366 78.9258 120.544C79.0078 120.717 79.1309 120.842 79.2949 120.92C79.459 120.997 79.6663 121.036 79.917 121.036C80.2223 121.036 80.4912 120.965 80.7236 120.824C80.9561 120.683 81.1361 120.512 81.2637 120.312C81.3958 120.111 81.4574 119.924 81.4482 119.751L81.7148 120.318C81.6966 120.496 81.6374 120.69 81.5371 120.899C81.4414 121.104 81.307 121.303 81.1338 121.494C80.9606 121.681 80.7555 121.836 80.5186 121.959C80.2861 122.077 80.0241 122.137 79.7324 122.137C79.304 122.137 78.9281 122.055 78.6045 121.891C78.2855 121.727 78.0371 121.485 77.8594 121.166C77.6816 120.847 77.5928 120.453 77.5928 119.983C77.5928 119.628 77.6543 119.3 77.7773 118.999C77.9004 118.698 78.0827 118.438 78.3242 118.22C78.5658 117.996 78.8688 117.823 79.2334 117.7C79.6025 117.577 80.0286 117.516 80.5117 117.516H81.5371Z" fill="white"/>
<mask id="path-5-inside-1_153_55" fill="white">
<path d="M94 0L94 233L92 233L92 -8.74223e-08L94 0Z"/>
</mask>
<path d="M90 -1.74846e-07L90 233L98 233L98 1.74846e-07L90 -1.74846e-07Z" fill="url(#paint1_linear_153_55)" mask="url(#path-5-inside-1_153_55)"/>
<defs>
<filter id="filter0_d_153_55" x="7" y="105" width="28" height="28" filterUnits="userSpaceOnUse" color-interpolation-filters="sRGB">
<feFlood flood-opacity="0" result="BackgroundImageFix"/>
<feColorMatrix in="SourceAlpha" type="matrix" values="0 0 0 0 0 0 0 0 0 0 0 0 0 0 0 0 0 0 127 0" result="hardAlpha"/>
<feOffset dx="2" dy="2"/>
<feGaussianBlur stdDeviation="2"/>
<feComposite in2="hardAlpha" operator="out"/>
<feColorMatrix type="matrix" values="0 0 0 0 0.0875 0 0 0 0 0.0875 0 0 0 0 0.0875 0 0 0 0.45 0"/>
<feBlend mode="normal" in2="BackgroundImageFix" result="effect1_dropShadow_153_55"/>
<feBlend mode="normal" in="SourceGraphic" in2="effect1_dropShadow_153_55" result="shape"/>
</filter>
<radialGradient id="paint0_angular_153_55" cx="0" cy="0" r="1" gradientUnits="userSpaceOnUse" gradientTransform="translate(55.5 117) rotate(90) scale(18 36.5)">
<stop offset="0.253547" stop-color="#121212" stop-opacity="0"/>
<stop offset="0.254568" stop-color="#121212" stop-opacity="0"/>
<stop offset="0.747782" stop-color="#121212"/>
</radialGradient>
<linearGradient id="paint1_linear_153_55" x1="93.9116" y1="41.9885" x2="126.529" y2="183.435" gradientUnits="userSpaceOnUse">
<stop stop-color="#F7C9A5" stop-opacity="0"/>
<stop offset="0.276042" stop-color="#A66736"/>
<stop offset="0.505208" stop-color="#DDA67B"/>
<stop offset="0.71875" stop-color="#A66736"/>
<stop offset="1" stop-color="#F7C9A5" stop-opacity="0"/>
</linearGradient>
</defs>
</svg>
