<svg width="48" height="48" viewBox="0 0 48 48" fill="none" xmlns="http://www.w3.org/2000/svg">
<circle opacity="0.8" cx="24" cy="24" r="24" fill="#0D1105"/>
<path d="M23.6771 39.564L23.6752 39.564L23.3551 39.564C19.4111 39.4737 15.6554 37.8676 12.8748 35.0825C10.0934 32.2966 8.5035 28.5475 8.43777 24.6208C8.43777 24.6207 8.43777 24.6206 8.43777 24.6205L8.13781 24.6255L23.6771 39.564ZM23.6771 39.564C27.4127 39.5878 31.0248 38.2349 33.818 35.7662L33.818 35.7662M23.6771 39.564L33.818 35.7662M33.818 35.7662L33.8223 35.7625M33.818 35.7662L33.8223 35.7625M33.8223 35.7625C33.9667 35.6397 34.0849 35.4895 34.17 35.3208C34.2551 35.152 34.3055 34.9681 34.3182 34.7798C34.3309 34.5916 34.3056 34.4026 34.2439 34.2242C34.1822 34.0457 34.0852 33.8812 33.9586 33.7404C33.8321 33.5995 33.6784 33.4853 33.5067 33.4043C33.335 33.3233 33.1487 33.2773 32.9587 33.269C32.7688 33.2607 32.5791 33.2902 32.4009 33.3559C32.2227 33.4216 32.0595 33.5221 31.921 33.6513L31.921 33.6514M33.8223 35.7625L31.921 33.6514M31.921 33.6514L31.9157 33.6561M31.921 33.6514L31.9157 33.6561M31.9157 33.6561C31.1899 34.3018 30.3876 34.8569 29.5267 35.3091L29.2976 35.4295M31.9157 33.6561L29.2976 35.4295M29.2976 35.4295L29.145 35.2205M29.2976 35.4295L29.145 35.2205M29.145 35.2205L26.0481 30.9811L25.8077 30.652M29.145 35.2205L25.8077 30.652M25.8077 30.652L26.1934 30.5203M25.8077 30.652L26.1934 30.5203M26.1934 30.5203C29.1899 29.4967 32.3353 30.0266 34.1351 30.3298L34.1671 30.3352L34.1685 30.3354M26.1934 30.5203L34.1685 30.3354M34.1685 30.3354C35.0675 30.4912 35.9924 30.3913 36.8369 30.0472M34.1685 30.3354L36.8369 30.0472M36.8369 30.0472C37.6813 29.7031 38.4108 29.1288 38.9417 28.3906M36.8369 30.0472L38.9417 28.3906M38.9417 28.3906C38.9605 28.3644 38.9787 28.3377 38.9952 28.3119M38.9417 28.3906L38.9952 28.3119M38.9952 28.3119C38.9954 28.3116 38.9956 28.3114 38.9957 28.3111M38.9952 28.3119L38.9957 28.3111M38.9957 28.3111L40.9756 25.1643C40.9757 25.1643 40.9757 25.1643 40.9757 25.1642C40.9757 25.1642 40.9757 25.1642 40.9757 25.1642C41.0753 25.0057 41.1423 24.8293 41.173 24.6451C41.2037 24.4609 41.1975 24.2724 41.1548 24.0905C41.112 23.9086 41.0335 23.7369 40.9237 23.5852C40.814 23.4335 40.6751 23.3048 40.515 23.2067C40.515 23.2067 40.515 23.2067 40.515 23.2067L38.9957 28.3111ZM11.2884 24.5836L11.2884 24.5826C11.2423 21.3852 12.4464 18.2953 14.6461 15.9657C16.8457 13.6361 19.8685 12.2491 23.0758 12.0972L23.39 12.0824V12.3969V15.2465C23.39 15.4884 23.4522 15.7262 23.5708 15.9375C23.6894 16.1488 23.8604 16.3264 24.0677 16.4535L37.5405 24.706L37.7993 24.8645L37.6378 25.1215L36.6112 26.7545L36.6038 26.7664L36.5953 26.7775C36.3705 27.0705 36.0695 27.2963 35.7251 27.4307C35.3807 27.5651 35.0061 27.603 34.6417 27.5404C32.3024 27.1458 27.6313 26.3667 23.3847 28.6538L23.3065 28.6959L23.218 28.6887C21.8495 28.577 20.5728 27.9574 19.6412 26.9524C18.7096 25.9472 18.1912 24.63 18.1894 23.2619V23.2615C18.1894 22.886 18.0395 22.5256 17.7724 22.2597C17.5052 21.9937 17.1425 21.844 16.7641 21.844C16.3857 21.844 16.023 21.9937 15.7558 22.2597C15.4888 22.5255 15.3389 22.8857 15.3388 23.2611C15.3417 25.3059 16.1027 27.2778 17.4763 28.7987C18.85 30.3197 20.7396 31.2824 22.7828 31.502L22.9147 31.5162L22.993 31.6234L26.2206 36.0416L26.5021 36.4269L26.0329 36.5136C25.1692 36.6731 24.2913 36.7443 23.413 36.7261L23.4122 36.726C20.2085 36.6508 17.1578 35.3455 14.8982 33.0826C12.6385 30.8197 11.3449 27.7744 11.2884 24.5836ZM21.6648 20.9715C21.6648 21.3648 21.7819 21.7494 22.0015 22.0766C22.2212 22.4038 22.5335 22.6591 22.8992 22.8098C23.2649 22.9606 23.6673 23.0001 24.0556 22.9232C24.4439 22.8463 24.8004 22.6566 25.0801 22.3782C25.3597 22.0998 25.55 21.7452 25.6271 21.3595C25.7042 20.9737 25.6646 20.5739 25.5134 20.2104C25.3621 19.8469 25.1059 19.5361 24.777 19.3172C24.448 19.0984 24.0611 18.9815 23.6651 18.9815C23.1342 18.9815 22.6252 19.1915 22.2502 19.5649C21.8752 19.9382 21.6648 20.4442 21.6648 20.9715Z" fill="#FBFBFB" stroke="#0D1105" stroke-width="0.6"/>
</svg>
