<svg width="60" height="48" viewBox="0 0 60 48" fill="none" xmlns="http://www.w3.org/2000/svg">
<path d="M52.7407 32.2957C51.3951 31.8788 50.0413 31.6236 48.6219 31.6916C47.3256 31.7597 46.0293 31.6746 44.7329 31.7512C42.2715 31.9043 40.4009 33.5038 39.7281 35.9455C39.6953 36.0561 39.6542 36.1667 39.605 36.3029C37.1928 34.244 34.4115 33.4357 31.3922 33.4272C28.3564 33.4102 25.575 34.2355 23.1875 36.3284C23.1383 36.1838 23.0972 36.1157 23.0808 36.0306C22.4655 33.6229 20.9312 32.1851 18.5929 31.8448C17.1407 31.6321 15.6556 31.7002 14.1788 31.6746C12.6937 31.6491 11.2333 31.8363 9.83029 32.3723C9.24776 32.5935 9.20674 32.7296 9.62518 33.223C9.68261 33.2911 9.73184 33.3507 9.78927 33.4102C11.2825 35.1288 13.0301 36.5156 14.909 37.7577C18.5683 40.1909 22.5229 41.7989 26.8304 42.4625C27.2816 42.5306 27.7329 42.6157 28.2005 42.6922C27.6098 43.7642 27.5852 43.8833 27.8313 44.2577C27.8641 44.2321 27.897 44.2066 27.9216 44.1726C28.4303 43.4409 28.7256 43.4069 29.3902 43.9514C30.4158 44.7937 31.0229 45.9082 31.3839 47.1844C31.425 47.3205 31.466 47.4481 31.507 47.5842C31.6301 47.3885 31.6629 47.2099 31.7121 47.0397C32.0403 45.7465 32.6475 44.632 33.6895 43.8068C34.1325 43.4579 34.5345 43.509 34.9202 43.9344C35.0186 44.045 35.1089 44.1471 35.2483 44.3087C35.5355 43.6196 35.1417 43.2027 34.8709 42.7178C34.9776 42.6922 35.076 42.6582 35.1827 42.6327C36.6431 42.3264 38.12 42.1307 39.5476 41.7138C44.7575 40.1909 49.2537 37.4004 53.0278 33.3592C53.6924 32.6871 53.6596 32.585 52.7407 32.2957ZM41.1311 34.5418C41.3608 34.2185 41.6726 33.9462 41.9187 33.6399C42.5669 32.8402 43.4448 32.5084 44.3965 32.4403C45.4796 32.3638 46.5708 32.4233 47.7194 32.4233C47.6456 32.5765 47.6374 32.619 47.6128 32.6445C46.9482 33.3336 46.2426 33.9888 45.6354 34.7289C45.0201 35.4861 44.2981 35.9711 43.3546 36.0902C42.5669 36.1923 41.7875 36.2773 40.9998 36.3709C40.9834 36.3369 40.9588 36.3029 40.9424 36.2688C41.1393 36.0987 41.3198 35.903 41.5413 35.7669C42.1649 35.384 42.7966 35.0267 43.4284 34.6524C43.8222 34.4227 44.1832 34.1589 44.3309 33.6995C43.9617 33.9632 43.6089 34.261 43.2151 34.4652C42.3208 34.9331 41.4511 35.4266 40.7373 36.1667C40.688 36.2178 40.6306 36.2433 40.5239 36.3199C40.5486 35.6222 40.7701 35.0522 41.1311 34.5418ZM38.4318 36.5071C37.7508 36.941 36.9877 37.3068 36.3724 37.8598C35.7488 38.4128 35.273 39.136 34.6822 39.7741C34.9612 39.0764 35.2401 38.3788 35.5601 37.5876C34.7561 37.8938 34.1243 38.3277 33.4597 38.9233C33.5582 38.3362 33.6402 37.8513 33.7469 37.2302C33.5418 37.3663 33.4433 37.4259 33.3038 37.511C33.3038 37.1451 33.3038 36.8304 33.3038 36.5156C33.2792 36.4986 33.2464 36.4815 33.2218 36.4645C32.8936 36.8814 32.5654 37.3068 32.2126 37.7577C31.9583 36.8814 31.7121 36.0221 31.4496 35.0948C31.2527 36.0136 31.0722 36.8644 30.8917 37.7067C30.5389 37.2643 30.1532 36.7878 29.7348 36.2603C29.702 36.6942 29.661 37.1026 29.6281 37.5876C29.4641 37.4089 29.3492 37.2813 29.2343 37.1537C29.1933 37.1622 29.1605 37.1707 29.1195 37.1792C29.2671 37.7577 29.4148 38.3277 29.5543 38.8722C28.9964 38.4979 28.4303 38.115 27.8559 37.7407C27.7821 37.6896 27.6672 37.7067 27.577 37.6896C27.5852 37.8002 27.5688 37.9109 27.6016 38.0129C27.7903 38.5915 27.9954 39.17 28.1513 39.7911C27.2324 38.2597 26.133 36.975 24.2951 36.6006C28.258 33.0614 35.4863 33.7846 38.4318 36.5071ZM15.5654 32.4488C16.5499 32.4488 17.5345 32.3638 18.5026 32.4829C19.8564 32.6445 20.9968 33.3081 21.6778 34.5843C21.9486 35.0863 22.0634 35.6733 22.2522 36.2263C21.0871 35.4096 19.9631 34.6098 18.8308 33.8186C18.8062 33.8271 18.7898 33.8441 18.7652 33.8526C18.9293 34.0568 19.0605 34.295 19.2657 34.4397C19.7169 34.7715 20.2174 35.0522 20.6769 35.3755C21.0789 35.6563 21.4563 35.9711 21.8501 36.2688C21.8337 36.3114 21.8173 36.3454 21.8091 36.388C21.4809 36.3539 21.1527 36.3199 20.8245 36.2773C20.4882 36.2348 20.1518 36.1582 19.8154 36.1242C18.6749 36.0136 17.7888 35.4861 17.0996 34.5247C16.673 33.9292 16.1233 33.4272 15.631 32.8827C15.5325 32.7721 15.4177 32.67 15.2618 32.5254C15.3931 32.4914 15.4751 32.4488 15.5654 32.4488ZM10.9789 33.4953C10.8969 33.4017 10.8066 33.3081 10.7328 33.2145C10.7082 33.189 10.7082 33.138 10.6836 33.0189C11.0446 33.0784 11.3728 33.1295 11.7666 33.1975C11.5615 33.0699 11.4138 32.9848 11.1677 32.8402C11.381 32.7806 11.4958 32.7296 11.6189 32.7041C13.5634 32.3127 15.0321 33.0954 16.1889 34.6609C16.3366 34.8651 16.4925 35.0607 16.632 35.2734C17.4442 36.4815 18.6093 37.026 19.9795 37.1281C20.6605 37.1792 21.3414 37.1281 22.0224 37.1366C22.1865 37.1366 22.3506 37.2047 22.5147 37.2387C22.4327 37.4004 22.3834 37.6386 22.2522 37.7152C21.8583 37.9534 21.4481 38.2597 21.0133 38.3022C19.1426 38.4979 17.3376 38.3788 15.6638 37.2643C13.9901 36.1497 12.3737 34.9671 10.9789 33.4953ZM22.7855 40.7184C21.5301 40.2165 20.283 39.723 18.9867 39.204C19.8072 39.204 20.5538 39.1275 21.284 39.221C22.047 39.3146 22.4327 39.9953 22.8675 40.5568C22.8347 40.6163 22.8101 40.6674 22.7855 40.7184ZM26.4694 41.297C26.4037 41.3735 26.256 41.4586 26.174 41.4331C25.0089 41.1693 24.008 40.6419 23.368 39.5018C24.4018 39.6124 25.452 39.6379 26.3463 40.276C26.7893 40.5993 26.8222 40.8886 26.4694 41.297ZM22.6214 38.7021C22.6132 38.6425 22.605 38.5915 22.605 38.5319C22.9578 38.1065 23.3106 37.6811 23.6798 37.2728C23.7536 37.1877 23.9259 37.1537 24.0408 37.1707C25.452 37.4089 26.3791 38.2852 26.978 39.5954C26.9862 39.6124 26.9698 39.6464 26.9616 39.74C25.6653 38.6936 24.131 38.7531 22.6214 38.7021ZM26.9452 41.7734C27.0273 41.5947 27.0765 41.5096 27.1093 41.4161C27.2898 41.0162 27.4539 40.5568 27.9544 40.5483C28.5205 40.5398 28.9554 40.8716 29.2836 41.331C29.5215 41.6628 29.3738 41.9861 28.98 41.9691C28.3236 41.9435 27.6672 41.85 26.9452 41.7734ZM29.2671 42.9219C29.2671 42.8709 29.2671 42.8198 29.2671 42.7773C29.5133 42.7603 29.7758 42.6752 29.9892 42.7518C30.1532 42.8113 30.2435 43.0751 30.3994 43.2963C29.8087 43.526 29.6281 42.9985 29.2671 42.9219ZM31.5809 45.134C31.548 45.134 31.5152 45.1255 31.4824 45.1255C31.3511 44.5384 31.2199 43.9514 31.105 43.3643C30.9901 42.7858 31.064 42.7092 31.6219 42.7858C31.6875 42.7943 31.7532 42.8113 31.9419 42.8539C31.8188 43.6281 31.7039 44.3768 31.5809 45.134ZM32.2865 41.6543C32.1142 42.0712 31.8762 42.1307 31.5727 41.8159C31.4332 41.6713 31.2609 41.5692 31.1952 41.331C31.1624 41.2119 30.9245 41.1438 30.6948 40.9992C30.5881 40.4206 30.7522 40.0463 31.4332 39.3657C32.2618 39.8166 32.6311 40.7865 32.2865 41.6543ZM32.7623 43.0836C32.869 42.6327 33.0249 42.5731 33.6156 42.8198C33.3695 43.1431 33.1397 43.3899 32.7623 43.0836ZM34.2228 42.0116C34.0012 42.0201 33.7305 41.8159 33.5664 41.6288C33.509 41.5692 33.673 41.2204 33.8043 41.0758C34.1407 40.7099 34.5509 40.4292 35.076 40.5738C35.4781 40.6844 35.8801 41.2884 35.9047 41.7734C35.3468 41.8585 34.7807 41.9946 34.2228 42.0116ZM38.2595 40.9396C37.9149 41.1098 37.5456 41.2119 37.2011 41.3735C36.8483 41.5352 36.6021 41.3735 36.4216 41.1013C36.2165 40.7865 36.4052 40.5398 36.6431 40.3356C36.7498 40.242 36.8565 40.1569 36.9795 40.0974C37.8246 39.689 38.7271 39.6294 39.7445 39.4848C39.3343 40.1994 38.8584 40.6419 38.2595 40.9396ZM37.6851 38.9148C37.7672 38.8552 37.8902 38.7786 38.0051 38.6936C37.9887 38.651 37.9641 38.617 37.9477 38.5745C37.3077 38.9318 36.676 39.2806 36.0524 39.6294C36.5037 38.4043 37.398 37.3153 38.7846 37.3068C38.8748 37.3068 38.9979 37.2898 39.0635 37.3408C39.4902 37.7067 39.884 38.098 40.0727 38.6766C39.244 38.7616 38.4564 38.8382 37.6851 38.9148ZM40.7373 40.4462C40.6306 40.4972 40.4747 40.4377 40.3434 40.4292C40.3681 40.293 40.3681 40.1314 40.4337 40.0123C40.8193 39.3231 41.3936 39.0424 42.1649 39.1785C42.4192 39.221 42.6818 39.187 42.9361 39.187C42.9607 39.2296 42.9853 39.2806 43.01 39.3231C42.2551 39.6975 41.5003 40.0803 40.7373 40.4462ZM50.509 34.7119C49.3522 35.6393 48.1625 36.5156 46.981 37.4004C46.1523 38.0215 45.2006 38.3277 44.1832 38.3618C43.3628 38.3873 42.5423 38.3618 41.73 38.3022C41.4183 38.2767 41.1147 38.115 40.8111 37.9789C40.4337 37.8088 40.3024 37.511 40.4337 37.0516C40.5732 37.0686 40.7126 37.0686 40.8603 37.0941C41.8121 37.2643 42.7638 37.2217 43.7156 37.026C44.9052 36.7793 45.7995 36.0817 46.4641 35.0437C47.0549 34.1164 47.7933 33.3592 48.7942 32.9083C49.5409 32.5765 50.2957 32.5169 51.0833 32.67C51.2638 32.7041 51.4279 32.8062 51.6495 32.8998C51.4608 32.9933 51.3295 33.0699 51.0915 33.189C51.4115 33.189 51.6248 33.189 51.83 33.189C51.8464 33.2316 51.871 33.2656 51.8874 33.3081C51.4361 33.7761 51.0177 34.3035 50.509 34.7119Z" fill="#FBFBFB"/>
<path d="M12.6934 37.4856C12.841 37.6217 12.9641 37.7918 13.1282 37.9024C14.5312 38.8298 15.9096 39.8082 17.3618 40.642C19.372 41.799 21.5134 42.6413 23.7615 43.1773C23.9338 43.2198 24.1143 43.2198 24.2948 43.2368C24.303 43.1858 24.3112 43.1433 24.3194 43.0922C20.0776 42.0457 16.2788 40.0379 12.7836 37.3665C12.7508 37.409 12.7262 37.443 12.6934 37.4856Z" fill="#FBFBFB"/>
<path d="M50.1385 37.2305C46.9223 39.7403 43.4927 41.68 39.5791 42.8456C40.7934 43.3731 49.8924 38.5237 50.1385 37.2305Z" fill="#FBFBFB"/>
<path d="M18.091 29.4626C15.2194 29.6668 12.4216 30.1943 9.77148 31.4365C12.479 30.4666 15.2768 29.9306 18.091 29.4626Z" fill="#FBFBFB"/>
<path d="M45.29 29.5564C47.9073 29.9988 50.4918 30.5688 53.027 31.3941C50.5492 30.3306 47.973 29.701 45.29 29.5564Z" fill="#FBFBFB"/>
<path d="M46.6441 30.79C44.9294 30.5263 43.2228 30.271 41.4424 29.9988C41.869 30.3816 46.0042 31.0197 46.6441 30.79Z" fill="#FBFBFB"/>
<path d="M20.9545 30.2198C20.9463 30.1687 20.9381 30.1092 20.9299 30.0581C19.2397 30.3304 17.5495 30.5941 15.8594 30.8663C15.8676 30.9174 15.8758 30.9599 15.884 31.011C17.5824 30.8153 19.2807 30.6111 20.9545 30.2198Z" fill="#FBFBFB"/>
<path d="M16.0808 36.107C15.6951 35.6816 15.3752 35.1967 14.9649 34.8053C14.5301 34.397 14.0132 34.0822 13.5373 33.7249C13.5291 33.7419 13.5209 33.7589 13.5127 33.7844C14.046 34.3034 14.5957 34.7968 15.1126 35.3328C15.4818 35.7157 15.7772 36.1666 16.1464 36.5324C16.532 36.9068 16.9751 37.2216 17.3935 37.5534C17.4263 37.5108 17.4509 37.4768 17.4838 37.4343C17.3361 37.3151 17.1884 37.196 17.0489 37.0599C16.7207 36.7536 16.3843 36.4473 16.0808 36.107Z" fill="#FBFBFB"/>
<path d="M46.1992 36.9837C46.3879 36.8731 46.5766 36.7455 46.7161 36.5838C47.0525 36.2095 47.3397 35.7841 47.6925 35.4438C48.3488 34.8142 49.038 34.2272 49.637 33.6997C48.1027 34.2272 47.1674 35.6225 46.1992 36.9837Z" fill="#FBFBFB"/>
<path d="M10.822 9.1375C10.822 9.18004 10.7399 9.34169 10.5758 9.63946C10.4035 9.93724 10.3133 10.1329 10.3133 10.2265C10.3133 10.4817 10.4774 10.7285 10.8137 10.9582C11.1009 11.1624 11.3799 11.2645 11.6506 11.2645C11.9788 11.2645 12.1839 11.1624 12.2824 10.9582V10.9667C12.6024 10.3201 12.8895 9.72454 13.1439 9.15452C13.3982 8.59301 13.6197 8.06552 13.792 7.58908C14.153 6.6277 14.4648 5.87902 14.711 5.36004C14.9571 4.83256 15.1376 4.56881 15.2361 4.56881C15.3509 4.56881 15.753 4.9942 16.4339 5.85349C17.0739 6.64472 17.4513 7.13817 17.5662 7.32534C17.8205 7.75924 18.0503 8.14209 18.2554 8.4739C18.4605 8.8057 18.6328 9.09497 18.7887 9.32468H18.7805C18.8379 9.45229 18.9035 9.58842 18.9528 9.75007C19.0102 9.90321 19.0676 10.0819 19.1169 10.269C19.1415 10.3456 19.1415 10.4647 19.1169 10.6094C19.1005 10.6944 19.0923 10.7795 19.084 10.8646C19.0758 10.9497 19.0758 11.0177 19.0758 11.0518C19.3466 11.1879 19.6748 11.307 20.0604 11.4006C20.5199 11.5112 20.9219 11.5622 21.2583 11.5622C21.406 11.5622 21.5619 11.5452 21.7095 11.5027C21.8572 11.4601 22.0049 11.4091 22.1608 11.3495V10.9752C21.127 9.682 20.0932 8.38882 19.0512 7.08712C18.0174 5.78543 16.9837 4.49225 15.9417 3.19906C15.9827 3.13951 16.0401 3.03741 16.1222 2.90979C16.2042 2.78218 16.3191 2.60351 16.4586 2.39082C16.7047 2.00797 16.836 1.76124 16.836 1.65915C16.836 1.40391 16.598 1.07211 16.1304 0.680751C15.6627 0.280884 15.3345 0.0852051 15.154 0.0852051C14.8094 0.0852051 14.2433 0.944492 13.4803 2.67158C13.3572 2.94383 13.2423 3.21608 13.1275 3.48833C13.0126 3.76057 12.8977 4.02432 12.7911 4.29657C12.668 4.56882 12.5531 4.84107 12.4383 5.11332C12.3234 5.38557 12.2085 5.64931 12.0855 5.92156C12.0609 5.98111 12.0362 6.04066 12.0198 6.10022C11.9952 6.15127 11.9706 6.21082 11.9542 6.26187C11.9378 6.31292 11.9132 6.37247 11.8886 6.44053C11.8557 6.50008 11.8311 6.55964 11.8065 6.61919C11.7491 6.7383 11.6916 6.83189 11.6424 6.91697C11.5932 6.99354 11.5358 7.05309 11.4783 7.07862C11.3306 6.951 11.1009 6.7298 10.7891 6.4065C10.4692 6.0832 10.0835 5.67483 9.63228 5.18138C9.06615 4.59434 8.63131 4.1179 8.32773 3.74356C8.02416 3.37772 7.87648 3.1395 7.87648 3.03741C7.87648 3.02039 7.9093 2.96084 7.96673 2.84173C8.02416 2.73113 8.10621 2.57799 8.21287 2.39082C8.34414 2.18663 8.43439 2.01647 8.50003 1.88886C8.55746 1.75273 8.59028 1.66765 8.59028 1.63362C8.59028 1.41242 8.37696 1.19122 7.95852 0.978524C7.58931 0.79986 7.28574 0.706273 7.04781 0.706273C6.23555 0.706273 4.94741 2.56948 3.19161 6.28739V6.27888C2.806 7.07011 2.4696 7.75073 2.17424 8.32926C1.87887 8.90779 1.64914 9.36722 1.46863 9.70753C1.4112 9.80962 1.33736 9.86067 1.26352 9.86067C1.2389 9.86067 1.19788 9.86067 1.14045 9.86067C1.08302 9.86067 1.00917 9.86067 0.927127 9.86917C0.853285 9.87768 0.787648 9.87768 0.730215 9.87768C0.672782 9.87768 0.623554 9.87768 0.590736 9.87768H0.541508L0.508689 9.86917C0.49228 9.86917 0.443052 9.88619 0.352801 9.92022C0.262549 9.95425 0.147684 9.99679 0 10.0478C0.213321 10.201 0.426643 10.3541 0.656373 10.5158C0.886104 10.6774 1.0584 10.805 1.18968 10.8986L1.74759 11.341C1.91169 11.4516 2.12501 11.5027 2.37935 11.5027C2.8142 11.5027 3.10136 11.4261 3.24084 11.2815C3.49519 11.0177 3.74953 10.6944 4.00388 10.3201C4.25002 9.94574 4.50436 9.51185 4.76691 9.0184C4.96382 8.63554 5.15253 8.25269 5.34124 7.86984C5.52994 7.48699 5.71045 7.10414 5.89915 6.72129C5.98941 6.54263 6.07966 6.35545 6.1617 6.16828C6.25195 5.98111 6.334 5.79394 6.41605 5.60677V5.61528C6.73603 4.96868 6.95756 4.63688 7.08883 4.63688C7.19549 4.63688 7.83545 5.30049 9.00052 6.63621C10.2148 8.00597 10.822 8.83973 10.822 9.1375Z" fill="#FBFBFB"/>
<path d="M25.8197 8.44012C25.8197 8.24444 25.8197 8.06577 25.8279 7.91263C25.8279 7.75949 25.8361 7.67442 25.8361 7.6574V7.4362C25.8361 7.38515 25.8361 7.30858 25.8361 7.21499C25.8361 7.12141 25.8361 7.01932 25.8443 6.90021V4.41593C25.8443 4.25428 25.7212 4.12666 25.4669 4.05009C25.2864 3.98203 25.1305 3.948 25.0156 3.948C24.9336 3.948 24.7613 3.9565 24.5151 3.97352C24.2608 3.99054 23.9244 4.02457 23.5142 4.0586C23.1778 4.10114 23.0137 4.19472 23.0137 4.35637C23.0137 4.501 23.1778 4.58608 23.4977 4.61161C23.67 4.62862 23.8095 4.64564 23.908 4.66265C24.0064 4.67967 24.0803 4.69668 24.1213 4.7137L24.1131 4.70519C24.2362 4.75624 24.2936 4.96894 24.2936 5.32626C24.2936 5.42836 24.2936 5.53045 24.3018 5.63254C24.3018 5.73463 24.3182 5.82822 24.3264 5.90479L24.3018 6.73856V7.31709C24.3018 7.34261 24.3018 7.37664 24.2936 7.41918C24.2936 7.47023 24.2854 7.52127 24.2772 7.59784C24.2772 7.61486 24.2772 7.63188 24.269 7.66591C24.269 7.69143 24.2608 7.71695 24.2608 7.73397C24.2526 7.78502 24.2526 7.83606 24.2526 7.88711C24.2526 7.93816 24.2526 7.98069 24.2526 8.01473C24.2362 8.10831 24.2362 8.21891 24.2526 8.35504C24.2608 8.41459 24.2608 8.46564 24.2608 8.49967C24.2608 8.5337 24.2608 8.55072 24.2608 8.55923V9.01865C24.2608 9.04417 24.2526 9.08671 24.2362 9.14626V9.36747V10.7883C24.2362 10.8393 24.2444 10.8989 24.2526 10.9669C24.2608 11.0435 24.2772 11.1201 24.3018 11.2052C24.3428 11.2902 24.4003 11.3583 24.4905 11.4093C24.5808 11.4604 24.6956 11.4859 24.8351 11.4859C24.8597 11.4859 24.9746 11.4774 25.1715 11.4519C25.3848 11.4264 25.4915 11.4178 25.4997 11.4178C25.6556 11.4008 25.8033 11.3923 25.9263 11.3838C26.0494 11.3753 26.1561 11.3668 26.2381 11.3498C26.5253 11.2987 26.6647 11.1881 26.6647 11.0095C26.6647 10.9499 26.6483 10.8989 26.6237 10.8648C26.5991 10.8308 26.5581 10.8138 26.5007 10.7968C26.3612 10.7883 26.2463 10.7798 26.1479 10.7627C26.1232 10.7627 26.0986 10.7627 26.0658 10.7542C26.033 10.7542 26.0084 10.7457 25.9838 10.7457C25.9591 10.7287 25.9345 10.6692 25.9017 10.5586L25.9099 10.5671C25.8935 10.4905 25.8853 10.4224 25.8689 10.3799C25.8607 10.3288 25.8525 10.2948 25.8525 10.2608V9.79286C25.8525 9.74181 25.8443 9.69927 25.8361 9.66524C25.8279 9.6227 25.8115 9.58867 25.7951 9.54613V9.55464C25.7951 9.52061 25.7951 9.50359 25.7868 9.49508C25.7868 9.37598 25.7868 9.22283 25.7868 9.01865C25.8197 8.83998 25.8197 8.6443 25.8197 8.44012Z" fill="#FBFBFB"/>
<path d="M29.9799 5.12169C29.8897 5.17274 29.7994 5.22379 29.7174 5.28334C29.6271 5.3429 29.5451 5.41096 29.4548 5.47902C29.2579 5.64918 29.0856 5.80232 28.9379 5.94695C28.7903 6.08308 28.6672 6.2192 28.5687 6.33831C28.3636 6.60205 28.2077 6.84027 28.0929 7.03595C27.978 7.23163 27.9042 7.40179 27.8631 7.5209C27.8139 7.64851 27.7647 7.73359 27.7155 7.77613C27.6416 8.06539 27.6006 8.37167 27.6006 8.70348C27.6006 9.02677 27.6334 9.29902 27.699 9.51172C27.7483 9.66486 27.8221 9.83502 27.937 10.0137C28.0518 10.1923 28.1913 10.3625 28.3636 10.5327C28.5441 10.7028 28.7246 10.8474 28.8969 10.958C29.0692 11.0686 29.2333 11.1452 29.3974 11.1878L29.3892 11.1792C29.4713 11.2218 29.5451 11.2558 29.6025 11.2813C29.66 11.3154 29.7092 11.3324 29.742 11.3494C30.1604 11.4175 30.4558 11.4515 30.6527 11.4515C31.1778 11.4515 31.6619 11.3409 32.0885 11.1197C32.1214 11.1112 32.146 11.1027 32.1706 11.0942C32.1952 11.0857 32.2198 11.0772 32.2444 11.0686C32.2772 11.0516 32.3019 11.0431 32.3347 11.0346C32.3675 11.0261 32.3839 11.0176 32.4003 11.0091C32.7121 10.856 32.9828 10.6943 33.2126 10.5412C33.4505 10.388 33.6474 10.2434 33.8115 10.0988C34.6566 9.35858 35.0832 8.58437 35.0832 7.79315C35.0832 7.61448 35.075 7.44432 35.0586 7.29969C35.0422 7.15506 35.0094 7.03595 34.9766 6.95087C34.8781 6.70414 34.7468 6.44891 34.5746 6.18517C34.4023 5.92993 34.2053 5.6747 33.9756 5.41947C33.8279 5.27483 33.6884 5.1217 33.5408 4.98557C33.3931 4.84094 33.2536 4.69631 33.1141 4.55167C32.9664 4.39853 32.8105 4.24539 32.6629 4.09225C32.5152 3.94762 32.3593 3.79448 32.2116 3.63283C32.0721 3.4882 31.9573 3.36909 31.8506 3.2755C31.7521 3.17341 31.6619 3.09684 31.5881 3.02027L31.5306 2.96071C31.4486 2.87564 31.3419 2.74802 31.2024 2.58637C31.063 2.42472 30.9153 2.22054 30.7348 1.99082C30.2917 1.36125 30.062 0.978395 30.062 0.825255C30.062 0.7657 30.062 0.723163 30.0702 0.723163C30.0948 0.663608 30.1686 0.595544 30.3081 0.527482C30.4558 0.442404 30.5379 0.348819 30.5379 0.246726C30.5379 0.221202 30.5297 0.195679 30.5214 0.170156C30.5132 0.144633 30.4968 0.110601 30.4804 0.085078C30.423 0.0595546 30.3738 0.0425385 30.3491 0.0340307C30.3245 0.0255229 30.2999 0.0170161 30.2753 0.00850832C30.2589 5.19148e-07 30.2343 0 30.2097 0C30.1769 0 30.1604 0 30.144 0C30.0538 0 29.9225 0.0340302 29.742 0.1106C29.5615 0.187171 29.3646 0.289266 29.1431 0.433898C28.5934 0.77421 28.3144 1.08049 28.3144 1.37826C28.3144 1.53991 28.7821 2.27158 29.7174 3.55626C29.7748 3.61581 29.8323 3.67537 29.8815 3.72642C29.9307 3.77746 29.9717 3.82851 30.0128 3.87105C30.0702 3.9306 30.1276 3.99016 30.1686 4.0412C30.2179 4.09225 30.2589 4.13479 30.2917 4.17733L30.4722 4.3645C30.4886 4.38152 30.505 4.39002 30.5214 4.40704C30.5379 4.42406 30.5543 4.43256 30.5707 4.44958C30.6609 4.54316 30.7102 4.60272 30.7102 4.61123C30.7184 4.72183 30.4722 4.88348 29.9799 5.12169ZM31.4322 5.5641C31.5634 5.5641 31.6455 5.58112 31.6783 5.62366C31.8834 5.80232 32.0967 5.998 32.3183 6.21069C32.5398 6.42339 32.7531 6.63608 32.95 6.85729C33.0239 6.94237 33.1059 7.04446 33.1798 7.15506C33.2618 7.26566 33.3439 7.39328 33.4259 7.5294C33.6146 7.87822 33.7131 8.12495 33.7131 8.2951C33.7131 8.82259 33.3521 9.2735 32.6218 9.64785C32.3183 9.80099 32.0393 9.92009 31.785 9.99667C31.5306 10.0732 31.2763 10.1158 31.0383 10.1158C31.0547 10.1158 31.0383 10.1073 30.9891 10.0988C30.9399 10.0902 30.8989 10.0732 30.8578 10.0562V10.0647C30.825 10.0562 30.8004 10.0477 30.784 10.0392C30.7676 10.0307 30.7512 10.0307 30.743 10.0307H30.7512C30.5871 9.99667 30.4558 9.97114 30.3574 9.95413C30.2589 9.93711 30.1851 9.91159 30.144 9.87756C29.8158 9.7074 29.5533 9.44366 29.3482 9.08633C29.1513 8.70348 29.0528 8.35466 29.0528 8.03987C29.0528 8.02286 29.0692 7.9633 29.1102 7.86121C29.1513 7.75911 29.1923 7.6315 29.2333 7.48686C29.3236 7.25715 29.4466 7.03595 29.6107 6.81475C29.7748 6.59355 29.9717 6.38085 30.1933 6.17666C30.6691 5.7768 31.0794 5.5641 31.4322 5.5641Z" fill="#FBFBFB"/>
<path d="M39.4316 0.544574C39.5792 0.459496 39.6613 0.365912 39.6613 0.263818C39.6613 0.238295 39.6531 0.212769 39.6449 0.187246C39.6367 0.161722 39.6203 0.127691 39.6039 0.102168C39.5464 0.0766444 39.4972 0.0596309 39.4726 0.0511231C39.448 0.0426153 39.4234 0.034106 39.3987 0.0255982C39.3823 0.0170904 39.3577 0.0170898 39.3331 0.0170898C39.3003 0.0170898 39.2839 0.0170898 39.2675 0.0170898C39.1772 0.0170898 39.0459 0.0511226 38.8654 0.127693C38.6849 0.204263 38.488 0.306356 38.2665 0.450988C37.7168 0.7913 37.4378 1.09758 37.4378 1.39535C37.4378 1.557 37.9055 2.28867 38.8408 3.57335C38.8983 3.63291 38.9557 3.69246 39.0049 3.74351C39.0541 3.79455 39.0952 3.8456 39.1362 3.88814C39.1936 3.94769 39.2511 4.00725 39.2921 4.05829C39.3413 4.10934 39.3823 4.15188 39.4152 4.19442L39.5957 4.38159C39.6121 4.39861 39.6285 4.40712 39.6449 4.42413C39.6613 4.44115 39.6777 4.44966 39.6941 4.46667C39.7844 4.56026 39.8336 4.61981 39.8336 4.62832C39.8336 4.7219 39.5875 4.88355 39.0952 5.12177C39.0049 5.17282 38.9147 5.22387 38.8326 5.28342C38.7424 5.34297 38.6603 5.41104 38.5701 5.4791C38.3732 5.64925 38.2009 5.80239 38.0532 5.94703C37.9055 6.08315 37.7824 6.21928 37.684 6.33839C37.4789 6.60213 37.323 6.84035 37.2081 7.03603C37.0932 7.2317 37.0194 7.40186 36.9784 7.52097C36.9291 7.64859 36.8799 7.73367 36.8307 7.7762C36.7568 8.06547 36.7158 8.37175 36.7158 8.70355C36.7158 9.02685 36.7486 9.2991 36.8143 9.5118C36.8635 9.66494 36.9373 9.83509 37.0522 10.0138C37.1671 10.1924 37.3066 10.3626 37.4789 10.5327C37.6594 10.7029 37.8399 10.8475 38.0122 10.9581C38.1845 11.0687 38.3485 11.1453 38.5126 11.1878L38.5044 11.1793C38.5865 11.2219 38.6603 11.2559 38.7178 11.2814C38.7752 11.3155 38.8244 11.3325 38.8572 11.3495C39.2757 11.4175 39.571 11.4516 39.768 11.4516C40.2931 11.4516 40.7771 11.341 41.2038 11.1198C41.2366 11.1113 41.2612 11.1028 41.2858 11.0942C41.3104 11.0857 41.335 11.0772 41.3597 11.0687C41.3925 11.0517 41.4171 11.0432 41.4499 11.0347C41.4827 11.0262 41.4991 11.0177 41.5155 11.0092C41.8273 10.856 42.0981 10.6944 42.3278 10.5412C42.5657 10.3881 42.7627 10.2435 42.9268 10.0988C43.7718 9.35865 44.1985 8.58445 44.1985 7.79322C44.1985 7.61456 44.1903 7.4444 44.1739 7.29977C44.1575 7.15513 44.1246 7.03603 44.0918 6.95095C43.9934 6.70422 43.8621 6.44899 43.6898 6.18525C43.5175 5.93001 43.3206 5.67478 43.0908 5.41954C42.9432 5.27491 42.8037 5.12177 42.656 4.98565C42.5083 4.84101 42.3688 4.69638 42.2294 4.55175C42.0817 4.39861 41.9258 4.24547 41.7781 4.09233C41.6304 3.9477 41.4745 3.79455 41.3268 3.63291C41.1874 3.48827 41.0725 3.36916 40.9658 3.27558C40.8674 3.17349 40.7771 3.09692 40.7033 3.02034L40.6459 2.96079C40.5638 2.87571 40.4571 2.74809 40.3177 2.58645C40.1782 2.4248 40.0305 2.22061 39.85 1.9909C39.407 1.36132 39.1772 0.978471 39.1772 0.825331C39.1772 0.765776 39.1772 0.723239 39.1854 0.723239C39.2182 0.689208 39.3003 0.621145 39.4316 0.544574ZM40.5474 5.56418C40.6787 5.56418 40.7607 5.58119 40.7935 5.62373C40.9987 5.8024 41.212 5.99808 41.4335 6.21077C41.655 6.42346 41.8684 6.63616 42.0653 6.85736C42.1391 6.94244 42.2211 7.04453 42.295 7.15514C42.377 7.26574 42.4591 7.39335 42.5411 7.52948C42.7298 7.8783 42.8283 8.12502 42.8283 8.29518C42.8283 8.82266 42.4673 9.27358 41.7371 9.64792C41.4335 9.80106 41.1545 9.92017 40.9002 9.99674C40.6459 10.0733 40.3915 10.1158 40.1536 10.1158C40.17 10.1158 40.1536 10.1073 40.1043 10.0988C40.0551 10.0903 40.0141 10.0733 39.9731 10.0563V10.0648C39.9403 10.0563 39.9156 10.0478 39.8992 10.0393C39.8828 10.0308 39.8664 10.0308 39.8582 10.0308H39.8664C39.7023 9.99674 39.571 9.97122 39.4726 9.9542C39.3741 9.93719 39.3003 9.91166 39.2593 9.87763C38.9311 9.70748 38.6685 9.44373 38.4634 9.0864C38.2665 8.70355 38.168 8.35474 38.168 8.03995C38.168 8.02293 38.1845 7.96338 38.2255 7.86128C38.2665 7.75919 38.3075 7.63157 38.3485 7.48694C38.4388 7.25723 38.5619 7.03603 38.726 6.81482C38.8901 6.59362 39.087 6.38093 39.3085 6.17674C39.7762 5.77687 40.1946 5.56418 40.5474 5.56418Z" fill="#FBFBFB"/>
<path d="M53.2641 10.3371C53.2395 10.3371 53.2067 10.3371 53.1656 10.3456C53.1164 10.3456 53.0754 10.3626 53.0262 10.3711C52.9933 10.3796 52.9605 10.3882 52.9277 10.3967C52.8949 10.4052 52.8539 10.4137 52.821 10.4222C52.5667 10.4988 52.3944 10.5413 52.3206 10.5413C52.2057 10.5583 52.0744 10.5668 51.9267 10.5753C51.779 10.5838 51.6149 10.5838 51.4427 10.5838C51.1637 10.5838 50.8847 10.5753 50.614 10.5583C50.3432 10.5413 50.0725 10.5158 49.8099 10.4902C49.7525 10.4817 49.6869 10.4817 49.6376 10.4817C49.5802 10.4817 49.531 10.4817 49.4817 10.4817C49.3505 10.4647 49.2684 10.4392 49.2192 10.3967C49.17 10.3541 49.1453 10.3201 49.1453 10.2946L49.0879 2.85024C49.0305 2.42485 48.8418 2.21216 48.5218 2.21216H45.8389V2.55247C46.0276 2.71412 46.2737 2.7992 46.5773 2.8077C46.8562 2.82472 47.045 2.85875 47.1352 2.9098C47.2255 2.96084 47.2829 3.03741 47.3075 3.14802C47.3075 3.20757 47.3075 3.27563 47.3157 3.3522C47.3157 3.42877 47.3239 3.51385 47.3239 3.61595C47.3239 3.70953 47.3239 3.81162 47.3157 3.93073C47.3157 4.04984 47.3075 4.17746 47.3075 4.30508C47.2993 4.53479 47.3157 4.70494 47.3567 4.83256C47.3978 4.96018 47.4306 5.03675 47.4716 5.07929H47.2911V6.10022C47.2911 6.10873 47.2911 6.12575 47.2993 6.15127C47.2993 6.17679 47.3075 6.20232 47.3075 6.21933C47.3157 6.26187 47.3157 6.2959 47.3157 6.33844C47.3157 6.38098 47.3157 6.41501 47.3157 6.44053C47.3075 6.48307 47.2993 6.54263 47.2829 6.6192C47.2665 6.70428 47.2583 6.75532 47.2583 6.78935V10.3967C47.2583 10.5923 47.2911 10.771 47.3485 10.9241H47.3403C47.4388 11.2304 47.6111 11.3836 47.849 11.3836H51.6149C51.697 11.3836 51.8201 11.3665 51.9924 11.3325C52.1565 11.2985 52.3616 11.2559 52.6077 11.1879C52.9359 11.1113 53.182 11.0177 53.3543 10.9241C53.5266 10.8221 53.6169 10.7285 53.6169 10.6264V10.4307C53.543 10.3796 53.4774 10.3541 53.4282 10.3371C53.3461 10.3456 53.3051 10.3371 53.2641 10.3371Z" fill="#FBFBFB"/>
<path d="M58.8436 5.41126C58.8764 5.4538 58.9092 5.52186 58.942 5.60694C58.9913 5.77709 59.1061 5.86217 59.2702 5.86217C59.4261 5.86217 59.582 5.7856 59.7379 5.62396C59.9102 5.46231 60.0004 5.29215 60.0004 5.12199C60.0004 4.72213 59.6805 4.42435 59.0487 4.23718C58.8272 4.17763 58.6138 4.12658 58.3923 4.09255C58.1708 4.05852 57.9493 4.0415 57.7113 4.0415C57.2929 4.0415 56.8909 4.09255 56.4888 4.20315C56.3165 4.2542 56.1524 4.31375 56.0048 4.3648C55.8571 4.41585 55.7586 4.44988 55.7176 4.4754C55.5453 4.56048 55.373 4.66257 55.1925 4.77318C55.0202 4.88378 54.8643 5.00288 54.7248 5.12199C54.2736 5.53888 53.9454 6.06636 53.7485 6.69594H53.7567C53.6746 6.92565 53.6172 7.13834 53.5844 7.33402C53.5516 7.5297 53.5352 7.70837 53.5352 7.87852C53.5352 8.49959 53.6582 9.06961 53.9126 9.5971C54.052 9.91188 54.2572 10.1926 54.5115 10.4394C54.7659 10.6861 55.0366 10.8818 55.3238 11.0349C55.5617 11.1455 55.7586 11.2306 55.8981 11.2987C56.0376 11.3667 56.1278 11.4093 56.1606 11.4263C56.4396 11.5028 56.7924 11.5454 57.2108 11.5454C57.4488 11.5454 57.6703 11.5199 57.859 11.4603C58.1216 11.3667 58.3595 11.2816 58.5646 11.2051C58.7697 11.1285 58.942 11.0519 59.0897 10.9669C59.1471 10.9243 59.2128 10.8903 59.2784 10.8477C59.3441 10.8052 59.4179 10.7627 59.4835 10.7031C59.5902 10.6095 59.664 10.5244 59.7051 10.4564C59.7461 10.3883 59.7707 10.3203 59.7707 10.2607C59.7707 10.0735 59.6887 9.97995 59.5246 9.97995C59.4343 9.97995 59.2784 10.031 59.0487 10.1246C59.0077 10.1416 58.9584 10.1671 58.901 10.1926C58.7861 10.2522 58.6959 10.2947 58.6303 10.2947C57.9985 10.4564 57.6211 10.5415 57.498 10.5415C57.0714 10.5415 56.6365 10.3883 56.1853 10.082H56.1935C55.6848 9.72471 55.414 9.30783 55.3648 8.8399C55.3566 8.80587 55.3484 8.77184 55.3484 8.73781C55.3484 8.69527 55.3402 8.66124 55.332 8.63572C55.3156 8.57616 55.3074 8.51661 55.3074 8.47407C55.3074 8.42302 55.2992 8.38048 55.291 8.32943C55.291 8.32093 55.291 8.31242 55.291 8.30391C55.291 8.2954 55.291 8.26988 55.2992 8.22734C55.2992 8.21032 55.2992 8.1848 55.3074 8.15077C55.3074 8.11674 55.3156 8.08271 55.3156 8.06569C55.3566 8.04868 55.4633 8.04017 55.6438 8.03166H55.652C55.7914 8.02315 55.9063 8.01464 56.013 8.01464C56.1114 8.01464 56.1853 7.99763 56.2345 7.98912L57.9247 7.9636C58.0067 7.9636 58.138 8.01465 58.3103 8.11674C58.499 8.23585 58.622 8.2954 58.6877 8.2954C58.7779 8.2954 58.8518 8.27839 58.9174 8.24436C58.9502 8.22734 58.9995 8.20182 59.0815 8.15928C59.1636 8.11674 59.2456 8.06569 59.3276 7.99763C59.5656 7.82747 59.6805 7.66583 59.6805 7.5297C59.6805 7.24894 59.4343 7.10431 58.942 7.10431H57.2437C57.2355 7.10431 57.2273 7.10431 57.2108 7.0958C57.1944 7.0958 57.178 7.0873 57.1616 7.0873C57.137 7.0873 57.1124 7.0873 57.0878 7.0873C57.0632 7.0873 57.0303 7.08729 56.9893 7.07879H56.9975C56.9319 7.07028 56.8745 7.06177 56.8252 7.06177C56.776 7.06177 56.7514 7.05326 56.735 7.05326H55.5535C55.414 7.05326 55.3566 6.9767 55.373 6.81505C55.373 6.77251 55.4222 6.64489 55.5289 6.42369C55.6355 6.20248 55.7668 5.9983 55.9391 5.81113C56.1032 5.62395 56.2755 5.46231 56.4642 5.32618C56.8088 5.08796 57.178 4.97736 57.5554 4.97736C57.7195 4.97736 57.9329 5.01139 58.2036 5.07945C58.499 5.17304 58.6877 5.24961 58.7697 5.30066H58.7615C58.7697 5.32618 58.8108 5.36872 58.8436 5.41126Z" fill="#FBFBFB"/>
<path d="M11.1345 22.6734C11.8811 23.0307 12.3077 23.2264 12.4062 23.2604C12.6277 23.3115 12.8657 23.354 13.1282 23.371C13.3908 23.388 13.6615 23.3966 13.9487 23.3966C14.2687 23.3966 14.5804 23.3625 14.8922 23.286C15.204 23.2094 15.5158 23.1073 15.8358 22.9712C15.885 22.9456 15.9998 22.8946 16.1557 22.8265C16.3198 22.75 16.5167 22.6649 16.7383 22.5628C16.8285 22.5202 16.927 22.4692 17.0254 22.4011C17.1239 22.3331 17.2305 22.2565 17.329 22.1629C17.5998 21.9247 17.7392 21.7205 17.7392 21.5504C17.7392 21.3121 17.6326 21.2015 17.4193 21.2015C17.3372 21.2015 17.2388 21.2186 17.1321 21.2526C17.0254 21.2866 16.886 21.3377 16.7301 21.3972C16.5742 21.4738 16.4429 21.5333 16.3362 21.5759C16.2296 21.6184 16.1475 21.6525 16.0901 21.661L15.2286 21.8992H15.2368C14.884 21.9928 14.5886 22.0438 14.3671 22.0438C13.7272 22.0438 13.0708 21.8056 12.398 21.3292C11.635 20.8272 11.2083 20.1891 11.1263 19.3979C11.1181 19.3639 11.1181 19.3383 11.1181 19.3213C11.1181 19.3043 11.1181 19.2873 11.1099 19.2703C11.0935 19.1341 11.077 19.015 11.0606 18.8959C11.0442 18.7853 11.0278 18.6917 11.0114 18.6322C11.0114 18.5641 11.0196 18.4365 11.0442 18.2408C11.0524 18.1898 11.2329 18.1472 11.5857 18.1217C11.7826 18.1047 11.9549 18.0962 12.1026 18.0877C12.2503 18.0792 12.357 18.0707 12.4144 18.0622H12.4718C12.6605 18.0622 12.8657 18.0622 13.079 18.0537C13.2923 18.0537 13.5138 18.0451 13.7354 18.0451C13.9569 18.0451 14.1784 18.0366 14.3917 18.0366C14.6051 18.0366 14.8102 18.0281 15.0071 18.0281C15.0809 18.0366 15.1712 18.0622 15.2778 18.0962C15.3845 18.1387 15.4912 18.1898 15.606 18.2578C15.8604 18.411 16.0409 18.4961 16.1393 18.4961C16.2706 18.4961 16.3773 18.479 16.4593 18.4365H16.4511C16.5332 18.411 16.6234 18.3684 16.7137 18.3089C16.8121 18.2493 16.927 18.1728 17.0582 18.0792C17.3946 17.8495 17.5587 17.6368 17.5587 17.4326C17.5587 17.2029 17.4111 17.0412 17.1075 16.9391C16.9106 16.8711 16.7137 16.837 16.5167 16.837H13.9651C13.9241 16.837 13.801 16.8285 13.5877 16.803C13.5056 16.7945 13.4236 16.786 13.3415 16.7775C13.2595 16.769 13.2185 16.769 13.2021 16.769H11.4463C11.3232 16.769 11.2411 16.7605 11.2001 16.7435H11.2083C11.1345 16.6924 11.1017 16.5733 11.1181 16.3691C11.1181 16.301 11.2001 16.0969 11.3642 15.7565C11.6924 15.0674 12.1601 14.5144 12.7672 14.089H12.759C13.3169 13.7232 13.8748 13.536 14.4328 13.536C14.7035 13.536 15.0399 13.5956 15.4419 13.7147C15.6388 13.7742 15.8029 13.8338 15.9424 13.8848C16.0819 13.9359 16.1886 13.9954 16.2624 14.055C16.4019 14.1571 16.5085 14.3187 16.5988 14.5484C16.689 14.7867 16.8367 14.8973 17.0254 14.8973C17.2223 14.8973 17.4521 14.7867 17.7064 14.5569V14.5655C17.9526 14.3272 18.0838 14.089 18.0838 13.8508C18.0838 13.2467 17.5505 12.8043 16.4839 12.5236C15.8604 12.3619 15.2532 12.2769 14.6789 12.2769C14.0718 12.2769 13.4728 12.3704 12.8657 12.5491C12.5621 12.6342 12.316 12.7108 12.1272 12.7788C11.9385 12.8469 11.7991 12.8979 11.717 12.9405C11.1919 13.1872 10.7078 13.5105 10.2648 13.9189C9.9284 14.2251 9.63303 14.574 9.39509 14.9568C9.15716 15.3482 8.96025 15.7736 8.80436 16.2415C8.65667 16.7179 8.55822 17.0753 8.51719 17.3135C8.49258 17.4496 8.48438 17.6708 8.48438 17.9941C8.48438 18.9129 8.67308 19.7637 9.0505 20.5464C9.28023 21.0314 9.56739 21.4483 9.91199 21.7971C10.2812 22.1544 10.675 22.4437 11.1345 22.6734Z" fill="#FBFBFB"/>
<path d="M26.6493 23.2093C26.674 23.1923 26.7068 23.1668 26.7478 23.1412C26.7888 23.1072 26.8216 23.0902 26.8299 23.0732V22.7924C26.7724 22.7584 26.7396 22.7499 26.7478 22.7584C26.674 22.7073 26.6083 22.6733 26.5591 22.6308C26.5099 22.5967 26.4771 22.5712 26.4524 22.5627C26.2883 22.5032 26.1078 22.35 25.9191 22.1203C25.7304 21.8821 25.5417 21.5758 25.3612 21.1759C25.3038 21.0398 25.2464 20.9122 25.1889 20.7846C25.1397 20.657 25.0823 20.5379 25.033 20.4358C24.9018 20.138 24.7869 19.8743 24.672 19.636C24.5654 19.3978 24.4669 19.1936 24.3931 19.0235C24.2618 18.7938 24.1551 18.5896 24.0567 18.4109C23.9582 18.2322 23.8844 18.0876 23.8105 17.977C23.4741 17.3304 23.1131 16.82 22.7521 16.4286C22.3829 16.0372 22.0301 15.8501 21.6937 15.8501H21.464C21.4148 15.8416 21.3655 15.8416 21.3163 15.8416C21.2671 15.8416 21.2425 15.8416 21.2261 15.8416H20.9635C20.8979 15.8501 20.8404 15.8501 20.7994 15.8501C20.7584 15.8501 20.7256 15.8501 20.7174 15.8501L20.0856 15.8841C19.9543 15.9011 19.8477 15.9436 19.7492 16.0117V16.2584C19.8887 16.3775 20.061 16.4456 20.2825 16.4711C20.4958 16.4967 20.6271 16.5222 20.6928 16.5392C20.7502 16.5647 20.7994 16.5902 20.8404 16.6328C21.423 17.3049 21.7101 17.7898 21.7101 18.0876C21.7101 18.1472 21.7019 18.1897 21.6773 18.2152C21.4148 18.5045 21.2097 18.7342 21.0702 18.9044C20.9307 19.0745 20.8404 19.1766 20.8076 19.2277C20.6764 19.3808 20.5615 19.5254 20.4548 19.6445C20.3482 19.7637 20.2579 19.8743 20.1677 19.9678C19.1749 21.227 18.6826 21.9246 18.6826 22.0522C18.6826 22.2564 18.7975 22.4606 19.019 22.6733C19.2487 22.886 19.4457 23.0136 19.6179 23.0647C19.7738 23.1157 19.9625 23.1583 20.1759 23.1838C20.3892 23.2093 20.6107 23.2178 20.8569 23.2178C21.2343 23.2178 21.5132 23.1923 21.6855 23.1498C21.9563 23.0817 22.2845 22.9115 22.6619 22.6478H22.6537C23.2034 22.282 23.548 22.0948 23.6875 22.0948C23.7203 22.0948 23.7449 22.1203 23.7695 22.1628C23.7941 22.2054 23.8269 22.2564 23.8516 22.3075V22.282L23.909 22.4011C23.9828 22.5117 24.0403 22.5968 24.0813 22.6563C24.1223 22.7159 24.1551 22.7669 24.1879 22.8009C24.4095 23.0477 24.59 23.1923 24.7459 23.2093C24.7951 23.2178 24.9018 23.2178 25.0658 23.2178C25.2217 23.2178 25.4351 23.2178 25.6894 23.2178C25.9602 23.2178 26.1735 23.2178 26.3376 23.2178C26.5017 23.2263 26.6083 23.2178 26.6493 23.2093ZM23.2444 21.3376C23.187 21.3801 23.1213 21.4312 23.0475 21.4822C23.0311 21.4992 23.0147 21.5077 22.9983 21.5248C22.9819 21.5333 22.9655 21.5503 22.949 21.5673L22.8588 21.6354L22.867 21.6269C22.7193 21.7119 22.5962 21.78 22.4978 21.8225C22.3993 21.8736 22.3337 21.8991 22.3009 21.9161C22.104 21.9842 21.9235 22.0437 21.7676 22.0778C21.6117 22.1203 21.464 22.1373 21.3245 22.1373C21.185 22.1373 21.0127 22.0778 20.7912 21.9502C20.5779 21.814 20.4712 21.6779 20.4712 21.5418C20.4712 21.4142 20.5697 21.21 20.7666 20.9207C20.8158 20.8697 20.8569 20.8101 20.8897 20.7591C20.9307 20.708 20.9635 20.6485 21.0045 20.5974L21.103 20.4698C21.1194 20.4528 21.144 20.4188 21.185 20.3592C21.2261 20.2996 21.2671 20.2401 21.3163 20.1805C21.5132 19.9338 21.6937 19.7211 21.8578 19.5339C22.0219 19.3468 22.1532 19.2106 22.2516 19.1256C22.3173 19.1681 22.4239 19.3298 22.5552 19.619C22.7932 20.1125 22.9819 20.4953 23.1131 20.7676C23.2444 21.0398 23.3018 21.2015 23.3018 21.2525C23.3265 21.261 23.3018 21.2951 23.2444 21.3376Z" fill="#FBFBFB"/>
<path d="M34.5418 22.8012C34.6895 22.7331 34.7798 22.6736 34.8044 22.6225L34.7798 22.4949C34.6649 22.3673 34.5008 22.3077 34.2957 22.3077C34.1316 22.2992 34.0167 22.2822 33.9675 22.2482L33.9757 22.2567C33.828 22.1461 33.6393 22.0015 33.4342 21.8143C33.2209 21.6271 32.9829 21.3974 32.7122 21.1337C32.1133 20.5722 31.8179 20.2489 31.8179 20.1808C31.8507 20.1553 31.8917 20.1298 31.941 20.0872C31.9902 20.0447 32.0394 20.0021 32.105 19.9596C32.1707 19.9085 32.2445 19.8575 32.3348 19.7809C32.5727 19.5938 32.786 19.4236 32.9665 19.262C33.147 19.1088 33.3029 18.9642 33.4178 18.8281H33.4096C33.8116 18.3686 34.0085 17.9092 34.0085 17.4498C34.0085 17.0584 33.9019 16.7096 33.6885 16.3948C33.5573 16.2247 33.4096 16.0885 33.2455 15.9864C33.0814 15.8844 32.8927 15.8418 32.6876 15.8418C32.3922 15.8418 32.0968 15.8844 31.8097 15.9694C31.5225 16.0545 31.2354 16.1821 30.9564 16.3608C30.5626 16.6075 30.1852 16.9223 29.8324 17.3137C29.6354 17.5264 29.5124 17.6795 29.4714 17.7816C29.4631 17.7731 29.4549 17.7646 29.4467 17.7561C29.4385 17.7476 29.4221 17.7305 29.4221 17.7135C29.4385 17.5944 29.4221 17.4158 29.3729 17.169V17.1775C29.3565 17.101 29.3483 17.0244 29.3483 16.9563C29.3483 16.8883 29.3401 16.8372 29.3319 16.8032C29.3319 16.7947 29.3319 16.7862 29.3237 16.7777C29.3237 16.7692 29.3155 16.7607 29.3155 16.7522L29.3073 16.7436L29.3155 16.6756C29.3155 16.6245 29.3155 16.5905 29.3155 16.5735C29.3155 16.548 29.3073 16.4969 29.2908 16.4118C29.2744 16.3948 29.2498 16.3608 29.2252 16.3183C29.1924 16.2672 29.176 16.2417 29.1596 16.2247C29.1268 16.1736 29.1021 16.1396 29.0775 16.0971C29.0529 16.063 29.0283 16.029 29.0037 15.9864C28.9298 15.9269 28.774 15.8929 28.5524 15.8929C28.5114 15.8929 28.495 15.8929 28.4868 15.8844C28.454 15.8758 28.4294 15.8673 28.4129 15.8588C28.3965 15.8503 28.3801 15.8503 28.3637 15.8503H28.3309L28.1012 15.8248C27.9617 15.7993 27.8714 15.7908 27.8304 15.7908C27.412 15.7908 27.1576 15.9099 27.0674 16.1566C27.1412 16.2672 27.3217 16.3608 27.6007 16.4374C27.7484 16.4969 27.8386 16.616 27.8632 16.7862C27.8632 17.101 27.8632 17.4583 27.855 17.8497C27.855 18.2495 27.8468 18.6494 27.8468 19.0578C27.8468 19.4661 27.8468 19.8745 27.8386 20.2659C27.8386 20.6657 27.8304 21.0146 27.8304 21.3293C27.814 21.3634 27.8058 21.4059 27.8058 21.474C27.8058 21.542 27.8058 21.6271 27.7976 21.7377C27.7976 21.7632 27.7976 21.7888 27.7894 21.8058C27.7894 21.8313 27.7812 21.8568 27.7812 21.8738C27.7566 22.1206 27.7238 22.3503 27.6663 22.5545H27.6745C27.6663 22.563 27.6581 22.58 27.6499 22.6055C27.6417 22.631 27.6171 22.6651 27.5761 22.7246C27.5022 22.8693 27.4612 22.9714 27.4612 23.0564C27.6007 23.2011 27.8796 23.2691 28.2899 23.2691C29.0529 23.2691 29.4385 23.1075 29.4385 22.7842V21.9164C29.4385 21.8824 29.4303 21.8313 29.4139 21.7547L29.3893 21.6697V19.2705C29.3893 18.9216 29.6847 18.4452 30.2754 17.8326C30.8826 17.2031 31.4241 16.8883 31.9163 16.8713C32.0476 16.8628 32.1543 16.8968 32.2527 16.9563C32.3512 17.0244 32.4332 17.1265 32.5153 17.2541C32.6548 17.4923 32.7286 17.722 32.7204 17.9518C32.7122 18.0879 32.663 18.2325 32.5645 18.3942C32.4661 18.5558 32.3102 18.7345 32.0886 18.9301H32.0968C31.9902 19.0322 31.8343 19.1599 31.6292 19.313C31.4241 19.4661 31.1615 19.6533 30.8497 19.8745H30.8579C30.3739 20.2063 30.1359 20.4275 30.1359 20.5551C30.1359 20.6402 30.2426 20.8104 30.4559 21.0571C30.6692 21.3038 30.9728 21.6186 31.3584 21.993C31.7687 22.3928 32.1215 22.6991 32.425 22.9118C32.7286 23.1245 32.9583 23.2351 33.1142 23.2351C33.1963 23.2351 33.3193 23.2181 33.4916 23.1755C33.6557 23.133 33.8362 23.0735 34.0331 22.9969C34.2218 22.9373 34.3859 22.8693 34.5418 22.8012Z" fill="#FBFBFB"/>
<path d="M39.7111 17.0075C39.7275 16.9905 39.744 16.982 39.7604 16.9735C39.7768 16.965 39.7932 16.9565 39.8096 16.948C39.8916 16.9309 39.9737 16.9139 40.0475 16.8884C40.1214 16.8629 40.1952 16.8459 40.2609 16.8289H40.95C40.9665 16.8289 40.9993 16.8289 41.0403 16.8289C41.0895 16.8289 41.1305 16.8288 41.1798 16.8203C41.229 16.8118 41.27 16.8118 41.3193 16.8118C41.3685 16.8118 41.4095 16.8118 41.4423 16.8033C41.6474 16.7948 41.8526 16.7778 42.0577 16.7608C42.2628 16.7438 42.4351 16.7182 42.591 16.6842C42.6402 16.6757 42.6812 16.6587 42.7387 16.6247C42.7879 16.5906 42.8535 16.5481 42.9274 16.497C43.0668 16.4035 43.1407 16.2929 43.1407 16.1567C43.1407 15.9696 43.0094 15.876 42.7551 15.876C42.6976 15.876 42.6074 15.8845 42.4925 15.893C42.3777 15.9015 42.2464 15.9185 42.0987 15.9355L38.464 15.91C38.1112 15.9611 37.8159 15.9951 37.5779 16.0121C37.5369 16.0206 37.5041 16.0291 37.4549 16.0291C37.4138 16.0291 37.3728 16.0376 37.3318 16.0461C37.2251 16.0631 37.0774 16.0972 36.8805 16.1567C36.6918 16.2163 36.4949 16.2843 36.298 16.3524C36.2324 16.3779 36.1585 16.4035 36.0847 16.4375C36.0108 16.4715 35.9534 16.5056 35.896 16.5396C35.7975 16.5991 35.7073 16.6672 35.6334 16.7353C35.5596 16.8033 35.5186 16.8714 35.5186 16.9309C35.5186 17.0841 35.6252 17.1692 35.8467 17.1692C35.9288 17.1692 36.019 17.1521 36.1175 17.1096H36.1421C36.1503 17.1096 36.1585 17.1096 36.1667 17.1011C36.7657 17.0075 37.2005 16.9565 37.4795 16.9565C37.701 16.9565 37.8241 16.9565 37.8569 16.965C37.9717 16.9905 38.0374 17.033 38.0456 17.0926C38.0702 17.2032 38.0784 17.3138 38.0784 17.4244C38.0866 17.3904 38.0948 17.3904 38.0948 17.4159C38.0948 17.4414 38.103 17.484 38.103 17.535C38.103 17.586 38.1112 17.6371 38.1112 17.6966C38.1112 17.7477 38.1194 17.7987 38.1194 17.8243L38.0046 20.4021C38.0046 20.5553 38.0046 20.7424 38.0128 20.9466C38.0128 21.1508 38.0292 21.3635 38.0374 21.5762C38.0456 21.7464 38.062 21.9505 38.0866 22.1888C38.1112 22.427 38.144 22.6737 38.1851 22.9375C38.2097 23.0906 38.3163 23.1757 38.5133 23.1757C38.8825 23.1757 39.3255 22.963 39.826 22.5291C39.9327 22.427 40.0147 22.3419 40.0721 22.2738C40.1296 22.2058 40.1624 22.1462 40.1624 22.1037C40.1624 22.0101 40.1214 21.942 40.0393 21.891C39.9573 21.8399 39.8752 21.8059 39.7932 21.7889H39.7686C39.6865 21.7549 39.6455 21.7379 39.6455 21.7293V17.4584C39.6701 17.1862 39.6865 17.033 39.7111 17.0075Z" fill="#FBFBFB"/>
<path d="M46.3083 12.8894C46.2099 12.8894 46.0048 12.9745 45.6848 13.1361H45.693C45.4058 13.2893 45.1515 13.4254 44.9299 13.5275C44.7084 13.6296 44.5279 13.7232 44.372 13.7912C43.8469 14.0465 43.5762 14.2677 43.5762 14.4463C43.5762 14.642 43.7157 14.7441 43.9864 14.7441C44.0438 14.7441 44.1259 14.7356 44.2161 14.7101C44.3064 14.6845 44.4048 14.642 44.5115 14.5825L44.7166 14.4804C44.7494 14.4633 44.7741 14.4463 44.7987 14.4293C44.8069 14.4378 44.8069 14.4463 44.8069 14.4548C44.8069 14.4804 44.8069 14.4974 44.8151 14.5059L44.8397 14.7611C44.8397 15.0164 44.8397 15.3311 44.8397 15.6885C44.8397 16.0458 44.8397 16.4201 44.8479 16.803C44.8479 17.1858 44.8561 17.5517 44.8561 17.9175C44.8561 18.2833 44.8561 18.5896 44.8561 18.8534C44.8479 18.9129 44.8397 19.0065 44.8397 19.1171C44.8397 19.2277 44.8315 19.3553 44.8315 19.4915C44.8315 19.6276 44.8233 19.7637 44.8233 19.8998C44.8233 20.036 44.8233 20.1636 44.8233 20.2827L44.7576 23.1753C44.7576 23.3115 44.8069 23.4136 44.9135 23.4986C45.012 23.5837 45.1269 23.6262 45.2499 23.6262C45.2827 23.6262 45.3648 23.6007 45.4961 23.5497C45.6355 23.4986 45.8078 23.4306 46.0294 23.3455C46.2673 23.2434 46.456 23.1583 46.6119 23.0817C46.7678 23.0052 46.8745 22.9456 46.9237 22.8861C46.9237 22.7414 46.9155 22.6564 46.8991 22.6308C46.858 22.5713 46.8252 22.5117 46.8006 22.4692C46.776 22.4266 46.7514 22.3926 46.735 22.3671C46.7186 22.3075 46.7104 22.231 46.7022 22.1374C46.6939 22.0438 46.6939 21.9502 46.6939 21.8396H46.4642C46.4806 21.8311 46.5216 21.7801 46.5873 21.6865C46.6529 21.5929 46.6939 21.4568 46.7104 21.2866C46.7268 21.1164 46.735 20.9633 46.735 20.8442C46.735 20.7251 46.735 20.64 46.7268 20.589C46.7186 20.589 46.7186 20.2146 46.7186 19.4744C46.7678 19.2703 46.8991 19.032 47.1206 18.7683C47.3421 18.5046 47.6375 18.2323 48.0067 17.9686C48.7615 17.4241 49.3605 17.1433 49.7953 17.1433C50.3204 17.1433 50.7224 17.5432 50.9932 18.3344C51.0999 18.6152 51.1737 18.8959 51.2229 19.1767C51.2721 19.4574 51.2886 19.7297 51.2886 20.0019C51.2886 20.5209 51.1819 21.0399 50.9686 21.5674C50.7553 22.0948 50.4435 22.6138 50.0332 23.1243C49.902 23.2774 49.8035 23.4221 49.7379 23.5327C49.6722 23.6518 49.6394 23.7454 49.6394 23.8304C49.6394 23.924 49.6804 24.0006 49.7625 24.0516C50.0004 24.0687 50.2466 23.9495 50.5091 23.7113H50.5009C50.8209 23.4476 51.0999 23.1668 51.3378 22.8691C51.5757 22.5713 51.7972 22.265 51.9942 21.9332H51.986C52.068 21.7971 52.1418 21.6865 52.1993 21.5929C52.2567 21.4993 52.3141 21.4227 52.3552 21.3547C52.4618 21.0824 52.5439 20.8527 52.6177 20.6655C52.6834 20.4784 52.7326 20.3422 52.7654 20.2572C52.7818 20.2231 52.79 20.2061 52.79 20.1891C52.8557 19.9424 52.8885 19.5935 52.8885 19.1426C52.8885 18.7683 52.8556 18.411 52.7818 18.0707C52.708 17.7303 52.6013 17.4241 52.4618 17.1603C52.2649 16.803 52.0106 16.5137 51.6988 16.3095C51.387 16.1054 51.026 15.9948 50.624 15.9948C49.9922 15.9948 49.3605 16.1649 48.7287 16.4967C48.5318 16.6073 48.3185 16.7349 48.0887 16.8881C47.859 17.0412 47.6129 17.2199 47.3585 17.4241C46.9811 17.7389 46.7842 17.892 46.7596 17.892C46.7432 17.892 46.735 17.8835 46.735 17.8665L46.6775 17.6282L46.7104 13.2893C46.7104 13.034 46.5791 12.8894 46.3083 12.8894Z" fill="#FBFBFB"/>
<path d="M26.0652 28.8077C26.0734 28.7736 26.0816 28.7225 26.0899 28.6543C26.0816 28.6799 26.0816 28.7054 26.0734 28.731C26.0652 28.7566 26.057 28.7821 26.0488 28.8077C26.057 28.8503 26.0652 28.8418 26.0652 28.8077Z" fill="#FBFBFB"/>
<path d="M26.123 28.5096C26.123 28.45 26.1066 28.3564 26.0738 28.2373C26.0328 28.1012 25.9918 28.0076 25.9507 27.9566C25.8277 27.7949 25.721 27.7013 25.639 27.6673C25.5979 27.6503 25.5651 27.6418 25.5241 27.6333C25.4831 27.6248 25.442 27.6248 25.3928 27.6248C25.3272 27.6248 25.2615 27.6248 25.1959 27.6333C25.1303 27.6418 25.0646 27.6503 24.999 27.6673C24.9662 27.6758 24.9334 27.6843 24.8923 27.7013C24.8513 27.7183 24.8103 27.7439 24.7611 27.7694C24.7282 27.7864 24.6872 27.8119 24.6544 27.8289C24.6216 27.846 24.5888 27.863 24.5559 27.8885C24.5313 27.9055 24.5149 27.9225 24.4821 27.9395C24.4575 27.9566 24.4329 27.9736 24.4083 27.9821C24.3672 28.0076 24.3344 28.0331 24.3098 28.0501C24.2852 28.0672 24.2688 28.0757 24.2606 28.0757C24.2196 28.0757 24.2031 28.0501 24.2031 27.9906C24.2031 27.9821 24.2031 27.9736 24.2031 27.9651C24.2031 27.9566 24.2031 27.9395 24.2031 27.931C24.2031 27.9225 24.2031 27.9055 24.2031 27.8885C24.2031 27.8715 24.2031 27.863 24.2031 27.8545C24.2031 27.7098 24.1375 27.6418 24.0062 27.6418C23.9652 27.6418 23.9242 27.6418 23.8832 27.6503C23.8421 27.6588 23.8011 27.6673 23.7519 27.6758C23.7191 27.6843 23.6862 27.7013 23.6534 27.7098C23.6206 27.7183 23.5878 27.7268 23.555 27.7354C23.5304 27.7439 23.5057 27.7524 23.4811 27.7524C23.4565 27.7609 23.4401 27.7609 23.4155 27.7694C23.3909 27.7779 23.3663 27.7864 23.3417 27.7864C23.317 27.7949 23.3006 27.7949 23.2842 27.8034C23.2678 27.8119 23.2432 27.8119 23.2268 27.8204C23.2104 27.8204 23.194 27.8289 23.1776 27.8289C23.1119 27.846 23.0791 27.8885 23.0791 27.9395C23.0791 28.0076 23.1611 28.0501 23.3252 28.0842C23.3663 28.0757 23.3991 28.0672 23.4401 28.0672C23.4811 28.0587 23.514 28.0501 23.555 28.0501C23.6042 28.0672 23.6288 28.0842 23.6288 28.0927V28.3649C23.6288 28.433 23.6288 28.4926 23.6288 28.5436C23.6288 28.5946 23.6288 28.6287 23.637 28.6542C23.6452 28.7393 23.6452 28.9009 23.6534 29.1391C23.6534 29.3689 23.6534 29.6836 23.6534 30.0665V30.8067C23.6534 30.8407 23.6452 30.8662 23.637 30.8747C23.6288 30.8832 23.6206 30.8918 23.6124 30.9003C23.6042 30.9088 23.6042 30.9088 23.596 30.9173C23.5878 30.9258 23.5796 30.9343 23.5796 30.9343C23.555 30.9683 23.5386 30.9938 23.5386 31.0109C23.5386 31.0704 23.5796 31.1044 23.6616 31.1044C23.7437 31.1044 23.8421 31.0704 23.9652 30.9938C24.1211 30.8918 24.2031 30.7897 24.2031 30.6705V29.8963C24.2031 29.8878 24.2031 29.8878 24.2031 29.8708C24.2031 29.8623 24.2031 29.8538 24.2031 29.8453V28.935C24.2031 28.9265 24.2031 28.8839 24.1949 28.8073C24.1867 28.7308 24.1867 28.6882 24.1867 28.6797C24.1867 28.6032 24.1867 28.5351 24.1949 28.484C24.2031 28.4585 24.236 28.416 24.3016 28.3564C24.3672 28.3054 24.4493 28.2458 24.5559 28.1778C24.6708 28.1097 24.7693 28.0587 24.8595 28.0161C24.9498 27.9736 25.0154 27.9566 25.0646 27.9566C25.0728 27.9566 25.1385 27.9736 25.2533 28.0076C25.36 28.0416 25.442 28.1012 25.4995 28.1948C25.5487 28.2799 25.5733 28.3649 25.5733 28.467C25.5733 28.5266 25.5569 28.6032 25.5323 28.6882C25.5077 28.7733 25.4749 28.8499 25.4338 28.935C25.3436 29.1136 25.2205 29.2668 25.081 29.3944C25.0482 29.4199 25.0072 29.4454 24.958 29.4709C24.9334 29.4795 24.9087 29.488 24.8923 29.4965C24.8759 29.505 24.8595 29.505 24.8513 29.505C24.8431 29.505 24.8349 29.505 24.8103 29.4965C24.7939 29.488 24.7611 29.4795 24.7282 29.4709C24.6462 29.4369 24.597 29.4199 24.5888 29.4199C24.5559 29.4199 24.5067 29.4369 24.4411 29.4795C24.359 29.5305 24.318 29.5901 24.318 29.6496C24.318 29.7177 24.3672 29.7687 24.4575 29.8113C24.4821 29.8198 24.5149 29.8368 24.5559 29.8453C24.597 29.8538 24.6216 29.8623 24.6462 29.8623C24.9005 29.8623 25.1877 29.7347 25.4995 29.4795C25.7702 29.2668 25.9507 29.0371 26.0246 28.8073C26.0246 28.7903 26.0246 28.7563 26.0246 28.7052C26.0246 28.6542 26.0246 28.5861 26.0246 28.5011H26.123V28.5096Z" fill="#FBFBFB"/>
<path d="M27.9366 29.6155C27.9448 29.6325 27.953 29.641 27.9612 29.658V29.6495L27.9776 29.6835C28.0023 29.7176 28.0187 29.7431 28.0351 29.7601C28.0515 29.7771 28.0597 29.7942 28.0679 29.8027C28.1335 29.8792 28.191 29.9218 28.2402 29.9303C28.2566 29.9303 28.2894 29.9303 28.3387 29.9303C28.3879 29.9303 28.4535 29.9303 28.5356 29.9303C28.6176 29.9303 28.6833 29.9303 28.7325 29.9303C28.7817 29.9303 28.8145 29.9303 28.8309 29.9303C28.8391 29.9218 28.8473 29.9218 28.8638 29.9047C28.8802 29.8962 28.8884 29.8877 28.8884 29.8792V29.7941C28.872 29.7856 28.8638 29.7771 28.8638 29.7856C28.8391 29.7686 28.8227 29.7601 28.8063 29.7431C28.7899 29.7261 28.7817 29.7261 28.7735 29.7261C28.7243 29.7091 28.6668 29.658 28.6094 29.59C28.552 29.5134 28.4945 29.4198 28.4371 29.3007C28.4207 29.2582 28.4043 29.2156 28.3879 29.1816C28.3715 29.139 28.3551 29.105 28.3387 29.071C28.2976 28.9774 28.2648 28.8923 28.2238 28.8243C28.191 28.7477 28.1582 28.6881 28.1335 28.6371C28.0925 28.569 28.0597 28.501 28.0269 28.4499C27.9941 28.3904 27.9694 28.3478 27.953 28.3138C27.8464 28.1181 27.7397 27.9565 27.6248 27.8374C27.51 27.7182 27.4033 27.6587 27.2967 27.6587H27.2228C27.2064 27.6587 27.19 27.6587 27.1736 27.6587C27.1572 27.6587 27.149 27.6587 27.149 27.6587H27.0669C27.0423 27.6587 27.0259 27.6587 27.0177 27.6587C27.0095 27.6587 26.9931 27.6587 26.9931 27.6587L26.7962 27.6672C26.7552 27.6757 26.7223 27.6842 26.6895 27.7097V27.7863C26.7305 27.8203 26.788 27.8459 26.8536 27.8544C26.9192 27.8629 26.9603 27.8714 26.9767 27.8799C26.9931 27.8884 27.0095 27.8969 27.0259 27.9054C27.2064 28.1181 27.2967 28.2627 27.2967 28.3563C27.2967 28.3733 27.2967 28.3904 27.2885 28.3989C27.2064 28.4925 27.1408 28.5605 27.0997 28.6116C27.0587 28.6626 27.0259 28.6966 27.0177 28.7137C26.9767 28.7647 26.9439 28.8072 26.911 28.8413C26.8782 28.8753 26.8454 28.9093 26.8208 28.9434C26.509 29.3347 26.3613 29.5474 26.3613 29.59C26.3613 29.6495 26.3941 29.7176 26.468 29.7856C26.5418 29.8537 26.5993 29.8877 26.6567 29.9047C26.7059 29.9218 26.7634 29.9303 26.829 29.9388C26.8946 29.9473 26.9685 29.9473 27.0423 29.9473C27.1572 29.9473 27.2474 29.9388 27.2967 29.9218C27.3787 29.8962 27.4854 29.8452 27.6002 29.7686C27.7725 29.658 27.8792 29.5985 27.9202 29.5985C27.9202 29.5985 27.9284 29.5985 27.9366 29.6155ZM27.7725 29.3603C27.7561 29.3773 27.7315 29.3858 27.7069 29.4028C27.6987 29.4113 27.6987 29.4113 27.6905 29.4198C27.6823 29.4283 27.6823 29.4283 27.6741 29.4283L27.6495 29.4538C27.6002 29.4794 27.5674 29.5049 27.5346 29.5134C27.5018 29.5304 27.4854 29.5389 27.469 29.5389C27.4115 29.5644 27.3541 29.5815 27.3049 29.59C27.2556 29.5985 27.2064 29.607 27.1654 29.607C27.1244 29.607 27.0669 29.59 27.0013 29.5474C26.9357 29.5049 26.9028 29.4623 26.9028 29.4198C26.9028 29.3773 26.9357 29.3177 26.9931 29.2241C27.0095 29.2071 27.0177 29.1901 27.0341 29.1731C27.0423 29.1561 27.0587 29.139 27.0669 29.122L27.0997 29.0795C27.108 29.071 27.1162 29.0625 27.1244 29.0455C27.1408 29.0284 27.149 29.0114 27.1654 28.9859C27.2228 28.9093 27.2803 28.8413 27.3377 28.7817C27.3951 28.7222 27.4279 28.6796 27.4608 28.6541C27.4854 28.6626 27.51 28.7137 27.5592 28.8072C27.6331 28.9604 27.6905 29.0795 27.7315 29.1646C27.7725 29.2497 27.7889 29.3007 27.7889 29.3177C27.7971 29.3347 27.7889 29.3432 27.7725 29.3603Z" fill="#FBFBFB"/>
<path d="M29.9154 29.1137C29.9154 29.1392 29.9482 29.1903 30.0139 29.2668C30.0795 29.3434 30.178 29.437 30.2928 29.5561C30.4159 29.6837 30.5308 29.7773 30.621 29.8454C30.7113 29.9134 30.7851 29.9475 30.8343 29.9475C30.859 29.9475 30.9 29.939 30.9492 29.9304C30.9984 29.9219 31.0559 29.8964 31.1215 29.8794C31.1789 29.8624 31.2282 29.8369 31.2774 29.8198C31.3266 29.7943 31.3512 29.7773 31.3594 29.7688L31.3512 29.7263C31.3184 29.6837 31.2692 29.6667 31.2035 29.6667C31.1543 29.6667 31.1215 29.6582 31.1051 29.6497C31.0559 29.6157 30.9984 29.5731 30.9328 29.5136C30.8672 29.454 30.7933 29.3859 30.7113 29.3009C30.5226 29.1222 30.4323 29.0286 30.4323 29.0031C30.4405 28.9946 30.4569 28.9861 30.4733 28.9776C30.4897 28.9691 30.5062 28.952 30.5226 28.935C30.539 28.918 30.5636 28.901 30.5964 28.884C30.6702 28.8244 30.7359 28.7734 30.7933 28.7223C30.8507 28.6713 30.9 28.6287 30.9328 28.5862C31.0559 28.4416 31.1215 28.2969 31.1215 28.1608C31.1215 28.0417 31.0887 27.9311 31.023 27.829C30.982 27.778 30.941 27.7354 30.8836 27.7014C30.8343 27.6674 30.7769 27.6589 30.7113 27.6589C30.621 27.6589 30.5308 27.6759 30.4405 27.7014C30.3503 27.7269 30.26 27.7695 30.178 27.8205C30.0549 27.8971 29.94 27.9907 29.8252 28.1183C29.7677 28.1863 29.7267 28.2289 29.7103 28.2629L29.7021 28.2544C29.7021 28.2544 29.6939 28.2459 29.6939 28.2374C29.7021 28.2034 29.6939 28.1438 29.6775 28.0672C29.6693 28.0417 29.6693 28.0162 29.6693 27.9992C29.6693 27.9737 29.6693 27.9651 29.6611 27.9481V27.9396V27.9311V27.9056C29.6611 27.8886 29.6611 27.8801 29.6611 27.8716C29.6611 27.863 29.6611 27.846 29.6529 27.8205C29.6447 27.812 29.6447 27.8035 29.6283 27.795C29.62 27.778 29.6118 27.7695 29.6036 27.7695C29.5954 27.7524 29.5872 27.7439 29.579 27.7269C29.5708 27.7099 29.5626 27.7014 29.5544 27.6929C29.5298 27.6759 29.4806 27.6674 29.4149 27.6674C29.4067 27.6674 29.3985 27.6674 29.3903 27.6674C29.3821 27.6674 29.3739 27.6589 29.3657 27.6589C29.3575 27.6589 29.3575 27.6589 29.3493 27.6589H29.3411L29.2672 27.6504C29.2262 27.6418 29.1934 27.6418 29.1852 27.6418C29.0539 27.6418 28.9801 27.6759 28.9473 27.7524C28.9719 27.7865 29.0293 27.812 29.1114 27.8375C29.1606 27.8545 29.1852 27.8971 29.1934 27.9481C29.1934 28.0417 29.1934 28.1523 29.1934 28.2799C29.1934 28.399 29.1934 28.5267 29.1934 28.6543C29.1934 28.7819 29.1934 28.9095 29.1934 29.0286C29.1934 29.1477 29.1934 29.2583 29.1934 29.3604C29.1852 29.3689 29.1852 29.3859 29.1852 29.403C29.1852 29.42 29.1852 29.454 29.1852 29.488C29.1852 29.4965 29.1852 29.5051 29.1852 29.5136C29.1852 29.5221 29.1852 29.5306 29.1852 29.5391C29.177 29.6157 29.1688 29.6837 29.1524 29.7518C29.1524 29.7518 29.1442 29.7603 29.1442 29.7688C29.1442 29.7773 29.136 29.7858 29.1196 29.8028C29.095 29.8454 29.0867 29.8794 29.0867 29.9049C29.1278 29.9475 29.218 29.973 29.3411 29.973C29.579 29.973 29.6939 29.9219 29.6939 29.8198V29.5476C29.6939 29.5391 29.6939 29.5221 29.6857 29.4965L29.6775 29.471V28.7223C29.6775 28.6117 29.7677 28.4671 29.9482 28.2799C30.1369 28.0843 30.3092 27.9822 30.4569 27.9822C30.4979 27.9822 30.5308 27.9907 30.5636 28.0077C30.5964 28.0247 30.621 28.0587 30.6456 28.1013C30.6867 28.1778 30.7113 28.2459 30.7113 28.314C30.7113 28.3565 30.6949 28.399 30.662 28.4501C30.6292 28.5011 30.58 28.5522 30.5144 28.6202C30.4815 28.6543 30.4323 28.6883 30.3667 28.7394C30.301 28.7904 30.219 28.8414 30.1287 28.9095C29.9975 29.0031 29.9154 29.0797 29.9154 29.1137Z" fill="#FBFBFB"/>
<path d="M31.3918 28.7983C31.3918 28.7899 31.3918 28.7732 31.3838 28.7649C31.3838 28.7732 31.3918 28.7899 31.3918 28.7983Z" fill="#FBFBFB"/>
<path d="M33.1949 29.8285V29.8625C33.1949 29.871 33.1949 29.8795 33.1949 29.888C33.1949 29.8965 33.1949 29.9051 33.1949 29.9136V30.6878C33.1949 30.8069 33.2851 30.909 33.4656 31.0026C33.6051 31.0706 33.7118 31.1047 33.802 31.1047C33.8923 31.1047 33.9333 31.0706 33.9333 31.0111C33.9333 30.9855 33.9169 30.96 33.8923 30.9345C33.8841 30.926 33.8759 30.9175 33.8759 30.909C33.8759 30.9005 33.8677 30.9005 33.8513 30.8834C33.8431 30.8749 33.8431 30.8749 33.8431 30.8664C33.8431 30.8579 33.8348 30.8579 33.8348 30.8579C33.8266 30.8494 33.8184 30.8324 33.8102 30.8154C33.802 30.7984 33.7938 30.7899 33.7856 30.7728C33.7774 30.4155 33.7774 30.0582 33.7774 29.7009C33.7774 29.3435 33.7692 28.9947 33.7692 28.6289C33.7692 28.6119 33.7692 28.5863 33.7692 28.5608C33.7692 28.5353 33.761 28.5013 33.761 28.4672C33.761 28.4332 33.7528 28.3822 33.7528 28.3226C33.7528 28.263 33.7446 28.1865 33.7364 28.0929C33.7364 28.0759 33.7282 28.0504 33.72 28.0163C33.7118 27.9823 33.7036 27.9398 33.6954 27.8972C33.6872 27.8462 33.6708 27.8036 33.6625 27.7696C33.6543 27.7356 33.6461 27.7185 33.6297 27.7015C33.5477 27.659 33.441 27.625 33.3015 27.6165C33.2769 27.6165 33.2605 27.6165 33.2359 27.625C33.2113 27.6335 33.1867 27.6335 33.1621 27.642C33.1375 27.6505 33.121 27.659 33.0964 27.6675C33.08 27.676 33.0636 27.693 33.0554 27.7015C33.0636 27.7185 33.0636 27.7356 33.0718 27.7526C33.08 27.7696 33.0882 27.7951 33.1046 27.8121C33.1292 27.8462 33.1457 27.8802 33.1621 27.9057C33.1785 27.9312 33.1785 27.9653 33.1785 27.9823C33.1785 28.0163 33.1703 28.0333 33.1457 28.0333C33.1292 28.0333 33.1046 28.0248 33.0718 28.0078C33.039 27.9908 32.9898 27.9738 32.9323 27.9483C32.8913 27.9312 32.8585 27.9142 32.8257 27.8972C32.7929 27.8802 32.76 27.8632 32.719 27.8377C32.6698 27.8121 32.6206 27.7866 32.5795 27.7696C32.5385 27.7526 32.5057 27.7441 32.4729 27.7356C32.3498 27.7015 32.2185 27.6845 32.079 27.6845C31.9806 27.6845 31.8903 27.7015 31.8247 27.7271C31.7509 27.7611 31.6442 27.8547 31.5129 28.0248C31.4965 28.0504 31.4719 28.0844 31.4473 28.1354C31.4227 28.1865 31.4063 28.246 31.3817 28.3056C31.3652 28.3651 31.3488 28.4162 31.3406 28.4672C31.3324 28.5183 31.3242 28.5523 31.3242 28.5778H31.3981C31.3981 28.6629 31.3981 28.7225 31.3899 28.765C31.3817 28.8075 31.3817 28.8246 31.3734 28.799C31.4391 29.0543 31.6196 29.301 31.9068 29.5307C32.2021 29.7689 32.4811 29.8965 32.7436 29.8965C32.8011 29.8965 32.8585 29.8795 32.9241 29.8455C33.0144 29.803 33.0554 29.7519 33.0554 29.6924C33.0554 29.6243 33.0144 29.5732 32.9323 29.5222C32.8667 29.4797 32.8175 29.4541 32.7847 29.4541C32.7764 29.4541 32.7272 29.4712 32.6452 29.5052C32.5713 29.5307 32.5303 29.5477 32.5303 29.5477C32.5221 29.5477 32.5057 29.5477 32.4893 29.5392C32.4729 29.5307 32.4483 29.5222 32.4236 29.5137C32.399 29.5052 32.3744 29.4882 32.358 29.4797C32.3416 29.4712 32.317 29.4541 32.3088 29.4456C32.1693 29.318 32.0544 29.1649 31.9642 29.0032C31.9232 28.9267 31.8985 28.8501 31.8739 28.7735C31.8575 28.6969 31.8411 28.6289 31.8411 28.5608C31.8411 28.4672 31.8657 28.3736 31.9232 28.2886C31.9888 28.1865 32.0708 28.1269 32.1693 28.1014C32.2842 28.0674 32.3416 28.0504 32.358 28.0504C32.4647 28.0504 32.6206 28.1014 32.8339 28.212C33.039 28.3141 33.1457 28.3992 33.1539 28.4672C33.1621 28.5098 33.1703 28.5778 33.1703 28.6629V28.9777L33.1949 29.8285Z" fill="#FBFBFB"/>
<path d="M31.3996 28.841C31.3916 28.8327 31.3916 28.816 31.3916 28.8076C31.3996 28.8243 31.3996 28.841 31.3996 28.841Z" fill="#FBFBFB"/>
<path d="M36.225 29.8117C36.2332 29.8117 36.2414 29.8032 36.2414 29.8032C36.266 29.7947 36.2742 29.7947 36.2824 29.7947H36.2906C36.2906 29.7947 36.2988 29.7947 36.307 29.7947C36.3152 29.7947 36.3234 29.7947 36.3316 29.7947C36.3563 29.9393 36.4219 30.0074 36.5203 30.0074C36.545 30.0074 36.5942 29.9989 36.6762 29.9733C36.7583 29.9478 36.8649 29.9138 36.988 29.8798C37.0044 29.8712 37.0208 29.8627 37.0372 29.8542C37.0536 29.8457 37.0701 29.8287 37.0783 29.8117V29.7266C37.0454 29.7266 37.0208 29.7266 37.0044 29.7181C36.9962 29.7181 36.988 29.7181 36.9798 29.7181C36.9716 29.7181 36.9634 29.7181 36.9552 29.7181C36.9224 29.7181 36.8978 29.7011 36.8814 29.6756C36.8814 29.6671 36.8814 29.6671 36.8814 29.6586C36.8814 29.65 36.8814 29.65 36.8814 29.6415C36.8731 29.616 36.8649 29.5905 36.8649 29.565C36.8649 29.5394 36.8567 29.5224 36.8567 29.5139C36.8485 29.3948 36.8321 29.2927 36.8239 29.1991C36.8157 29.1055 36.8075 29.0375 36.8075 28.9779C36.7993 28.8163 36.7829 28.6461 36.7665 28.4589C36.7501 28.2803 36.7255 28.0846 36.7091 27.8889C36.6926 27.7443 36.627 27.6762 36.5121 27.6762C36.5039 27.6762 36.4793 27.6762 36.4465 27.6847C36.4137 27.6932 36.3645 27.6932 36.307 27.7103C36.2414 27.7188 36.184 27.7358 36.1347 27.7443C36.0855 27.7528 36.0445 27.7613 36.0117 27.7698C35.9952 27.7783 35.9706 27.7953 35.946 27.8209C35.9214 27.8464 35.9132 27.8634 35.9132 27.8889C35.9132 27.9485 35.9542 27.974 36.0363 27.974C36.0445 27.974 36.0527 27.974 36.0609 27.974C36.0691 27.974 36.0773 27.974 36.0937 27.9655C36.1019 27.9655 36.1101 27.9655 36.1183 27.957C36.1265 27.9485 36.1347 27.957 36.1347 27.9485C36.1758 27.9485 36.1922 27.957 36.2004 27.974C36.2086 27.9995 36.225 28.0336 36.225 28.0676C36.2332 28.1016 36.2414 28.1527 36.2414 28.2037C36.2414 28.2292 36.2414 28.2463 36.2414 28.2633C36.2414 28.2803 36.2414 28.3058 36.2496 28.3228C36.2496 28.3398 36.2496 28.3654 36.2496 28.3824C36.2496 28.3994 36.2496 28.4249 36.2496 28.4419C36.2496 28.459 36.2496 28.4675 36.2496 28.4845C36.2496 28.493 36.2496 28.51 36.2496 28.51C36.2496 28.5185 36.2496 28.527 36.2496 28.5355L36.2578 28.7737C36.2578 28.7822 36.2578 28.7993 36.2578 28.8418C36.2578 28.8843 36.266 28.9439 36.266 29.0205C36.2742 29.097 36.2742 29.1566 36.2742 29.1991C36.2742 29.2417 36.2742 29.2587 36.2742 29.2672H36.3316C36.3234 29.2757 36.307 29.2842 36.2988 29.3012C36.2906 29.3182 36.2824 29.3438 36.2824 29.3693C36.2824 29.3948 36.2824 29.4203 36.2824 29.4459C36.2824 29.4714 36.2824 29.4884 36.2742 29.4969C36.266 29.5479 36.1675 29.5905 35.9952 29.6245C35.8558 29.65 35.7327 29.6671 35.6178 29.6671C35.3635 29.6671 35.1748 29.5905 35.0435 29.4288C34.9204 29.2842 34.8548 29.08 34.8548 28.8333C34.8548 28.7737 34.863 28.6887 34.8876 28.6036C34.904 28.51 34.9368 28.4079 34.9697 28.2803C35.0271 28.0931 35.142 27.9485 35.3061 27.8549C35.3471 27.8294 35.3635 27.7953 35.3635 27.7528C35.3635 27.6932 35.3225 27.6677 35.2404 27.6677C35.2158 27.6677 35.1338 27.6847 34.9943 27.7103C34.9204 27.7273 34.8548 27.7528 34.7892 27.7698C34.7235 27.7868 34.6743 27.8038 34.6251 27.8209C34.5923 27.8379 34.5594 27.8464 34.5348 27.8634C34.5102 27.8804 34.4856 27.8889 34.4774 27.8974L34.4528 27.957C34.461 27.9995 34.4856 28.0251 34.5266 28.0165L34.6087 27.9995V28.008C34.6005 28.0251 34.6005 28.0421 34.5923 28.0591C34.5348 28.1357 34.4856 28.2122 34.4446 28.2803C34.4035 28.3483 34.3707 28.4164 34.3461 28.4675C34.2887 28.5951 34.2559 28.7312 34.2559 28.8673C34.2559 29.063 34.3133 29.2587 34.4282 29.4629C34.4692 29.5309 34.5266 29.599 34.6005 29.6671C34.6743 29.7351 34.7481 29.7862 34.8384 29.8287C35.0025 29.9138 35.183 29.9563 35.3799 29.9563C35.3881 29.9563 35.4045 29.9563 35.4045 29.9563C35.4127 29.9563 35.4209 29.9563 35.4291 29.9478C35.4373 29.9478 35.4537 29.9478 35.4619 29.9478C35.5194 29.9478 35.6014 29.9393 35.6999 29.9223C35.7983 29.9053 35.9132 29.8798 36.0363 29.8542C36.0527 29.8542 36.0691 29.8457 36.0855 29.8372C36.1019 29.8287 36.1347 29.8202 36.1593 29.8032H36.1511C36.2086 29.8117 36.2168 29.8117 36.225 29.8117Z" fill="#FBFBFB"/>
<path d="M38.9972 28.076C39.0054 28.093 39.0136 28.1101 39.03 28.1356C39.0464 28.1866 39.0792 28.2122 39.1285 28.2122C39.1777 28.2122 39.2269 28.1866 39.2761 28.1356C39.3336 28.0845 39.3582 28.0335 39.3582 27.9824C39.3582 27.8548 39.2597 27.7697 39.0628 27.7102C38.9972 27.6932 38.9233 27.6762 38.8577 27.6677C38.7921 27.6591 38.7182 27.6506 38.6444 27.6506C38.5131 27.6506 38.39 27.6677 38.267 27.7017C38.2095 27.7187 38.1603 27.7357 38.1193 27.7527C38.0701 27.7697 38.0454 27.7783 38.029 27.7868C37.9716 27.8123 37.9224 27.8463 37.8649 27.8803C37.8075 27.9144 37.7665 27.9484 37.7173 27.9909C37.5778 28.1186 37.4793 28.2802 37.4137 28.4844C37.3891 28.5525 37.3727 28.6205 37.3563 28.6801C37.3398 28.7396 37.3398 28.7992 37.3398 28.8502C37.3398 29.0459 37.3809 29.2246 37.4547 29.3862C37.4957 29.4798 37.5614 29.5734 37.6434 29.65C37.7255 29.7265 37.8075 29.7861 37.8978 29.8371C37.9716 29.8712 38.029 29.8967 38.0783 29.9222C38.1193 29.9392 38.1521 29.9562 38.1603 29.9648C38.2506 29.9903 38.3572 29.9988 38.4885 29.9988C38.5623 29.9988 38.628 29.9903 38.6854 29.9733C38.7675 29.9477 38.8413 29.9137 38.9069 29.8967C38.9726 29.8712 39.0218 29.8456 39.071 29.8201C39.0874 29.8116 39.1121 29.7946 39.1285 29.7861C39.1531 29.7776 39.1695 29.7606 39.1941 29.7436C39.2269 29.718 39.2515 29.6925 39.2597 29.667C39.2679 29.6415 39.2761 29.6244 39.2761 29.6074C39.2761 29.5479 39.2515 29.5224 39.2023 29.5224C39.1777 29.5224 39.1285 29.5394 39.0546 29.5649C39.0464 29.5734 39.03 29.5734 39.0054 29.5904C38.9726 29.6074 38.9398 29.6244 38.9233 29.6244C38.7264 29.6755 38.6116 29.701 38.5705 29.701C38.4393 29.701 38.2998 29.65 38.1603 29.5564C38.0044 29.4458 37.9142 29.3182 37.906 29.165C37.906 29.1565 37.906 29.148 37.8978 29.131C37.8896 29.114 37.8978 29.1055 37.8896 29.097C37.8814 29.0799 37.8814 29.0629 37.8814 29.0459C37.8814 29.0289 37.8814 29.0204 37.8731 29.0034V28.9949C37.8731 28.9949 37.8731 28.9864 37.8731 28.9693C37.8731 28.9608 37.8731 28.9523 37.8731 28.9438C37.8731 28.9353 37.8731 28.9268 37.8731 28.9183C37.8814 28.9098 37.9224 28.9098 37.9716 28.9098C38.0126 28.9098 38.0537 28.9098 38.0865 28.9013C38.1193 28.9013 38.1439 28.9013 38.1521 28.8928L38.6772 28.8843C38.7018 28.8843 38.7428 28.9013 38.8003 28.9353C38.8577 28.9693 38.8987 28.9864 38.9151 28.9864C38.9398 28.9864 38.9644 28.9779 38.989 28.9693C38.9972 28.9608 39.0136 28.9523 39.0382 28.9438C39.0628 28.9353 39.0874 28.9098 39.1121 28.8928C39.1859 28.8417 39.2187 28.7907 39.2187 28.7481C39.2187 28.6631 39.1449 28.6205 38.989 28.6205H38.4639H38.4557C38.4475 28.6205 38.4475 28.6205 38.4393 28.6205C38.4311 28.6205 38.4229 28.6205 38.4147 28.6205C38.4065 28.6205 38.3982 28.6205 38.3818 28.6205C38.3572 28.6205 38.3408 28.6205 38.3326 28.612C38.3162 28.612 38.308 28.612 38.308 28.612H37.9388C37.8978 28.612 37.8814 28.5865 37.8814 28.5354C37.8814 28.5269 37.8978 28.4844 37.9306 28.4163C37.9634 28.3483 38.0044 28.2887 38.0536 28.2292C38.1029 28.1696 38.1603 28.1186 38.2177 28.076C38.3244 27.9995 38.4393 27.9654 38.5541 27.9654C38.6034 27.9654 38.669 27.9739 38.751 27.9995C38.8413 28.025 38.8987 28.0505 38.9233 28.0675C38.9808 28.0505 38.989 28.0675 38.9972 28.076Z" fill="#FBFBFB"/>
</svg>
