<svg width="144" height="99" viewBox="0 0 144 99" fill="none" xmlns="http://www.w3.org/2000/svg">
<path d="M15.6836 91.107H18.2027C18.7277 91.107 19.1754 91.1961 19.5458 91.3743C19.9162 91.5526 20.2003 91.8164 20.3981 92.1658C20.5959 92.5152 20.6948 92.9465 20.6948 93.4599C20.6948 93.8806 20.6373 94.2406 20.5222 94.5401C20.4071 94.836 20.2435 95.0838 20.0313 95.2834C19.8192 95.4795 19.5656 95.6364 19.2707 95.754L18.7907 96.0374H16.7463L16.7409 94.738H18.1595C18.3753 94.738 18.5533 94.6916 18.6936 94.5989C18.8374 94.5027 18.9435 94.369 19.0118 94.1979C19.0837 94.0232 19.1197 93.82 19.1197 93.5882C19.1197 93.3422 19.0873 93.1319 19.0226 92.9572C18.9615 92.779 18.8626 92.6435 18.7259 92.5508C18.5929 92.4545 18.4185 92.4064 18.2027 92.4064H17.2641V98.893H15.6836V91.107ZM19.2492 98.893L17.8089 95.4225L19.4649 95.4171L20.9376 98.8182V98.893H19.2492Z" fill="#FBFBFB"/>
<path d="M31.0497 97.5989V98.893H27.6352V97.5989H31.0497ZM28.1261 91.107V98.893H26.5456V91.107H28.1261ZM30.5912 94.262V95.5187H27.6352V94.262H30.5912ZM31.039 91.107V92.4064H27.6352V91.107H31.039Z" fill="#FBFBFB"/>
<path d="M40.0453 96.8449C40.0453 96.7059 40.0328 96.5793 40.0076 96.4652C39.9824 96.3512 39.9285 96.246 39.8458 96.1497C39.7666 96.0535 39.6498 95.9572 39.4951 95.861C39.3441 95.7647 39.1463 95.6649 38.9018 95.5615C38.6105 95.4403 38.3282 95.3119 38.0549 95.1765C37.7816 95.0374 37.5352 94.877 37.3159 94.6952C37.0965 94.5134 36.9221 94.2995 36.7926 94.0535C36.6668 93.8039 36.6038 93.5116 36.6038 93.1765C36.6038 92.8485 36.6632 92.5508 36.7818 92.2834C36.9041 92.016 37.0767 91.7879 37.2997 91.5989C37.5227 91.4064 37.7834 91.2585 38.0819 91.1551C38.3839 91.0517 38.7202 91 39.0906 91C39.594 91 40.0292 91.1034 40.396 91.3102C40.7664 91.5169 41.0523 91.8004 41.2536 92.1604C41.4586 92.5205 41.5611 92.934 41.5611 93.4011H39.986C39.986 93.18 39.9536 92.9857 39.8889 92.8182C39.8278 92.6471 39.7289 92.5134 39.5922 92.4171C39.4556 92.3209 39.2794 92.2727 39.0636 92.2727C38.8622 92.2727 38.695 92.3137 38.5619 92.3957C38.4325 92.4742 38.3354 92.5829 38.2706 92.7219C38.2095 92.8574 38.1789 93.0107 38.1789 93.1818C38.1789 93.3102 38.2095 93.426 38.2706 93.5294C38.3354 93.6292 38.4235 93.7201 38.535 93.8021C38.6464 93.8806 38.7777 93.9572 38.9287 94.0321C39.0834 94.107 39.2524 94.18 39.4358 94.2513C39.7918 94.3904 40.1065 94.5437 40.3798 94.7112C40.6531 94.8752 40.8814 95.0606 41.0648 95.2674C41.2482 95.4706 41.3867 95.7005 41.4802 95.9572C41.5737 96.2139 41.6205 96.5062 41.6205 96.8342C41.6205 97.1586 41.5629 97.4545 41.4478 97.7219C41.3364 97.9857 41.1727 98.2139 40.957 98.4064C40.7412 98.5954 40.4805 98.7415 40.1748 98.8449C39.8727 98.9483 39.5347 99 39.1607 99C38.7975 99 38.4541 98.9501 38.1304 98.8503C37.8067 98.7469 37.5209 98.5918 37.2727 98.385C37.0282 98.1747 36.8358 97.9091 36.6955 97.5882C36.5553 97.2638 36.4852 96.8806 36.4852 96.4385H38.0657C38.0657 96.6738 38.089 96.8752 38.1358 97.0428C38.1825 97.2068 38.2545 97.3387 38.3516 97.4385C38.4487 97.5348 38.5673 97.6078 38.7076 97.6578C38.8514 97.7041 39.015 97.7273 39.1985 97.7273C39.407 97.7273 39.5724 97.6881 39.6947 97.6096C39.8206 97.5312 39.9105 97.426 39.9644 97.2941C40.0184 97.1622 40.0453 97.0125 40.0453 96.8449Z" fill="#FBFBFB"/>
<path d="M50.5675 91.107V98.893H48.9978V91.107H50.5675ZM52.5202 91.107V92.4064H47.0828V91.107H52.5202Z" fill="#FBFBFB"/>
<path d="M60.383 92.4973L58.6946 98.893H57.0278L59.4822 91.107H60.5233L60.383 92.4973ZM61.7154 98.893L60.0162 92.4973L59.8598 91.107H60.917L63.393 98.893H61.7154ZM61.7747 95.9893V97.2888H58.2307V95.9893H61.7747Z" fill="#FBFBFB"/>
<path d="M72.3238 91.107H73.899V96.4545C73.899 97.0535 73.7875 97.5419 73.5645 97.9198C73.3451 98.2941 73.0413 98.5686 72.6529 98.7433C72.2645 98.9144 71.8204 99 71.3205 99C70.8171 99 70.3693 98.9144 69.9774 98.7433C69.5854 98.5686 69.2797 98.2941 69.0603 97.9198C68.8446 97.5419 68.7367 97.0535 68.7367 96.4545V91.107H70.3118V96.4545C70.3118 96.7932 70.3496 97.0535 70.4251 97.2353C70.5042 97.4171 70.6175 97.5419 70.7649 97.6096C70.916 97.6738 71.1012 97.7059 71.3205 97.7059C71.5435 97.7059 71.7269 97.6738 71.8707 97.6096C72.0182 97.5419 72.1297 97.4171 72.2052 97.2353C72.2843 97.0535 72.3238 96.7932 72.3238 96.4545V91.107Z" fill="#FBFBFB"/>
<path d="M79.863 91.107H82.3821C82.9071 91.107 83.3549 91.1961 83.7253 91.3743C84.0957 91.5526 84.3798 91.8164 84.5775 92.1658C84.7753 92.5152 84.8742 92.9465 84.8742 93.4599C84.8742 93.8806 84.8167 94.2406 84.7016 94.5401C84.5865 94.836 84.4229 95.0838 84.2107 95.2834C83.9986 95.4795 83.745 95.6364 83.4502 95.754L82.9701 96.0374H80.9257L80.9203 94.738H82.3389C82.5547 94.738 82.7327 94.6916 82.873 94.5989C83.0168 94.5027 83.1229 94.369 83.1912 94.1979C83.2632 94.0232 83.2991 93.82 83.2991 93.5882C83.2991 93.3422 83.2667 93.1319 83.202 92.9572C83.1409 92.779 83.042 92.6435 82.9053 92.5508C82.7723 92.4545 82.5979 92.4064 82.3821 92.4064H81.4435V98.893H79.863V91.107ZM83.4286 98.893L81.9883 95.4225L83.6443 95.4171L85.117 98.8182V98.893H83.4286Z" fill="#FBFBFB"/>
<path d="M93.5677 92.4973L91.8794 98.893H90.2125L92.6669 91.107H93.708L93.5677 92.4973ZM94.9001 98.893L93.2009 92.4973L93.0445 91.107H94.1018L96.5777 98.893H94.9001ZM94.9594 95.9893V97.2888H91.4155V95.9893H94.9594Z" fill="#FBFBFB"/>
<path d="M107.569 91.107V98.893H106.043L103.577 94.0214V98.893H102.078V91.107H103.583L106.07 96.0321V91.107H107.569Z" fill="#FBFBFB"/>
<path d="M116.559 91.107V98.893H114.99V91.107H116.559ZM118.512 91.107V92.4064H113.075V91.107H118.512Z" fill="#FBFBFB"/>
<path d="M128.684 97.5989V98.893H125.269V97.5989H128.684ZM125.76 91.107V98.893H124.179V91.107H125.76ZM128.225 94.262V95.5187H125.269V94.262H128.225ZM128.673 91.107V92.4064H125.269V91.107H128.673Z" fill="#FBFBFB"/>
<path d="M27.692 55.28C27.692 58.0613 26.1333 60.7867 23.016 63.456C21.7467 64.52 19.9547 65.6213 17.64 66.76C17.3973 66.7973 17.052 66.9 16.604 67.068C14.98 67.8707 13.1693 68.272 11.172 68.272C10.5373 68.272 9.41733 68.1507 7.812 67.908C7.55066 67.74 7.13067 67.5347 6.552 67.292C5.376 66.956 4.13467 66.1813 2.828 64.968C1.54 63.7547 0.718665 62.56 0.363998 61.384C0.307998 61.1787 0.233333 60.684 0.139999 59.9C0.046666 59.172 0 58.7147 0 58.528C0 57.408 0.121332 56.344 0.363998 55.336C0.550665 55.112 0.755996 54.7667 0.979996 54.3C1.18533 53.4227 2.05333 52.0227 3.584 50.1C4.27467 49.204 5.36667 48.1773 6.86 47.02C7.55067 46.4787 8.20401 46.0587 8.82001 45.76C10.836 44.7707 11.844 44.052 11.844 43.604C11.844 43.38 11.6293 43.0627 11.2 42.652C10.6213 42.1107 10.2947 41.7933 10.22 41.7C9.73467 41.1773 9.00666 40.412 8.036 39.404C4.508 34.7373 2.744 32.1613 2.744 31.676C2.744 30.78 3.74267 29.744 5.74001 28.568C7.49467 27.5227 8.68001 27 9.29601 27C9.38934 27 9.53867 27.028 9.744 27.084C9.94934 27.1213 10.1173 27.14 10.248 27.14C10.248 27.1587 10.2667 27.2053 10.304 27.28C10.3413 27.336 10.36 27.42 10.36 27.532C10.36 27.7 10.1453 27.924 9.716 28.204C9.19334 28.5213 8.84801 28.8013 8.68001 29.044C8.58667 29.1747 8.53999 29.3893 8.53999 29.688C8.53999 30.416 9.42666 31.928 11.2 34.224C12.5067 35.904 13.524 37.1173 14.252 37.864C14.8307 38.3867 15.6987 39.1987 16.856 40.3C19.1147 42.5027 21.3733 44.7053 23.632 46.908C25.3493 48.6813 26.572 50.492 27.3 52.34C27.5613 53.012 27.692 53.992 27.692 55.28ZM23.24 57.044C23.24 56.2973 22.8667 55.2893 22.12 54.02C21.504 53.012 20.8787 52.1627 20.244 51.472C18.6573 49.792 17.0333 48.2707 15.372 46.908C15.1293 46.7213 14.7187 46.628 14.14 46.628C12.6093 46.628 10.948 47.4027 9.15601 48.952C7.38267 50.5013 6.14134 52.1627 5.43201 53.936C4.92801 55.224 4.67599 55.952 4.67599 56.12C4.67599 57.4267 5.06801 58.7613 5.85201 60.124C6.09467 60.5533 6.51467 61.076 7.112 61.692C7.82133 62.42 8.46534 62.9333 9.04401 63.232C9.43601 63.4187 10.276 63.6333 11.564 63.876C11.6387 63.8947 11.8067 63.9507 12.068 64.044C12.3293 64.1187 12.5067 64.156 12.6 64.156C14.4667 64.156 16.5667 63.568 18.9 62.392C21.7933 60.9173 23.24 59.1347 23.24 57.044Z" fill="#FBFBFB"/>
<path d="M50.3068 66.732C50.1948 66.9187 49.6068 67.1893 48.5428 67.544C47.4975 67.8987 46.7508 68.076 46.3028 68.076C45.5562 68.076 44.1281 67.0867 42.0188 65.108C40.0028 63.2227 38.9948 62.1213 38.9948 61.804C38.9948 61.5987 39.5642 61.1133 40.7028 60.348C42.2522 59.284 43.3068 58.5187 43.8668 58.052C44.9868 57.0627 45.5561 56.1853 45.5748 55.42C45.5935 54.804 45.3975 54.188 44.9868 53.572C44.5201 52.844 43.9415 52.4893 43.2508 52.508C41.9255 52.5453 40.4602 53.3573 38.8548 54.944C37.3055 56.456 36.5308 57.6973 36.5308 58.668V64.52C36.5308 64.5573 36.5495 64.66 36.5868 64.828C36.6242 64.9773 36.6428 65.08 36.6428 65.136V67.264C36.6428 67.8613 35.7655 68.16 34.0108 68.16C33.0402 68.16 32.4335 68.048 32.1908 67.824C32.1908 67.7307 32.2748 67.5533 32.4428 67.292C32.6108 67.0307 32.7041 66.872 32.7228 66.816C32.8535 66.2747 32.9468 65.696 33.0028 65.08C33.0588 64.2587 33.0961 63.8013 33.1148 63.708L33.1708 52.536C33.1148 51.976 32.8348 51.612 32.3308 51.444C31.6588 51.22 31.2761 51.052 31.1828 50.94C31.3321 50.5667 31.8735 50.38 32.8068 50.38C32.8441 50.38 33.0681 50.408 33.4788 50.464C33.9081 50.5013 34.1415 50.52 34.1788 50.52C34.2348 50.52 34.3095 50.5387 34.4028 50.576C34.5148 50.6133 34.5988 50.632 34.6548 50.632C35.1775 50.632 35.5042 50.6973 35.6348 50.828C35.8402 51.1267 36.0548 51.4253 36.2788 51.724C36.3161 52.004 36.3348 52.144 36.3348 52.144C36.3348 52.1813 36.3348 52.3027 36.3348 52.508C36.3348 52.5267 36.3815 52.872 36.4748 53.544C36.5868 54.216 36.6242 54.6827 36.5868 54.944C36.8108 55.1867 36.9508 55.308 37.0068 55.308C36.9695 55.308 37.3428 54.888 38.1268 54.048C39.0228 53.096 39.9562 52.3307 40.9268 51.752C42.3268 50.9307 43.7455 50.52 45.1828 50.52C46.1535 50.52 46.9281 50.94 47.5068 51.78C48.0108 52.4893 48.2628 53.292 48.2628 54.188C48.2628 55.2147 47.7775 56.2693 46.8068 57.352C46.1908 58.0427 45.2948 58.8173 44.1188 59.676C43.1481 60.3853 42.6628 60.7867 42.6628 60.88C42.6628 61.1227 43.4468 61.9627 45.0148 63.4C46.4521 64.7067 47.5441 65.64 48.2908 66.2C48.4215 66.2933 48.7388 66.3493 49.2428 66.368C49.6908 66.368 50.0455 66.4893 50.3068 66.732Z" fill="#FBFBFB"/>
<path d="M72.0525 67.824C71.9779 67.88 71.8845 67.9453 71.7725 68.02C71.5485 68.0387 70.7739 68.048 69.4485 68.048C68.0299 68.048 67.2552 68.0387 67.1245 68.02C66.8072 68.0013 66.3965 67.6933 65.8925 67.096C65.7245 66.9093 65.4819 66.592 65.1645 66.144C65.0712 65.976 64.9685 65.7893 64.8565 65.584C64.7445 65.3787 64.5765 65.276 64.3525 65.276C63.9979 65.276 63.0832 65.752 61.6085 66.704C60.6752 67.32 59.8725 67.712 59.2005 67.88C58.7899 67.992 58.1179 68.048 57.1845 68.048C55.9712 68.048 54.9539 67.9267 54.1325 67.684C53.7219 67.572 53.2552 67.2827 52.7325 66.816C52.2099 66.3307 51.9485 65.8827 51.9485 65.472C51.9485 65.2107 53.1899 63.568 55.6725 60.544C56.0832 60.096 56.6152 59.4893 57.2685 58.724C57.3059 58.668 58.0339 57.856 59.4525 56.288C59.5645 56.176 59.6205 56.008 59.6205 55.784C59.6205 54.9813 58.8552 53.7213 57.3245 52.004C57.2125 51.892 57.0632 51.7987 56.8765 51.724C56.7085 51.6493 56.3352 51.584 55.7565 51.528C55.2525 51.472 54.8792 51.3413 54.6365 51.136V50.828C54.8045 50.716 55.0099 50.6507 55.2525 50.632L56.8765 50.548C56.9325 50.548 57.1472 50.5387 57.5205 50.52C57.8752 50.52 58.0805 50.52 58.1365 50.52C58.1925 50.52 58.3885 50.5293 58.7245 50.548C59.0605 50.548 59.2565 50.548 59.3125 50.548C60.9925 50.548 62.7099 52.2373 64.4645 55.616C64.8005 56.176 65.2859 57.0253 65.9205 58.164C66.4619 59.34 67.2832 61.0947 68.3845 63.428C69.3552 65.5187 70.3259 66.704 71.2965 66.984C71.4085 67.0213 71.6605 67.1707 72.0525 67.432V67.824ZM63.7085 63.456C63.7085 63.1387 63.0739 61.7573 61.8045 59.312C61.3565 58.4347 60.9925 57.9773 60.7125 57.94C60.2459 58.2947 59.3872 59.2093 58.1365 60.684C57.8379 61.0387 57.6605 61.272 57.6045 61.384C57.3245 61.7573 57.0352 62.1307 56.7365 62.504C56.1952 63.288 55.9245 63.8573 55.9245 64.212C55.9245 64.66 56.2419 65.08 56.8765 65.472C57.4365 65.7893 57.9312 65.948 58.3605 65.948C59.0512 65.948 59.9099 65.7613 60.9365 65.388C61.2165 65.2947 61.7112 65.052 62.4205 64.66C62.5512 64.5667 62.7099 64.4453 62.8965 64.296C63.4379 63.9227 63.7085 63.6427 63.7085 63.456Z" fill="#FBFBFB"/>
<path d="M92.2359 66.564C92.3479 67.124 92.0586 67.5533 91.368 67.852C90.864 68.0573 90.2853 68.16 89.6319 68.16C88.6986 68.16 88.2319 67.8147 88.2319 67.124C88.2319 67.0307 88.2413 66.9 88.2599 66.732C88.2786 66.5453 88.2879 66.4147 88.2879 66.34C88.2879 65.9667 88.1013 65.78 87.7279 65.78C87.7279 65.78 87.3733 65.9853 86.6639 66.396C85.8239 66.8627 85.0119 67.2453 84.2279 67.544C83.0706 67.9547 81.9599 68.16 80.8959 68.16C78.6559 68.16 76.7706 67.4227 75.2399 65.948C73.7279 64.4547 72.9719 62.5787 72.9719 60.32C72.9719 58.0053 73.9519 55.9987 75.9119 54.3C77.4986 52.9373 79.5799 51.864 82.1559 51.08C84.2466 50.4453 86.1133 50.128 87.756 50.128C88.7453 50.128 89.6599 50.3333 90.4999 50.744C91.5826 51.2853 92.1239 52.0413 92.1239 53.012C92.1239 53.8707 91.7413 54.5893 90.976 55.168C90.2293 55.728 89.4266 56.008 88.5679 56.008C88.4559 55.896 88.3999 55.756 88.3999 55.588C88.3999 55.4947 88.4186 55.336 88.4559 55.112C88.4933 54.888 88.5119 54.7107 88.5119 54.58C88.5119 54.2813 88.4186 54.02 88.2319 53.796C87.6346 53.1613 87.0186 52.7413 86.3839 52.536C85.9359 52.3867 85.3386 52.312 84.5919 52.312C82.6506 52.312 80.8586 52.8067 79.2159 53.796C77.1439 55.0467 76.1079 56.7453 76.1079 58.892C76.1079 60.572 76.7613 62.1773 78.0679 63.708C79.4679 65.332 81.0453 66.144 82.7999 66.144C83.6399 66.144 84.6946 65.8547 85.9639 65.276C87.2519 64.6787 87.9706 64.128 88.1199 63.624C88.1946 63.344 88.2319 62.7653 88.2319 61.888C88.2319 61.832 88.2413 61.7107 88.2599 61.524C88.2786 61.3187 88.2879 61.1507 88.2879 61.02C88.2879 60.1987 87.9706 59.788 87.3359 59.788C87.2613 59.788 86.7013 59.9187 85.6559 60.18C84.6106 60.4413 84.0506 60.572 83.976 60.572C83.3973 60.572 83.1079 60.3947 83.1079 60.04C83.1079 59.816 83.2573 59.5547 83.5559 59.256C83.8546 58.9387 84.1346 58.752 84.3959 58.696C85.2733 58.528 86.4866 58.332 88.0359 58.108C89.4359 57.9027 90.2199 57.8 90.3879 57.8C91.6013 57.8 92.1799 58.164 92.1239 58.892L92.2359 66.564Z" fill="#FBFBFB"/>
<path d="M115.935 59.34C115.935 60.8893 115.702 62.0373 115.235 62.784C113.051 66.4613 109.738 68.3 105.295 68.3C101.039 68.3 98.1833 66.536 96.7273 63.008C96.5593 62.672 96.354 62.168 96.1113 61.496C95.962 60.8427 95.8873 60.1893 95.8873 59.536C95.8873 58.5653 96.046 57.548 96.3633 56.484C96.6993 55.42 97.1286 54.5427 97.6513 53.852C98.678 52.4707 100.041 51.4813 101.739 50.884C102.299 50.6787 103.083 50.4827 104.091 50.296C105.211 50.0907 106.117 49.988 106.807 49.988C109.346 49.988 111.502 50.94 113.275 52.844C115.049 54.7293 115.935 56.8947 115.935 59.34ZM112.351 60.824C112.351 59.928 112.342 59.4427 112.323 59.368C111.819 57.576 111.287 56.1853 110.727 55.196C109.869 53.684 108.711 52.592 107.255 51.92C106.546 51.584 105.874 51.416 105.239 51.416C104.063 51.416 102.99 51.7707 102.019 52.48C100.899 53.3013 100.134 54.4493 99.7233 55.924C99.63 56.1107 99.5273 56.3533 99.4153 56.652C99.4153 56.8947 99.3966 57.2307 99.3593 57.66C99.2846 58.276 99.2473 58.5187 99.2473 58.388C99.2473 58.9667 99.322 59.5173 99.4713 60.04C99.546 60.1893 99.63 60.3853 99.7233 60.628C100.153 62.476 101.086 64.0067 102.523 65.22C103.867 66.3587 105.277 66.928 106.751 66.928C108.842 66.928 110.513 65.836 111.763 63.652C112.081 63.1107 112.267 62.6533 112.323 62.28C112.342 62.1493 112.351 61.664 112.351 60.824Z" fill="#FBFBFB"/>
<path d="M143.066 67.376C143.066 67.5813 142.861 67.7493 142.45 67.88C142.133 67.9733 141.834 68.02 141.554 68.02H140.35C140.014 68.02 139.669 67.9453 139.314 67.796C138.885 67.5907 138.642 67.3107 138.586 66.956C138.605 66.6013 138.549 66.1067 138.418 65.472C138.288 65.2293 137.933 65.0147 137.354 64.828C136.888 64.6973 136.421 64.5667 135.954 64.436C135.301 64.1933 134.358 63.8107 133.126 63.288C131.801 62.6533 130.83 62.1773 130.214 61.86C128.964 61.2067 127.918 60.6187 127.078 60.096C126.593 59.648 125.996 59.1813 125.286 58.696C124.969 58.6773 124.81 58.9107 124.81 59.396V65.556C124.81 67.1987 123.504 68.02 120.89 68.02C120.442 68.02 120.144 67.8893 119.994 67.628V63.848L120.554 55.756C120.554 55.6253 120.564 55.42 120.582 55.14C120.601 54.8413 120.61 54.608 120.61 54.44C120.61 52.9653 120.097 52.088 119.07 51.808V51.388C120.937 50.7533 122.122 50.436 122.626 50.436C123.149 50.436 123.56 50.6227 123.858 50.996C124.661 52.116 126.014 53.9733 127.918 56.568C128.833 57.7627 130.513 59.172 132.958 60.796C135.329 62.364 136.925 63.176 137.746 63.232C138.213 63.2693 138.446 62.8587 138.446 62C138.446 59.816 138.157 56.4467 137.578 51.892C137.541 51.6867 137.27 51.2387 136.766 50.548C137.028 50.3427 137.401 50.24 137.886 50.24C138.558 50.24 139.202 50.3333 139.818 50.52C140.378 50.688 140.696 50.856 140.77 51.024C141.573 52.9653 142.04 55.7933 142.17 59.508C142.152 60.6653 142.18 62.392 142.254 64.688C142.31 65.6213 142.46 66.2933 142.702 66.704C142.945 67.096 143.066 67.32 143.066 67.376Z" fill="#FBFBFB"/>
<path d="M55.896 40.668C55.9147 40.7987 55.924 40.92 55.924 41.032C55.924 41.76 55.392 42.3013 54.328 42.656C53.6 42.8987 52.816 43.02 51.976 43.02C50.5947 43.02 49.904 42.516 49.904 41.508C49.904 41.3773 49.9133 41.1813 49.932 40.92C49.9693 40.64 49.988 40.444 49.988 40.332C49.988 39.7533 49.6987 39.464 49.12 39.464C49.1387 39.464 48.6067 39.772 47.524 40.388C46.2733 41.116 45.0507 41.6853 43.856 42.096C42.1387 42.712 40.4773 43.02 38.872 43.02C35.5307 43.02 32.712 41.9093 30.416 39.688C28.1387 37.4667 27 34.6667 27 31.288C27 27.7973 28.4747 24.7827 31.424 22.244C33.7947 20.2093 36.912 18.604 40.776 17.428C43.912 16.476 46.7213 16 49.204 16C50.66 16 52.0227 16.3173 53.292 16.952C54.916 17.7547 55.728 18.884 55.728 20.34C55.728 21.628 55.14 22.7107 53.964 23.588C52.8813 24.4093 51.6867 24.82 50.38 24.82C50.2307 24.652 50.156 24.4373 50.156 24.176C50.156 24.0267 50.184 23.7933 50.24 23.476C50.296 23.14 50.324 22.8787 50.324 22.692C50.324 22.244 50.1747 21.852 49.876 21.516C48.98 20.564 48.056 19.9293 47.104 19.612C46.4507 19.388 45.5547 19.276 44.416 19.276C41.5227 19.276 38.8347 20.0227 36.352 21.516C33.2533 23.3827 31.704 25.9307 31.704 29.16C31.704 31.6613 32.684 34.0693 34.644 36.384C36.7347 38.8293 39.096 40.052 41.728 40.052C42.9973 40.052 44.584 39.604 46.488 38.708C48.4107 37.812 49.484 36.9907 49.708 36.244C49.8387 35.8333 49.904 34.9653 49.904 33.64C49.904 33.5653 49.9133 33.3787 49.932 33.08C49.9693 32.7813 49.988 32.5387 49.988 32.352C49.988 31.12 49.512 30.504 48.56 30.504C48.448 30.504 47.608 30.7 46.04 31.092C44.472 31.4653 43.6227 31.652 43.492 31.652C43.212 31.652 42.932 31.5773 42.652 31.428C42.372 31.2787 42.232 31.092 42.232 30.868C42.232 30.532 42.4467 30.1307 42.876 29.664C43.324 29.1973 43.744 28.9267 44.136 28.852C45.4427 28.5907 47.2627 28.3013 49.596 27.984C51.7053 27.6667 52.872 27.508 53.096 27.508C54.944 27.508 55.8213 28.0587 55.728 29.16L55.896 40.668Z" fill="#FBFBFB"/>
<path d="M78.8785 41.508C78.7665 41.6947 78.1785 41.9653 77.1145 42.32C76.0692 42.6747 75.3225 42.852 74.8745 42.852C74.1279 42.852 72.6999 41.8627 70.5905 39.884C68.5745 37.9987 67.5665 36.8973 67.5665 36.58C67.5665 36.3747 68.1359 35.8893 69.2745 35.124C70.8239 34.06 71.8785 33.2947 72.4385 32.828C73.5585 31.8387 74.1279 30.9613 74.1465 30.196C74.1652 29.58 73.9692 28.964 73.5585 28.348C73.0919 27.62 72.5132 27.2653 71.8225 27.284C70.4972 27.3213 69.0319 28.1333 67.4265 29.72C65.8772 31.232 65.1025 32.4733 65.1025 33.444V39.296C65.1025 39.3333 65.1212 39.436 65.1585 39.604C65.1959 39.7533 65.2145 39.856 65.2145 39.912V42.04C65.2145 42.6373 64.3372 42.936 62.5825 42.936C61.6119 42.936 61.0052 42.824 60.7625 42.6C60.7625 42.5067 60.8465 42.3293 61.0145 42.068C61.1825 41.8067 61.2759 41.648 61.2945 41.592C61.4252 41.0507 61.5185 40.472 61.5745 39.856C61.6305 39.0347 61.6679 38.5773 61.6865 38.484L61.7425 27.312C61.6865 26.752 61.4065 26.388 60.9025 26.22C60.2305 25.996 59.8479 25.828 59.7545 25.716C59.9039 25.3427 60.4452 25.156 61.3785 25.156C61.4159 25.156 61.6399 25.184 62.0505 25.24C62.4799 25.2773 62.7132 25.296 62.7505 25.296C62.8065 25.296 62.8812 25.3147 62.9745 25.352C63.0865 25.3893 63.1705 25.408 63.2265 25.408C63.7492 25.408 64.0759 25.4733 64.2065 25.604C64.4119 25.9027 64.6265 26.2013 64.8505 26.5C64.8879 26.78 64.9065 26.92 64.9065 26.92C64.9065 26.9573 64.9065 27.0787 64.9065 27.284C64.9065 27.3027 64.9532 27.648 65.0465 28.32C65.1585 28.992 65.1959 29.4587 65.1585 29.72C65.3825 29.9627 65.5225 30.084 65.5785 30.084C65.5412 30.084 65.9145 29.664 66.6985 28.824C67.5945 27.872 68.5279 27.1067 69.4985 26.528C70.8985 25.7067 72.3172 25.296 73.7545 25.296C74.7252 25.296 75.4999 25.716 76.0785 26.556C76.5825 27.2653 76.8345 28.068 76.8345 28.964C76.8345 29.9907 76.3492 31.0453 75.3785 32.128C74.7625 32.8187 73.8665 33.5933 72.6905 34.452C71.7199 35.1613 71.2345 35.5627 71.2345 35.656C71.2345 35.8987 72.0185 36.7387 73.5865 38.176C75.0239 39.4827 76.1159 40.416 76.8625 40.976C76.9932 41.0693 77.3105 41.1253 77.8145 41.144C78.2625 41.144 78.6172 41.2653 78.8785 41.508Z" fill="#FBFBFB"/>
<path d="M94.949 27.676C94.949 28.0307 94.7623 28.376 94.389 28.712C94.0157 29.048 93.6797 29.216 93.381 29.216C93.1383 29.216 92.9423 29.0573 92.793 28.74C92.625 28.3293 92.4197 28.04 92.177 27.872C91.8783 27.6667 91.3837 27.4707 90.693 27.284C90.021 27.0973 89.4423 27.004 88.957 27.004C87.9677 27.004 86.997 27.312 86.045 27.928C84.981 28.6187 84.1597 29.5427 83.581 30.7C83.2823 31.2973 83.133 31.6613 83.133 31.792C83.0957 32.352 83.3477 32.632 83.889 32.632H86.885C86.9223 32.632 87.1277 32.66 87.501 32.716C87.8743 32.7533 88.089 32.772 88.145 32.772H92.457C93.521 32.772 94.053 33.024 94.053 33.528C94.053 33.7893 93.7917 34.0973 93.269 34.452C92.821 34.7507 92.4943 34.9373 92.289 35.012C92.1583 35.068 92.009 35.096 91.841 35.096C91.7477 35.096 91.477 34.9653 91.029 34.704C90.581 34.4427 90.2077 34.312 89.909 34.312L85.625 34.368C85.5877 34.3867 85.0837 34.424 84.113 34.48C83.385 34.5173 83.0117 34.6387 82.993 34.844C82.9557 35.18 82.937 35.404 82.937 35.516C82.993 35.8147 83.0583 36.244 83.133 36.804C83.2823 38.0733 84.029 39.156 85.373 40.052C86.5677 40.836 87.725 41.228 88.845 41.228C89.1997 41.228 90.189 41.0227 91.813 40.612C91.9437 40.5747 92.3077 40.4253 92.905 40.164C93.409 39.9587 93.773 39.856 93.997 39.856C94.2397 39.856 94.361 39.9867 94.361 40.248C94.361 40.472 94.1557 40.7613 93.745 41.116C93.3903 41.396 93.073 41.6013 92.793 41.732C92.1397 42.0307 91.113 42.4227 89.713 42.908C89.1903 43.0387 88.6677 43.104 88.145 43.104C87.1743 43.104 86.3063 43.0107 85.541 42.824C85.3917 42.8053 84.6917 42.4973 83.441 41.9C81.929 41.2093 80.7903 40.0893 80.025 38.54C79.409 37.2893 79.101 35.9267 79.101 34.452C79.101 33.6307 79.2783 32.6973 79.633 31.652C80.1183 30.1587 80.921 28.9173 82.041 27.928C82.8063 27.2747 83.609 26.752 84.449 26.36C84.6543 26.2667 85.2983 26.0613 86.381 25.744C87.3703 25.464 88.3783 25.324 89.405 25.324C90.5437 25.324 91.6543 25.4827 92.737 25.8C94.2117 26.2293 94.949 26.8547 94.949 27.676Z" fill="#FBFBFB"/>
<path d="M114.308 27.676C114.308 28.0307 114.122 28.376 113.748 28.712C113.375 29.048 113.039 29.216 112.74 29.216C112.498 29.216 112.302 29.0573 112.152 28.74C111.984 28.3293 111.779 28.04 111.536 27.872C111.238 27.6667 110.743 27.4707 110.052 27.284C109.38 27.0973 108.802 27.004 108.316 27.004C107.327 27.004 106.356 27.312 105.404 27.928C104.34 28.6187 103.519 29.5427 102.94 30.7C102.642 31.2973 102.492 31.6613 102.492 31.792C102.455 32.352 102.707 32.632 103.248 32.632H106.244C106.282 32.632 106.487 32.66 106.86 32.716C107.234 32.7533 107.448 32.772 107.504 32.772H111.816C112.88 32.772 113.412 33.024 113.412 33.528C113.412 33.7893 113.151 34.0973 112.628 34.452C112.18 34.7507 111.854 34.9373 111.648 35.012C111.518 35.068 111.368 35.096 111.2 35.096C111.107 35.096 110.836 34.9653 110.388 34.704C109.94 34.4427 109.567 34.312 109.268 34.312L104.984 34.368C104.947 34.3867 104.443 34.424 103.472 34.48C102.744 34.5173 102.371 34.6387 102.352 34.844C102.315 35.18 102.296 35.404 102.296 35.516C102.352 35.8147 102.418 36.244 102.492 36.804C102.642 38.0733 103.388 39.156 104.732 40.052C105.927 40.836 107.084 41.228 108.204 41.228C108.559 41.228 109.548 41.0227 111.172 40.612C111.303 40.5747 111.667 40.4253 112.264 40.164C112.768 39.9587 113.132 39.856 113.356 39.856C113.599 39.856 113.72 39.9867 113.72 40.248C113.72 40.472 113.515 40.7613 113.104 41.116C112.75 41.396 112.432 41.6013 112.152 41.732C111.499 42.0307 110.472 42.4227 109.072 42.908C108.55 43.0387 108.027 43.104 107.504 43.104C106.534 43.104 105.666 43.0107 104.9 42.824C104.751 42.8053 104.051 42.4973 102.8 41.9C101.288 41.2093 100.15 40.0893 99.3844 38.54C98.7684 37.2893 98.4604 35.9267 98.4604 34.452C98.4604 33.6307 98.6377 32.6973 98.9924 31.652C99.4777 30.1587 100.28 28.9173 101.4 27.928C102.166 27.2747 102.968 26.752 103.808 26.36C104.014 26.2667 104.658 26.0613 105.74 25.744C106.73 25.464 107.738 25.324 108.764 25.324C109.903 25.324 111.014 25.4827 112.096 25.8C113.571 26.2293 114.308 26.8547 114.308 27.676Z" fill="#FBFBFB"/>
<path d="M141.396 42.152C141.396 42.3573 141.19 42.5253 140.78 42.656C140.462 42.7493 140.164 42.796 139.884 42.796H138.68C138.344 42.796 137.998 42.7213 137.644 42.572C137.214 42.3667 136.972 42.0867 136.916 41.732C136.934 41.3773 136.878 40.8827 136.748 40.248C136.617 40.0053 136.262 39.7907 135.684 39.604C135.217 39.4733 134.75 39.3427 134.284 39.212C133.63 38.9693 132.688 38.5867 131.456 38.064C130.13 37.4293 129.16 36.9533 128.544 36.636C127.293 35.9827 126.248 35.3947 125.408 34.872C124.922 34.424 124.325 33.9573 123.616 33.472C123.298 33.4533 123.14 33.6867 123.14 34.172V40.332C123.14 41.9747 121.833 42.796 119.22 42.796C118.772 42.796 118.473 42.6653 118.324 42.404V38.624L118.884 30.532C118.884 30.4013 118.893 30.196 118.912 29.916C118.93 29.6173 118.94 29.384 118.94 29.216C118.94 27.7413 118.426 26.864 117.4 26.584V26.164C119.266 25.5293 120.452 25.212 120.956 25.212C121.478 25.212 121.889 25.3987 122.188 25.772C122.99 26.892 124.344 28.7493 126.248 31.344C127.162 32.5387 128.842 33.948 131.288 35.572C133.658 37.14 135.254 37.952 136.076 38.008C136.542 38.0453 136.776 37.6347 136.776 36.776C136.776 34.592 136.486 31.2227 135.908 26.668C135.87 26.4627 135.6 26.0147 135.096 25.324C135.357 25.1187 135.73 25.016 136.216 25.016C136.888 25.016 137.532 25.1093 138.148 25.296C138.708 25.464 139.025 25.632 139.1 25.8C139.902 27.7413 140.369 30.5693 140.5 34.284C140.481 35.4413 140.509 37.168 140.584 39.464C140.64 40.3973 140.789 41.0693 141.032 41.48C141.274 41.872 141.396 42.096 141.396 42.152Z" fill="#FBFBFB"/>
<path d="M72.9083 0.415456C72.9083 0.616889 72.7579 0.830912 72.4572 1.05752C72.169 1.27155 71.9121 1.40374 71.6866 1.45409C70.8721 1.60517 69.9073 1.69959 68.7921 1.73736C68.6918 1.73736 68.4788 1.75624 68.153 1.79401C67.8273 1.81919 67.6393 1.83178 67.5892 1.83178H65.672C65.7597 1.83178 65.4026 1.9262 64.6007 2.11505C64.4879 2.14023 64.3689 2.21576 64.2436 2.34166C64.1183 2.46755 64.0556 2.92078 64.0556 3.70133V14.2577C64.0556 14.4087 64.206 14.5346 64.5067 14.6354C64.7072 14.6983 64.9077 14.755 65.1082 14.8053C65.2836 14.8934 65.3713 15.0193 65.3713 15.183C65.3713 15.3089 65.1144 15.5796 64.6007 15.995C64.1371 16.3727 63.6045 16.7189 63.0031 17.0337C62.3264 17.3862 61.7939 17.5624 61.4054 17.5624C61.2927 17.5624 61.1736 17.5184 61.0483 17.4302C60.9356 17.3421 60.8729 17.2729 60.8604 17.2225C60.7852 16.6938 60.6787 15.8943 60.5408 14.8242C60.4531 13.7415 60.4093 12.4511 60.4093 10.9529V4.58889C60.4093 4.53854 60.4343 4.37487 60.4845 4.0979C60.5471 3.80834 60.5784 3.56914 60.5784 3.3803C60.5784 3.20404 60.5534 3.04038 60.5033 2.8893C60.403 2.51162 60.1524 2.27871 59.7514 2.19058C59.6387 2.16541 59.3003 2.15281 58.7365 2.15281C58.0348 2.15281 56.907 2.26612 55.3533 2.49273C55.3157 2.50532 55.2092 2.5368 55.0338 2.58715C54.8583 2.63751 54.7017 2.66269 54.5639 2.66269C54.188 2.66269 54 2.56827 54 2.37943C54 2.19058 54.2757 1.93879 54.827 1.62405C55.2029 1.41003 55.5224 1.25896 55.7856 1.17083C56.8882 0.780554 57.7654 0.528762 58.417 0.415456C59.056 0.339919 60.002 0.226613 61.2551 0.0755376L70.5589 0.132191C71.3358 0.0440638 71.8871 0 72.2129 0C72.6765 0 72.9083 0.138486 72.9083 0.415456Z" fill="#FBFBFB"/>
<path d="M88.6491 11.0851C88.6491 11.7775 88.5927 12.3441 88.48 12.7847C88.4299 12.9358 88.1918 13.559 87.7657 14.6542C87.6154 14.8557 87.4024 15.1704 87.1267 15.5985C86.5002 16.656 85.6732 17.6128 84.6457 18.4689C84.2071 18.8466 83.8437 19.0228 83.5555 18.9976C83.5054 18.9599 83.4804 18.9032 83.4804 18.8277C83.4804 18.6262 83.6934 18.2737 84.1194 17.7702C85.5729 16.0454 86.2997 14.2829 86.2997 12.4825C86.2997 11.5887 86.1243 10.6508 85.7734 9.66878C85.2597 8.27134 84.5204 7.57262 83.5555 7.57262C82.7661 7.57262 81.7073 8.03843 80.3791 8.97006C79.0008 9.93945 78.2427 10.8081 78.1048 11.5761C78.1048 12.8728 78.1174 13.5338 78.1424 13.559C78.155 13.6471 78.1424 13.987 78.1048 14.5787C78.0798 15.2208 78.0672 15.5355 78.0672 15.5229C78.0672 15.9636 78.1048 16.2909 78.18 16.5049C78.2427 16.5804 78.3304 16.7126 78.4432 16.9015C78.4557 16.9392 78.462 17.0211 78.462 17.147C78.3116 17.2729 77.8354 17.4995 77.0335 17.8268C76.2817 18.129 75.8619 18.28 75.7742 18.28C75.6238 18.28 75.4797 18.2297 75.3419 18.129C75.2041 18.0282 75.1351 17.8961 75.1351 17.7324L75.2479 12.9547C75.2479 11.8971 75.2667 11.1166 75.3043 10.613L75.2855 3.85241C75.2855 3.85241 75.273 3.70133 75.2479 3.39918C75.2229 3.22293 75.1477 3.1285 75.0224 3.11592C74.9973 3.11592 74.8156 3.20404 74.4773 3.3803C74.139 3.54396 73.8633 3.62579 73.6503 3.62579C73.312 3.62579 73.1428 3.53137 73.1428 3.34253C73.1428 3.11592 73.5563 2.80747 74.3833 2.4172C74.8845 2.19058 75.6364 1.83178 76.6388 1.34079C77.1525 1.07641 77.4721 0.944218 77.5974 0.944218C77.9607 0.944218 78.1299 1.10788 78.1048 1.43521L78.0484 8.63014C78.0735 8.65532 78.1048 8.78122 78.1424 9.00783C78.155 9.14631 78.2301 9.21556 78.368 9.21556C78.4432 9.21556 78.8253 8.94488 79.5145 8.40353C80.354 7.74887 81.1247 7.24529 81.8264 6.89278C82.904 6.35143 83.9502 6.08076 84.9652 6.08076C86.306 6.08076 87.2959 6.68506 87.9349 7.89365C88.4111 8.78751 88.6491 9.85133 88.6491 11.0851Z" fill="#FBFBFB"/>
<path d="M101 7.42154C101 7.66075 100.875 7.89365 100.624 8.12026C100.373 8.34688 100.148 8.46018 99.9475 8.46018C99.7846 8.46018 99.653 8.35317 99.5527 8.13915C99.44 7.86218 99.3021 7.66704 99.1392 7.55373C98.9388 7.41525 98.6067 7.28306 98.1431 7.15716C97.692 7.03127 97.3035 6.96832 96.9778 6.96832C96.3137 6.96832 95.6621 7.17605 95.023 7.5915C94.3088 8.05732 93.7575 8.6805 93.369 9.46105C93.1685 9.86392 93.0683 10.1094 93.0683 10.1975C93.0432 10.5752 93.2124 10.7641 93.5758 10.7641H95.5869C95.6119 10.7641 95.7498 10.783 96.0004 10.8207C96.251 10.8459 96.3951 10.8585 96.4327 10.8585H99.3272C100.041 10.8585 100.399 11.0285 100.399 11.3684C100.399 11.5446 100.223 11.7524 99.8723 11.9916C99.5715 12.193 99.3523 12.3189 99.2144 12.3692C99.1267 12.407 99.0265 12.4259 98.9137 12.4259C98.851 12.4259 98.6694 12.3378 98.3686 12.1615C98.0679 11.9853 97.8173 11.8971 97.6168 11.8971L94.7411 11.9349C94.716 11.9475 94.3777 11.9727 93.7261 12.0104C93.2374 12.0356 92.9868 12.1174 92.9743 12.2559C92.9492 12.4825 92.9367 12.6336 92.9367 12.7092C92.9743 12.9106 93.0182 13.2001 93.0683 13.5778C93.1685 14.4339 93.6697 15.1641 94.5719 15.7684C95.3739 16.2972 96.1508 16.5616 96.9026 16.5616C97.1407 16.5616 97.8048 16.4231 98.8949 16.1461C98.9826 16.1209 99.227 16.0202 99.6279 15.844C99.9662 15.7055 100.211 15.6362 100.361 15.6362C100.524 15.6362 100.605 15.7244 100.605 15.9006C100.605 16.0517 100.467 16.2468 100.192 16.486C99.9537 16.6749 99.7407 16.8134 99.5527 16.9015C99.1142 17.1029 98.425 17.3673 97.4852 17.6946C97.1344 17.7827 96.7835 17.8268 96.4327 17.8268C95.7811 17.8268 95.1984 17.7639 94.6847 17.638C94.5845 17.6254 94.1146 17.4177 93.275 17.0148C92.2601 16.549 91.4957 15.7936 90.982 14.7487C90.5685 13.9052 90.3617 12.9861 90.3617 11.9916C90.3617 11.4376 90.4808 10.8081 90.7188 10.1031C91.0446 9.09595 91.5834 8.25875 92.3353 7.5915C92.849 7.15087 93.3878 6.79836 93.9517 6.53398C94.0895 6.47103 94.5218 6.33255 95.2486 6.11853C95.9127 5.92968 96.5893 5.83526 97.2785 5.83526C98.0428 5.83526 98.7884 5.94227 99.5152 6.15629C100.505 6.44585 101 6.8676 101 7.42154Z" fill="#FBFBFB"/>
<path opacity="0.5" fill-rule="evenodd" clip-rule="evenodd" d="M138 81H5V80H138V81Z" fill="#FBFBFB"/>
</svg>
