<svg width="288" height="56" viewBox="0 0 288 56" fill="none" xmlns="http://www.w3.org/2000/svg">
<path d="M101.099 49.1756H103.093C103.509 49.1756 103.863 49.2462 104.157 49.3873C104.45 49.5285 104.675 49.7374 104.832 50.014C104.988 50.2906 105.066 50.6322 105.066 51.0387C105.066 51.3717 105.021 51.6568 104.93 51.894C104.839 52.1283 104.709 52.3244 104.541 52.4825C104.373 52.6378 104.172 52.762 103.939 52.8551L103.559 53.0795H101.94L101.936 52.0506H103.059C103.23 52.0506 103.371 52.0139 103.482 51.9405C103.596 51.8643 103.68 51.7585 103.734 51.623C103.791 51.4847 103.819 51.3238 103.819 51.1403C103.819 50.9455 103.794 50.779 103.742 50.6406C103.694 50.4995 103.616 50.3922 103.508 50.3189C103.402 50.2426 103.264 50.2045 103.093 50.2045H102.35V55.3406H101.099V49.1756ZM103.922 55.3406L102.781 52.5926L104.093 52.5884L105.259 55.2813V55.3406H103.922Z" fill="#412814"/>
<path d="M113.265 54.3159V55.3406H110.562V54.3159H113.265ZM110.95 49.1756V55.3406H109.699V49.1756H110.95ZM112.902 51.6738V52.6688H110.562V51.6738H112.902ZM113.257 49.1756V50.2045H110.562V49.1756H113.257Z" fill="#412814"/>
<path d="M120.388 53.7189C120.388 53.6088 120.378 53.5086 120.358 53.4183C120.338 53.3279 120.295 53.2447 120.23 53.1684C120.167 53.0922 120.075 53.016 119.952 52.9398C119.833 52.8636 119.676 52.7846 119.483 52.7027C119.252 52.6067 119.028 52.5051 118.812 52.3978C118.596 52.2877 118.401 52.1607 118.227 52.0168C118.053 51.8728 117.915 51.7034 117.813 51.5087C117.713 51.3111 117.663 51.0796 117.663 50.8142C117.663 50.5546 117.71 50.3189 117.804 50.1071C117.901 49.8954 118.037 49.7148 118.214 49.5652C118.391 49.4127 118.597 49.2956 118.833 49.2137C119.073 49.1319 119.339 49.0909 119.632 49.0909C120.031 49.0909 120.375 49.1728 120.666 49.3365C120.959 49.5002 121.185 49.7247 121.345 50.0098C121.507 50.2949 121.588 50.6223 121.588 50.9921H120.341C120.341 50.8171 120.315 50.6632 120.264 50.5306C120.216 50.3951 120.137 50.2892 120.029 50.213C119.921 50.1368 119.782 50.0987 119.611 50.0987C119.451 50.0987 119.319 50.1311 119.213 50.1961C119.111 50.2582 119.034 50.3443 118.983 50.4543C118.934 50.5616 118.91 50.683 118.91 50.8185C118.91 50.9201 118.934 51.0118 118.983 51.0937C119.034 51.1727 119.104 51.2447 119.192 51.3096C119.28 51.3717 119.384 51.4324 119.504 51.4917C119.626 51.551 119.76 51.6089 119.905 51.6653C120.187 51.7754 120.436 51.8968 120.653 52.0295C120.869 52.1593 121.05 52.3061 121.195 52.4698C121.34 52.6307 121.45 52.8128 121.524 53.016C121.598 53.2193 121.635 53.4507 121.635 53.7104C121.635 53.9673 121.59 54.2016 121.498 54.4133C121.41 54.6222 121.281 54.8028 121.11 54.9553C120.939 55.1049 120.733 55.2206 120.491 55.3025C120.251 55.3843 119.984 55.4253 119.688 55.4253C119.4 55.4253 119.128 55.3857 118.872 55.3067C118.616 55.2248 118.389 55.1021 118.193 54.9383C117.999 54.7718 117.847 54.5615 117.736 54.3074C117.625 54.0506 117.569 53.7471 117.569 53.3971H118.821C118.821 53.5834 118.839 53.7429 118.876 53.8756C118.913 54.0054 118.97 54.1098 119.047 54.1889C119.124 54.2651 119.218 54.323 119.329 54.3625C119.443 54.3992 119.572 54.4175 119.717 54.4175C119.883 54.4175 120.014 54.3865 120.11 54.3244C120.21 54.2623 120.281 54.179 120.324 54.0746C120.367 53.9701 120.388 53.8516 120.388 53.7189Z" fill="#412814"/>
<path d="M128.719 49.1756V55.3406H127.476V49.1756H128.719ZM130.265 49.1756V50.2045H125.96V49.1756H130.265Z" fill="#412814"/>
<path d="M136.491 50.2765L135.154 55.3406H133.835L135.778 49.1756H136.602L136.491 50.2765ZM137.546 55.3406L136.201 50.2765L136.077 49.1756H136.914L138.874 55.3406H137.546ZM137.593 53.0414V54.0703H134.787V53.0414H137.593Z" fill="#412814"/>
<path d="M145.946 49.1756H147.193V53.4098C147.193 53.884 147.105 54.2707 146.928 54.57C146.754 54.8664 146.514 55.0837 146.206 55.222C145.899 55.3575 145.547 55.4253 145.151 55.4253C144.753 55.4253 144.398 55.3575 144.088 55.222C143.778 55.0837 143.535 54.8664 143.362 54.57C143.191 54.2707 143.106 53.884 143.106 53.4098V49.1756H144.353V53.4098C144.353 53.678 144.383 53.884 144.442 54.028C144.505 54.1719 144.595 54.2707 144.711 54.3244C144.831 54.3752 144.978 54.4006 145.151 54.4006C145.328 54.4006 145.473 54.3752 145.587 54.3244C145.704 54.2707 145.792 54.1719 145.852 54.028C145.914 53.884 145.946 53.678 145.946 53.4098V49.1756Z" fill="#412814"/>
<path d="M151.915 49.1756H153.91C154.326 49.1756 154.68 49.2462 154.973 49.3873C155.267 49.5285 155.492 49.7374 155.648 50.014C155.805 50.2906 155.883 50.6322 155.883 51.0387C155.883 51.3717 155.838 51.6568 155.746 51.894C155.655 52.1283 155.526 52.3244 155.358 52.4825C155.19 52.6378 154.989 52.762 154.756 52.8551L154.375 53.0795H152.757L152.752 52.0506H153.876C154.047 52.0506 154.187 52.0139 154.298 51.9405C154.412 51.8643 154.496 51.7585 154.55 51.623C154.607 51.4847 154.636 51.3238 154.636 51.1403C154.636 50.9455 154.61 50.779 154.559 50.6406C154.511 50.4995 154.432 50.3922 154.324 50.3189C154.219 50.2426 154.081 50.2045 153.91 50.2045H153.167V55.3406H151.915V49.1756ZM154.738 55.3406L153.598 52.5926L154.909 52.5884L156.075 55.2813V55.3406H154.738Z" fill="#412814"/>
<path d="M162.767 50.2765L161.43 55.3406H160.11L162.053 49.1756H162.878L162.767 50.2765ZM163.821 55.3406L162.476 50.2765L162.352 49.1756H163.189L165.15 55.3406H163.821ZM163.868 53.0414V54.0703H161.062V53.0414H163.868Z" fill="#412814"/>
<path d="M173.853 49.1756V55.3406H172.644L170.692 51.4832V55.3406H169.505V49.1756H170.696L172.665 53.0753V49.1756H173.853Z" fill="#412814"/>
<path d="M180.971 49.1756V55.3406H179.728V49.1756H180.971ZM182.517 49.1756V50.2045H178.212V49.1756H182.517Z" fill="#412814"/>
<path d="M190.571 54.3159V55.3406H187.867V54.3159H190.571ZM188.256 49.1756V55.3406H187.005V49.1756H188.256ZM190.208 51.6738V52.6688H187.867V51.6738H190.208ZM190.562 49.1756V50.2045H187.867V49.1756H190.562Z" fill="#412814"/>
<path d="M22.3031 12.2822C22.3031 12.5187 22.1258 12.77 21.7711 13.036C21.4311 13.2873 21.1281 13.4425 20.8621 13.5016C19.9014 13.679 18.7633 13.7898 17.4479 13.8341C17.3296 13.8341 17.0784 13.8563 16.6941 13.9007C16.3098 13.9302 16.0881 13.945 16.029 13.945H13.7676C13.8711 13.945 13.4499 14.0559 12.5039 14.2776C12.3709 14.3071 12.2305 14.3958 12.0827 14.5436C11.9349 14.6914 11.861 15.2235 11.861 16.1398V28.5329C11.861 28.7103 12.0384 28.8581 12.3931 28.9763C12.6296 29.0502 12.8661 29.1167 13.1025 29.1759C13.3095 29.2793 13.4129 29.4271 13.4129 29.6193C13.4129 29.7671 13.1099 30.0848 12.5039 30.5726C11.9571 31.016 11.3289 31.4224 10.6195 31.7919C9.82136 32.2058 9.19321 32.4127 8.73503 32.4127C8.602 32.4127 8.46159 32.361 8.31379 32.2575C8.18077 32.1541 8.10687 32.0728 8.09209 32.0136C8.00341 31.3929 7.87778 30.4543 7.7152 29.198C7.61174 27.927 7.56001 26.412 7.56001 24.6532V17.1818C7.56001 17.1227 7.58957 16.9306 7.64869 16.6054C7.72259 16.2655 7.75954 15.9847 7.75954 15.7629C7.75954 15.556 7.72998 15.3639 7.67086 15.1865C7.55262 14.7431 7.25702 14.4697 6.78406 14.3662C6.65103 14.3367 6.25197 14.3219 5.58687 14.3219C4.75918 14.3219 3.42898 14.4549 1.59625 14.721C1.55191 14.7357 1.42628 14.7727 1.21936 14.8318C1.01244 14.8909 0.827684 14.9205 0.665103 14.9205C0.221701 14.9205 0 14.8096 0 14.5879C0 14.3662 0.325162 14.0706 0.975485 13.7011C1.41889 13.4499 1.79578 13.2725 2.10616 13.169C3.40681 12.7109 4.44141 12.4153 5.20998 12.2822C5.96376 12.1936 7.07966 12.0605 8.55766 11.8832L19.5319 11.9497C20.4482 11.8462 21.0986 11.7945 21.4828 11.7945C22.0297 11.7945 22.3031 11.9571 22.3031 12.2822Z" fill="#412814"/>
<path d="M40.8701 24.8084C40.8701 25.6213 40.8036 26.2864 40.6706 26.8037C40.6114 26.981 40.3306 27.7126 39.8281 28.9985C39.6507 29.235 39.3995 29.6045 39.0743 30.107C38.3353 31.3485 37.3598 32.4718 36.1479 33.4769C35.6305 33.9203 35.2019 34.1272 34.862 34.0976C34.8029 34.0533 34.7733 33.9868 34.7733 33.8981C34.7733 33.6616 35.0246 33.2478 35.5271 32.6566C37.2416 30.6317 38.0988 28.5625 38.0988 26.4489C38.0988 25.3996 37.8919 24.2984 37.4781 23.1456C36.8721 21.505 36 20.6847 34.862 20.6847C33.9308 20.6847 32.6819 21.2316 31.1152 22.3253C29.4894 23.4634 28.5952 24.4832 28.4327 25.3848C28.4327 26.9071 28.4474 27.6831 28.477 27.7126C28.4918 27.8161 28.477 28.2152 28.4327 28.9098C28.4031 29.6636 28.3883 30.0331 28.3883 30.0183C28.3883 30.5356 28.4327 30.9199 28.5213 31.1712C28.5952 31.2599 28.6987 31.4151 28.8317 31.6368C28.8465 31.6811 28.8539 31.7772 28.8539 31.925C28.6765 32.0728 28.1149 32.3388 27.169 32.7231C26.2821 33.0778 25.787 33.2552 25.6836 33.2552C25.5062 33.2552 25.3362 33.1961 25.1736 33.0778C25.0111 32.9596 24.9298 32.8044 24.9298 32.6122L25.0628 27.0032C25.0628 25.7617 25.085 24.8453 25.1293 24.2541L25.1071 16.3172C25.1071 16.3172 25.0924 16.1398 25.0628 15.7851C25.0332 15.5782 24.9446 15.4673 24.7968 15.4526C24.7672 15.4526 24.5529 15.556 24.1538 15.7629C23.7548 15.9551 23.4296 16.0512 23.1783 16.0512C22.7793 16.0512 22.5797 15.9403 22.5797 15.7186C22.5797 15.4526 23.0675 15.0905 24.043 14.6323C24.6342 14.3662 25.521 13.945 26.7034 13.3686C27.3094 13.0582 27.6863 12.903 27.8341 12.903C28.2627 12.903 28.4622 13.0951 28.4327 13.4794L28.3661 21.9262C28.3957 21.9558 28.4327 22.1036 28.477 22.3696C28.4918 22.5322 28.5805 22.6135 28.743 22.6135C28.8317 22.6135 29.2825 22.2957 30.0954 21.6602C31.0857 20.8916 31.9946 20.3004 32.8223 19.8866C34.0934 19.251 35.3276 18.9333 36.5247 18.9333C38.1062 18.9333 39.2738 19.6427 40.0276 21.0616C40.5893 22.111 40.8701 23.3599 40.8701 24.8084Z" fill="#412814"/>
<path d="M55.4384 20.5074C55.4384 20.7882 55.2906 21.0616 54.995 21.3276C54.6994 21.5937 54.4334 21.7267 54.1969 21.7267C54.0048 21.7267 53.8496 21.6011 53.7313 21.3498C53.5983 21.0247 53.4358 20.7956 53.2436 20.6625C53.0071 20.5 52.6155 20.3448 52.0686 20.197C51.5365 20.0492 51.0783 19.9753 50.694 19.9753C49.9107 19.9753 49.1421 20.2191 48.3884 20.7069C47.5459 21.2537 46.8956 21.9854 46.4374 22.9017C46.2009 23.3747 46.0827 23.6629 46.0827 23.7664C46.0531 24.2098 46.2526 24.4315 46.6813 24.4315H49.0535C49.083 24.4315 49.2456 24.4536 49.5412 24.498C49.8368 24.5275 50.0068 24.5423 50.0511 24.5423H53.4653C54.3078 24.5423 54.729 24.7418 54.729 25.1409C54.729 25.3478 54.5221 25.5917 54.1082 25.8725C53.7535 26.109 53.4949 26.2568 53.3323 26.3159C53.2288 26.3603 53.1106 26.3824 52.9776 26.3824C52.9037 26.3824 52.6894 26.279 52.3346 26.0721C51.9799 25.8651 51.6843 25.7617 51.4478 25.7617L48.0558 25.806C48.0262 25.8208 47.6272 25.8504 46.8586 25.8947C46.2822 25.9243 45.9866 26.0203 45.9718 26.1829C45.9423 26.4489 45.9275 26.6263 45.9275 26.715C45.9718 26.9515 46.0235 27.2914 46.0827 27.7348C46.2009 28.7399 46.7921 29.5971 47.8563 30.3065C48.8022 30.9273 49.7186 31.2377 50.6054 31.2377C50.8862 31.2377 51.6695 31.0751 52.9554 30.7499C53.0589 30.7204 53.3471 30.6021 53.82 30.3952C54.2191 30.2326 54.5073 30.1514 54.6847 30.1514C54.8768 30.1514 54.9729 30.2548 54.9729 30.4617C54.9729 30.6391 54.8103 30.8682 54.4851 31.149C54.2043 31.3707 53.9531 31.5333 53.7313 31.6368C53.214 31.8732 52.4011 32.1836 51.2926 32.5679C50.8788 32.6714 50.465 32.7231 50.0511 32.7231C49.2825 32.7231 48.5953 32.6492 47.9893 32.5014C47.871 32.4866 47.3168 32.2427 46.3265 31.7698C45.1293 31.2229 44.2278 30.3361 43.6218 29.1094C43.134 28.1191 42.8902 27.0401 42.8902 25.8725C42.8902 25.2222 43.0306 24.4832 43.3114 23.6555C43.6957 22.4731 44.3312 21.4902 45.218 20.7069C45.824 20.1896 46.4596 19.7757 47.1247 19.4654C47.2872 19.3915 47.7971 19.2289 48.6544 18.9776C49.4377 18.7559 50.2359 18.6451 51.0488 18.6451C51.9504 18.6451 52.8298 18.7707 53.687 19.022C54.8546 19.3619 55.4384 19.857 55.4384 20.5074Z" fill="#412814"/>
<path d="M92.4776 30.7943C92.4924 30.8977 92.4998 30.9938 92.4998 31.0825C92.4998 31.6589 92.0785 32.0875 91.2361 32.3684C90.6597 32.5605 90.0389 32.6566 89.3738 32.6566C88.2801 32.6566 87.7332 32.2575 87.7332 31.4594C87.7332 31.3559 87.7406 31.2007 87.7554 30.9938C87.7849 30.7721 87.7997 30.6169 87.7997 30.5282C87.7997 30.0701 87.5706 29.841 87.1124 29.841C87.1272 29.841 86.706 30.0848 85.8487 30.5726C84.8585 31.149 83.8904 31.5998 82.9445 31.925C81.5847 32.4127 80.2693 32.6566 78.9982 32.6566C76.3525 32.6566 74.1208 31.7772 72.3028 30.0183C70.4996 28.2595 69.5981 26.0425 69.5981 23.3673C69.5981 20.6034 70.7657 18.2164 73.1009 16.2064C74.978 14.5953 77.4463 13.3242 80.5057 12.3931C82.9888 11.6393 85.2132 11.2624 87.179 11.2624C88.3318 11.2624 89.4107 11.5137 90.4158 12.0162C91.7017 12.6517 92.3446 13.5459 92.3446 14.6988C92.3446 15.7186 91.879 16.5759 90.9479 17.2705C90.0906 17.9208 89.1447 18.246 88.1101 18.246C87.9919 18.113 87.9327 17.943 87.9327 17.7361C87.9327 17.6178 87.9549 17.4331 87.9992 17.1818C88.0436 16.9158 88.0658 16.7089 88.0658 16.5611C88.0658 16.2064 87.9475 15.896 87.711 15.6299C87.0016 14.8761 86.27 14.3736 85.5162 14.1224C84.9989 13.945 84.2894 13.8563 83.3879 13.8563C81.0969 13.8563 78.9686 14.4475 77.0029 15.6299C74.5494 17.1079 73.3226 19.1254 73.3226 21.6824C73.3226 23.6629 74.0986 25.5695 75.6505 27.4023C77.3059 29.3385 79.1755 30.3065 81.2595 30.3065C82.2646 30.3065 83.5209 29.9518 85.0284 29.2424C86.5508 28.5329 87.4007 27.8826 87.578 27.2914C87.6815 26.9662 87.7332 26.279 87.7332 25.2296C87.7332 25.1705 87.7406 25.0227 87.7554 24.7862C87.7849 24.5497 87.7997 24.3576 87.7997 24.2098C87.7997 23.2343 87.4228 22.7465 86.669 22.7465C86.5804 22.7465 85.9153 22.9017 84.6737 23.2121C83.4322 23.5077 82.7597 23.6555 82.6562 23.6555C82.4345 23.6555 82.2128 23.5964 81.9911 23.4782C81.7694 23.3599 81.6586 23.2121 81.6586 23.0347C81.6586 22.7687 81.8286 22.4509 82.1685 22.0814C82.5232 21.7119 82.8558 21.4976 83.1662 21.4385C84.2008 21.2316 85.6418 21.0025 87.4893 20.7512C89.1595 20.5 90.0832 20.3743 90.2606 20.3743C91.7238 20.3743 92.4185 20.8103 92.3446 21.6824L92.4776 30.7943Z" fill="#412814"/>
<path d="M110.675 31.4594C110.586 31.6072 110.121 31.8215 109.278 32.1023C108.451 32.3831 107.859 32.5236 107.505 32.5236C106.913 32.5236 105.783 31.7402 104.113 30.1735C102.516 28.6807 101.718 27.8087 101.718 27.5575C101.718 27.3949 102.169 27.0106 103.071 26.4046C104.297 25.5621 105.132 24.9562 105.576 24.5867C106.463 23.8033 106.913 23.1086 106.928 22.5027C106.943 22.0149 106.788 21.5272 106.463 21.0394C106.093 20.463 105.635 20.1822 105.088 20.197C104.039 20.2265 102.878 20.8695 101.607 22.1258C100.381 23.323 99.7672 24.3058 99.7672 25.0744V29.708C99.7672 29.7375 99.782 29.8188 99.8116 29.9518C99.8411 30.0701 99.8559 30.1514 99.8559 30.1957V31.8806C99.8559 32.3536 99.1613 32.5901 97.7719 32.5901C97.0034 32.5901 96.523 32.5014 96.3309 32.324C96.3309 32.2501 96.3974 32.1097 96.5304 31.9028C96.6634 31.6959 96.7373 31.5702 96.7521 31.5259C96.8556 31.0973 96.9295 30.6391 96.9738 30.1514C97.0182 29.501 97.0477 29.1389 97.0625 29.065L97.1068 20.2191C97.0625 19.7757 96.8408 19.4875 96.4417 19.3545C95.9096 19.1771 95.6067 19.0441 95.5328 18.9554C95.651 18.6598 96.0796 18.512 96.8186 18.512C96.8482 18.512 97.0255 18.5342 97.3507 18.5786C97.6906 18.6081 97.8754 18.6229 97.905 18.6229C97.9493 18.6229 98.0084 18.6377 98.0823 18.6672C98.171 18.6968 98.2375 18.7116 98.2818 18.7116C98.6957 18.7116 98.9543 18.7633 99.0578 18.8668C99.2204 19.1032 99.3904 19.3397 99.5677 19.5762C99.5973 19.7979 99.6121 19.9088 99.6121 19.9088C99.6121 19.9383 99.6121 20.0344 99.6121 20.197C99.6121 20.2118 99.649 20.4852 99.7229 21.0173C99.8116 21.5494 99.8411 21.9189 99.8116 22.1258C99.9889 22.3179 100.1 22.414 100.144 22.414C100.115 22.414 100.41 22.0814 101.031 21.4163C101.74 20.6625 102.479 20.0566 103.248 19.5984C104.356 18.9481 105.48 18.6229 106.618 18.6229C107.386 18.6229 108 18.9554 108.458 19.6205C108.857 20.1822 109.057 20.8177 109.057 21.5272C109.057 22.3401 108.672 23.1752 107.904 24.0324C107.416 24.5793 106.706 25.1926 105.775 25.8725C105.007 26.4342 104.622 26.7519 104.622 26.8258C104.622 27.018 105.243 27.6831 106.485 28.8211C107.623 29.8558 108.487 30.5948 109.079 31.0382C109.182 31.1121 109.433 31.1564 109.832 31.1712C110.187 31.1712 110.468 31.2672 110.675 31.4594Z" fill="#412814"/>
<path d="M123.399 20.5074C123.399 20.7882 123.252 21.0616 122.956 21.3276C122.66 21.5937 122.394 21.7267 122.158 21.7267C121.966 21.7267 121.811 21.6011 121.692 21.3498C121.559 21.0247 121.397 20.7956 121.205 20.6625C120.968 20.5 120.576 20.3448 120.03 20.197C119.497 20.0492 119.039 19.9753 118.655 19.9753C117.872 19.9753 117.103 20.2191 116.349 20.7069C115.507 21.2537 114.856 21.9854 114.398 22.9017C114.162 23.3747 114.044 23.6629 114.044 23.7664C114.014 24.2098 114.214 24.4315 114.642 24.4315H117.014C117.044 24.4315 117.207 24.4536 117.502 24.498C117.798 24.5275 117.968 24.5423 118.012 24.5423H121.426C122.269 24.5423 122.69 24.7418 122.69 25.1409C122.69 25.3478 122.483 25.5917 122.069 25.8725C121.714 26.109 121.456 26.2568 121.293 26.3159C121.19 26.3603 121.072 26.3824 120.938 26.3824C120.865 26.3824 120.65 26.279 120.296 26.0721C119.941 25.8651 119.645 25.7617 119.409 25.7617L116.017 25.806C115.987 25.8208 115.588 25.8504 114.82 25.8947C114.243 25.9243 113.948 26.0203 113.933 26.1829C113.903 26.4489 113.888 26.6263 113.888 26.715C113.933 26.9515 113.984 27.2914 114.044 27.7348C114.162 28.7399 114.753 29.5971 115.817 30.3065C116.763 30.9273 117.679 31.2377 118.566 31.2377C118.847 31.2377 119.63 31.0751 120.916 30.7499C121.02 30.7204 121.308 30.6021 121.781 30.3952C122.18 30.2326 122.468 30.1514 122.646 30.1514C122.838 30.1514 122.934 30.2548 122.934 30.4617C122.934 30.6391 122.771 30.8682 122.446 31.149C122.165 31.3707 121.914 31.5333 121.692 31.6368C121.175 31.8732 120.362 32.1836 119.254 32.5679C118.84 32.6714 118.426 32.7231 118.012 32.7231C117.243 32.7231 116.556 32.6492 115.95 32.5014C115.832 32.4866 115.278 32.2427 114.287 31.7698C113.09 31.2229 112.189 30.3361 111.583 29.1094C111.095 28.1191 110.851 27.0401 110.851 25.8725C110.851 25.2222 110.991 24.4832 111.272 23.6555C111.657 22.4731 112.292 21.4902 113.179 20.7069C113.785 20.1896 114.42 19.7757 115.086 19.4654C115.248 19.3915 115.758 19.2289 116.615 18.9776C117.399 18.7559 118.197 18.6451 119.01 18.6451C119.911 18.6451 120.791 18.7707 121.648 19.022C122.816 19.3619 123.399 19.857 123.399 20.5074Z" fill="#412814"/>
<path d="M138.728 20.5074C138.728 20.7882 138.58 21.0616 138.285 21.3276C137.989 21.5937 137.723 21.7267 137.486 21.7267C137.294 21.7267 137.139 21.6011 137.021 21.3498C136.888 21.0247 136.725 20.7956 136.533 20.6625C136.297 20.5 135.905 20.3448 135.358 20.197C134.826 20.0492 134.368 19.9753 133.984 19.9753C133.2 19.9753 132.432 20.2191 131.678 20.7069C130.835 21.2537 130.185 21.9854 129.727 22.9017C129.49 23.3747 129.372 23.6629 129.372 23.7664C129.343 24.2098 129.542 24.4315 129.971 24.4315H132.343C132.372 24.4315 132.535 24.4536 132.831 24.498C133.126 24.5275 133.296 24.5423 133.341 24.5423H136.755C137.597 24.5423 138.018 24.7418 138.018 25.1409C138.018 25.3478 137.812 25.5917 137.398 25.8725C137.043 26.109 136.784 26.2568 136.622 26.3159C136.518 26.3603 136.4 26.3824 136.267 26.3824C136.193 26.3824 135.979 26.279 135.624 26.0721C135.269 25.8651 134.974 25.7617 134.737 25.7617L131.345 25.806C131.316 25.8208 130.917 25.8504 130.148 25.8947C129.572 25.9243 129.276 26.0203 129.261 26.1829C129.232 26.4489 129.217 26.6263 129.217 26.715C129.261 26.9515 129.313 27.2914 129.372 27.7348C129.49 28.7399 130.082 29.5971 131.146 30.3065C132.092 30.9273 133.008 31.2377 133.895 31.2377C134.176 31.2377 134.959 31.0751 136.245 30.7499C136.348 30.7204 136.637 30.6021 137.11 30.3952C137.509 30.2326 137.797 30.1514 137.974 30.1514C138.166 30.1514 138.262 30.2548 138.262 30.4617C138.262 30.6391 138.1 30.8682 137.775 31.149C137.494 31.3707 137.243 31.5333 137.021 31.6368C136.504 31.8732 135.691 32.1836 134.582 32.5679C134.168 32.6714 133.754 32.7231 133.341 32.7231C132.572 32.7231 131.885 32.6492 131.279 32.5014C131.161 32.4866 130.606 32.2427 129.616 31.7698C128.419 31.2229 127.517 30.3361 126.911 29.1094C126.424 28.1191 126.18 27.0401 126.18 25.8725C126.18 25.2222 126.32 24.4832 126.601 23.6555C126.985 22.4731 127.621 21.4902 128.508 20.7069C129.113 20.1896 129.749 19.7757 130.414 19.4654C130.577 19.3915 131.087 19.2289 131.944 18.9776C132.727 18.7559 133.525 18.6451 134.338 18.6451C135.24 18.6451 136.119 18.7707 136.976 19.022C138.144 19.3619 138.728 19.857 138.728 20.5074Z" fill="#412814"/>
<path d="M160.175 31.9693C160.175 32.1319 160.013 32.2649 159.688 32.3684C159.436 32.4423 159.2 32.4792 158.978 32.4792H158.025C157.759 32.4792 157.485 32.4201 157.205 32.3019C156.865 32.1393 156.673 31.9176 156.628 31.6368C156.643 31.3559 156.599 30.9643 156.495 30.4617C156.392 30.2696 156.111 30.0996 155.653 29.9518C155.283 29.8484 154.914 29.7449 154.544 29.6414C154.027 29.4493 153.281 29.1463 152.305 28.7325C151.256 28.2299 150.487 27.8531 149.999 27.6018C149.009 27.0845 148.181 26.6189 147.516 26.2051C147.132 25.8504 146.659 25.4808 146.097 25.0966C145.846 25.0818 145.721 25.2665 145.721 25.6508V30.5282C145.721 31.8289 144.686 32.4792 142.617 32.4792C142.262 32.4792 142.025 32.3758 141.907 32.1688V29.1759L142.351 22.7687C142.351 22.6652 142.358 22.5027 142.373 22.281C142.388 22.0445 142.395 21.8597 142.395 21.7267C142.395 20.5591 141.989 19.8644 141.176 19.6427V19.3102C142.654 18.8076 143.592 18.5564 143.991 18.5564C144.405 18.5564 144.73 18.7042 144.967 18.9998C145.602 19.8866 146.674 21.3572 148.181 23.4116C148.906 24.3576 150.236 25.4735 152.172 26.7593C154.049 28.0009 155.313 28.6438 155.963 28.6881C156.333 28.7177 156.517 28.3925 156.517 27.7126C156.517 25.9834 156.288 23.3156 155.83 19.7092C155.801 19.5466 155.586 19.1919 155.187 18.6451C155.394 18.4825 155.69 18.4012 156.074 18.4012C156.606 18.4012 157.116 18.4751 157.604 18.6229C158.047 18.7559 158.298 18.8889 158.357 19.022C158.993 20.5591 159.363 22.7983 159.466 25.7395C159.451 26.6559 159.473 28.023 159.533 29.841C159.577 30.58 159.695 31.1121 159.887 31.4372C160.079 31.7476 160.175 31.925 160.175 31.9693Z" fill="#412814"/>
<path d="M196.648 22.3918C196.648 24.594 195.414 26.7519 192.945 28.8655C191.94 29.708 190.522 30.58 188.689 31.4816C188.497 31.5111 188.223 31.5924 187.869 31.7254C186.583 32.361 185.149 32.6787 183.567 32.6787C183.065 32.6787 182.178 32.5827 180.907 32.3905C180.7 32.2575 180.368 32.0949 179.909 31.9028C178.978 31.6368 177.995 31.0234 176.961 30.0627C175.941 29.102 175.291 28.156 175.01 27.2249C174.965 27.0623 174.906 26.6706 174.832 26.0499C174.759 25.4735 174.722 25.1113 174.722 24.9635C174.722 24.0767 174.818 23.2343 175.01 22.4362C175.158 22.2588 175.32 21.9854 175.498 21.6159C175.66 20.9212 176.347 19.8127 177.559 18.2903C178.106 17.5809 178.971 16.768 180.153 15.8516C180.7 15.423 181.217 15.0905 181.705 14.854C183.301 14.0706 184.1 13.5016 184.1 13.1469C184.1 12.9695 183.93 12.7183 183.59 12.3931C183.131 11.9645 182.873 11.7132 182.814 11.6393C182.429 11.2255 181.853 10.6195 181.084 9.82136C178.291 6.12634 176.894 4.08669 176.894 3.70241C176.894 2.99296 177.685 2.17267 179.267 1.24153C180.656 0.413842 181.594 0 182.082 0C182.156 0 182.274 0.0221694 182.437 0.0665082C182.599 0.0960697 182.732 0.11085 182.836 0.11085C182.836 0.125629 182.851 0.16258 182.88 0.221701C182.91 0.26604 182.925 0.33255 182.925 0.421231C182.925 0.554252 182.755 0.731614 182.415 0.953315C182.001 1.20458 181.727 1.42628 181.594 1.61842C181.52 1.72188 181.484 1.89185 181.484 2.12833C181.484 2.70475 182.186 3.90194 183.59 5.71989C184.624 7.05009 185.43 8.0108 186.006 8.602C186.464 9.01585 187.152 9.65878 188.068 10.5308C189.856 12.2749 191.645 14.0189 193.433 15.7629C194.793 17.1671 195.761 18.6007 196.337 20.064C196.544 20.596 196.648 21.372 196.648 22.3918ZM193.123 23.7885C193.123 23.1973 192.827 22.3992 192.236 21.3942C191.748 20.596 191.253 19.9235 190.751 19.3767C189.494 18.0465 188.208 16.8419 186.893 15.7629C186.701 15.6151 186.376 15.5412 185.918 15.5412C184.706 15.5412 183.39 16.1546 181.971 17.3814C180.567 18.6081 179.584 19.9235 179.023 21.3276C178.624 22.3475 178.424 22.9239 178.424 23.0569C178.424 24.0915 178.734 25.1483 179.355 26.2272C179.547 26.5672 179.88 26.981 180.353 27.4688C180.914 28.0452 181.424 28.4516 181.883 28.6881C182.193 28.8359 182.858 29.0059 183.878 29.198C183.937 29.2128 184.07 29.2572 184.277 29.3311C184.484 29.3902 184.624 29.4197 184.698 29.4197C186.176 29.4197 187.839 28.9542 189.686 28.023C191.977 26.8554 193.123 25.4439 193.123 23.7885Z" fill="#412814"/>
<path d="M214.554 31.4594C214.465 31.6072 214 31.8215 213.157 32.1023C212.33 32.3831 211.738 32.5236 211.384 32.5236C210.793 32.5236 209.662 31.7402 207.992 30.1735C206.395 28.6807 205.597 27.8087 205.597 27.5575C205.597 27.3949 206.048 27.0106 206.95 26.4046C208.176 25.5621 209.012 24.9562 209.455 24.5867C210.342 23.8033 210.793 23.1086 210.807 22.5027C210.822 22.0149 210.667 21.5272 210.342 21.0394C209.972 20.463 209.514 20.1822 208.967 20.197C207.918 20.2265 206.758 20.8695 205.486 22.1258C204.26 23.323 203.646 24.3058 203.646 25.0744V29.708C203.646 29.7375 203.661 29.8188 203.691 29.9518C203.72 30.0701 203.735 30.1514 203.735 30.1957V31.8806C203.735 32.3536 203.04 32.5901 201.651 32.5901C200.882 32.5901 200.402 32.5014 200.21 32.324C200.21 32.2501 200.276 32.1097 200.41 31.9028C200.543 31.6959 200.616 31.5702 200.631 31.5259C200.735 31.0973 200.809 30.6391 200.853 30.1514C200.897 29.501 200.927 29.1389 200.942 29.065L200.986 20.2191C200.942 19.7757 200.72 19.4875 200.321 19.3545C199.789 19.1771 199.486 19.0441 199.412 18.9554C199.53 18.6598 199.959 18.512 200.698 18.512C200.727 18.512 200.905 18.5342 201.23 18.5786C201.57 18.6081 201.755 18.6229 201.784 18.6229C201.828 18.6229 201.888 18.6377 201.961 18.6672C202.05 18.6968 202.117 18.7116 202.161 18.7116C202.575 18.7116 202.833 18.7633 202.937 18.8668C203.099 19.1032 203.269 19.3397 203.447 19.5762C203.476 19.7979 203.491 19.9088 203.491 19.9088C203.491 19.9383 203.491 20.0344 203.491 20.197C203.491 20.2118 203.528 20.4852 203.602 21.0173C203.691 21.5494 203.72 21.9189 203.691 22.1258C203.868 22.3179 203.979 22.414 204.023 22.414C203.994 22.414 204.289 22.0814 204.91 21.4163C205.619 20.6625 206.358 20.0566 207.127 19.5984C208.236 18.9481 209.359 18.6229 210.497 18.6229C211.265 18.6229 211.879 18.9554 212.337 19.6205C212.736 20.1822 212.936 20.8177 212.936 21.5272C212.936 22.3401 212.551 23.1752 211.783 24.0324C211.295 24.5793 210.586 25.1926 209.654 25.8725C208.886 26.4342 208.502 26.7519 208.502 26.8258C208.502 27.018 209.122 27.6831 210.364 28.8211C211.502 29.8558 212.367 30.5948 212.958 31.0382C213.061 31.1121 213.313 31.1564 213.712 31.1712C214.066 31.1712 214.347 31.2672 214.554 31.4594Z" fill="#412814"/>
<path d="M231.772 32.324C231.713 32.3684 231.639 32.4201 231.55 32.4792C231.373 32.494 230.76 32.5014 229.71 32.5014C228.587 32.5014 227.974 32.494 227.87 32.4792C227.619 32.4644 227.294 32.2206 226.895 31.7476C226.762 31.5998 226.569 31.3485 226.318 30.9938C226.244 30.8608 226.163 30.713 226.074 30.5504C225.986 30.3878 225.853 30.3065 225.675 30.3065C225.394 30.3065 224.67 30.6834 223.503 31.4372C222.764 31.925 222.128 32.2353 221.596 32.3684C221.271 32.457 220.739 32.5014 220 32.5014C219.039 32.5014 218.234 32.4053 217.583 32.2132C217.258 32.1245 216.889 31.8954 216.475 31.5259C216.061 31.1416 215.854 30.7869 215.854 30.4617C215.854 30.2548 216.837 28.9542 218.803 26.5598C219.128 26.2051 219.549 25.7247 220.066 25.1187C220.096 25.0744 220.672 24.4315 221.796 23.1899C221.884 23.1013 221.929 22.9682 221.929 22.7909C221.929 22.1553 221.323 21.1577 220.111 19.7979C220.022 19.7092 219.904 19.6353 219.756 19.5762C219.623 19.5171 219.327 19.4654 218.869 19.421C218.47 19.3767 218.174 19.2732 217.982 19.1106V18.8668C218.115 18.7781 218.278 18.7264 218.47 18.7116L219.756 18.6451C219.8 18.6451 219.97 18.6377 220.266 18.6229C220.547 18.6229 220.709 18.6229 220.754 18.6229C220.798 18.6229 220.953 18.6303 221.219 18.6451C221.485 18.6451 221.64 18.6451 221.685 18.6451C223.015 18.6451 224.375 19.9827 225.764 22.6579C226.03 23.1013 226.414 23.7738 226.917 24.6753C227.345 25.6065 227.996 26.9958 228.868 28.8433C229.636 30.4987 230.405 31.4372 231.173 31.6589C231.262 31.6885 231.462 31.8067 231.772 32.0136V32.324ZM225.165 28.8655C225.165 28.6142 224.663 27.5205 223.658 25.5843C223.303 24.8896 223.015 24.5275 222.793 24.498C222.424 24.7788 221.744 25.503 220.754 26.6706C220.517 26.9515 220.377 27.1362 220.332 27.2249C220.111 27.5205 219.882 27.8161 219.645 28.1117C219.216 28.7325 219.002 29.1833 219.002 29.4641C219.002 29.8188 219.253 30.1514 219.756 30.4617C220.199 30.713 220.591 30.8386 220.931 30.8386C221.478 30.8386 222.158 30.6908 222.971 30.3952C223.192 30.3213 223.584 30.1292 224.146 29.8188C224.249 29.7449 224.375 29.6488 224.522 29.5306C224.951 29.235 225.165 29.0133 225.165 28.8655Z" fill="#412814"/>
<path d="M247.753 31.3264C247.842 31.7698 247.613 32.1097 247.066 32.3462C246.667 32.5088 246.209 32.5901 245.691 32.5901C244.952 32.5901 244.583 32.3166 244.583 31.7698C244.583 31.6959 244.59 31.5924 244.605 31.4594C244.62 31.3116 244.627 31.2081 244.627 31.149C244.627 30.8534 244.479 30.7056 244.184 30.7056C244.184 30.7056 243.903 30.8682 243.341 31.1933C242.676 31.5629 242.033 31.8658 241.412 32.1023C240.496 32.4275 239.617 32.5901 238.774 32.5901C237.001 32.5901 235.508 32.0063 234.296 30.8386C233.099 29.6562 232.5 28.1708 232.5 26.3824C232.5 24.5497 233.276 22.9608 234.828 21.6159C236.084 20.5369 237.732 19.6871 239.772 19.0663C241.427 18.5638 242.905 18.3125 244.206 18.3125C244.989 18.3125 245.713 18.4751 246.379 18.8003C247.236 19.2289 247.664 19.8275 247.664 20.596C247.664 21.2759 247.361 21.845 246.755 22.3031C246.164 22.7465 245.529 22.9682 244.849 22.9682C244.76 22.8796 244.716 22.7687 244.716 22.6357C244.716 22.5618 244.731 22.4362 244.76 22.2588C244.79 22.0814 244.804 21.941 244.804 21.8376C244.804 21.6011 244.731 21.3942 244.583 21.2168C244.11 20.7143 243.622 20.3817 243.12 20.2191C242.765 20.1009 242.292 20.0418 241.701 20.0418C240.164 20.0418 238.745 20.4335 237.444 21.2168C235.803 22.2071 234.983 23.5521 234.983 25.2518C234.983 26.582 235.5 27.8531 236.535 29.065C237.644 30.3509 238.892 30.9938 240.282 30.9938C240.947 30.9938 241.782 30.7647 242.787 30.3065C243.807 29.8336 244.376 29.3976 244.494 28.9985C244.553 28.7768 244.583 28.3186 244.583 27.624C244.583 27.5796 244.59 27.4835 244.605 27.3357C244.62 27.1732 244.627 27.0401 244.627 26.9367C244.627 26.2864 244.376 25.9612 243.873 25.9612C243.814 25.9612 243.371 26.0647 242.543 26.2716C241.715 26.4785 241.272 26.582 241.213 26.582C240.755 26.582 240.526 26.4416 240.526 26.1607C240.526 25.9834 240.644 25.7765 240.88 25.54C241.117 25.2887 241.339 25.1409 241.545 25.0966C242.24 24.9635 243.201 24.8084 244.428 24.631C245.536 24.4684 246.157 24.3871 246.29 24.3871C247.251 24.3871 247.709 24.6753 247.664 25.2518L247.753 31.3264Z" fill="#412814"/>
<path d="M266.518 25.6065C266.518 26.8332 266.333 27.7422 265.964 28.3334C264.235 31.2451 261.611 32.7009 258.093 32.7009C254.724 32.7009 252.462 31.3042 251.309 28.5108C251.176 28.2447 251.014 27.8457 250.822 27.3136C250.703 26.7963 250.644 26.279 250.644 25.7617C250.644 24.9931 250.77 24.1876 251.021 23.3451C251.287 22.5027 251.627 21.808 252.041 21.2611C252.854 20.1674 253.933 19.3841 255.278 18.9111C255.721 18.7485 256.342 18.5933 257.14 18.4455C258.027 18.283 258.744 18.2017 259.291 18.2017C261.301 18.2017 263.008 18.9554 264.412 20.463C265.816 21.9558 266.518 23.6703 266.518 25.6065ZM263.68 26.7815C263.68 26.0721 263.673 25.6878 263.658 25.6287C263.259 24.2098 262.838 23.1086 262.394 22.3253C261.715 21.1281 260.798 20.2635 259.645 19.7314C259.084 19.4654 258.552 19.3323 258.049 19.3323C257.118 19.3323 256.268 19.6132 255.499 20.1748C254.613 20.8251 254.007 21.7341 253.682 22.9017C253.608 23.0495 253.526 23.2417 253.438 23.4782C253.438 23.6703 253.423 23.9363 253.393 24.2763C253.334 24.764 253.305 24.9562 253.305 24.8527C253.305 25.3109 253.364 25.7469 253.482 26.1607C253.541 26.279 253.608 26.4342 253.682 26.6263C254.021 28.0895 254.76 29.3015 255.899 30.2622C256.963 31.1638 258.079 31.6146 259.246 31.6146C260.902 31.6146 262.224 30.7499 263.215 29.0207C263.466 28.5921 263.614 28.2299 263.658 27.9343C263.673 27.8309 263.68 27.4466 263.68 26.7815Z" fill="#412814"/>
<path d="M288 31.9693C288 32.1319 287.837 32.2649 287.512 32.3684C287.261 32.4423 287.025 32.4792 286.803 32.4792H285.849C285.583 32.4792 285.31 32.4201 285.029 32.3019C284.689 32.1393 284.497 31.9176 284.453 31.6368C284.468 31.3559 284.423 30.9643 284.32 30.4617C284.216 30.2696 283.935 30.0996 283.477 29.9518C283.108 29.8484 282.738 29.7449 282.369 29.6414C281.851 29.4493 281.105 29.1463 280.13 28.7325C279.08 28.2299 278.312 27.8531 277.824 27.6018C276.834 27.0845 276.006 26.6189 275.341 26.2051C274.957 25.8504 274.484 25.4808 273.922 25.0966C273.671 25.0818 273.545 25.2665 273.545 25.6508V30.5282C273.545 31.8289 272.51 32.4792 270.441 32.4792C270.087 32.4792 269.85 32.3758 269.732 32.1688V29.1759L270.175 22.7687C270.175 22.6652 270.183 22.5027 270.197 22.281C270.212 22.0445 270.22 21.8597 270.22 21.7267C270.22 20.5591 269.813 19.8644 269 19.6427V19.3102C270.478 18.8076 271.417 18.5564 271.816 18.5564C272.23 18.5564 272.555 18.7042 272.791 18.9998C273.427 19.8866 274.498 21.3572 276.006 23.4116C276.73 24.3576 278.06 25.4735 279.997 26.7593C281.874 28.0009 283.137 28.6438 283.788 28.6881C284.157 28.7177 284.342 28.3925 284.342 27.7126C284.342 25.9834 284.113 23.3156 283.655 19.7092C283.625 19.5466 283.411 19.1919 283.012 18.6451C283.219 18.4825 283.514 18.4012 283.899 18.4012C284.431 18.4012 284.941 18.4751 285.428 18.6229C285.872 18.7559 286.123 18.8889 286.182 19.022C286.818 20.5591 287.187 22.7983 287.291 25.7395C287.276 26.6559 287.298 28.023 287.357 29.841C287.401 30.58 287.52 31.1121 287.712 31.4372C287.904 31.7476 288 31.925 288 31.9693Z" fill="#412814"/>
<path opacity="0.5" fill-rule="evenodd" clip-rule="evenodd" d="M266.187 41.1225H24.2949V40.3307H266.187V41.1225Z" fill="#412814"/>
</svg>
