<svg width="146" height="176" viewBox="0 0 146 176" fill="none" xmlns="http://www.w3.org/2000/svg">
<path d="M87.8242 30.8821C87.8442 30.9022 87.8242 30.9022 87.8242 30.8821C87.8643 30.9222 87.8643 30.9622 87.8843 30.9823C87.9043 30.9622 87.9244 30.9222 87.9444 30.9022C87.8843 30.9022 87.8442 30.9022 87.8242 30.8821Z" fill="url(#paint0_linear_119_3422)"/>
<path d="M35.6357 32.5991C36.594 32.0201 36.8336 32.4594 36.9734 33.5374C37.5523 32.5392 37.9915 31.7606 38.4507 31.002C38.7901 30.423 39.0297 29.6444 39.968 30.1035C39.968 30.403 39.968 30.7025 39.968 31.1217C40.5071 30.4829 40.9463 29.9638 41.3855 29.4447C41.5253 29.5046 41.6451 29.5445 41.7848 29.6044C41.6251 30.9021 41.4454 32.2198 41.3057 33.4177C41.7648 33.3178 42.3039 33.218 42.9627 33.0783C43.1424 32.7588 43.4019 32.2996 43.6814 31.8405C43.941 33.1382 44.5599 33.3777 45.7578 32.4993C45.2387 33.8768 44.7995 35.0747 44.3602 36.2526C44.4601 36.3125 44.5798 36.3724 44.6797 36.4323C44.9991 36.0929 45.3984 35.7934 45.638 35.4141C45.9973 34.8551 46.2369 34.2162 46.6162 33.6772C46.736 33.5175 47.0954 33.5374 47.5146 33.4177C47.6744 32.7189 48.1136 32.8786 48.5927 33.5774C49.2116 33.1581 49.0918 32.08 50.0701 32.12C50.3696 32.1399 50.669 31.9802 50.9485 31.9203C50.9485 32.2398 51.0484 32.5991 50.9685 32.8786C50.7689 33.5574 50.4694 34.2362 50.2099 34.895C50.3296 34.9549 50.4494 35.0148 50.5493 35.0747C51.7471 33.0982 52.925 31.1217 54.1429 29.1452C55.0812 27.6279 56.0794 26.1705 57.0577 24.6732C57.1176 24.7131 57.1974 24.773 57.2573 24.8129C57.0976 25.8711 56.9579 26.9092 56.7782 28.0871C56.8581 28.1271 57.1575 28.2269 57.3172 28.2868C56.7982 28.9855 56.299 29.6843 55.76 30.3431C55.6402 30.4829 55.4006 30.5228 55.221 30.6027C55.201 30.403 55.1411 30.1834 55.181 30.0037C55.3008 29.6643 55.4805 29.3449 55.6402 29.0055C55.5404 28.9656 55.4406 28.9057 55.3407 28.8657C54.8616 29.7043 54.4024 30.5428 54.0031 31.2415C54.0031 31.6209 54.1229 31.9802 53.9832 32.1599C53.3044 33.0383 52.6256 33.9767 51.807 34.6954C49.1917 37.0113 46.5164 39.2673 43.8611 41.5233C43.6016 41.7429 43.362 41.9825 43.0426 42.242C44.2405 42.7211 44.3602 42.7211 45.1588 42.0823C46.5164 40.9842 47.874 39.8662 49.2316 38.7682C49.2915 38.8281 49.3314 38.8879 49.3913 38.9678C49.0319 39.407 48.6925 39.8662 48.3332 40.3054C48.3731 40.3454 48.413 40.3853 48.4729 40.4252C48.8323 40.1657 49.1917 39.8862 49.551 39.6266C50.1699 40.3054 50.0701 40.8445 49.5111 41.4634C48.9122 42.1621 48.433 42.9607 47.8341 43.7793C48.413 43.7194 48.7924 43.6994 49.1717 43.6595C48.9721 44.3183 48.8123 44.7975 48.6726 45.2966C48.7524 45.3165 48.8523 45.3365 48.9321 45.3764C49.9104 44.0588 50.8887 42.7611 51.8469 41.4434C51.9468 41.3636 52.0466 41.2837 52.1464 41.2038C52.0865 42.6014 53.0049 41.7828 53.4441 42.222C53.2045 43.36 52.965 44.5379 52.7254 45.7158C52.8651 45.7757 53.0049 45.8156 53.1646 45.8755C53.5639 45.2966 53.9632 44.7176 54.3824 44.1386C54.9015 44.1985 55.4805 44.2584 56.0595 44.3383C56.4188 45.077 56.7582 45.7757 57.1376 46.5743C57.1975 46.155 57.3172 45.7957 57.2973 45.4563C57.2174 42.9607 57.2773 40.4651 56.9978 37.9895C56.7383 35.5539 57.4969 33.8569 59.3936 32.2797C61.9889 30.1235 64.3248 27.6479 66.7804 25.332C66.9202 25.1923 67.0999 25.0725 67.3394 24.8728C67.1598 25.5916 67.02 26.1506 66.8603 26.7695C66.6806 26.7695 66.461 26.7695 66.2414 26.7695C66.3612 27.568 65.7822 27.8076 65.2631 28.167C64.8239 28.4665 64.5244 28.9656 64.1651 29.3649C62.6877 30.2233 62.3283 32.0601 61.0506 33.0783C61.1105 33.1581 61.1904 33.238 61.2503 33.3178C61.5098 33.2579 61.7693 33.1981 62.0488 33.1382C62.0688 33.1781 62.0888 33.218 62.1087 33.2579C61.6495 33.6373 61.1904 33.9966 60.851 34.2761C60.8709 34.6155 60.9508 34.915 60.8909 35.1945C60.6713 36.2526 60.3518 37.3107 60.1921 38.3689C59.9725 39.8462 60.4916 41.3636 59.8527 42.8609C59.3935 43.919 59.3736 45.1768 59.114 46.5743C59.9725 45.4962 60.6513 44.6178 61.3301 43.7393C61.4299 43.7793 61.5098 43.8192 61.6096 43.8591C61.6296 44.2983 61.6495 44.7176 61.6695 45.1369C62.5879 44.9771 62.7476 44.2584 62.9273 43.5397C63.2667 42.2819 63.5861 41.0242 63.9455 39.7864C64.4645 37.9097 65.5027 36.4323 67.2197 35.4341C67.6389 35.1945 68.138 34.8551 68.2977 34.4359C68.8967 32.8187 69.3958 31.1417 69.9149 29.4846C69.855 29.4647 69.7751 29.4248 69.7152 29.4048C68.9566 30.2233 68.178 31.0419 67.3594 31.9203C66.8403 31.6408 66.8004 31.2415 67.2796 30.6825C68.2179 29.6044 69.4357 29.0055 70.6536 28.3067C73.3288 26.7495 75.6447 24.7131 77.182 21.9979C78.0005 20.5405 78.5196 18.9034 79.1784 17.3662C79.0986 17.3262 79.0387 17.3063 78.9588 17.2663C77.9207 18.4442 76.9025 19.6022 75.9042 20.7202C74.4269 19.6621 75.1456 18.3444 75.0458 17.1665C74.7463 17.8253 74.2671 18.4842 74.347 19.0831C74.4468 19.8218 74.1274 19.8617 73.3887 20.1412C73.6482 16.9868 73.8679 14.052 74.1074 11.1372C73.8479 12.0955 73.7281 13.0738 73.4885 14.0321C73.2689 14.9504 73.5085 15.9886 73.0094 16.7273C72.5901 16.1883 72.2507 15.749 71.8714 15.2499C72.091 15.0902 72.3905 14.8906 72.67 14.6909C72.5702 14.7308 72.4703 14.7508 72.3705 14.7907C72.091 14.092 71.5919 13.3932 71.552 12.6945C71.512 11.2171 71.6318 9.71974 71.8315 8.24236C72.0111 6.88477 72.3505 5.56711 72.65 4.1097C73.209 6.16605 73.6882 8.02275 74.1873 9.85949C74.2871 9.83952 74.3869 9.81956 74.4868 9.81956C74.3869 9.22062 74.367 8.62169 74.1873 8.04271C73.5684 6.02629 73.4087 3.98991 73.5884 1.77384C78.6793 5.80668 81.095 11.0174 81.4544 17.3462C82.3728 15.769 81.4943 14.2118 81.5143 12.395C82.7521 13.7526 83.6904 15.0103 84.2295 16.5077C84.3492 16.8271 84.3293 17.2464 84.2494 17.5858C83.95 18.7437 83.6305 19.9017 83.2512 21.0197C83.0715 21.5587 82.7321 22.0379 82.3728 22.7366C82.1931 22.2175 82.1132 21.978 82.0134 21.6785C81.8137 21.978 81.654 22.2175 81.4744 22.4771C81.2148 21.958 81.0152 21.5188 80.7357 20.9797C80.4961 22.1776 80.2964 23.2357 80.0369 24.4536C79.5777 23.5352 79.3381 24.0742 79.0786 24.3538C78.5995 24.9128 78.1003 25.4917 77.2818 24.3538C76.3235 26.6097 74.347 27.8476 73.1292 29.8041C72.9495 29.3249 72.8097 28.9456 72.67 28.5663C72.111 29.6444 71.8315 30.7224 71.4122 31.7406C70.953 32.8986 71.3324 34.356 69.6953 35.1146C68.9965 35.4341 68.7969 36.8715 68.3576 37.8099C68.4175 37.8498 68.4575 37.8897 68.5174 37.9097C68.8967 37.5503 69.276 37.191 69.6553 36.8116C69.7152 36.8715 69.7751 36.9314 69.855 36.9913C68.5373 40.0459 67.1997 43.0805 65.7822 46.3747C67.3195 45.9953 67.9783 45.1768 68.3576 44.0188C68.9366 44.6577 69.2161 44.3982 69.4757 43.8192C69.6553 43.4598 69.9548 43.1404 70.3341 42.6612C70.5937 43.2801 70.7334 43.6195 71.0129 44.2584C72.071 41.4434 72.5702 38.5885 74.6465 36.4922C74.6065 36.9714 74.5666 37.4505 74.5267 37.9296C74.5666 37.9296 74.6065 37.9296 74.6465 37.9296C75.2454 36.6519 75.8443 35.3742 76.4433 34.0965C76.5231 34.1364 76.623 34.1563 76.7028 34.1963C76.4233 36.2127 76.1238 38.2092 75.8443 40.2256C75.9641 40.2655 76.0839 40.2855 76.2037 40.3254C76.7428 39.1076 77.2818 37.8897 77.8408 36.6719C77.9406 36.7118 78.0205 36.7517 78.1203 36.7717C77.9007 38.5885 78.4198 40.4851 76.8825 42.1022C75.7645 43.2802 75.0258 44.7775 73.9677 46.0153C73.0493 47.0934 71.9912 48.0517 70.9331 48.99C69.815 49.9882 68.6371 50.9066 67.4992 51.8649C67.3394 51.9847 67.2795 52.2243 67.1598 52.404C67.2197 52.4838 67.2995 52.5637 67.3594 52.6635C68.5772 51.8649 69.7751 51.0663 71.0329 50.2278C70.8532 50.8667 70.7135 51.3858 70.5737 51.9048C71.6119 52.0646 72.1709 51.6453 72.5702 50.8866C73.0293 50.0481 73.4885 49.1897 74.0276 48.3911C74.6664 47.4527 76.2836 47.2331 77.0023 47.872C77.3417 48.1715 77.8208 48.3112 78.3199 48.5907C78.3199 48.5308 78.3 48.7504 78.28 48.8902C78.7192 48.9301 79.0786 48.97 79.5777 49.0299C80.5959 46.4146 81.6341 43.7793 83.6106 41.6431C83.351 42.5814 83.0915 43.5197 82.8519 44.3982C83.3311 44.2584 83.7503 44.1386 84.1496 44.0188C84.2894 44.8973 84.8883 44.478 85.1678 44.498C85.7867 42.1022 86.8249 39.986 88.0826 37.8298C87.2641 37.9296 87.0245 39.1076 85.9863 38.3489C86.6252 36.5721 87.284 34.7553 88.0427 32.639C89.1008 34.4159 90.0591 35.9931 90.9775 37.5703C91.2969 38.1093 91.5165 38.7282 91.9158 39.2074C94.2916 42.2021 96.1283 45.4962 97.3861 49.1098C97.4859 49.3893 97.7854 49.589 98.005 49.8285C98.1048 49.7287 98.2046 49.6289 98.3244 49.5291C97.5458 47.8321 96.7672 46.1351 95.9886 44.4381C96.0684 44.3982 96.1283 44.3582 96.2082 44.3183C97.0267 45.2566 97.8453 46.195 98.6439 47.1333C98.7437 47.1333 98.8435 47.1133 98.9433 47.1133C98.9633 46.8338 99.1031 46.4944 98.9833 46.2948C98.7237 45.8356 98.3644 45.4363 98.0449 45.0171C96.1483 42.6612 94.1518 40.3853 92.375 37.9296C90.7379 35.6537 89.3204 33.1981 87.8031 30.8223C86.9846 32.0002 86.2858 33.0982 85.4673 34.1164C85.2277 34.4159 84.6088 34.5556 84.1895 34.4957C83.95 34.4758 83.7503 33.9367 83.5507 33.6173C83.351 33.2979 83.1913 32.9385 83.0316 32.5991C82.9717 32.639 82.9318 32.679 82.8719 32.6989C82.8719 32.12 82.8719 31.521 82.8719 30.7224C82.5724 31.1018 82.4127 31.2815 82.233 31.4811C82.1332 31.4611 82.0533 31.4412 81.9535 31.4212C81.9735 31.1217 81.9535 30.8223 82.0334 30.5428C82.1332 30.2034 82.3528 29.9039 82.4925 29.6044C82.6523 29.2451 82.7521 28.8258 82.9917 28.5463C83.2911 28.2069 83.8701 28.0472 84.0697 27.6679C84.3892 27.049 84.5289 26.3103 84.7086 25.6315C84.9282 24.8529 85.1279 24.0942 85.3475 23.2158C86.1461 24.2739 86.725 25.2522 87.5036 26.0507C89.58 28.2269 91.5964 30.4629 92.7743 33.2779C93.6128 35.2544 94.3715 37.2708 95.2299 39.2473C95.5294 39.966 96.0086 40.6049 96.4078 41.2637C96.4877 41.2238 96.5875 41.1639 96.6674 41.124C96.0485 38.269 95.5094 35.3942 93.9322 32.8786C92.8941 31.2016 91.7361 29.5845 90.5782 27.9673C90.2588 27.5082 89.8595 27.0689 89.3803 26.7894C87.4238 25.6315 86.4056 23.8147 85.7468 21.7384C85.3874 20.6204 85.1279 19.5024 85.4473 18.3245C85.8067 18.7437 86.0462 19.2229 86.3457 19.6621C87.4637 21.3391 88.5218 23.076 89.7596 24.6732C91.0374 26.3302 92.4748 27.8675 93.9322 29.3848C95.8688 31.4212 97.1266 33.777 97.7055 36.5122C98.1048 38.3888 100.281 41.1839 102.078 42.1022C100.341 38.7282 98.7437 35.5938 97.1266 32.4793C97.1865 32.4194 97.2464 32.3595 97.3062 32.2996C98.4442 33.238 99.682 34.0765 100.68 35.1346C101.938 36.4523 103.096 37.8698 104.094 39.3671C104.813 40.4452 105.033 41.8826 106.63 42.1222C106.769 42.1422 106.849 42.3817 106.989 42.4616C107.348 42.6413 107.708 42.781 108.147 42.9807C107.169 40.7447 106.27 38.6484 105.372 36.5721C105.492 36.4922 105.611 36.4323 105.731 36.3525C106.49 37.3307 107.249 38.3289 107.987 39.3072C108.706 40.2655 109.185 41.4833 110.423 41.9625C107.967 38.0295 105.811 33.8569 101.439 31.4212C102.158 32.3196 102.876 33.0982 103.455 33.9567C104.234 35.1146 104.334 35.9532 103.974 36.8915C103.495 36.3924 103.056 35.8134 102.517 35.3942C100.541 33.817 99.0232 31.8804 97.8054 29.6843C97.7654 29.6044 97.7055 29.4447 97.6456 29.4447C96.6873 29.3449 96.867 28.5064 96.6873 27.9474C96.4877 27.3484 96.2881 26.7295 96.2681 26.1106C96.2082 24.9128 96.2481 23.7149 96.2481 22.517C96.2082 22.4971 96.1683 22.4571 96.1283 22.4372C95.7091 23.655 95.3098 24.8529 94.8506 26.1705C93.7526 25.0126 94.631 23.7947 94.3315 22.4172C94.2117 22.8963 94.2117 23.1359 94.1119 23.3156C93.9921 23.5552 93.8125 23.7349 93.6527 23.9545C93.513 23.7548 93.3932 23.5751 93.2534 23.3755C93.1337 23.2158 92.9939 23.0561 92.8542 22.8963C92.5547 22.537 92.1754 22.2375 91.9757 21.8382C91.6762 21.2393 91.4766 20.5605 91.1771 19.7619C90.7978 20.2211 90.5982 20.4607 90.2188 20.9199C90.2188 19.7419 90.2787 18.8236 90.1989 17.9052C90.139 17.3462 89.9992 16.5276 89.6199 16.328C88.7415 15.8489 88.7614 15.1102 88.6816 14.3515C88.5218 12.6346 88.3621 10.9176 88.2224 9.18069C88.1425 8.12257 88.0826 7.04449 88.0227 5.9664C89.4602 7.2042 90.9974 8.1625 92.0356 9.50013C93.3133 11.1771 94.3315 13.0937 95.1501 15.0503C95.6292 16.1683 95.4495 17.5458 95.6093 18.7836C95.7889 20.1213 96.2681 21.3191 97.2863 22.3174C97.8852 22.9163 98.2845 23.7149 98.7437 24.4336C99.6022 25.8112 100.241 27.3684 101.299 28.5663C103.655 31.2615 106.21 33.797 108.706 36.3724C109.025 36.7118 109.505 36.9115 109.904 37.191C108.986 35.0348 107.947 33.0383 106.889 31.0618C106.809 30.9021 106.69 30.7224 106.53 30.6027C105.072 29.4447 104.513 26.8493 105.452 24.9926C107.648 26.5499 108.486 29.0654 110.024 31.0818C109.724 30.3431 109.445 29.6044 109.145 28.8657C110.024 29.5845 110.682 30.4429 111.441 31.2216C112.16 31.9603 112.459 33.218 113.877 33.1781C112.699 31.541 111.481 29.9438 110.143 28.4665C108.746 26.9292 107.249 25.4718 105.751 24.0144C105.552 23.8147 105.033 23.7548 104.793 23.8746C104.194 24.214 103.675 24.6932 103.096 25.0924C101.559 26.1705 100.68 25.9908 99.5822 24.4536C98.8635 23.4553 98.1248 22.4771 97.446 21.4589C97.1665 21.0596 96.907 20.5805 96.8271 20.1213C96.4478 18.1647 96.0884 16.2082 95.8488 14.2317C95.769 13.493 95.4495 13.0538 94.9704 12.5747C94.2916 11.8759 93.7725 11.0374 93.1736 10.2787C92.7344 9.71974 92.2951 9.16073 91.836 8.62169C90.7579 7.36392 89.6798 6.14608 88.6017 4.88831C88.3621 4.60881 88.1425 4.28938 87.9229 3.96995C87.6634 4.28938 87.304 4.54892 87.1643 4.90828C86.4655 6.66516 85.7867 8.38211 84.2894 9.69977C83.3111 10.5582 82.5924 10.698 81.7738 9.7397C79.2783 6.84484 76.8026 3.94998 74.2871 1.07509C73.5085 0.17668 73.1891 0.196645 72.4104 1.11501C71.2725 2.45264 70.1744 3.83019 68.9965 5.14785C68.4375 5.76676 67.8386 6.42559 67.0999 6.74502C66.3013 7.10438 65.9819 7.62346 65.6824 8.36215C64.5843 11.0174 63.0471 13.4331 60.9907 15.4695C60.272 16.1883 59.6132 16.2881 58.7347 15.6093C56.9778 14.2517 55.1411 12.9939 53.3443 11.6962C52.6855 11.2171 52.3261 11.3169 52.1265 12.0955C51.9667 12.7344 51.9667 13.4132 51.807 14.052C50.8088 18.005 48.5328 21.0396 45.0989 23.2357C44.0208 23.9345 42.9228 24.2739 41.6051 23.8746C41.2258 23.7548 40.4472 24.0343 40.2875 24.3538C38.9898 26.9491 36.7737 28.7659 34.8771 30.8223C34.4778 31.2615 34.0785 31.6807 33.6792 32.1C34.338 33.1382 35.1965 32.8587 35.6357 32.5991ZM52.8851 23.076C53.2245 21.4589 53.6038 19.8418 53.9233 18.2246C54.0031 17.8253 53.9233 17.3462 53.7436 16.9669C53.1247 15.6692 53.484 14.3914 53.504 13.0538C55.9996 13.9123 57.5368 15.8888 57.1376 18.604C57.0777 18.9633 57.1176 19.3427 57.2174 19.682C57.6367 21.379 56.878 22.7167 55.9197 23.9944C55.4805 24.5734 54.9814 25.1324 54.5621 25.7113C54.1828 26.2504 53.7436 26.5499 53.1446 26.3302C52.925 25.7513 52.6256 25.2921 52.6056 24.8129C52.5657 24.2539 52.7653 23.655 52.8851 23.076Z" fill="url(#paint1_linear_119_3422)"/>
<path d="M128.334 139.949C125.059 138.97 121.765 138.371 118.311 138.531C115.157 138.691 112.003 138.491 108.848 138.671C102.859 139.03 98.3069 142.784 96.6698 148.513C96.59 148.773 96.4901 149.032 96.3704 149.352C90.5008 144.52 83.7328 142.624 76.3858 142.604C68.999 142.564 62.231 144.5 56.4213 149.412C56.3015 149.072 56.2017 148.913 56.1617 148.713C54.6644 143.063 50.931 139.689 45.2411 138.89C41.7074 138.391 38.0938 138.551 34.5002 138.491C30.8866 138.431 27.3329 138.87 23.919 140.128C22.5015 140.647 22.4017 140.967 23.4199 142.125C23.5596 142.284 23.6794 142.424 23.8192 142.564C27.4527 146.597 31.7052 149.851 36.277 152.766C45.1812 158.476 54.8041 162.249 65.2855 163.806C66.3836 163.966 67.4816 164.166 68.6196 164.345C67.1822 166.861 67.1223 167.14 67.7212 168.019C67.8011 167.959 67.8809 167.899 67.9408 167.819C69.1786 166.102 69.8974 166.022 71.5145 167.3C74.0101 169.277 75.4874 171.892 76.3659 174.887C76.4657 175.206 76.5655 175.505 76.6653 175.825C76.9648 175.366 77.0447 174.946 77.1645 174.547C77.963 171.513 79.4404 168.897 81.9759 166.961C83.054 166.142 84.0323 166.262 84.9706 167.26C85.2102 167.52 85.4298 167.759 85.7692 168.139C86.4679 166.521 85.5096 165.543 84.8508 164.405C85.1103 164.345 85.3499 164.265 85.6095 164.206C89.1631 163.487 92.7568 163.028 96.2306 162.049C108.908 158.476 119.849 151.927 129.032 142.444C130.649 140.867 130.57 140.627 128.334 139.949ZM100.084 145.219C100.643 144.461 101.401 143.822 102 143.103C103.578 141.226 105.714 140.448 108.03 140.288C110.665 140.108 113.32 140.248 116.115 140.248C115.936 140.607 115.916 140.707 115.856 140.767C114.239 142.384 112.522 143.922 111.044 145.658C109.547 147.435 107.79 148.573 105.494 148.853C103.578 149.092 101.681 149.292 99.7643 149.512C99.7244 149.432 99.6645 149.352 99.6246 149.272C100.104 148.873 100.543 148.414 101.082 148.094C102.599 147.196 104.137 146.357 105.674 145.479C106.632 144.94 107.511 144.321 107.87 143.243C106.972 143.862 106.113 144.56 105.155 145.04C102.979 146.138 100.862 147.296 99.1255 149.032C99.0057 149.152 98.8659 149.212 98.6064 149.392C98.6663 147.755 99.2053 146.417 100.084 145.219ZM93.5154 149.831C91.8584 150.849 90.0017 151.708 88.5043 153.005C86.987 154.303 85.8291 156 84.3916 157.497C85.0704 155.86 85.7492 154.223 86.5278 152.367C84.5713 153.085 83.034 154.103 81.4169 155.501C81.6565 154.123 81.8561 152.985 82.1157 151.528C81.6165 151.847 81.377 151.987 81.0376 152.187C81.0376 151.328 81.0376 150.59 81.0376 149.851C80.9777 149.811 80.8978 149.771 80.8379 149.731C80.0394 150.709 79.2408 151.708 78.3823 152.766C77.7634 150.709 77.1645 148.693 76.5256 146.517C76.0464 148.673 75.6072 150.67 75.168 152.646C74.3095 151.608 73.3712 150.49 72.353 149.252C72.2731 150.27 72.1733 151.229 72.0935 152.367C71.6942 151.947 71.4147 151.648 71.1352 151.348C71.0353 151.368 70.9555 151.388 70.8557 151.408C71.215 152.766 71.5744 154.103 71.9138 155.381C70.5562 154.503 69.1786 153.604 67.7811 152.726C67.6014 152.606 67.3219 152.646 67.1023 152.606C67.1223 152.866 67.0823 153.125 67.1622 153.365C67.6214 154.722 68.1205 156.08 68.4998 157.537C66.2638 153.944 63.5886 150.929 59.1165 150.051C68.7594 141.745 86.3481 143.442 93.5154 149.831ZM37.8742 140.308C40.2699 140.308 42.6657 140.108 45.0215 140.388C48.3157 140.767 51.0907 142.324 52.7478 145.319C53.4066 146.497 53.6861 147.875 54.1453 149.172C51.3104 147.256 48.5752 145.379 45.8201 143.522C45.7602 143.542 45.7203 143.582 45.6604 143.602C46.0597 144.081 46.3791 144.64 46.8782 144.98C47.9763 145.758 49.1941 146.417 50.3121 147.176C51.2904 147.835 52.2088 148.573 53.1671 149.272C53.1271 149.372 53.0872 149.452 53.0672 149.552C52.2686 149.472 51.4701 149.392 50.6715 149.292C49.8529 149.192 49.0344 149.012 48.2158 148.933C45.4408 148.673 43.2846 147.435 41.6076 145.179C40.5694 143.782 39.2318 142.604 38.0339 141.326C37.7943 141.067 37.5148 140.827 37.1355 140.488C37.4549 140.408 37.6546 140.308 37.8742 140.308ZM26.714 142.764C26.5144 142.544 26.2948 142.324 26.1151 142.105C26.0552 142.045 26.0552 141.925 25.9953 141.646C26.8737 141.785 27.6723 141.905 28.6306 142.065C28.1315 141.765 27.7721 141.566 27.1732 141.226C27.6923 141.087 27.9718 140.967 28.2713 140.907C33.0029 139.989 36.5765 141.825 39.3915 145.499C39.7509 145.978 40.1302 146.437 40.4696 146.936C42.4461 149.771 45.2811 151.049 48.6151 151.288C50.2722 151.408 51.9293 151.288 53.5863 151.308C53.9856 151.308 54.3849 151.468 54.7842 151.548C54.5845 151.927 54.4648 152.486 54.1453 152.666C53.187 153.225 52.1888 153.944 51.1307 154.044C46.5788 154.503 42.1865 154.223 38.1138 151.608C34.041 148.993 30.108 146.217 26.714 142.764ZM55.443 159.713C52.3884 158.536 49.3538 157.378 46.1994 156.16C48.1959 156.16 50.0127 155.98 51.7895 156.2C53.6462 156.419 54.5845 158.016 55.6427 159.334C55.5628 159.474 55.5029 159.594 55.443 159.713ZM64.4071 161.071C64.2474 161.251 63.888 161.45 63.6884 161.391C60.8534 160.772 58.4177 159.534 56.8605 156.859C59.376 157.118 61.9315 157.178 64.1076 158.675C65.1857 159.434 65.2656 160.113 64.4071 161.071ZM55.0437 154.982C55.0238 154.842 55.0038 154.722 55.0038 154.583C55.8623 153.584 56.7207 152.586 57.6192 151.628C57.7988 151.428 58.2181 151.348 58.4976 151.388C61.9315 151.947 64.1875 154.004 65.6449 157.078C65.6649 157.118 65.6249 157.198 65.605 157.418C62.4506 154.962 58.7172 155.102 55.0437 154.982ZM65.565 162.189C65.7647 161.77 65.8845 161.57 65.9643 161.351C66.4036 160.412 66.8028 159.334 68.0207 159.314C69.3982 159.294 70.4564 160.073 71.2549 161.151C71.8339 161.93 71.4746 162.688 70.5163 162.648C68.9191 162.588 67.3219 162.369 65.565 162.189ZM71.215 164.884C71.215 164.765 71.215 164.645 71.215 164.545C71.814 164.505 72.4528 164.305 72.9719 164.485C73.3712 164.625 73.5908 165.244 73.9701 165.763C72.5327 166.302 72.0935 165.064 71.215 164.884ZM76.845 170.075C76.7652 170.075 76.6853 170.055 76.6054 170.055C76.286 168.678 75.9666 167.3 75.6871 165.922C75.4076 164.565 75.5872 164.385 76.9448 164.565C77.1046 164.585 77.2643 164.625 77.7235 164.725C77.424 166.541 77.1445 168.298 76.845 170.075ZM78.562 161.91C78.1427 162.888 77.5637 163.028 76.8251 162.289C76.4857 161.95 76.0664 161.71 75.9067 161.151C75.8268 160.871 75.2479 160.712 74.6888 160.372C74.4293 159.015 74.8286 158.136 76.4857 156.539C78.5021 157.597 79.4005 159.873 78.562 161.91ZM79.7199 165.264C79.9795 164.206 80.3588 164.066 81.7962 164.645C81.1973 165.403 80.6383 165.982 79.7199 165.264ZM83.2736 162.748C82.7346 162.768 82.0757 162.289 81.6764 161.85C81.5367 161.71 81.936 160.891 82.2554 160.552C83.074 159.694 84.0722 159.035 85.3499 159.374C86.3282 159.634 87.3065 161.051 87.3663 162.189C86.0088 162.389 84.6312 162.708 83.2736 162.748ZM93.0962 160.233C92.2577 160.632 91.3593 160.871 90.5207 161.251C89.6623 161.63 89.0633 161.251 88.6241 160.612C88.125 159.873 88.5842 159.294 89.1632 158.815C89.4227 158.595 89.6822 158.396 89.9817 158.256C92.0381 157.298 94.2341 157.158 96.7098 156.819C95.7115 158.496 94.5536 159.534 93.0962 160.233ZM91.6986 155.481C91.8983 155.341 92.1978 155.162 92.4773 154.962C92.4373 154.862 92.3774 154.782 92.3375 154.682C90.7803 155.521 89.243 156.339 87.7257 157.158C88.8238 154.283 90.9999 151.728 94.3739 151.708C94.5935 151.708 94.893 151.668 95.0527 151.788C96.0909 152.646 97.0492 153.564 97.5083 154.922C95.4919 155.122 93.5753 155.301 91.6986 155.481ZM99.1255 159.075C98.8659 159.194 98.4866 159.055 98.1672 159.035C98.2271 158.715 98.2271 158.336 98.3868 158.056C99.3251 156.439 100.723 155.78 102.599 156.1C103.218 156.2 103.857 156.12 104.476 156.12C104.536 156.22 104.596 156.339 104.656 156.439C102.819 157.318 100.982 158.216 99.1255 159.075ZM122.903 145.619C120.088 147.795 117.193 149.851 114.318 151.927C112.302 153.385 109.986 154.103 107.511 154.183C105.514 154.243 103.518 154.183 101.541 154.044C100.783 153.984 100.044 153.604 99.3051 153.285C98.3868 152.886 98.0673 152.187 98.3868 151.109C98.7262 151.149 99.0656 151.149 99.4249 151.209C101.741 151.608 104.057 151.508 106.373 151.049C109.267 150.47 111.444 148.833 113.061 146.397C114.498 144.221 116.295 142.444 118.731 141.386C120.547 140.607 122.384 140.468 124.301 140.827C124.74 140.907 125.139 141.146 125.678 141.366C125.219 141.586 124.9 141.765 124.321 142.045C125.099 142.045 125.618 142.045 126.118 142.045C126.157 142.145 126.217 142.225 126.257 142.324C125.159 143.422 124.141 144.66 122.903 145.619Z" fill="url(#paint2_linear_119_3422)"/>
<path d="M75.8664 55.1791C76.4454 55.1591 76.7249 54.8995 77.1042 54.5801C78.4019 53.4621 79.7196 52.3441 81.1171 51.3259C81.6761 50.9066 82.4347 50.7469 83.1135 50.4674C83.1535 50.5473 83.1934 50.6271 83.2533 50.707C82.2151 52.0845 81.157 53.4821 80.1189 54.8596C80.2187 54.9594 80.3385 55.0393 80.4383 55.1391C81.3766 54.3405 82.315 53.542 83.3132 52.7234C83.4929 53.1227 83.6326 53.4621 83.9121 54.101C84.4711 53.4222 84.9902 52.943 85.3096 52.3441C85.8886 51.3059 86.3278 50.1879 86.8269 49.1098C87.2662 48.2114 87.7254 47.333 88.1646 46.4346C88.7236 45.2367 88.7635 44.1187 88.2844 43.4C88.2644 43.5198 88.2245 43.5996 88.2245 43.6994C88.0647 45.3964 87.4459 45.9554 85.689 45.9554C84.9303 45.9554 84.2515 46.1351 83.8323 46.8139C83.7524 46.9337 83.8722 47.1733 83.9521 47.6324C83.7524 47.7922 83.3731 48.1316 82.9339 48.431C80.4982 50.0881 78.0226 51.7252 75.6069 53.4222C74.948 53.9013 74.429 54.5801 73.8899 55.219C73.7701 55.3587 73.83 55.6782 73.8101 55.9377C74.5687 55.5783 75.2076 55.199 75.8664 55.1791Z" fill="url(#paint3_linear_119_3422)"/>
<path d="M91.316 42.3817C90.6572 41.2038 89.5591 40.2455 88.6208 39.1475C88.3014 39.946 88.9203 40.4651 89.2996 41.084C89.7588 41.8427 90.3777 42.6013 90.5174 43.4199C90.9966 46.0752 90.6971 48.6506 89.08 50.9465C88.6607 51.5654 88.3014 52.2242 87.8022 53.0228C89.1399 52.7832 90.0383 52.4439 90.5374 51.3059C90.8369 50.6071 91.3959 50.0082 91.8351 49.3693C91.9149 49.4292 91.9748 49.4691 92.0547 49.529C92.0148 49.8684 91.9748 50.2078 91.9349 50.5672C92.0148 50.5073 92.0946 50.4474 92.1745 50.4075C92.6137 50.9665 93.033 51.5255 93.572 52.2242C93.7517 49.8684 93.9114 47.7522 94.0911 45.4363C93.572 45.8156 93.2526 46.0352 92.7135 46.4146C92.2344 44.9971 91.9948 43.5596 91.316 42.3817Z" fill="url(#paint4_linear_119_3422)"/>
<path d="M30.8862 152.127C31.2456 152.446 31.5451 152.846 31.9444 153.105C35.3583 155.281 38.7123 157.577 42.2461 159.534C47.1374 162.249 52.3481 164.225 57.8184 165.483C58.2377 165.583 58.6769 165.583 59.1161 165.623C59.1361 165.503 59.156 165.403 59.176 165.284C48.8543 162.828 39.6107 158.116 31.1058 151.847C31.026 151.947 30.9661 152.027 30.8862 152.127Z" fill="url(#paint5_linear_119_3422)"/>
<path d="M122.002 151.528C114.176 157.418 105.831 161.97 96.3081 164.705C99.2629 165.942 121.404 154.563 122.002 151.528Z" fill="url(#paint6_linear_119_3422)"/>
<path d="M44.0229 133.3C37.0353 133.78 30.2274 135.017 23.7788 137.932C30.3671 135.656 37.175 134.398 44.0229 133.3Z" fill="url(#paint7_linear_119_3422)"/>
<path d="M110.204 133.52C116.572 134.558 122.861 135.896 129.03 137.832C123.001 135.337 116.732 133.859 110.204 133.52Z" fill="url(#paint8_linear_119_3422)"/>
<path d="M113.499 136.415C109.327 135.796 105.174 135.197 100.842 134.558C101.88 135.457 111.942 136.954 113.499 136.415Z" fill="url(#paint9_linear_119_3422)"/>
<path d="M50.9893 135.077C50.9693 134.958 50.9494 134.818 50.9294 134.698C46.8167 135.337 42.704 135.956 38.5913 136.595C38.6113 136.714 38.6312 136.814 38.6512 136.934C42.7839 136.475 46.9165 135.996 50.9893 135.077Z" fill="url(#paint10_linear_119_3422)"/>
<path d="M100.783 37.0115C101.481 38.5887 102.18 40.1858 102.879 41.763C102.959 41.7231 103.059 41.6632 103.139 41.6233C102.659 39.9263 102.32 38.1894 100.783 37.0115Z" fill="url(#paint11_linear_119_3422)"/>
<path d="M89.5816 12.3951C89.7213 12.3551 89.8411 12.3352 89.9809 12.2952C89.7014 10.9976 89.4019 9.69986 89.1224 8.40216C88.9826 8.44209 88.8429 8.46205 88.7031 8.50198C88.9826 9.79968 89.2821 11.0974 89.5816 12.3951Z" fill="url(#paint12_linear_119_3422)"/>
<path d="M55.6623 19.5222C55.4627 18.7835 55.283 18.0448 55.0834 17.2862C54.9436 17.3261 54.8238 17.3661 54.6841 17.4259C54.8837 18.1646 55.0634 18.8834 55.2631 19.622C55.4028 19.6021 55.5226 19.5622 55.6623 19.5222Z" fill="url(#paint13_linear_119_3422)"/>
<path d="M39.1312 148.893C38.1929 147.894 37.4143 146.756 36.4161 145.838C35.3579 144.88 34.1002 144.141 32.9422 143.303C32.9223 143.343 32.9023 143.382 32.8823 143.442C34.18 144.66 35.5176 145.818 36.7754 147.076C37.6738 147.974 38.3925 149.032 39.2909 149.891C40.2293 150.769 41.3074 151.508 42.3256 152.287C42.4054 152.187 42.4653 152.107 42.5452 152.007C42.1858 151.728 41.8264 151.448 41.487 151.129C40.6885 150.41 39.8699 149.691 39.1312 148.893Z" fill="url(#paint14_linear_119_3422)"/>
<path d="M112.42 150.949C112.88 150.689 113.339 150.39 113.678 150.011C114.497 149.132 115.195 148.134 116.054 147.335C117.651 145.858 119.328 144.48 120.786 143.243C117.052 144.48 114.776 147.755 112.42 150.949Z" fill="url(#paint15_linear_119_3422)"/>
<path d="M26.3332 85.6049C26.3332 85.7047 26.1336 86.084 25.7343 86.7828C25.3151 87.4816 25.0954 87.9407 25.0954 88.1604C25.0954 88.7593 25.4947 89.3383 26.3133 89.8773C27.012 90.3565 27.6908 90.596 28.3497 90.596C29.1482 90.596 29.6474 90.3565 29.8869 89.8773V89.8973C30.6656 88.38 31.3643 86.9825 31.9832 85.6448C32.6021 84.3272 33.1412 83.0894 33.5604 81.9713C34.4389 79.7154 35.1975 77.9585 35.7964 76.7406C36.3954 75.5028 36.8346 74.8839 37.0742 74.8839C37.3537 74.8839 38.3319 75.8822 39.989 77.8986C41.5462 79.7553 42.4646 80.9132 42.7441 81.3524C43.363 82.3706 43.922 83.269 44.4211 84.0477C44.9202 84.8263 45.3395 85.5051 45.7188 86.0441H45.6989C45.8386 86.3436 45.9983 86.663 46.1181 87.0423C46.2579 87.4017 46.3976 87.821 46.5174 88.2602C46.5773 88.4399 46.5773 88.7194 46.5174 89.0588C46.4775 89.2584 46.4575 89.4581 46.4376 89.6577C46.4176 89.8573 46.4176 90.0171 46.4176 90.0969C47.0764 90.4164 47.875 90.6959 48.8133 90.9155C49.9313 91.175 50.9096 91.2948 51.7282 91.2948C52.0875 91.2948 52.4668 91.2549 52.8262 91.155C53.1856 91.0552 53.5449 90.9354 53.9243 90.7957V89.9172C51.4087 86.8826 48.8932 83.848 46.3577 80.7934C43.8422 77.7389 41.3266 74.7043 38.7911 71.6696C38.891 71.5299 39.0307 71.2903 39.2303 70.9908C39.43 70.6914 39.7095 70.2721 40.0489 69.773C40.6478 68.8746 40.9673 68.2956 40.9673 68.0561C40.9673 67.4571 40.3883 66.6785 39.2503 65.7601C38.1123 64.8218 37.3137 64.3626 36.8745 64.3626C36.036 64.3626 34.6585 66.379 32.8018 70.4318C32.5023 71.0707 32.2228 71.7096 31.9433 72.3484C31.6638 72.9873 31.3843 73.6062 31.1247 74.2451C30.8253 74.8839 30.5458 75.5228 30.2663 76.1617C29.9868 76.8005 29.7073 77.4194 29.4078 78.0583C29.3479 78.198 29.288 78.3378 29.2481 78.4775C29.1882 78.5973 29.1283 78.7371 29.0884 78.8569C29.0484 78.9767 28.9885 79.1164 28.9286 79.2761C28.8488 79.4159 28.7889 79.5556 28.729 79.6954C28.5892 79.9749 28.4495 80.1945 28.3297 80.3941C28.2099 80.5738 28.0702 80.7136 27.9304 80.7735C27.571 80.474 27.012 79.9549 26.2534 79.1963C25.4748 78.4376 24.5364 77.4793 23.4384 76.3214C22.0608 74.9438 21.0027 73.8258 20.264 72.9474C19.5253 72.0889 19.166 71.5299 19.166 71.2903C19.166 71.2504 19.2458 71.1106 19.3856 70.8311C19.5253 70.5716 19.725 70.2122 19.9845 69.773C20.304 69.2939 20.5236 68.8946 20.6833 68.5951C20.823 68.2757 20.9029 68.076 20.9029 67.9962C20.9029 67.4771 20.3838 66.958 19.3656 66.4589C18.4672 66.0396 17.7285 65.82 17.1496 65.82C15.1731 65.82 12.0386 70.1923 7.76621 78.9168V78.8968C6.82788 80.7535 6.00933 82.3507 5.29061 83.7083C4.57188 85.0659 4.01288 86.1439 3.57365 86.9425C3.4339 87.1821 3.25422 87.3019 3.07454 87.3019C3.01465 87.3019 2.91482 87.3019 2.77507 87.3019C2.63532 87.3019 2.45564 87.3019 2.25599 87.3218C2.07631 87.3418 1.9166 87.3418 1.77685 87.3418C1.63709 87.3418 1.51731 87.3418 1.43745 87.3418H1.31766L1.2378 87.3218C1.19787 87.3218 1.07809 87.3618 0.858476 87.4416C0.638866 87.5215 0.359362 87.6213 0 87.7411C0.519078 88.1005 1.03816 88.4598 1.59716 88.8392C2.15617 89.2185 2.57543 89.518 2.89486 89.7376L4.25245 90.7757C4.65174 91.0353 5.17082 91.155 5.78972 91.155C6.84784 91.155 7.5466 90.9754 7.886 90.636C8.5049 90.0171 9.1238 89.2584 9.7427 88.38C10.3416 87.5015 10.9605 86.4833 11.5994 85.3254C12.0786 84.427 12.5377 83.5286 12.9969 82.6302C13.4561 81.7318 13.8953 80.8334 14.3545 79.935C14.5741 79.5157 14.7937 79.0765 14.9934 78.6373C15.213 78.198 15.4126 77.7588 15.6123 77.3196V77.3396C16.3909 75.8223 16.9299 75.0436 17.2494 75.0436C17.5089 75.0436 19.0661 76.6009 21.9011 79.7353C24.8559 82.9496 26.3332 84.9061 26.3332 85.6049Z" fill="url(#paint16_linear_119_3422)"/>
<path d="M62.8289 83.9679C62.8289 83.5087 62.8289 83.0895 62.8488 82.7301C62.8488 82.3708 62.8688 82.1711 62.8688 82.1312V81.6121C62.8688 81.4923 62.8688 81.3126 62.8688 81.093C62.8688 80.8734 62.8688 80.6338 62.8887 80.3543V74.5247C62.8887 74.1454 62.5893 73.8459 61.9704 73.6662C61.5312 73.5065 61.1518 73.4266 60.8723 73.4266C60.6727 73.4266 60.2534 73.4466 59.6545 73.4865C59.0356 73.5265 58.217 73.6063 57.2188 73.6862C56.4003 73.786 56.001 74.0056 56.001 74.3849C56.001 74.7243 56.4003 74.924 57.1789 74.9839C57.5981 75.0238 57.9375 75.0637 58.1771 75.1037C58.4167 75.1436 58.5964 75.1835 58.6962 75.2234L58.6762 75.2035C58.9757 75.3233 59.1154 75.8224 59.1154 76.6609C59.1154 76.9005 59.1154 77.14 59.1354 77.3796C59.1354 77.6192 59.1753 77.8388 59.1953 78.0185L59.1354 79.975V81.3326C59.1354 81.3925 59.1354 81.4723 59.1154 81.5722C59.1154 81.692 59.0955 81.8117 59.0755 81.9914C59.0755 82.0314 59.0755 82.0713 59.0556 82.1511C59.0556 82.211 59.0356 82.2709 59.0356 82.3109C59.0156 82.4307 59.0156 82.5504 59.0156 82.6702C59.0156 82.79 59.0156 82.8898 59.0156 82.9697C58.9757 83.1893 58.9757 83.4488 59.0156 83.7683C59.0356 83.908 59.0356 84.0278 59.0356 84.1077C59.0356 84.1875 59.0356 84.2275 59.0356 84.2474V85.3255C59.0356 85.3854 59.0156 85.4852 58.9757 85.625V86.1441V89.4781C58.9757 89.5979 58.9957 89.7377 59.0156 89.8974C59.0356 90.0771 59.0755 90.2568 59.1354 90.4564C59.2352 90.656 59.375 90.8158 59.5946 90.9356C59.8142 91.0553 60.0937 91.1152 60.4331 91.1152C60.493 91.1152 60.7725 91.0953 61.2517 91.0354C61.7707 90.9755 62.0303 90.9555 62.0502 90.9555C62.4296 90.9156 62.7889 90.8956 63.0884 90.8757C63.3879 90.8557 63.6474 90.8357 63.847 90.7958C64.5458 90.676 64.8852 90.4165 64.8852 89.9972C64.8852 89.8575 64.8453 89.7377 64.7854 89.6578C64.7255 89.578 64.6257 89.538 64.4859 89.4981C64.1465 89.4781 63.867 89.4582 63.6274 89.4182C63.5675 89.4182 63.5077 89.4182 63.4278 89.3983C63.3479 89.3983 63.288 89.3783 63.2281 89.3783C63.1683 89.3384 63.1084 89.1986 63.0285 88.9391L63.0485 88.9591C63.0085 88.7794 62.9886 88.6197 62.9486 88.5198C62.9287 88.4001 62.9087 88.3202 62.9087 88.2403V87.1423C62.9087 87.0225 62.8887 86.9227 62.8688 86.8428C62.8488 86.743 62.8089 86.6631 62.769 86.5633V86.5833C62.769 86.5034 62.769 86.4635 62.749 86.4435C62.749 86.164 62.749 85.8047 62.749 85.3255C62.8289 84.9063 62.8289 84.4471 62.8289 83.9679Z" fill="url(#paint17_linear_119_3422)"/>
<path d="M72.9494 76.1819C72.7298 76.3017 72.5102 76.4215 72.3105 76.5613C72.0909 76.701 71.8913 76.8607 71.6717 77.0204C71.1925 77.4197 70.7733 77.7791 70.4139 78.1185C70.0545 78.4379 69.7551 78.7574 69.5155 79.0369C69.0164 79.6558 68.637 80.2148 68.3575 80.674C68.078 81.1331 67.8984 81.5324 67.7985 81.8119C67.6787 82.1114 67.559 82.311 67.4392 82.4109C67.2595 83.0897 67.1597 83.8084 67.1597 84.587C67.1597 85.3457 67.2395 85.9845 67.3992 86.4836C67.519 86.843 67.6987 87.2423 67.9782 87.6615C68.2577 88.0808 68.5971 88.4801 69.0164 88.8794C69.4556 89.2787 69.8948 89.6181 70.3141 89.8776C70.7333 90.1372 71.1326 90.3168 71.5319 90.4167L71.5119 90.3967C71.7116 90.4965 71.8913 90.5764 72.031 90.6363C72.1708 90.7161 72.2906 90.7561 72.3704 90.796C73.3886 90.9557 74.1073 91.0356 74.5865 91.0356C75.8642 91.0356 77.0421 90.776 78.0803 90.2569C78.1601 90.237 78.22 90.217 78.2799 90.197C78.3398 90.1771 78.3997 90.1571 78.4596 90.1372C78.5395 90.0972 78.5994 90.0773 78.6792 90.0573C78.7591 90.0373 78.799 90.0174 78.8389 89.9974C79.5976 89.638 80.2564 89.2587 80.8154 88.8994C81.3944 88.54 81.8735 88.2006 82.2728 87.8612C84.3292 86.1243 85.3673 84.3075 85.3673 82.4508C85.3673 82.0315 85.3474 81.6323 85.3074 81.2929C85.2675 80.9535 85.1877 80.674 85.1078 80.4743C84.8682 79.8953 84.5488 79.2964 84.1295 78.6775C83.7103 78.0786 83.2311 77.4796 82.6721 76.8807C82.3128 76.5413 81.9734 76.1819 81.614 75.8625C81.2546 75.5231 80.9152 75.1837 80.5759 74.8443C80.2165 74.4849 79.8372 74.1256 79.4778 73.7662C79.1184 73.4268 78.7391 73.0675 78.3798 72.6881C78.0404 72.3487 77.7609 72.0692 77.5013 71.8496C77.2617 71.61 77.0421 71.4304 76.8624 71.2507L76.7227 71.1109C76.523 70.9113 76.2635 70.6118 75.9241 70.2325C75.5847 69.8532 75.2254 69.374 74.7861 68.835C73.708 67.3576 73.149 66.4592 73.149 66.0998C73.149 65.9601 73.149 65.8603 73.169 65.8603C73.2289 65.7205 73.4086 65.5608 73.748 65.4011C74.1073 65.2014 74.307 64.9818 74.307 64.7422C74.307 64.6823 74.287 64.6225 74.2671 64.5626C74.2471 64.5027 74.2072 64.4228 74.1672 64.3629C74.0275 64.303 73.9077 64.2631 73.8478 64.2431C73.7879 64.2232 73.728 64.2032 73.6681 64.1832C73.6282 64.1633 73.5683 64.1633 73.5084 64.1633C73.4285 64.1633 73.3886 64.1633 73.3487 64.1633C73.1291 64.1633 72.8096 64.2431 72.3704 64.4228C71.9312 64.6025 71.4521 64.8421 70.913 65.1815C69.5754 65.98 68.8966 66.6988 68.8966 67.3975C68.8966 67.7769 70.0346 69.4938 72.3105 72.5085C72.4503 72.6482 72.59 72.788 72.7098 72.9077C72.8296 73.0275 72.9294 73.1473 73.0292 73.2471C73.169 73.3869 73.3088 73.5266 73.4086 73.6464C73.5284 73.7662 73.6282 73.866 73.708 73.9659L74.1473 74.4051C74.1872 74.445 74.2271 74.465 74.2671 74.5049C74.307 74.5448 74.3469 74.5648 74.3868 74.6047C74.6064 74.8243 74.7262 74.9641 74.7262 74.9841C74.7462 75.2436 74.1473 75.6229 72.9494 76.1819ZM76.4831 77.2201C76.8026 77.2201 77.0022 77.26 77.0821 77.3598C77.5812 77.7791 78.1002 78.2383 78.6393 78.7374C79.1783 79.2365 79.6974 79.7356 80.1766 80.2547C80.3562 80.4543 80.5559 80.6939 80.7356 80.9535C80.9352 81.213 81.1349 81.5125 81.3345 81.8319C81.7937 82.6504 82.0333 83.2294 82.0333 83.6287C82.0333 84.8665 81.1548 85.9246 79.378 86.8031C78.6393 87.1624 77.9605 87.4419 77.3416 87.6216C76.7227 87.8013 76.1038 87.9011 75.5248 87.9011C75.5647 87.9011 75.5248 87.8812 75.405 87.8612C75.2852 87.8412 75.1854 87.8013 75.0856 87.7614V87.7813C75.0057 87.7614 74.9458 87.7414 74.9059 87.7214C74.866 87.7015 74.8261 87.7015 74.8061 87.7015H74.8261C74.4268 87.6216 74.1073 87.5617 73.8678 87.5218C73.6282 87.4819 73.4485 87.422 73.3487 87.3421C72.5501 86.9428 71.9112 86.3239 71.4121 85.4854C70.933 84.587 70.6934 83.7685 70.6934 83.0298C70.6934 82.9898 70.7333 82.8501 70.8331 82.6105C70.933 82.3709 71.0328 82.0715 71.1326 81.7321C71.3522 81.193 71.6517 80.674 72.051 80.1549C72.4503 79.6358 72.9294 79.1367 73.4685 78.6575C74.6264 77.7192 75.6246 77.2201 76.4831 77.2201Z" fill="url(#paint18_linear_119_3422)"/>
<path d="M95.9501 65.4409C96.3094 65.2412 96.5091 65.0216 96.5091 64.782C96.5091 64.7221 96.4891 64.6622 96.4691 64.6024C96.4492 64.5425 96.4093 64.4626 96.3693 64.4027C96.2296 64.3428 96.1098 64.3029 96.0499 64.2829C95.99 64.263 95.9301 64.243 95.8702 64.223C95.8303 64.2031 95.7704 64.2031 95.7105 64.2031C95.6306 64.2031 95.5907 64.2031 95.5508 64.2031C95.3312 64.2031 95.0117 64.2829 94.5725 64.4626C94.1333 64.6423 93.6541 64.8819 93.1151 65.2213C91.7775 66.0198 91.0987 66.7386 91.0987 67.4373C91.0987 67.8167 92.2367 69.5336 94.5126 72.5483C94.6524 72.688 94.7921 72.8278 94.9119 72.9475C95.0317 73.0673 95.1315 73.1871 95.2313 73.2869C95.3711 73.4267 95.5108 73.5664 95.6107 73.6862C95.7305 73.806 95.8303 73.9058 95.9101 74.0057L96.3494 74.4449C96.3893 74.4848 96.4292 74.5048 96.4691 74.5447C96.5091 74.5846 96.549 74.6046 96.5889 74.6445C96.8085 74.8641 96.9283 75.0039 96.9283 75.0239C96.9283 75.2435 96.3294 75.6228 95.1315 76.1818C94.9119 76.3016 94.6923 76.4214 94.4926 76.5611C94.273 76.7009 94.0734 76.8606 93.8538 77.0203C93.3746 77.4196 92.9554 77.779 92.596 78.1184C92.2367 78.4378 91.9372 78.7572 91.6976 79.0367C91.1985 79.6556 90.8192 80.2146 90.5397 80.6738C90.2602 81.133 90.0805 81.5323 89.9807 81.8118C89.8609 82.1113 89.7411 82.3109 89.6213 82.4107C89.4416 83.0895 89.3418 83.8083 89.3418 84.5869C89.3418 85.3455 89.4217 85.9844 89.5814 86.4835C89.7012 86.8429 89.8808 87.2422 90.1603 87.6614C90.4398 88.0807 90.7792 88.48 91.1985 88.8793C91.6377 89.2785 92.0769 89.6179 92.4962 89.8775C92.9155 90.137 93.3147 90.3167 93.714 90.4165L93.6941 90.3966C93.8937 90.4964 94.0734 90.5762 94.2131 90.6361C94.3529 90.716 94.4727 90.7559 94.5525 90.7959C95.5707 90.9556 96.2895 91.0354 96.7686 91.0354C98.0463 91.0354 99.2243 90.7759 100.262 90.2568C100.342 90.2368 100.402 90.2169 100.462 90.1969C100.522 90.177 100.582 90.157 100.642 90.137C100.722 90.0971 100.781 90.0771 100.861 90.0572C100.941 90.0372 100.981 90.0172 101.021 89.9973C101.78 89.6379 102.439 89.2586 102.998 88.8992C103.577 88.5399 104.056 88.2005 104.455 87.8611C106.511 86.1241 107.549 84.3074 107.549 82.4507C107.549 82.0314 107.53 81.6321 107.49 81.2927C107.45 80.9533 107.37 80.6738 107.29 80.4742C107.05 79.8952 106.731 79.2963 106.312 78.6774C105.892 78.0784 105.413 77.4795 104.854 76.8806C104.495 76.5412 104.156 76.1818 103.796 75.8624C103.437 75.523 103.097 75.1836 102.758 74.8442C102.399 74.4848 102.019 74.1255 101.66 73.7661C101.301 73.4267 100.921 73.0673 100.562 72.688C100.222 72.3486 99.943 72.0691 99.6834 71.8495C99.4439 71.6099 99.2243 71.4302 99.0446 71.2506L98.9048 71.1108C98.7052 70.9112 98.4456 70.6117 98.1062 70.2324C97.7668 69.853 97.4075 69.3739 96.9683 68.8348C95.8902 67.3575 95.3312 66.4591 95.3312 66.0997C95.3312 65.9599 95.3312 65.8601 95.3511 65.8601C95.431 65.7803 95.6306 65.6205 95.9501 65.4409ZM98.6652 77.22C98.9847 77.22 99.1843 77.2599 99.2642 77.3597C99.7633 77.779 100.282 78.2381 100.821 78.7373C101.36 79.2364 101.88 79.7355 102.359 80.2546C102.538 80.4542 102.738 80.6938 102.918 80.9533C103.117 81.2129 103.317 81.5123 103.517 81.8318C103.976 82.6503 104.215 83.2293 104.215 83.6286C104.215 84.8664 103.337 85.9245 101.56 86.8029C100.821 87.1623 100.143 87.4418 99.5237 87.6215C98.9048 87.8012 98.2859 87.901 97.7069 87.901C97.7469 87.901 97.7069 87.881 97.5872 87.8611C97.4674 87.8411 97.3676 87.8012 97.2677 87.7612V87.7812C97.1879 87.7612 97.128 87.7413 97.088 87.7213C97.0481 87.7013 97.0082 87.7013 96.9882 87.7013H97.0082C96.6089 87.6215 96.2895 87.5616 96.0499 87.5217C95.8103 87.4817 95.6306 87.4218 95.5308 87.342C94.7322 86.9427 94.0934 86.3238 93.5942 85.4853C93.1151 84.5869 92.8755 83.7683 92.8755 83.0296C92.8755 82.9897 92.9155 82.85 93.0153 82.6104C93.1151 82.3708 93.2149 82.0713 93.3147 81.7319C93.5344 81.1929 93.8338 80.6738 94.2331 80.1547C94.6324 79.6357 95.1116 79.1366 95.6506 78.6574C96.7886 77.7191 97.8068 77.22 98.6652 77.22Z" fill="url(#paint19_linear_119_3422)"/>
<path d="M129.609 88.4198C129.549 88.4198 129.469 88.4198 129.369 88.4398C129.25 88.4398 129.15 88.4797 129.03 88.4997C128.95 88.5197 128.87 88.5396 128.79 88.5596C128.711 88.5796 128.611 88.5995 128.531 88.6195C127.912 88.7992 127.493 88.899 127.313 88.899C127.034 88.9389 126.714 88.9589 126.355 88.9789C125.995 88.9988 125.596 88.9988 125.177 88.9988C124.498 88.9988 123.819 88.9789 123.16 88.9389C122.502 88.899 121.843 88.8391 121.204 88.7792C121.064 88.7592 120.904 88.7592 120.785 88.7592C120.645 88.7592 120.525 88.7592 120.405 88.7592C120.086 88.7193 119.886 88.6594 119.766 88.5596C119.647 88.4598 119.587 88.3799 119.587 88.32L119.447 70.851C119.307 69.8528 118.848 69.3537 118.069 69.3537H111.541V70.1523C112 70.5316 112.599 70.7313 113.338 70.7512C114.017 70.7911 114.476 70.871 114.695 70.9908C114.915 71.1106 115.055 71.2903 115.115 71.5498C115.115 71.6896 115.115 71.8493 115.135 72.0289C115.135 72.2086 115.155 72.4083 115.155 72.6479C115.155 72.8675 115.155 73.107 115.135 73.3865C115.135 73.666 115.115 73.9655 115.115 74.265C115.095 74.804 115.135 75.2033 115.234 75.5028C115.334 75.8022 115.414 75.9819 115.514 76.0818H115.075V78.4775C115.075 78.4975 115.075 78.5374 115.095 78.5973C115.095 78.6572 115.115 78.7171 115.115 78.757C115.135 78.8568 115.135 78.9367 115.135 79.0365C115.135 79.1363 115.135 79.2162 115.135 79.2761C115.115 79.3759 115.095 79.5157 115.055 79.6953C115.015 79.895 114.995 80.0148 114.995 80.0946V88.5596C114.995 89.0188 115.075 89.438 115.214 89.7974H115.195C115.434 90.5161 115.853 90.8755 116.432 90.8755H125.596C125.796 90.8755 126.095 90.8356 126.514 90.7557C126.914 90.6758 127.413 90.576 128.012 90.4163C128.81 90.2366 129.409 90.017 129.829 89.7974C130.248 89.5578 130.467 89.3382 130.467 89.0986V88.6395C130.288 88.5197 130.128 88.4598 130.008 88.4198C129.809 88.4398 129.709 88.4198 129.609 88.4198Z" fill="url(#paint20_linear_119_3422)"/>
<path d="M143.185 76.8604C143.265 76.9602 143.344 77.1199 143.424 77.3195C143.544 77.7188 143.824 77.9185 144.223 77.9185C144.602 77.9185 144.981 77.7388 145.361 77.3595C145.78 76.9801 146 76.5808 146 76.1816C146 75.2432 145.221 74.5445 143.684 74.1052C143.145 73.9655 142.626 73.8457 142.087 73.7658C141.548 73.686 141.009 73.6461 140.43 73.6461C139.411 73.6461 138.433 73.7658 137.455 74.0254C137.036 74.1452 136.636 74.2849 136.277 74.4047C135.918 74.5245 135.678 74.6044 135.578 74.6643C135.159 74.8639 134.74 75.1035 134.3 75.363C133.881 75.6225 133.502 75.902 133.162 76.1816C132.064 77.1598 131.266 78.3976 130.787 79.875H130.807C130.607 80.414 130.467 80.9132 130.387 81.3723C130.308 81.8315 130.268 82.2508 130.268 82.6501C130.268 84.1075 130.567 85.4451 131.186 86.6829C131.525 87.4216 132.024 88.0804 132.643 88.6594C133.262 89.2384 133.921 89.6976 134.62 90.0569C135.199 90.3165 135.678 90.5161 136.017 90.6758C136.357 90.8355 136.576 90.9354 136.656 90.9753C137.335 91.155 138.194 91.2548 139.212 91.2548C139.791 91.2548 140.33 91.1949 140.789 91.0551C141.428 90.8355 142.007 90.6359 142.506 90.4562C143.005 90.2765 143.424 90.0968 143.784 89.8972C143.923 89.7974 144.083 89.7175 144.243 89.6177C144.402 89.5179 144.582 89.4181 144.742 89.2783C145.001 89.0587 145.181 88.859 145.281 88.6993C145.381 88.5396 145.441 88.3799 145.441 88.2401C145.441 87.8009 145.241 87.5813 144.842 87.5813C144.622 87.5813 144.243 87.7011 143.684 87.9207C143.584 87.9606 143.464 88.0205 143.324 88.0804C143.045 88.2202 142.825 88.32 142.666 88.32C141.128 88.6993 140.21 88.899 139.91 88.899C138.872 88.899 137.814 88.5396 136.716 87.8209H136.736C135.498 86.9824 134.839 86.0041 134.72 84.9061C134.7 84.8262 134.68 84.7463 134.68 84.6665C134.68 84.5667 134.66 84.4868 134.64 84.4269C134.6 84.2872 134.58 84.1474 134.58 84.0476C134.58 83.9278 134.56 83.828 134.54 83.7082C134.54 83.6882 134.54 83.6683 134.54 83.6483C134.54 83.6283 134.54 83.5684 134.56 83.4686C134.56 83.4287 134.56 83.3688 134.58 83.2889C134.58 83.2091 134.6 83.1292 134.6 83.0893C134.7 83.0494 134.959 83.0294 135.398 83.0094H135.418C135.758 82.9895 136.037 82.9695 136.297 82.9695C136.536 82.9695 136.716 82.9296 136.836 82.9096L140.949 82.8497C141.148 82.8497 141.468 82.9695 141.887 83.2091C142.346 83.4886 142.646 83.6283 142.805 83.6283C143.025 83.6283 143.205 83.5884 143.364 83.5085C143.444 83.4686 143.564 83.4087 143.764 83.3089C143.963 83.2091 144.163 83.0893 144.363 82.9296C144.942 82.5303 145.221 82.151 145.221 81.8315C145.221 81.1727 144.622 80.8333 143.424 80.8333H139.292C139.272 80.8333 139.252 80.8333 139.212 80.8133C139.172 80.8133 139.132 80.7934 139.092 80.7934C139.032 80.7934 138.972 80.7934 138.912 80.7934C138.852 80.7934 138.772 80.7934 138.673 80.7734H138.693C138.533 80.7534 138.393 80.7335 138.273 80.7335C138.154 80.7335 138.094 80.7135 138.054 80.7135H135.179C134.839 80.7135 134.7 80.5338 134.74 80.1545C134.74 80.0547 134.859 79.7552 135.119 79.2361C135.379 78.7171 135.698 78.2379 136.117 77.7987C136.516 77.3595 136.936 76.9801 137.395 76.6607C138.233 76.1017 139.132 75.8422 140.05 75.8422C140.45 75.8422 140.969 75.922 141.627 76.0817C142.346 76.3013 142.805 76.481 143.005 76.6008H142.985C143.005 76.6607 143.105 76.7605 143.185 76.8604Z" fill="url(#paint21_linear_119_3422)"/>
<path d="M27.0906 117.369C28.9074 118.207 29.9456 118.666 30.1851 118.746C30.7242 118.866 31.3032 118.966 31.942 119.006C32.5809 119.046 33.2397 119.066 33.9385 119.066C34.7171 119.066 35.4758 118.986 36.2344 118.806C36.9931 118.626 37.7517 118.387 38.5303 118.067C38.6501 118.007 38.9296 117.888 39.3089 117.728C39.7082 117.548 40.1874 117.349 40.7264 117.109C40.946 117.009 41.1856 116.889 41.4252 116.73C41.6648 116.57 41.9243 116.39 42.1639 116.171C42.8227 115.612 43.1621 115.133 43.1621 114.733C43.1621 114.174 42.9026 113.915 42.3835 113.915C42.1838 113.915 41.9443 113.955 41.6847 114.034C41.4252 114.114 41.0858 114.234 40.7065 114.374C40.3271 114.554 40.0077 114.693 39.7482 114.793C39.4886 114.893 39.289 114.973 39.1492 114.993L37.053 115.552H37.0729C36.2144 115.771 35.4957 115.891 34.9567 115.891C33.3994 115.891 31.8023 115.332 30.1652 114.214C28.3085 113.036 27.2703 111.539 27.0707 109.682C27.0507 109.602 27.0507 109.542 27.0507 109.503C27.0507 109.463 27.0507 109.423 27.0307 109.383C26.9908 109.063 26.9509 108.784 26.911 108.504C26.871 108.245 26.8311 108.025 26.7912 107.885C26.7912 107.726 26.8111 107.426 26.871 106.967C26.891 106.847 27.3302 106.747 28.1887 106.688C28.6678 106.648 29.0871 106.628 29.4465 106.608C29.8058 106.588 30.0654 106.568 30.2051 106.548H30.3449C30.804 106.548 31.3032 106.548 31.8222 106.528C32.3413 106.528 32.8804 106.508 33.4194 106.508C33.9584 106.508 34.4975 106.488 35.0166 106.488C35.5356 106.488 36.0348 106.468 36.5139 106.468C36.6936 106.488 36.9132 106.548 37.1727 106.628C37.4323 106.727 37.6918 106.847 37.9713 107.007C38.5902 107.366 39.0294 107.566 39.269 107.566C39.5885 107.566 39.848 107.526 40.0476 107.426H40.0277C40.2273 107.366 40.4469 107.266 40.6665 107.127C40.9061 106.987 41.1856 106.807 41.505 106.588C42.3236 106.049 42.7229 105.55 42.7229 105.07C42.7229 104.531 42.3635 104.152 41.6248 103.912C41.1457 103.753 40.6665 103.673 40.1874 103.673H33.9784C33.8786 103.673 33.5791 103.653 33.06 103.593C32.8604 103.573 32.6608 103.553 32.4611 103.533C32.2615 103.513 32.1616 103.513 32.1217 103.513H27.8493C27.5498 103.513 27.3502 103.493 27.2504 103.453H27.2703C27.0906 103.333 27.0108 103.054 27.0507 102.575C27.0507 102.415 27.2504 101.936 27.6496 101.137C28.4482 99.5202 29.5862 98.2225 31.0636 97.2243H31.0436C32.4012 96.3658 33.7588 95.9266 35.1164 95.9266C35.7752 95.9266 36.5938 96.0664 37.572 96.3459C38.0512 96.4856 38.4505 96.6254 38.7899 96.7452C39.1293 96.8649 39.3888 97.0047 39.5685 97.1445C39.9079 97.384 40.1674 97.7634 40.387 98.3024C40.6066 98.8614 40.966 99.1209 41.4252 99.1209C41.9043 99.1209 42.4633 98.8614 43.0822 98.3224V98.3423C43.6812 97.7833 44.0006 97.2243 44.0006 96.6653C44.0006 95.2478 42.7029 94.2097 40.1075 93.5508C38.5902 93.1715 37.1128 92.9719 35.7153 92.9719C34.238 92.9719 32.7805 93.1915 31.3032 93.6107C30.5645 93.8104 29.9655 93.9901 29.5064 94.1498C29.0472 94.3095 28.7078 94.4293 28.5081 94.5291C27.2304 95.1081 26.0525 95.8667 24.9744 96.825C24.1559 97.5437 23.4371 98.3623 22.8582 99.2607C22.2792 100.179 21.8 101.177 21.4207 102.275C21.0613 103.393 20.8218 104.232 20.7219 104.791C20.6621 105.11 20.6421 105.629 20.6421 106.388C20.6421 108.544 21.1013 110.541 22.0196 112.377C22.5787 113.515 23.2774 114.494 24.1159 115.312C25.0143 116.151 25.9726 116.83 27.0906 117.369Z" fill="url(#paint22_linear_119_3422)"/>
<path d="M64.846 118.626C64.9059 118.586 64.9858 118.527 65.0856 118.467C65.1854 118.387 65.2653 118.347 65.2853 118.307V117.648C65.1455 117.568 65.0656 117.548 65.0856 117.568C64.9059 117.448 64.7462 117.369 64.6264 117.269C64.5066 117.189 64.4268 117.129 64.3669 117.109C63.9676 116.969 63.5284 116.61 63.0692 116.071C62.61 115.512 62.1508 114.793 61.7116 113.855C61.5718 113.535 61.4321 113.236 61.2923 112.936C61.1726 112.637 61.0328 112.357 60.913 112.118C60.5936 111.419 60.3141 110.8 60.0346 110.241C59.775 109.682 59.5355 109.203 59.3558 108.804C59.0363 108.265 58.7768 107.786 58.5372 107.366C58.2977 106.947 58.118 106.608 57.9383 106.348C57.1198 104.831 56.2413 103.633 55.3629 102.715C54.4645 101.796 53.606 101.357 52.7874 101.357H52.2284C52.1086 101.337 51.9889 101.337 51.8691 101.337C51.7493 101.337 51.6894 101.337 51.6495 101.337H51.0106C50.8509 101.357 50.7111 101.357 50.6113 101.357C50.5115 101.357 50.4316 101.357 50.4117 101.357L48.8744 101.437C48.555 101.477 48.2954 101.577 48.0558 101.736V102.315C48.3952 102.595 48.8145 102.755 49.3535 102.814C49.8726 102.874 50.192 102.934 50.3518 102.974C50.4915 103.034 50.6113 103.094 50.7111 103.194C52.1286 104.771 52.8274 105.909 52.8274 106.608C52.8274 106.747 52.8074 106.847 52.7475 106.907C52.1087 107.586 51.6095 108.125 51.2701 108.524C50.9307 108.924 50.7111 109.163 50.6313 109.283C50.3118 109.642 50.0323 109.982 49.7728 110.261C49.5133 110.541 49.2936 110.8 49.074 111.02C46.6583 113.975 45.4604 115.612 45.4604 115.911C45.4604 116.39 45.74 116.869 46.279 117.369C46.838 117.868 47.3172 118.167 47.7364 118.287C48.1157 118.407 48.5749 118.507 49.094 118.566C49.6131 118.626 50.1521 118.646 50.7511 118.646C51.6694 118.646 52.3482 118.586 52.7675 118.487C53.4263 118.327 54.2249 117.928 55.1433 117.309H55.1233C56.4609 116.45 57.2994 116.011 57.6388 116.011C57.7187 116.011 57.7786 116.071 57.8385 116.171C57.8984 116.271 57.9782 116.39 58.0381 116.51V116.45L58.1779 116.73C58.3576 116.989 58.4973 117.189 58.5971 117.329C58.697 117.468 58.7768 117.588 58.8567 117.668C59.3957 118.247 59.8349 118.586 60.2143 118.626C60.334 118.646 60.5936 118.646 60.9929 118.646C61.3722 118.646 61.8913 118.646 62.5102 118.646C63.169 118.646 63.6881 118.646 64.0874 118.646C64.4867 118.666 64.7462 118.646 64.846 118.626ZM56.5607 114.234C56.421 114.334 56.2613 114.454 56.0816 114.574C56.0417 114.613 56.0017 114.633 55.9618 114.673C55.9219 114.693 55.882 114.733 55.842 114.773L55.6224 114.933L55.6424 114.913C55.283 115.113 54.9835 115.272 54.744 115.372C54.5044 115.492 54.3447 115.552 54.2648 115.592C53.7857 115.751 53.3464 115.891 52.9671 115.971C52.5878 116.071 52.2284 116.111 51.889 116.111C51.5496 116.111 51.1304 115.971 50.5913 115.672C50.0723 115.352 49.8127 115.033 49.8127 114.713C49.8127 114.414 50.0523 113.935 50.5314 113.256C50.6512 113.136 50.7511 112.996 50.8309 112.877C50.9307 112.757 51.0106 112.617 51.1104 112.497L51.35 112.198C51.3899 112.158 51.4498 112.078 51.5496 111.938C51.6495 111.798 51.7493 111.659 51.8691 111.519C52.3482 110.94 52.7874 110.441 53.1867 110.002C53.586 109.562 53.9055 109.243 54.145 109.043C54.3048 109.143 54.5643 109.523 54.8837 110.201C55.4627 111.359 55.9219 112.258 56.2413 112.897C56.5607 113.535 56.7005 113.915 56.7005 114.034C56.7604 114.054 56.7005 114.134 56.5607 114.234Z" fill="url(#paint23_linear_119_3422)"/>
<path d="M84.051 117.668C84.4104 117.508 84.63 117.369 84.6899 117.249L84.63 116.949C84.3505 116.65 83.9512 116.51 83.4521 116.51C83.0528 116.49 82.7733 116.45 82.6535 116.37L82.6734 116.39C82.3141 116.131 81.8549 115.792 81.3558 115.352C80.8367 114.913 80.2577 114.374 79.5989 113.755C78.1415 112.437 77.4228 111.679 77.4228 111.519C77.5026 111.459 77.6024 111.399 77.7222 111.3C77.842 111.2 77.9618 111.1 78.1215 111C78.2812 110.88 78.4609 110.76 78.6805 110.581C79.2595 110.142 79.7786 109.742 80.2178 109.363C80.657 109.004 81.0363 108.664 81.3158 108.345H81.2959C82.2741 107.267 82.7533 106.189 82.7533 105.11C82.7533 104.192 82.4938 103.374 81.9747 102.635C81.6552 102.236 81.2959 101.916 80.8966 101.677C80.4973 101.437 80.0381 101.337 79.539 101.337C78.8203 101.337 78.1016 101.437 77.4028 101.637C76.704 101.836 76.0053 102.136 75.3265 102.555C74.3682 103.134 73.4498 103.873 72.5913 104.791C72.1122 105.29 71.8127 105.65 71.7129 105.889C71.6929 105.869 71.673 105.849 71.653 105.829C71.633 105.809 71.5931 105.769 71.5931 105.729C71.633 105.45 71.5931 105.031 71.4733 104.452V104.472C71.4334 104.292 71.4134 104.112 71.4134 103.953C71.4134 103.793 71.3935 103.673 71.3735 103.593C71.3735 103.573 71.3735 103.553 71.3535 103.533C71.3535 103.513 71.3336 103.493 71.3336 103.473L71.3136 103.453L71.3336 103.294C71.3336 103.174 71.3336 103.094 71.3336 103.054C71.3336 102.994 71.3136 102.874 71.2737 102.675C71.2337 102.635 71.1739 102.555 71.114 102.455C71.0341 102.335 70.9942 102.276 70.9542 102.236C70.8744 102.116 70.8145 102.036 70.7546 101.936C70.6947 101.856 70.6348 101.776 70.5749 101.677C70.3952 101.537 70.0159 101.457 69.4769 101.457C69.377 101.457 69.3371 101.457 69.3172 101.437C69.2373 101.417 69.1774 101.397 69.1375 101.377C69.0975 101.357 69.0576 101.357 69.0177 101.357H68.9378L68.3788 101.297C68.0394 101.237 67.8198 101.217 67.72 101.217C66.7018 101.217 66.0829 101.497 65.8633 102.076C66.043 102.335 66.4822 102.555 67.161 102.735C67.5203 102.874 67.74 103.154 67.7998 103.553C67.7998 104.292 67.7998 105.13 67.7799 106.049C67.7799 106.987 67.7599 107.925 67.7599 108.884C67.7599 109.842 67.7599 110.8 67.7399 111.719C67.7399 112.657 67.72 113.476 67.72 114.214C67.6801 114.294 67.6601 114.394 67.6601 114.554C67.6601 114.713 67.6601 114.913 67.6401 115.173C67.6401 115.233 67.6401 115.292 67.6202 115.332C67.6202 115.392 67.6002 115.452 67.6002 115.492C67.5403 116.071 67.4604 116.61 67.3207 117.089H67.3407C67.3207 117.109 67.3007 117.149 67.2808 117.209C67.2608 117.269 67.2009 117.349 67.1011 117.489C66.9214 117.828 66.8216 118.067 66.8216 118.267C67.161 118.607 67.8398 118.766 68.838 118.766C70.6947 118.766 71.633 118.387 71.633 117.628V115.592C71.633 115.512 71.6131 115.392 71.5731 115.213L71.5133 115.013V109.383C71.5133 108.564 72.232 107.446 73.6694 106.009C75.1468 104.532 76.4645 103.793 77.6623 103.753C77.9818 103.733 78.2413 103.813 78.4809 103.953C78.7205 104.112 78.9201 104.352 79.1197 104.651C79.4591 105.21 79.6388 105.749 79.6189 106.288C79.5989 106.608 79.4791 106.947 79.2395 107.327C79 107.706 78.6206 108.125 78.0816 108.584H78.1016C77.842 108.824 77.4627 109.123 76.9636 109.483C76.4645 109.842 75.8256 110.281 75.0669 110.8H75.0869C73.909 111.579 73.33 112.098 73.33 112.398C73.33 112.597 73.5896 112.996 74.1086 113.575C74.6277 114.154 75.3664 114.893 76.3047 115.772C77.303 116.71 78.1614 117.429 78.9001 117.928C79.6388 118.427 80.1978 118.686 80.5772 118.686C80.7768 118.686 81.0763 118.646 81.4955 118.547C81.8948 118.447 82.334 118.307 82.8132 118.127C83.2724 117.988 83.6717 117.828 84.051 117.668Z" fill="url(#paint24_linear_119_3422)"/>
<path d="M96.6286 104.072C96.6686 104.032 96.7085 104.012 96.7484 103.992C96.7884 103.972 96.8283 103.952 96.8682 103.933C97.0679 103.893 97.2675 103.853 97.4472 103.793C97.6269 103.733 97.8066 103.693 97.9663 103.653H99.6433C99.6832 103.653 99.7631 103.653 99.8629 103.653C99.9827 103.653 100.083 103.653 100.202 103.633C100.322 103.613 100.422 103.613 100.542 103.613C100.661 103.613 100.761 103.613 100.841 103.593C101.34 103.573 101.839 103.533 102.339 103.493C102.838 103.453 103.257 103.393 103.636 103.314C103.756 103.294 103.856 103.254 103.996 103.174C104.115 103.094 104.275 102.994 104.455 102.874C104.794 102.655 104.974 102.395 104.974 102.076C104.974 101.637 104.654 101.417 104.035 101.417C103.896 101.417 103.676 101.437 103.397 101.457C103.117 101.477 102.798 101.517 102.438 101.557L93.594 101.497C92.7356 101.617 92.0168 101.696 91.4379 101.736C91.338 101.756 91.2582 101.776 91.1384 101.776C91.0386 101.776 90.9387 101.796 90.8389 101.816C90.5794 101.856 90.22 101.936 89.7409 102.076C89.2817 102.216 88.8025 102.375 88.3234 102.535C88.1637 102.595 87.984 102.655 87.8043 102.735C87.6246 102.815 87.4849 102.894 87.3451 102.974C87.1056 103.114 86.8859 103.274 86.7063 103.433C86.5266 103.593 86.4268 103.753 86.4268 103.893C86.4268 104.252 86.6863 104.452 87.2253 104.452C87.425 104.452 87.6446 104.412 87.8842 104.312H87.9441C87.964 104.312 87.984 104.312 88.004 104.292C89.4614 104.072 90.5195 103.952 91.1983 103.952C91.7373 103.952 92.0368 103.952 92.1167 103.972C92.3962 104.032 92.5559 104.132 92.5758 104.272C92.6357 104.531 92.6557 104.791 92.6557 105.051C92.6757 104.971 92.6956 104.971 92.6956 105.031C92.6956 105.09 92.7156 105.19 92.7156 105.31C92.7156 105.43 92.7356 105.55 92.7356 105.689C92.7356 105.809 92.7555 105.929 92.7555 105.989L92.476 112.038C92.476 112.397 92.476 112.837 92.496 113.316C92.496 113.795 92.5359 114.294 92.5559 114.793C92.5758 115.193 92.6158 115.672 92.6757 116.231C92.7356 116.79 92.8154 117.369 92.9152 117.988C92.9751 118.347 93.2347 118.547 93.7138 118.547C94.6122 118.547 95.6903 118.047 96.9081 117.029C97.1677 116.79 97.3673 116.59 97.5071 116.43C97.6468 116.271 97.7267 116.131 97.7267 116.031C97.7267 115.811 97.6269 115.652 97.4272 115.532C97.2276 115.412 97.0279 115.332 96.8283 115.292H96.7684C96.5688 115.212 96.4689 115.173 96.4689 115.153V105.13C96.5288 104.492 96.5688 104.132 96.6286 104.072Z" fill="url(#paint25_linear_119_3422)"/>
<path d="M112.681 94.4094C112.441 94.4094 111.942 94.6091 111.164 94.9884H111.184C110.485 95.3478 109.866 95.6672 109.327 95.9068C108.788 96.1463 108.349 96.366 107.969 96.5257C106.692 97.1246 106.033 97.6437 106.033 98.0629C106.033 98.5221 106.372 98.7617 107.031 98.7617C107.171 98.7617 107.37 98.7417 107.59 98.6818C107.81 98.6219 108.049 98.5221 108.309 98.3824L108.808 98.1428C108.888 98.1029 108.948 98.0629 109.007 98.023C109.027 98.043 109.027 98.0629 109.027 98.0829C109.027 98.1428 109.027 98.1827 109.047 98.2027L109.107 98.8016C109.107 99.4006 109.107 100.139 109.107 100.978C109.107 101.816 109.107 102.695 109.127 103.593C109.127 104.492 109.147 105.35 109.147 106.208C109.147 107.067 109.147 107.786 109.147 108.405C109.127 108.544 109.107 108.764 109.107 109.023C109.107 109.283 109.087 109.582 109.087 109.902C109.087 110.221 109.067 110.541 109.067 110.86C109.067 111.18 109.067 111.479 109.067 111.759L108.908 118.547C108.908 118.866 109.027 119.106 109.287 119.305C109.527 119.505 109.806 119.605 110.105 119.605C110.185 119.605 110.385 119.545 110.704 119.425C111.044 119.305 111.463 119.146 112.002 118.946C112.581 118.706 113.04 118.507 113.42 118.327C113.799 118.147 114.058 118.008 114.178 117.868C114.178 117.528 114.158 117.329 114.118 117.269C114.019 117.129 113.939 116.989 113.879 116.89C113.819 116.79 113.759 116.71 113.719 116.65C113.679 116.51 113.659 116.331 113.639 116.111C113.619 115.891 113.619 115.672 113.619 115.412H113.06C113.1 115.392 113.2 115.272 113.36 115.053C113.519 114.833 113.619 114.514 113.659 114.114C113.699 113.715 113.719 113.356 113.719 113.076C113.719 112.797 113.719 112.597 113.699 112.477C113.679 112.477 113.679 111.599 113.679 109.862C113.799 109.383 114.118 108.824 114.657 108.205C115.196 107.586 115.915 106.947 116.814 106.328C118.65 105.051 120.108 104.392 121.166 104.392C122.444 104.392 123.422 105.33 124.081 107.187C124.34 107.846 124.52 108.504 124.64 109.163C124.759 109.822 124.799 110.461 124.799 111.1C124.799 112.318 124.54 113.535 124.021 114.773C123.502 116.011 122.743 117.229 121.745 118.427C121.425 118.786 121.186 119.126 121.026 119.385C120.866 119.665 120.787 119.884 120.787 120.084C120.787 120.303 120.886 120.483 121.086 120.603C121.665 120.643 122.264 120.363 122.903 119.804H122.883C123.661 119.185 124.34 118.527 124.919 117.828C125.498 117.129 126.037 116.41 126.516 115.632H126.496C126.696 115.312 126.876 115.053 127.015 114.833C127.155 114.614 127.295 114.434 127.395 114.274C127.654 113.635 127.854 113.096 128.034 112.657C128.193 112.218 128.313 111.898 128.393 111.699C128.433 111.619 128.453 111.579 128.453 111.539C128.613 110.96 128.692 110.141 128.692 109.083C128.692 108.205 128.613 107.366 128.433 106.568C128.253 105.769 127.994 105.051 127.654 104.432C127.175 103.593 126.556 102.914 125.798 102.435C125.039 101.956 124.161 101.696 123.182 101.696C121.645 101.696 120.108 102.096 118.57 102.874C118.091 103.134 117.572 103.433 117.013 103.793C116.454 104.152 115.855 104.571 115.236 105.051C114.318 105.789 113.839 106.149 113.779 106.149C113.739 106.149 113.719 106.129 113.719 106.089L113.579 105.53L113.659 95.3478C113.659 94.7488 113.34 94.4094 112.681 94.4094Z" fill="url(#paint26_linear_119_3422)"/>
<path d="M63.4271 131.763C63.4471 131.683 63.4671 131.564 63.487 131.404C63.4671 131.464 63.4671 131.524 63.4471 131.583C63.4271 131.643 63.4072 131.703 63.3872 131.763C63.4072 131.863 63.4271 131.843 63.4271 131.763Z" fill="url(#paint27_linear_119_3422)"/>
<path d="M63.5685 131.064C63.5685 130.925 63.5285 130.705 63.4487 130.425C63.3489 130.106 63.249 129.886 63.1492 129.767C62.8497 129.387 62.5902 129.168 62.3906 129.088C62.2907 129.048 62.2109 129.028 62.1111 129.008C62.0112 128.988 61.9114 128.988 61.7916 128.988C61.6319 128.988 61.4722 128.988 61.3125 129.008C61.1528 129.028 60.993 129.048 60.8333 129.088C60.7535 129.108 60.6736 129.128 60.5738 129.168C60.474 129.208 60.3741 129.268 60.2544 129.327C60.1745 129.367 60.0747 129.427 59.9948 129.467C59.915 129.507 59.8351 129.547 59.7552 129.607C59.6953 129.647 59.6554 129.687 59.5756 129.727C59.5157 129.767 59.4558 129.807 59.3959 129.827C59.2961 129.886 59.2162 129.946 59.1563 129.986C59.0964 130.026 59.0565 130.046 59.0365 130.046C58.9367 130.046 58.8968 129.986 58.8968 129.847C58.8968 129.827 58.8968 129.807 58.8968 129.787C58.8968 129.767 58.8968 129.727 58.8968 129.707C58.8968 129.687 58.8968 129.647 58.8968 129.607C58.8968 129.567 58.8968 129.547 58.8968 129.527C58.8968 129.188 58.7371 129.028 58.4176 129.028C58.3178 129.028 58.218 129.028 58.1182 129.048C58.0183 129.068 57.9185 129.088 57.7987 129.108C57.7189 129.128 57.639 129.168 57.5591 129.188C57.4793 129.208 57.3994 129.228 57.3196 129.248C57.2597 129.268 57.1998 129.288 57.1399 129.288C57.08 129.307 57.0401 129.307 56.9802 129.327C56.9203 129.347 56.8604 129.367 56.8005 129.367C56.7406 129.387 56.7007 129.387 56.6607 129.407C56.6208 129.427 56.5609 129.427 56.521 129.447C56.4811 129.447 56.4411 129.467 56.4012 129.467C56.2415 129.507 56.1616 129.607 56.1616 129.727C56.1616 129.886 56.3613 129.986 56.7606 130.066C56.8604 130.046 56.9402 130.026 57.0401 130.026C57.1399 130.006 57.2197 129.986 57.3196 129.986C57.4394 130.026 57.4992 130.066 57.4992 130.086V130.725C57.4992 130.885 57.4992 131.024 57.4992 131.144C57.4992 131.264 57.4992 131.344 57.5192 131.404C57.5392 131.603 57.5392 131.983 57.5591 132.542C57.5591 133.081 57.5591 133.819 57.5591 134.718V136.455C57.5591 136.535 57.5392 136.595 57.5192 136.614C57.4992 136.634 57.4793 136.654 57.4593 136.674C57.4394 136.694 57.4394 136.694 57.4194 136.714C57.3994 136.734 57.3795 136.754 57.3795 136.754C57.3196 136.834 57.2796 136.894 57.2796 136.934C57.2796 137.074 57.3795 137.154 57.5791 137.154C57.7788 137.154 58.0183 137.074 58.3178 136.894C58.6971 136.654 58.8968 136.415 58.8968 136.135V134.319C58.8968 134.299 58.8968 134.299 58.8968 134.259C58.8968 134.239 58.8968 134.219 58.8968 134.199V132.063C58.8968 132.043 58.8968 131.943 58.8768 131.763C58.8568 131.583 58.8568 131.484 58.8568 131.464C58.8568 131.284 58.8568 131.124 58.8768 131.004C58.8968 130.945 58.9766 130.845 59.1363 130.705C59.2961 130.585 59.4957 130.445 59.7552 130.286C60.0347 130.126 60.2743 130.006 60.4939 129.906C60.7135 129.807 60.8733 129.767 60.993 129.767C61.013 129.767 61.1727 129.807 61.4522 129.886C61.7118 129.966 61.9114 130.106 62.0512 130.326C62.171 130.525 62.2309 130.725 62.2309 130.965C62.2309 131.104 62.1909 131.284 62.131 131.484C62.0711 131.683 61.9913 131.863 61.8915 132.063C61.6718 132.482 61.3724 132.841 61.033 133.141C60.9531 133.201 60.8533 133.26 60.7335 133.32C60.6736 133.34 60.6137 133.36 60.5738 133.38C60.5339 133.4 60.4939 133.4 60.474 133.4C60.454 133.4 60.434 133.4 60.3741 133.38C60.3342 133.36 60.2544 133.34 60.1745 133.32C59.9749 133.24 59.8551 133.201 59.8351 133.201C59.7552 133.201 59.6355 133.24 59.4757 133.34C59.2761 133.46 59.1763 133.6 59.1763 133.74C59.1763 133.899 59.2961 134.019 59.5157 134.119C59.5756 134.139 59.6554 134.179 59.7552 134.199C59.8551 134.219 59.915 134.239 59.9749 134.239C60.5938 134.239 61.2925 133.939 62.0512 133.34C62.71 132.841 63.1492 132.302 63.3289 131.763C63.3289 131.723 63.3289 131.643 63.3289 131.524C63.3289 131.404 63.3289 131.244 63.3289 131.044H63.5685V131.064Z" fill="url(#paint28_linear_119_3422)"/>
<path d="M67.9787 133.66C67.9987 133.7 68.0186 133.72 68.0386 133.76V133.74L68.0785 133.82C68.1384 133.899 68.1784 133.959 68.2183 133.999C68.2582 134.039 68.2782 134.079 68.2981 134.099C68.4579 134.279 68.5976 134.379 68.7174 134.399C68.7573 134.399 68.8372 134.399 68.957 134.399C69.0768 134.399 69.2365 134.399 69.4361 134.399C69.6358 134.399 69.7955 134.399 69.9153 134.399C70.0351 134.399 70.1149 134.399 70.1548 134.399C70.1748 134.379 70.1948 134.379 70.2347 134.339C70.2746 134.319 70.2946 134.299 70.2946 134.279V134.079C70.2547 134.059 70.2347 134.039 70.2347 134.059C70.1748 134.019 70.1349 133.999 70.0949 133.959C70.055 133.919 70.0351 133.919 70.0151 133.919C69.8953 133.879 69.7556 133.76 69.6158 133.6C69.476 133.42 69.3363 133.201 69.1965 132.921C69.1566 132.821 69.1167 132.721 69.0768 132.642C69.0368 132.542 68.9969 132.462 68.957 132.382C68.8571 132.162 68.7773 131.963 68.6775 131.803C68.5976 131.623 68.5177 131.484 68.4579 131.364C68.358 131.204 68.2782 131.044 68.1983 130.925C68.1185 130.785 68.0586 130.685 68.0186 130.605C67.7591 130.146 67.4996 129.767 67.2201 129.487C66.9406 129.208 66.681 129.068 66.4215 129.068H66.2418C66.2019 129.068 66.1619 129.068 66.122 129.068C66.0821 129.068 66.0621 129.068 66.0621 129.068H65.8625C65.8026 129.068 65.7626 129.068 65.7427 129.068C65.7227 129.068 65.6828 129.068 65.6828 129.068L65.2036 129.088C65.1038 129.108 65.0239 129.128 64.9441 129.188V129.367C65.0439 129.447 65.1837 129.507 65.3434 129.527C65.5031 129.547 65.6029 129.567 65.6428 129.587C65.6828 129.607 65.7227 129.627 65.7626 129.647C66.2019 130.146 66.4215 130.485 66.4215 130.705C66.4215 130.745 66.4215 130.785 66.4015 130.805C66.2019 131.025 66.0421 131.184 65.9423 131.304C65.8425 131.424 65.7626 131.504 65.7427 131.544C65.6428 131.663 65.563 131.763 65.4831 131.843C65.4033 131.923 65.3234 132.003 65.2635 132.083C64.5049 133.001 64.1455 133.5 64.1455 133.6C64.1455 133.74 64.2254 133.899 64.4051 134.059C64.5847 134.219 64.7245 134.299 64.8642 134.339C64.984 134.379 65.1238 134.399 65.2835 134.418C65.4432 134.438 65.6229 134.438 65.8026 134.438C66.0821 134.438 66.3017 134.418 66.4215 134.379C66.6211 134.319 66.8807 134.199 67.1602 134.019C67.5794 133.76 67.839 133.62 67.9388 133.62C67.9388 133.62 67.9587 133.62 67.9787 133.66ZM67.5794 133.061C67.5395 133.101 67.4796 133.121 67.4197 133.161C67.3997 133.181 67.3997 133.181 67.3798 133.201C67.3598 133.221 67.3598 133.221 67.3398 133.221L67.2799 133.281C67.1602 133.34 67.0803 133.4 67.0004 133.42C66.9206 133.46 66.8807 133.48 66.8407 133.48C66.701 133.54 66.5612 133.58 66.4414 133.6C66.3216 133.62 66.2019 133.64 66.102 133.64C66.0022 133.64 65.8625 133.6 65.7027 133.5C65.543 133.4 65.4632 133.3 65.4632 133.201C65.4632 133.101 65.543 132.961 65.6828 132.741C65.7227 132.702 65.7427 132.662 65.7826 132.622C65.8026 132.582 65.8425 132.542 65.8625 132.502L65.9423 132.402C65.9623 132.382 65.9823 132.362 66.0022 132.322C66.0421 132.282 66.0621 132.242 66.102 132.182C66.2418 132.003 66.3815 131.843 66.5213 131.703C66.661 131.564 66.7409 131.464 66.8208 131.404C66.8807 131.424 66.9405 131.544 67.0603 131.763C67.24 132.123 67.3798 132.402 67.4796 132.602C67.5794 132.801 67.6193 132.921 67.6193 132.961C67.6393 133.001 67.6193 133.021 67.5794 133.061Z" fill="url(#paint29_linear_119_3422)"/>
<path d="M72.7904 132.482C72.7904 132.542 72.8702 132.661 73.03 132.841C73.1897 133.021 73.4293 133.24 73.7088 133.52C74.0082 133.819 74.2877 134.039 74.5073 134.199C74.727 134.358 74.9066 134.438 75.0264 134.438C75.0863 134.438 75.1861 134.418 75.3059 134.398C75.4257 134.378 75.5655 134.318 75.7252 134.279C75.8649 134.239 75.9847 134.179 76.1045 134.139C76.2243 134.079 76.2842 134.039 76.3042 134.019L76.2842 133.919C76.2043 133.819 76.0845 133.779 75.9248 133.779C75.805 133.779 75.7252 133.759 75.6853 133.739C75.5655 133.66 75.4257 133.56 75.266 133.42C75.1063 133.28 74.9266 133.121 74.7269 132.921C74.2678 132.502 74.0482 132.282 74.0482 132.222C74.0681 132.202 74.108 132.182 74.148 132.162C74.1879 132.142 74.2278 132.102 74.2678 132.062C74.3077 132.023 74.3676 131.983 74.4474 131.943C74.6271 131.803 74.7868 131.683 74.9266 131.563C75.0663 131.444 75.1861 131.344 75.266 131.244C75.5655 130.904 75.7252 130.565 75.7252 130.246C75.7252 129.966 75.6453 129.707 75.4856 129.467C75.3858 129.347 75.286 129.247 75.1462 129.168C75.0264 129.088 74.8867 129.068 74.7269 129.068C74.5073 129.068 74.2877 129.108 74.0681 129.168C73.8485 129.227 73.6289 129.327 73.4293 129.447C73.1298 129.627 72.8503 129.846 72.5708 130.146C72.431 130.306 72.3312 130.405 72.2913 130.485L72.2713 130.465C72.2713 130.465 72.2513 130.445 72.2513 130.425C72.2713 130.345 72.2513 130.206 72.2114 130.026C72.1915 129.966 72.1915 129.906 72.1915 129.866C72.1915 129.806 72.1915 129.786 72.1715 129.747V129.727V129.707V129.647C72.1715 129.607 72.1715 129.587 72.1715 129.567C72.1715 129.547 72.1715 129.507 72.1515 129.447C72.1316 129.427 72.1316 129.407 72.0916 129.387C72.0717 129.347 72.0517 129.327 72.0317 129.327C72.0118 129.287 71.9918 129.267 71.9718 129.227C71.9519 129.188 71.9319 129.168 71.912 129.148C71.8521 129.108 71.7323 129.088 71.5726 129.088C71.5526 129.088 71.5326 129.088 71.5127 129.088C71.4927 129.088 71.4727 129.068 71.4528 129.068C71.4328 129.068 71.4328 129.068 71.4128 129.068H71.3929L71.2132 129.048C71.1134 129.028 71.0335 129.028 71.0135 129.028C70.6941 129.028 70.5144 129.108 70.4346 129.287C70.4945 129.367 70.6342 129.427 70.8339 129.487C70.9536 129.527 71.0135 129.627 71.0335 129.747C71.0335 129.966 71.0335 130.226 71.0335 130.525C71.0335 130.805 71.0335 131.104 71.0335 131.404C71.0335 131.703 71.0335 132.003 71.0335 132.282C71.0335 132.562 71.0335 132.821 71.0335 133.061C71.0135 133.081 71.0135 133.121 71.0135 133.16C71.0135 133.2 71.0135 133.28 71.0135 133.36C71.0135 133.38 71.0135 133.4 71.0135 133.42C71.0135 133.44 71.0135 133.46 71.0135 133.48C70.9936 133.66 70.9736 133.819 70.9337 133.979C70.9337 133.979 70.9137 133.999 70.9137 134.019C70.9137 134.039 70.8938 134.059 70.8538 134.099C70.7939 134.199 70.774 134.279 70.774 134.338C70.8738 134.438 71.0934 134.498 71.3929 134.498C71.9718 134.498 72.2513 134.378 72.2513 134.139V133.5C72.2513 133.48 72.2513 133.44 72.2314 133.38L72.2114 133.32V131.563C72.2114 131.304 72.431 130.964 72.8702 130.525C73.3294 130.066 73.7487 129.826 74.1081 129.826C74.2079 129.826 74.2877 129.846 74.3676 129.886C74.4474 129.926 74.5073 130.006 74.5672 130.106C74.6671 130.286 74.7269 130.445 74.7269 130.605C74.7269 130.705 74.687 130.805 74.6072 130.924C74.5273 131.044 74.4075 131.164 74.2478 131.324C74.1679 131.404 74.0482 131.483 73.8884 131.603C73.7287 131.723 73.5291 131.843 73.3095 132.003C72.99 132.222 72.7904 132.402 72.7904 132.482Z" fill="url(#paint30_linear_119_3422)"/>
<path d="M76.3836 131.745C76.3836 131.724 76.3836 131.684 76.3633 131.663C76.3633 131.684 76.3836 131.724 76.3836 131.745Z" fill="url(#paint31_linear_119_3422)"/>
<path d="M80.776 134.159V134.239C80.776 134.259 80.776 134.279 80.776 134.299C80.776 134.319 80.776 134.338 80.776 134.358V136.175C80.776 136.455 80.9957 136.694 81.4349 136.914C81.7743 137.074 82.0338 137.153 82.2534 137.153C82.473 137.153 82.5729 137.074 82.5729 136.934C82.5729 136.874 82.5329 136.814 82.473 136.754C82.4531 136.734 82.4331 136.714 82.4331 136.694C82.4331 136.674 82.4131 136.674 82.3732 136.634C82.3532 136.614 82.3532 136.614 82.3532 136.594C82.3532 136.575 82.3333 136.575 82.3333 136.575C82.3133 136.555 82.2933 136.515 82.2734 136.475C82.2534 136.435 82.2335 136.415 82.2135 136.375C82.1935 135.536 82.1935 134.698 82.1935 133.859C82.1935 133.021 82.1736 132.202 82.1736 131.344C82.1736 131.304 82.1736 131.244 82.1736 131.184C82.1736 131.124 82.1536 131.044 82.1536 130.964C82.1536 130.885 82.1336 130.765 82.1336 130.625C82.1336 130.485 82.1137 130.306 82.0937 130.086C82.0937 130.046 82.0737 129.986 82.0538 129.906C82.0338 129.826 82.0138 129.727 81.9939 129.627C81.9739 129.507 81.934 129.407 81.914 129.327C81.8941 129.248 81.8741 129.208 81.8342 129.168C81.6345 129.068 81.375 128.988 81.0356 128.968C80.9757 128.968 80.9358 128.968 80.8759 128.988C80.816 129.008 80.7561 129.008 80.6962 129.028C80.6363 129.048 80.5964 129.068 80.5365 129.088C80.4965 129.108 80.4566 129.148 80.4366 129.168C80.4566 129.208 80.4566 129.248 80.4766 129.287C80.4965 129.327 80.5165 129.387 80.5564 129.427C80.6163 129.507 80.6563 129.587 80.6962 129.647C80.7361 129.707 80.7361 129.787 80.7361 129.826C80.7361 129.906 80.7161 129.946 80.6563 129.946C80.6163 129.946 80.5564 129.926 80.4766 129.886C80.3967 129.846 80.2769 129.807 80.1372 129.747C80.0374 129.707 79.9575 129.667 79.8776 129.627C79.7978 129.587 79.7179 129.547 79.6181 129.487C79.4983 129.427 79.3785 129.367 79.2787 129.327C79.1789 129.287 79.099 129.267 79.0192 129.248C78.7197 129.168 78.4003 129.128 78.0609 129.128C77.8213 129.128 77.6017 129.168 77.442 129.228C77.2623 129.307 77.0027 129.527 76.6833 129.926C76.6434 129.986 76.5835 130.066 76.5236 130.186C76.4637 130.306 76.4238 130.445 76.3639 130.585C76.3239 130.725 76.284 130.845 76.2641 130.964C76.2441 131.084 76.2241 131.164 76.2241 131.224H76.4038C76.4038 131.424 76.4038 131.563 76.3838 131.663C76.3639 131.763 76.3639 131.803 76.3439 131.743C76.5036 132.342 76.9428 132.921 77.6416 133.46C78.3603 134.019 79.0391 134.319 79.678 134.319C79.8177 134.319 79.9575 134.279 80.1172 134.199C80.3368 134.099 80.4366 133.979 80.4366 133.839C80.4366 133.68 80.3368 133.56 80.1372 133.44C79.9775 133.34 79.8577 133.28 79.7778 133.28C79.7579 133.28 79.6381 133.32 79.4384 133.4C79.2587 133.46 79.1589 133.5 79.1589 133.5C79.1389 133.5 79.099 133.5 79.0591 133.48C79.0192 133.46 78.9593 133.44 78.8994 133.42C78.8395 133.4 78.7796 133.36 78.7397 133.34C78.6997 133.32 78.6398 133.28 78.6199 133.26C78.2805 132.961 78.001 132.602 77.7814 132.222C77.6815 132.043 77.6216 131.863 77.5617 131.683C77.5218 131.504 77.4819 131.344 77.4819 131.184C77.4819 130.964 77.5418 130.745 77.6815 130.545C77.8413 130.306 78.0409 130.166 78.2805 130.106C78.56 130.026 78.6997 129.986 78.7397 129.986C78.9992 129.986 79.3785 130.106 79.8976 130.366C80.3967 130.605 80.6563 130.805 80.6762 130.964C80.6962 131.064 80.7161 131.224 80.7161 131.424V132.162L80.776 134.159Z" fill="url(#paint32_linear_119_3422)"/>
<path d="M76.4056 131.845C76.3853 131.824 76.3853 131.784 76.3853 131.763C76.4056 131.804 76.4056 131.845 76.4056 131.845Z" fill="url(#paint33_linear_119_3422)"/>
<path d="M88.1431 134.119C88.163 134.119 88.183 134.099 88.183 134.099C88.2429 134.079 88.2628 134.079 88.2828 134.079H88.3028C88.3028 134.079 88.3227 134.079 88.3427 134.079C88.3627 134.079 88.3826 134.079 88.4026 134.079C88.4625 134.419 88.6222 134.578 88.8618 134.578C88.9217 134.578 89.0415 134.558 89.2411 134.498C89.4408 134.439 89.7003 134.359 89.9998 134.279C90.0397 134.259 90.0796 134.239 90.1195 134.219C90.1595 134.199 90.1994 134.159 90.2194 134.119V133.919C90.1395 133.919 90.0796 133.919 90.0397 133.899C90.0197 133.899 89.9998 133.899 89.9798 133.899C89.9598 133.899 89.9399 133.899 89.9199 133.899C89.84 133.899 89.7801 133.86 89.7402 133.8C89.7402 133.78 89.7402 133.78 89.7402 133.76C89.7402 133.74 89.7402 133.74 89.7402 133.72C89.7203 133.66 89.7003 133.6 89.7003 133.54C89.7003 133.48 89.6803 133.44 89.6803 133.42C89.6604 133.141 89.6204 132.901 89.6005 132.682C89.5805 132.462 89.5605 132.302 89.5605 132.163C89.5406 131.783 89.5006 131.384 89.4607 130.945C89.4208 130.525 89.3609 130.066 89.321 129.607C89.281 129.268 89.1213 129.108 88.8418 129.108C88.8219 129.108 88.762 129.108 88.6821 129.128C88.6022 129.148 88.4825 129.148 88.3427 129.188C88.183 129.208 88.0432 129.248 87.9234 129.268C87.8037 129.288 87.7038 129.308 87.624 129.328C87.584 129.348 87.5242 129.387 87.4643 129.447C87.4044 129.507 87.3844 129.547 87.3844 129.607C87.3844 129.747 87.4842 129.807 87.6839 129.807C87.7038 129.807 87.7238 129.807 87.7438 129.807C87.7637 129.807 87.7837 129.807 87.8236 129.787C87.8436 129.787 87.8636 129.787 87.8835 129.767C87.9035 129.747 87.9234 129.767 87.9234 129.747C88.0233 129.747 88.0632 129.767 88.0832 129.807C88.1031 129.867 88.1431 129.946 88.1431 130.026C88.163 130.106 88.183 130.226 88.183 130.346C88.183 130.406 88.183 130.446 88.183 130.486C88.183 130.525 88.183 130.585 88.2029 130.625C88.2029 130.665 88.2029 130.725 88.2029 130.765C88.2029 130.805 88.2029 130.865 88.2029 130.905C88.2029 130.945 88.2029 130.965 88.2029 131.005C88.2029 131.025 88.2029 131.065 88.2029 131.065C88.2029 131.084 88.2029 131.104 88.2029 131.124L88.2229 131.683C88.2229 131.703 88.2229 131.743 88.2229 131.843C88.2229 131.943 88.2429 132.083 88.2429 132.262C88.2628 132.442 88.2628 132.582 88.2628 132.682C88.2628 132.781 88.2628 132.821 88.2628 132.841H88.4026C88.3826 132.861 88.3427 132.881 88.3227 132.921C88.3028 132.961 88.2828 133.021 88.2828 133.081C88.2828 133.141 88.2828 133.201 88.2828 133.261C88.2828 133.321 88.2828 133.36 88.2628 133.38C88.2429 133.5 88.0033 133.6 87.5841 133.68C87.2447 133.74 86.9452 133.78 86.6657 133.78C86.0468 133.78 85.5876 133.6 85.2682 133.221C84.9687 132.881 84.809 132.402 84.809 131.823C84.809 131.683 84.8289 131.484 84.8888 131.284C84.9288 131.065 85.0086 130.825 85.0885 130.525C85.2282 130.086 85.5077 129.747 85.907 129.527C86.0068 129.467 86.0468 129.387 86.0468 129.288C86.0468 129.148 85.947 129.088 85.7473 129.088C85.6874 129.088 85.4878 129.128 85.1484 129.188C84.9687 129.228 84.809 129.288 84.6493 129.328C84.4895 129.368 84.3698 129.407 84.25 129.447C84.1701 129.487 84.0902 129.507 84.0304 129.547C83.9705 129.587 83.9106 129.607 83.8906 129.627L83.8307 129.767C83.8507 129.867 83.9106 129.927 84.0104 129.907L84.21 129.867V129.887C84.1901 129.927 84.1901 129.966 84.1701 130.006C84.0304 130.186 83.9106 130.366 83.8107 130.525C83.7109 130.685 83.6311 130.845 83.5712 130.965C83.4314 131.264 83.3516 131.584 83.3516 131.903C83.3516 132.362 83.4913 132.821 83.7708 133.301C83.8706 133.46 84.0104 133.62 84.1901 133.78C84.3698 133.939 84.5494 134.059 84.769 134.159C85.1683 134.359 85.6076 134.458 86.0867 134.458C86.1067 134.458 86.1466 134.458 86.1466 134.458C86.1666 134.458 86.1865 134.458 86.2065 134.439C86.2265 134.439 86.2664 134.439 86.2864 134.439C86.4261 134.439 86.6258 134.419 86.8653 134.379C87.1049 134.339 87.3844 134.279 87.6839 134.219C87.7238 134.219 87.7637 134.199 87.8037 134.179C87.8436 134.159 87.9234 134.139 87.9833 134.099H87.9634C88.1031 134.119 88.1231 134.119 88.1431 134.119Z" fill="url(#paint34_linear_119_3422)"/>
<path d="M94.8893 130.046C94.9092 130.086 94.9292 130.126 94.9691 130.186C95.0091 130.306 95.0889 130.366 95.2087 130.366C95.3285 130.366 95.4483 130.306 95.5681 130.186C95.7078 130.066 95.7677 129.946 95.7677 129.826C95.7677 129.527 95.5282 129.327 95.049 129.188C94.8893 129.148 94.7096 129.108 94.5499 129.088C94.3902 129.068 94.2105 129.048 94.0308 129.048C93.7114 129.048 93.4119 129.088 93.1124 129.168C92.9727 129.208 92.8529 129.247 92.7531 129.287C92.6333 129.327 92.5734 129.347 92.5335 129.367C92.3937 129.427 92.2739 129.507 92.1342 129.587C91.9944 129.667 91.8946 129.747 91.7748 129.846C91.4354 130.146 91.1958 130.525 91.0361 131.004C90.9762 131.164 90.9363 131.324 90.8964 131.464C90.8564 131.603 90.8564 131.743 90.8564 131.863C90.8564 132.322 90.9563 132.741 91.1359 133.121C91.2358 133.34 91.3955 133.56 91.5951 133.74C91.7948 133.919 91.9944 134.059 92.214 134.179C92.3937 134.259 92.5335 134.318 92.6533 134.378C92.7531 134.418 92.8329 134.458 92.8529 134.478C93.0725 134.538 93.3321 134.558 93.6515 134.558C93.8312 134.558 93.9909 134.538 94.1306 134.498C94.3303 134.438 94.51 134.358 94.6697 134.318C94.8294 134.259 94.9492 134.199 95.069 134.139C95.1089 134.119 95.1688 134.079 95.2087 134.059C95.2686 134.039 95.3085 133.999 95.3684 133.959C95.4483 133.899 95.5082 133.839 95.5282 133.779C95.5481 133.72 95.5681 133.68 95.5681 133.64C95.5681 133.5 95.5082 133.44 95.3884 133.44C95.3285 133.44 95.2087 133.48 95.029 133.54C95.0091 133.56 94.9691 133.56 94.9092 133.6C94.8294 133.64 94.7495 133.68 94.7096 133.68C94.2305 133.799 93.951 133.859 93.8511 133.859C93.5317 133.859 93.1923 133.74 92.8529 133.52C92.4736 133.26 92.254 132.961 92.234 132.602C92.234 132.582 92.234 132.562 92.214 132.522C92.1941 132.482 92.214 132.462 92.1941 132.442C92.1741 132.402 92.1741 132.362 92.1741 132.322C92.1741 132.282 92.1741 132.262 92.1541 132.222V132.202C92.1541 132.202 92.1541 132.182 92.1541 132.142C92.1541 132.122 92.1541 132.102 92.1541 132.082C92.1541 132.063 92.1541 132.043 92.1541 132.023C92.1741 132.003 92.2739 132.003 92.3937 132.003C92.4935 132.003 92.5934 132.003 92.6732 131.983C92.7531 131.983 92.813 131.983 92.8329 131.963L94.1107 131.943C94.1706 131.943 94.2704 131.983 94.4101 132.063C94.5499 132.142 94.6497 132.182 94.6896 132.182C94.7495 132.182 94.8094 132.162 94.8693 132.142C94.8893 132.122 94.9292 132.102 94.9891 132.082C95.049 132.063 95.1089 132.003 95.1688 131.963C95.3485 131.843 95.4283 131.723 95.4283 131.623C95.4283 131.424 95.2486 131.324 94.8693 131.324H93.5916H93.5716C93.5517 131.324 93.5517 131.324 93.5317 131.324C93.5117 131.324 93.4918 131.324 93.4718 131.324C93.4518 131.324 93.4319 131.324 93.3919 131.324C93.332 131.324 93.2921 131.324 93.2722 131.304C93.2322 131.304 93.2123 131.304 93.2123 131.304H92.3139C92.214 131.304 92.1741 131.244 92.1741 131.124C92.1741 131.104 92.214 131.004 92.2939 130.845C92.3737 130.685 92.4736 130.545 92.5934 130.405C92.7131 130.266 92.8529 130.146 92.9926 130.046C93.2522 129.866 93.5317 129.787 93.8112 129.787C93.931 129.787 94.0907 129.807 94.2903 129.866C94.51 129.926 94.6497 129.986 94.7096 130.026C94.8494 129.986 94.8693 130.026 94.8893 130.046Z" fill="url(#paint35_linear_119_3422)"/>
<defs>
<linearGradient id="paint0_linear_119_3422" x1="87.8828" y1="30.8815" x2="87.8877" y2="30.9784" gradientUnits="userSpaceOnUse">
<stop stop-color="#9C663A"/>
<stop offset="1" stop-color="#DDA67B" stop-opacity="0.38"/>
</linearGradient>
<linearGradient id="paint1_linear_119_3422" x1="72.7828" y1="0.0682547" x2="74.7875" y2="50.6664" gradientUnits="userSpaceOnUse">
<stop stop-color="#9C663A"/>
<stop offset="1" stop-color="#DDA67B" stop-opacity="0.38"/>
</linearGradient>
<linearGradient id="paint2_linear_119_3422" x1="75.1097" y1="138.239" x2="75.875" y2="174.438" gradientUnits="userSpaceOnUse">
<stop stop-color="#9C663A"/>
<stop offset="1" stop-color="#DDA67B" stop-opacity="0.38"/>
</linearGradient>
<linearGradient id="paint3_linear_119_3422" x1="81.0293" y1="43.3171" x2="81.6539" y2="55.4454" gradientUnits="userSpaceOnUse">
<stop stop-color="#9C663A"/>
<stop offset="1" stop-color="#DDA67B" stop-opacity="0.38"/>
</linearGradient>
<linearGradient id="paint4_linear_119_3422" x1="90.8686" y1="39.0558" x2="92.6423" y2="52.2756" gradientUnits="userSpaceOnUse">
<stop stop-color="#9C663A"/>
<stop offset="1" stop-color="#DDA67B" stop-opacity="0.38"/>
</linearGradient>
<linearGradient id="paint5_linear_119_3422" x1="44.6801" y1="151.756" x2="45.0754" y2="165.106" gradientUnits="userSpaceOnUse">
<stop stop-color="#9C663A"/>
<stop offset="1" stop-color="#DDA67B" stop-opacity="0.38"/>
</linearGradient>
<linearGradient id="paint6_linear_119_3422" x1="108.836" y1="151.44" x2="109.24" y2="164.299" gradientUnits="userSpaceOnUse">
<stop stop-color="#9C663A"/>
<stop offset="1" stop-color="#DDA67B" stop-opacity="0.38"/>
</linearGradient>
<linearGradient id="paint7_linear_119_3422" x1="33.6496" y1="133.27" x2="33.7121" y2="137.761" gradientUnits="userSpaceOnUse">
<stop stop-color="#9C663A"/>
<stop offset="1" stop-color="#DDA67B" stop-opacity="0.38"/>
</linearGradient>
<linearGradient id="paint8_linear_119_3422" x1="119.383" y1="133.491" x2="119.442" y2="137.673" gradientUnits="userSpaceOnUse">
<stop stop-color="#9C663A"/>
<stop offset="1" stop-color="#DDA67B" stop-opacity="0.38"/>
</linearGradient>
<linearGradient id="paint9_linear_119_3422" x1="107.013" y1="134.545" x2="107.032" y2="136.457" gradientUnits="userSpaceOnUse">
<stop stop-color="#9C663A"/>
<stop offset="1" stop-color="#DDA67B" stop-opacity="0.38"/>
</linearGradient>
<linearGradient id="paint10_linear_119_3422" x1="44.6365" y1="134.683" x2="44.6602" y2="136.852" gradientUnits="userSpaceOnUse">
<stop stop-color="#9C663A"/>
<stop offset="1" stop-color="#DDA67B" stop-opacity="0.38"/>
</linearGradient>
<linearGradient id="paint11_linear_119_3422" x1="101.931" y1="36.9801" x2="102.488" y2="41.5203" gradientUnits="userSpaceOnUse">
<stop stop-color="#9C663A"/>
<stop offset="1" stop-color="#DDA67B" stop-opacity="0.38"/>
</linearGradient>
<linearGradient id="paint12_linear_119_3422" x1="89.3261" y1="8.37577" x2="90.0364" y2="12.1135" gradientUnits="userSpaceOnUse">
<stop stop-color="#9C663A"/>
<stop offset="1" stop-color="#DDA67B" stop-opacity="0.38"/>
</linearGradient>
<linearGradient id="paint13_linear_119_3422" x1="55.1611" y1="17.2708" x2="55.4832" y2="19.4895" gradientUnits="userSpaceOnUse">
<stop stop-color="#9C663A"/>
<stop offset="1" stop-color="#DDA67B" stop-opacity="0.38"/>
</linearGradient>
<linearGradient id="paint14_linear_119_3422" x1="37.5938" y1="143.243" x2="38.0849" y2="151.929" gradientUnits="userSpaceOnUse">
<stop stop-color="#9C663A"/>
<stop offset="1" stop-color="#DDA67B" stop-opacity="0.38"/>
</linearGradient>
<linearGradient id="paint15_linear_119_3422" x1="116.499" y1="143.192" x2="116.917" y2="150.643" gradientUnits="userSpaceOnUse">
<stop stop-color="#9C663A"/>
<stop offset="1" stop-color="#DDA67B" stop-opacity="0.38"/>
</linearGradient>
<linearGradient id="paint16_linear_119_3422" x1="26.293" y1="64.1846" x2="27.0856" y2="90.2823" gradientUnits="userSpaceOnUse">
<stop stop-color="#9C663A"/>
<stop offset="1" stop-color="#DDA67B" stop-opacity="0.38"/>
</linearGradient>
<linearGradient id="paint17_linear_119_3422" x1="60.3328" y1="73.3097" x2="62.38" y2="90.2182" gradientUnits="userSpaceOnUse">
<stop stop-color="#9C663A"/>
<stop offset="1" stop-color="#DDA67B" stop-opacity="0.38"/>
</linearGradient>
<linearGradient id="paint18_linear_119_3422" x1="76.0376" y1="63.9857" x2="78.358" y2="89.841" gradientUnits="userSpaceOnUse">
<stop stop-color="#9C663A"/>
<stop offset="1" stop-color="#DDA67B" stop-opacity="0.38"/>
</linearGradient>
<linearGradient id="paint19_linear_119_3422" x1="98.2197" y1="64.0257" x2="100.533" y2="89.8433" gradientUnits="userSpaceOnUse">
<stop stop-color="#9C663A"/>
<stop offset="1" stop-color="#DDA67B" stop-opacity="0.38"/>
</linearGradient>
<linearGradient id="paint20_linear_119_3422" x1="120.769" y1="69.2115" x2="122.206" y2="89.9863" gradientUnits="userSpaceOnUse">
<stop stop-color="#9C663A"/>
<stop offset="1" stop-color="#DDA67B" stop-opacity="0.38"/>
</linearGradient>
<linearGradient id="paint21_linear_119_3422" x1="137.938" y1="73.5297" x2="139.095" y2="90.5298" gradientUnits="userSpaceOnUse">
<stop stop-color="#9C663A"/>
<stop offset="1" stop-color="#DDA67B" stop-opacity="0.38"/>
</linearGradient>
<linearGradient id="paint22_linear_119_3422" x1="32.0315" y1="92.7994" x2="33.7428" y2="117.992" gradientUnits="userSpaceOnUse">
<stop stop-color="#9C663A"/>
<stop offset="1" stop-color="#DDA67B" stop-opacity="0.38"/>
</linearGradient>
<linearGradient id="paint23_linear_119_3422" x1="55.1268" y1="101.223" x2="56.0165" y2="117.972" gradientUnits="userSpaceOnUse">
<stop stop-color="#9C663A"/>
<stop offset="1" stop-color="#DDA67B" stop-opacity="0.38"/>
</linearGradient>
<linearGradient id="paint24_linear_119_3422" x1="75.0429" y1="101.101" x2="76.0046" y2="118.068" gradientUnits="userSpaceOnUse">
<stop stop-color="#9C663A"/>
<stop offset="1" stop-color="#DDA67B" stop-opacity="0.38"/>
</linearGradient>
<linearGradient id="paint25_linear_119_3422" x1="95.4701" y1="101.304" x2="96.4003" y2="117.866" gradientUnits="userSpaceOnUse">
<stop stop-color="#9C663A"/>
<stop offset="1" stop-color="#DDA67B" stop-opacity="0.38"/>
</linearGradient>
<linearGradient id="paint26_linear_119_3422" x1="117.081" y1="94.2363" x2="118.859" y2="119.52" gradientUnits="userSpaceOnUse">
<stop stop-color="#9C663A"/>
<stop offset="1" stop-color="#DDA67B" stop-opacity="0.38"/>
</linearGradient>
<linearGradient id="paint27_linear_119_3422" x1="63.4359" y1="131.401" x2="63.5368" y2="131.789" gradientUnits="userSpaceOnUse">
<stop stop-color="#9C663A"/>
<stop offset="1" stop-color="#DDA67B" stop-opacity="0.38"/>
</linearGradient>
<linearGradient id="paint28_linear_119_3422" x1="59.7731" y1="128.934" x2="60.3017" y2="136.818" gradientUnits="userSpaceOnUse">
<stop stop-color="#9C663A"/>
<stop offset="1" stop-color="#DDA67B" stop-opacity="0.38"/>
</linearGradient>
<linearGradient id="paint29_linear_119_3422" x1="67.1437" y1="129.032" x2="67.4196" y2="134.227" gradientUnits="userSpaceOnUse">
<stop stop-color="#9C663A"/>
<stop offset="1" stop-color="#DDA67B" stop-opacity="0.38"/>
</linearGradient>
<linearGradient id="paint30_linear_119_3422" x1="73.2965" y1="128.992" x2="73.5963" y2="134.28" gradientUnits="userSpaceOnUse">
<stop stop-color="#9C663A"/>
<stop offset="1" stop-color="#DDA67B" stop-opacity="0.38"/>
</linearGradient>
<linearGradient id="paint31_linear_119_3422" x1="76.3732" y1="131.663" x2="76.3913" y2="131.737" gradientUnits="userSpaceOnUse">
<stop stop-color="#9C663A"/>
<stop offset="1" stop-color="#DDA67B" stop-opacity="0.38"/>
</linearGradient>
<linearGradient id="paint32_linear_119_3422" x1="79.3197" y1="128.914" x2="79.9383" y2="136.805" gradientUnits="userSpaceOnUse">
<stop stop-color="#9C663A"/>
<stop offset="1" stop-color="#DDA67B" stop-opacity="0.38"/>
</linearGradient>
<linearGradient id="paint33_linear_119_3422" x1="76.3952" y1="131.763" x2="76.4133" y2="131.837" gradientUnits="userSpaceOnUse">
<stop stop-color="#9C663A"/>
<stop offset="1" stop-color="#DDA67B" stop-opacity="0.38"/>
</linearGradient>
<linearGradient id="paint34_linear_119_3422" x1="86.7002" y1="129.052" x2="86.9585" y2="134.364" gradientUnits="userSpaceOnUse">
<stop stop-color="#9C663A"/>
<stop offset="1" stop-color="#DDA67B" stop-opacity="0.38"/>
</linearGradient>
<linearGradient id="paint35_linear_119_3422" x1="93.2511" y1="129.011" x2="93.6141" y2="134.331" gradientUnits="userSpaceOnUse">
<stop stop-color="#9C663A"/>
<stop offset="1" stop-color="#DDA67B" stop-opacity="0.38"/>
</linearGradient>
</defs>
</svg>
