<svg width="109" height="87" viewBox="0 0 109 87" fill="none" xmlns="http://www.w3.org/2000/svg">
<path d="M95.8113 58.6705C93.3669 57.9131 90.9075 57.4495 88.3289 57.5731C85.9739 57.6968 83.6189 57.5422 81.2639 57.6813C76.7924 57.9595 73.394 60.8652 72.1718 65.301C72.1122 65.5019 72.0377 65.7029 71.9482 65.9502C67.5661 62.2099 62.5133 60.7416 57.0282 60.7261C51.5133 60.6952 46.4605 62.1944 42.1231 65.9965C42.0337 65.7338 41.9591 65.6101 41.9293 65.4556C40.8114 61.0816 38.0242 58.4696 33.7762 57.8513C31.138 57.4649 28.4402 57.5886 25.7573 57.5422C23.0595 57.4958 20.4063 57.8359 17.8576 58.8096C16.7993 59.2114 16.7248 59.4587 17.4849 60.3552C17.5893 60.4788 17.6787 60.587 17.783 60.6952C20.4958 63.8173 23.6706 66.3366 27.0838 68.5931C33.7315 73.0135 40.9158 75.9346 48.741 77.1402C49.5607 77.2638 50.3805 77.4184 51.2301 77.5575C50.157 79.5049 50.1122 79.7213 50.5594 80.4013C50.619 80.355 50.6786 80.3086 50.7233 80.2468C51.6475 78.9176 52.184 78.8558 53.3914 79.8449C55.2545 81.3751 56.3575 83.3998 57.0133 85.7181C57.0878 85.9654 57.1624 86.1973 57.2369 86.4446C57.4605 86.0891 57.5201 85.7645 57.6095 85.4554C58.2057 83.1061 59.3087 81.0814 61.2016 79.5822C62.0065 78.9485 62.7369 79.0412 63.4374 79.814C63.6163 80.015 63.7802 80.2004 64.0336 80.4941C64.5553 79.2422 63.8398 78.4848 63.348 77.6038C63.5417 77.5575 63.7206 77.4957 63.9144 77.4493C66.5675 76.8929 69.2504 76.5374 71.8439 75.7801C81.3086 73.0135 89.4766 67.944 96.333 60.6025C97.5403 59.3814 97.4807 59.196 95.8113 58.6705ZM74.7206 62.7508C75.1379 62.1635 75.7043 61.6689 76.1515 61.1125C77.329 59.6596 78.9238 59.0569 80.6528 58.9332C82.6203 58.7941 84.6027 58.9023 86.6894 58.9023C86.5552 59.1805 86.5403 59.2578 86.4956 59.3042C85.2883 60.5561 84.0065 61.7462 82.9035 63.0908C81.7856 64.4664 80.474 65.3474 78.7599 65.5638C77.329 65.7492 75.913 65.9038 74.4821 66.0738C74.4523 66.012 74.4076 65.9502 74.3778 65.8883C74.7355 65.5792 75.0634 65.2237 75.4658 64.9764C76.5986 64.2809 77.7463 63.6318 78.894 62.9517C79.6095 62.5344 80.2653 62.0553 80.5336 61.2207C79.8628 61.6998 79.2219 62.2408 78.5065 62.6117C76.8818 63.4618 75.3019 64.3582 74.0051 65.7029C73.9157 65.7956 73.8114 65.842 73.6176 65.9811C73.6623 64.7137 74.0647 63.6782 74.7206 62.7508ZM69.8168 66.3211C68.5797 67.1094 67.1935 67.7739 66.0756 68.7786C64.9428 69.7832 64.0783 71.0969 63.0052 72.2561C63.5119 70.9888 64.0187 69.7214 64.6 68.284C63.1393 68.8404 61.9916 69.6286 60.7843 70.7106C60.9632 69.6441 61.1122 68.7631 61.306 67.6349C60.9333 67.8821 60.7545 67.9903 60.5011 68.1449C60.5011 67.4803 60.5011 66.9084 60.5011 66.3366C60.4564 66.3056 60.3968 66.2747 60.352 66.2438C59.7558 67.0012 59.1596 67.774 58.5187 68.5931C58.0567 67.0012 57.6095 65.4401 57.1325 63.7554C56.7748 65.4247 56.4469 66.9702 56.119 68.5004C55.4781 67.6967 54.7775 66.8311 54.0174 65.8729C53.9578 66.6611 53.8832 67.403 53.8236 68.284C53.5255 67.9594 53.3168 67.7276 53.1082 67.4957C53.0336 67.5112 52.974 67.5267 52.8995 67.5421C53.1678 68.5931 53.4361 69.6286 53.6895 70.6178C52.6759 69.9378 51.6475 69.2423 50.6041 68.5622C50.47 68.4695 50.2613 68.5004 50.0973 68.4695C50.1122 68.6704 50.0824 68.8713 50.142 69.0568C50.4849 70.1078 50.8575 71.1588 51.1407 72.287C49.4713 69.505 47.474 67.1712 44.1353 66.4911C51.3345 60.0615 64.4659 61.3752 69.8168 66.3211ZM28.2762 58.9487C30.0649 58.9487 31.8535 58.7941 33.6123 59.0105C36.0716 59.3042 38.1434 60.5097 39.3806 62.8281C39.8724 63.74 40.0811 64.8064 40.4239 65.8111C38.3074 64.3273 36.2654 62.8745 34.2085 61.4371C34.1638 61.4525 34.134 61.4834 34.0892 61.4989C34.3873 61.8698 34.6258 62.3026 34.9984 62.5653C35.8182 63.1681 36.7274 63.6782 37.5621 64.2655C38.2925 64.7755 38.9781 65.3474 39.6936 65.8883C39.6637 65.9656 39.6339 66.0274 39.619 66.1047C39.0228 66.0429 38.4266 65.9811 37.8304 65.9038C37.2193 65.8265 36.6082 65.6874 35.9971 65.6256C33.9253 65.4247 32.3155 64.4664 31.0635 62.7199C30.2884 61.638 29.2898 60.7261 28.3955 59.7369C28.2166 59.536 28.008 59.3505 27.7248 59.0878C27.9632 59.026 28.1123 58.9487 28.2762 58.9487ZM19.9443 60.8497C19.7952 60.6797 19.6313 60.5097 19.4971 60.3397C19.4524 60.2933 19.4524 60.2006 19.4077 59.9842C20.0635 60.0924 20.6597 60.1851 21.3752 60.3088C21.0025 60.077 20.7343 59.9224 20.2871 59.6596C20.6746 59.5515 20.8833 59.4587 21.1069 59.4124C24.6394 58.7014 27.3074 60.1233 29.409 62.9672C29.6773 63.3381 29.9605 63.6936 30.2139 64.08C31.6895 66.2747 33.806 67.2639 36.2952 67.4494C37.5323 67.5421 38.7694 67.4494 40.0066 67.4648C40.3047 67.4648 40.6028 67.5885 40.9009 67.6503C40.7518 67.944 40.6624 68.3767 40.4239 68.5158C39.7085 68.9486 38.9632 69.505 38.1732 69.5823C34.7749 69.9378 31.4957 69.7214 28.4551 67.6967C25.4145 65.672 22.4782 63.5236 19.9443 60.8497ZM41.3927 73.9717C39.1123 73.0598 36.8467 72.1634 34.4917 71.2206C35.9822 71.2206 37.3386 71.0815 38.6651 71.2515C40.0513 71.4215 40.7518 72.658 41.5418 73.6781C41.4822 73.7863 41.4375 73.879 41.3927 73.9717ZM48.0851 75.0227C47.9659 75.1618 47.6976 75.3164 47.5486 75.27C45.432 74.7909 43.6136 73.8326 42.451 71.7616C44.329 71.9625 46.2369 72.0088 47.8616 73.168C48.6664 73.7554 48.7261 74.2808 48.0851 75.0227ZM41.0946 70.3087C41.0797 70.2005 41.0648 70.1078 41.0648 69.9996C41.7058 69.2268 42.3467 68.454 43.0174 67.7121C43.1515 67.5576 43.4646 67.4957 43.6732 67.5267C46.2369 67.9594 47.9212 69.5514 49.0093 71.9316C49.0242 71.9625 48.9944 72.0243 48.9794 72.1943C46.6244 70.2933 43.8372 70.4014 41.0946 70.3087ZM48.9496 75.8882C49.0987 75.5637 49.1881 75.4091 49.2477 75.2391C49.5756 74.5127 49.8738 73.6781 50.783 73.6626C51.8114 73.6472 52.6014 74.2499 53.1976 75.0846C53.6298 75.6873 53.3616 76.2747 52.6461 76.2437C51.4537 76.1974 50.2613 76.0274 48.9496 75.8882ZM53.1678 77.9748C53.1678 77.882 53.1678 77.7893 53.1678 77.712C53.6149 77.6811 54.0919 77.5266 54.4794 77.6657C54.7775 77.7739 54.9415 78.253 55.2247 78.6548C54.1515 79.0721 53.8236 78.1139 53.1678 77.9748ZM57.371 81.9933C57.3114 81.9933 57.2518 81.9778 57.1922 81.9778C56.9537 80.9114 56.7152 79.8449 56.5065 78.7785C56.2979 77.7275 56.432 77.5884 57.4455 77.7275C57.5648 77.7429 57.684 77.7739 58.0268 77.8511C57.8033 79.2576 57.5946 80.6177 57.371 81.9933ZM58.6529 75.6719C58.3399 76.4292 57.9076 76.5374 57.3561 75.9655C57.1027 75.7028 56.7897 75.5173 56.6705 75.0846C56.6109 74.8682 56.1786 74.7445 55.7613 74.4818C55.5675 73.4308 55.8656 72.7507 57.1027 71.5143C58.6081 72.3334 59.2789 74.0954 58.6529 75.6719ZM59.5174 78.2684C59.7111 77.4493 59.9943 77.3411 61.0675 77.7893C60.6203 78.3766 60.203 78.8249 59.5174 78.2684ZM62.1705 76.321C61.768 76.3365 61.2762 75.9655 60.9781 75.6255C60.8737 75.5173 61.1718 74.8836 61.4103 74.6209C62.0214 73.9563 62.7667 73.4462 63.7206 73.709C64.451 73.9099 65.1813 75.0073 65.226 75.8882C64.2125 76.0428 63.184 76.2901 62.1705 76.321ZM69.5038 74.3736C68.8778 74.6827 68.207 74.8682 67.581 75.1618C66.9401 75.4555 66.493 75.1618 66.165 74.6672C65.7924 74.0954 66.1352 73.6472 66.5675 73.2762C66.7612 73.1062 66.955 72.9517 67.1786 72.8435C68.7138 72.1016 70.3534 71.9934 72.2016 71.7306C71.4564 73.0289 70.5919 73.8326 69.5038 74.3736ZM68.4604 70.6951C68.6095 70.5869 68.8331 70.4478 69.0417 70.2933C69.0119 70.216 68.9672 70.1541 68.9374 70.0769C67.7748 70.726 66.6271 71.3597 65.4943 71.9934C66.3141 69.7678 67.9388 67.7894 70.4577 67.7739C70.6217 67.7739 70.8452 67.743 70.9645 67.8358C71.7396 68.5004 72.455 69.2113 72.7978 70.2623C71.2924 70.4169 69.8615 70.556 68.4604 70.6951ZM74.0051 73.4771C73.8114 73.5699 73.5282 73.4617 73.2897 73.4462C73.3344 73.1989 73.3344 72.9053 73.4536 72.6889C74.1542 71.437 75.1975 70.9269 76.5986 71.1742C77.0607 71.2515 77.5376 71.1897 77.9997 71.1897C78.0444 71.267 78.0891 71.3597 78.1338 71.437C76.7626 72.117 75.3913 72.8125 74.0051 73.4771ZM91.7571 63.0599C89.6555 64.7446 87.4943 66.3366 85.3479 67.944C83.8425 69.0722 82.1135 69.6286 80.2653 69.6905C78.7748 69.7368 77.2843 69.6905 75.8086 69.5823C75.2423 69.5359 74.6908 69.2423 74.1393 68.995C73.4536 68.6858 73.2152 68.1449 73.4536 67.3103C73.707 67.3412 73.9604 67.3412 74.2287 67.3876C75.9577 67.6967 77.6867 67.6194 79.4157 67.2639C81.5769 66.8157 83.2016 65.5483 84.4089 63.6627C85.4821 61.978 86.8235 60.6025 88.642 59.7833C89.9983 59.1805 91.3696 59.0723 92.8005 59.3505C93.1284 59.4124 93.4265 59.5978 93.8289 59.7678C93.4861 59.9379 93.2476 60.077 92.8154 60.2933C93.3967 60.2933 93.7842 60.2933 94.1568 60.2933C94.1867 60.3706 94.2314 60.4324 94.2612 60.5097C93.4414 61.3598 92.6812 62.318 91.7571 63.0599Z" fill="#FBFBFB"/>
<path d="M23.0586 68.0985C23.3269 68.3458 23.5505 68.6549 23.8486 68.8558C26.3973 70.5405 28.9014 72.3179 31.5396 73.8326C35.1914 75.9346 39.0816 77.4647 43.1656 78.4384C43.4786 78.5157 43.8065 78.5157 44.1344 78.5466C44.1493 78.4539 44.1642 78.3766 44.1791 78.2838C36.4732 76.3828 29.5721 72.7352 23.2226 67.8821C23.1629 67.9594 23.1182 68.0212 23.0586 68.0985Z" fill="#FBFBFB"/>
<path d="M91.0857 67.6353C85.2429 72.1947 79.0126 75.7186 71.9028 77.8361C74.1088 78.7943 90.6386 69.9845 91.0857 67.6353Z" fill="#FBFBFB"/>
<path d="M32.8653 53.5239C27.6485 53.8949 22.5658 54.8531 17.7515 57.1097C22.6702 55.3477 27.7528 54.374 32.8653 53.5239Z" fill="#FBFBFB"/>
<path d="M82.2769 53.6938C87.0316 54.4975 91.7267 55.5331 96.3324 57.0323C91.831 55.1003 87.1508 53.9566 82.2769 53.6938Z" fill="#FBFBFB"/>
<path d="M84.7379 55.9352C81.6228 55.4561 78.5225 54.9924 75.2881 54.4978C76.0632 55.1933 83.5753 56.3525 84.7379 55.9352Z" fill="#FBFBFB"/>
<path d="M38.0666 54.8989C38.0517 54.8061 38.0368 54.698 38.0219 54.6052C34.9515 55.0998 31.881 55.5789 28.8105 56.0735C28.8255 56.1663 28.8404 56.2435 28.8553 56.3363C31.9406 55.9808 35.026 55.6098 38.0666 54.8989Z" fill="#FBFBFB"/>
<path d="M29.2127 65.5942C28.5121 64.8214 27.9308 63.9405 27.1856 63.2295C26.3956 62.4876 25.4566 61.9157 24.5921 61.2666C24.5772 61.2975 24.5623 61.3284 24.5474 61.3748C25.5162 62.3176 26.5148 63.214 27.4539 64.1878C28.1246 64.8833 28.6612 65.7024 29.3319 66.367C30.0324 67.0471 30.8373 67.6189 31.5975 68.2217C31.6571 68.1444 31.7018 68.0826 31.7614 68.0053C31.4931 67.789 31.2249 67.5726 30.9715 67.3253C30.3753 66.7689 29.7642 66.2125 29.2127 65.5942Z" fill="#FBFBFB"/>
<path d="M83.9292 67.1871C84.272 66.9862 84.6148 66.7544 84.8682 66.4607C85.4793 65.7806 86.001 65.0079 86.6419 64.3896C87.8343 63.2459 89.0864 62.1795 90.1744 61.2212C87.3872 62.1795 85.688 64.7142 83.9292 67.1871Z" fill="#FBFBFB"/>
<path d="M19.6598 16.5998C19.6598 16.677 19.5108 16.9707 19.2127 17.5117C18.8997 18.0526 18.7357 18.4081 18.7357 18.5781C18.7357 19.0418 19.0338 19.49 19.6449 19.9073C20.1666 20.2782 20.6734 20.4637 21.1653 20.4637C21.7615 20.4637 22.1341 20.2782 22.313 19.9073V19.9228C22.8943 18.7481 23.4159 17.6662 23.878 16.6307C24.3401 15.6106 24.7425 14.6523 25.0555 13.7868C25.7113 12.0403 26.2777 10.6802 26.7249 9.73739C27.172 8.77913 27.4999 8.29999 27.6788 8.29999C27.8875 8.29999 28.6178 9.07279 29.8549 10.6338C31.0175 12.0712 31.7032 12.9677 31.9119 13.3077C32.3739 14.0959 32.7913 14.7914 33.1639 15.3942C33.5365 15.997 33.8495 16.5225 34.1327 16.9398H34.1178C34.2221 17.1716 34.3414 17.4189 34.4308 17.7126C34.5352 17.9908 34.6395 18.3154 34.7289 18.6554C34.7736 18.7945 34.7736 19.0109 34.7289 19.2736C34.6991 19.4282 34.6842 19.5827 34.6693 19.7373C34.6544 19.8919 34.6544 20.0155 34.6544 20.0773C35.1463 20.3246 35.7425 20.541 36.443 20.711C37.2777 20.9119 38.008 21.0047 38.6192 21.0047C38.8874 21.0047 39.1706 20.9738 39.4389 20.8965C39.7072 20.8192 39.9755 20.7265 40.2587 20.6183V19.9382C38.3807 17.5889 36.5026 15.2397 34.6097 12.8749C32.7316 10.5102 30.8536 8.1609 28.9606 5.81161C29.0352 5.70342 29.1395 5.51795 29.2885 5.28611C29.4376 5.05427 29.6463 4.72971 29.8997 4.34331C30.3468 3.6478 30.5853 3.19958 30.5853 3.01411C30.5853 2.55044 30.153 1.94766 29.3035 1.23669C28.4539 0.510269 27.8577 0.154785 27.5297 0.154785C26.9037 0.154785 25.8753 1.71582 24.4891 4.85335C24.2655 5.34794 24.0569 5.84252 23.8482 6.33711C23.6395 6.8317 23.4308 7.31083 23.2371 7.80541C23.0135 8.3 22.8048 8.79458 22.5962 9.28917C22.3875 9.78376 22.1788 10.2629 21.9552 10.7575C21.9105 10.8657 21.8658 10.9738 21.836 11.082C21.7913 11.1748 21.7466 11.283 21.7168 11.3757C21.6869 11.4684 21.6422 11.5766 21.5975 11.7003C21.5379 11.8085 21.4932 11.9167 21.4485 12.0248C21.3441 12.2412 21.2398 12.4112 21.1504 12.5658C21.0609 12.7049 20.9566 12.8131 20.8523 12.8595C20.584 12.6276 20.1666 12.2258 19.6002 11.6385C19.0189 11.0511 18.3184 10.3093 17.4986 9.41281C16.4702 8.34636 15.6802 7.48084 15.1287 6.80078C14.5772 6.13618 14.3089 5.70342 14.3089 5.51795C14.3089 5.48704 14.3685 5.37885 14.4729 5.16247C14.5772 4.96154 14.7263 4.68334 14.92 4.34331C15.1585 3.97237 15.3225 3.66325 15.4417 3.43141C15.546 3.18412 15.6057 3.02956 15.6057 2.96774C15.6057 2.56589 15.2181 2.16404 14.458 1.77765C13.7872 1.45307 13.2357 1.28306 12.8035 1.28306C11.3279 1.28306 8.98778 4.66788 5.79809 11.4221V11.4066C5.09755 12.844 4.48644 14.0805 3.94986 15.1315C3.41327 16.1825 2.99593 17.0171 2.66802 17.6353C2.56368 17.8208 2.42953 17.9135 2.29539 17.9135C2.25067 17.9135 2.17615 17.9135 2.07181 17.9135C1.96748 17.9135 1.83333 17.9135 1.68428 17.929C1.55013 17.9444 1.43089 17.9444 1.32656 17.9444C1.22222 17.9444 1.13279 17.9444 1.07317 17.9444H0.983738L0.924117 17.929C0.894307 17.929 0.804876 17.9599 0.64092 18.0217C0.476964 18.0835 0.268292 18.1608 0 18.2535C0.387533 18.5317 0.775066 18.8099 1.19241 19.1036C1.60975 19.3973 1.92276 19.6291 2.16124 19.7991L3.17479 20.6028C3.47289 20.8037 3.86042 20.8965 4.32248 20.8965C5.11245 20.8965 5.63413 20.7574 5.88752 20.4946C6.34958 20.0155 6.81164 19.4282 7.2737 18.7481C7.72085 18.0681 8.18291 17.2798 8.65987 16.3834C9.01759 15.6879 9.36041 14.9924 9.70323 14.2969C10.046 13.6013 10.374 12.9058 10.7168 12.2103C10.8807 11.8857 11.0447 11.5457 11.1937 11.2057C11.3577 10.8657 11.5067 10.5256 11.6558 10.1856V10.2011C12.2371 9.02642 12.6395 8.42364 12.878 8.42364C13.0718 8.42364 14.2344 9.6292 16.3509 12.0558C18.5569 14.5441 19.6598 16.0588 19.6598 16.5998Z" fill="#FBFBFB"/>
<path d="M46.9057 15.3328C46.9057 14.9773 46.9057 14.6527 46.9206 14.3745C46.9206 14.0963 46.9355 13.9418 46.9355 13.9109V13.509C46.9355 13.4163 46.9355 13.2772 46.9355 13.1071C46.9355 12.9371 46.9355 12.7517 46.9504 12.5353V8.02219C46.9504 7.72853 46.7268 7.49669 46.2647 7.35759C45.9368 7.23394 45.6536 7.17212 45.445 7.17212C45.2959 7.17212 44.9829 7.18757 44.5357 7.21848C44.0737 7.2494 43.4626 7.31122 42.7173 7.37304C42.1062 7.45032 41.8081 7.62034 41.8081 7.914C41.8081 8.17674 42.1062 8.3313 42.6875 8.37767C43.0005 8.40858 43.2539 8.43949 43.4328 8.47041C43.6116 8.50132 43.7458 8.53223 43.8203 8.56314L43.8054 8.54769C44.029 8.64042 44.1333 9.02682 44.1333 9.67596C44.1333 9.86143 44.1333 10.0469 44.1482 10.2324C44.1482 10.4178 44.178 10.5879 44.1929 10.727L44.1482 12.2416V13.2926C44.1482 13.339 44.1482 13.4008 44.1333 13.4781C44.1333 13.5708 44.1184 13.6636 44.1035 13.8027C44.1035 13.8336 44.1035 13.8645 44.0886 13.9263C44.0886 13.9727 44.0737 14.019 44.0737 14.05C44.0588 14.1427 44.0588 14.2354 44.0588 14.3282C44.0588 14.4209 44.0588 14.4982 44.0588 14.56C44.029 14.73 44.029 14.9309 44.0588 15.1782C44.0737 15.2864 44.0737 15.3792 44.0737 15.441C44.0737 15.5028 44.0737 15.5337 44.0737 15.5492V16.3838C44.0737 16.4302 44.0588 16.5074 44.029 16.6156V17.0175V19.5986C44.029 19.6913 44.0439 19.7995 44.0588 19.9232C44.0737 20.0623 44.1035 20.2014 44.1482 20.3559C44.2227 20.5105 44.3271 20.6341 44.491 20.7269C44.655 20.8196 44.8637 20.866 45.117 20.866C45.1618 20.866 45.3704 20.8505 45.7281 20.8041C46.1157 20.7578 46.3094 20.7423 46.3244 20.7423C46.6076 20.7114 46.8758 20.696 47.0994 20.6805C47.323 20.665 47.5168 20.6496 47.6658 20.6187C48.1875 20.5259 48.4409 20.325 48.4409 20.0004C48.4409 19.8923 48.4111 19.7995 48.3664 19.7377C48.3216 19.6759 48.2471 19.645 48.1428 19.614C47.8894 19.5986 47.6807 19.5831 47.5019 19.5522C47.4571 19.5522 47.4124 19.5522 47.3528 19.5368C47.2932 19.5368 47.2485 19.5213 47.2038 19.5213C47.159 19.4904 47.1143 19.3822 47.0547 19.1813L47.0696 19.1967C47.0398 19.0576 47.0249 18.934 46.9951 18.8567C46.9802 18.764 46.9653 18.7022 46.9653 18.6403V17.7903C46.9653 17.6975 46.9504 17.6202 46.9355 17.5584C46.9206 17.4811 46.8907 17.4193 46.8609 17.342V17.3575C46.8609 17.2957 46.8609 17.2648 46.846 17.2493C46.846 17.0329 46.846 16.7547 46.846 16.3838C46.9057 16.0592 46.9057 15.7037 46.9057 15.3328Z" fill="#FBFBFB"/>
<path d="M54.4636 9.3044C54.2996 9.39713 54.1357 9.48987 53.9866 9.59806C53.8227 9.70625 53.6736 9.82989 53.5097 9.95354C53.1519 10.2627 52.8389 10.5409 52.5706 10.8036C52.3024 11.0509 52.0788 11.2982 51.8999 11.5146C51.5273 11.9937 51.2441 12.4265 51.0354 12.782C50.8267 13.1374 50.6926 13.4466 50.6181 13.6629C50.5286 13.8948 50.4392 14.0493 50.3498 14.1266C50.2156 14.6521 50.1411 15.2085 50.1411 15.8113C50.1411 16.3986 50.2007 16.8932 50.32 17.2796C50.4094 17.5578 50.5436 17.8669 50.7522 18.1915C50.9609 18.5161 51.2143 18.8252 51.5273 19.1343C51.8552 19.4434 52.1831 19.7062 52.4961 19.9071C52.8091 20.108 53.1072 20.2471 53.4053 20.3244L53.3904 20.3089C53.5395 20.3862 53.6736 20.448 53.778 20.4944C53.8823 20.5562 53.9717 20.5871 54.0313 20.6181C54.7915 20.7417 55.3281 20.8035 55.6858 20.8035C56.6397 20.8035 57.5191 20.6026 58.2942 20.2007C58.3538 20.1853 58.3985 20.1698 58.4433 20.1544C58.488 20.1389 58.5327 20.1235 58.5774 20.108C58.637 20.0771 58.6817 20.0616 58.7414 20.0462C58.801 20.0307 58.8308 20.0153 58.8606 19.9998C59.427 19.7216 59.9189 19.428 60.3362 19.1497C60.7685 18.8715 61.1262 18.6088 61.4243 18.346C62.9595 17.0014 63.7346 15.5949 63.7346 14.1575C63.7346 13.833 63.7197 13.5238 63.6899 13.2611C63.6601 12.9983 63.6004 12.782 63.5408 12.6274C63.3619 12.1792 63.1235 11.7155 62.8105 11.2364C62.4975 10.7727 62.1397 10.309 61.7224 9.84535C61.4541 9.5826 61.2007 9.3044 60.9324 9.05711C60.6641 8.79436 60.4107 8.53161 60.1574 8.26886C59.8891 7.99065 59.6059 7.71245 59.3376 7.43425C59.0693 7.1715 58.7861 6.89329 58.5178 6.59963C58.2644 6.33688 58.0557 6.1205 57.862 5.95049C57.6831 5.76502 57.5191 5.62592 57.385 5.48681L57.2807 5.37862C57.1316 5.22406 56.9378 4.99223 56.6845 4.69857C56.4311 4.40491 56.1628 4.03397 55.8349 3.61666C55.03 2.47293 54.6126 1.77742 54.6126 1.49921C54.6126 1.39102 54.6126 1.31374 54.6276 1.31374C54.6723 1.20555 54.8064 1.0819 55.0598 0.958257C55.3281 0.803699 55.4771 0.633687 55.4771 0.448218C55.4771 0.40185 55.4622 0.355484 55.4473 0.309116C55.4324 0.262749 55.4026 0.200926 55.3728 0.154558C55.2685 0.108191 55.179 0.0772781 55.1343 0.0618223C55.0896 0.0463665 55.0449 0.0309126 55.0002 0.0154568C54.9704 9.43118e-07 54.9257 0 54.8809 0C54.8213 0 54.7915 0 54.7617 0C54.5977 0 54.3593 0.0618214 54.0313 0.200924C53.7034 0.340026 53.3457 0.525499 52.9433 0.788247C51.9446 1.40648 51.4379 1.96289 51.4379 2.50384C51.4379 2.7975 52.2875 4.1267 53.9866 6.46053C54.091 6.56872 54.1953 6.67691 54.2847 6.76964C54.3742 6.86238 54.4487 6.95511 54.5232 7.03239C54.6276 7.14058 54.7319 7.24878 54.8064 7.34151C54.8958 7.43424 54.9704 7.51152 55.03 7.5888L55.3579 7.92883C55.3877 7.95974 55.4175 7.9752 55.4473 8.00611C55.4771 8.03702 55.507 8.05248 55.5368 8.08339C55.7007 8.2534 55.7902 8.36159 55.7902 8.37705C55.8051 8.57797 55.3579 8.87163 54.4636 9.3044ZM57.1018 10.1081C57.3403 10.1081 57.4893 10.139 57.549 10.2163C57.9216 10.5409 58.3091 10.8963 58.7116 11.2827C59.114 11.6691 59.5015 12.0555 59.8592 12.4574C59.9934 12.6119 60.1424 12.7974 60.2766 12.9983C60.4256 13.1993 60.5747 13.4311 60.7237 13.6784C61.0666 14.3121 61.2454 14.7603 61.2454 15.0694C61.2454 16.0277 60.5896 16.8468 59.263 17.5269C58.7116 17.8051 58.2048 18.0215 57.7427 18.1606C57.2807 18.2997 56.8186 18.377 56.3864 18.377C56.4162 18.377 56.3864 18.3615 56.2969 18.346C56.2075 18.3306 56.133 18.2997 56.0584 18.2688V18.2842C55.9988 18.2688 55.9541 18.2533 55.9243 18.2379C55.8945 18.2224 55.8647 18.2224 55.8498 18.2224H55.8647C55.5666 18.1606 55.3281 18.1142 55.1492 18.0833C54.9704 18.0524 54.8362 18.006 54.7617 17.9442C54.1655 17.6351 53.6885 17.1559 53.3159 16.5068C52.9582 15.8113 52.7793 15.1776 52.7793 14.6057C52.7793 14.5748 52.8091 14.4666 52.8837 14.2812C52.9582 14.0957 53.0327 13.8639 53.1072 13.6011C53.2712 13.1838 53.4948 12.782 53.7929 12.3801C54.091 11.9783 54.4487 11.5919 54.8511 11.2209C55.7156 10.4945 56.4609 10.1081 57.1018 10.1081Z" fill="#FBFBFB"/>
<path d="M71.6328 0.989268C71.9011 0.83471 72.0502 0.664698 72.0502 0.479228C72.0502 0.432861 72.0353 0.38649 72.0203 0.340122C72.0054 0.293755 71.9756 0.231931 71.9458 0.185564C71.8415 0.139197 71.7521 0.108289 71.7073 0.0928329C71.6626 0.0773771 71.6179 0.0619184 71.5732 0.0464626C71.5434 0.0310068 71.4987 0.0310059 71.4539 0.0310059C71.3943 0.0310059 71.3645 0.0310059 71.3347 0.0310059C71.1708 0.0310059 70.9323 0.0928319 70.6044 0.231934C70.2764 0.371037 69.9187 0.556504 69.5163 0.819253C68.5176 1.43749 68.0109 1.9939 68.0109 2.53485C68.0109 2.82851 68.8605 4.15771 70.5596 6.49154C70.664 6.59973 70.7683 6.70792 70.8577 6.80065C70.9472 6.89339 71.0217 6.98612 71.0962 7.0634C71.2006 7.17159 71.3049 7.27978 71.3794 7.37252C71.4689 7.46525 71.5434 7.54253 71.603 7.61981L71.9309 7.95984C71.9607 7.99075 71.9905 8.00621 72.0203 8.03712C72.0502 8.06803 72.08 8.08349 72.1098 8.1144C72.2737 8.28441 72.3632 8.3926 72.3632 8.40806C72.3632 8.57807 71.916 8.87173 71.0217 9.30449C70.8577 9.39723 70.6938 9.48997 70.5447 9.59816C70.3808 9.70635 70.2317 9.82999 70.0678 9.95364C69.7101 10.2628 69.397 10.541 69.1288 10.8037C68.8605 11.051 68.6369 11.2983 68.458 11.5147C68.0854 11.9938 67.8022 12.4266 67.5935 12.782C67.3849 13.1375 67.2507 13.4467 67.1762 13.663C67.0868 13.8949 66.9973 14.0494 66.9079 14.1267C66.7737 14.6522 66.6992 15.2086 66.6992 15.8114C66.6992 16.3987 66.7588 16.8933 66.8781 17.2797C66.9675 17.5579 67.1017 17.867 67.3103 18.1916C67.519 18.5162 67.7724 18.8253 68.0854 19.1344C68.4133 19.4435 68.7412 19.7063 69.0542 19.9072C69.3672 20.1081 69.6653 20.2472 69.9634 20.3245L69.9485 20.309C70.0976 20.3863 70.2317 20.4481 70.3361 20.4945C70.4404 20.5563 70.5298 20.5872 70.5895 20.6181C71.3496 20.7418 71.8862 20.8036 72.2439 20.8036C73.1979 20.8036 74.0773 20.6027 74.8523 20.2008C74.9119 20.1854 74.9567 20.1699 75.0014 20.1545C75.0461 20.139 75.0908 20.1236 75.1355 20.1081C75.1951 20.0772 75.2399 20.0617 75.2995 20.0463C75.3591 20.0308 75.3889 20.0154 75.4187 19.9999C75.9851 19.7217 76.477 19.4281 76.8943 19.1498C77.3266 18.8716 77.6843 18.6089 77.9824 18.3461C79.5176 17.0015 80.2927 15.595 80.2927 14.1576C80.2927 13.833 80.2778 13.5239 80.248 13.2612C80.2182 12.9984 80.1585 12.782 80.0989 12.6275C79.9201 12.1793 79.6816 11.7156 79.3686 11.2365C79.0556 10.7728 78.6978 10.3091 78.2805 9.84545C78.0122 9.5827 77.7588 9.3045 77.4905 9.0572C77.2222 8.79445 76.9688 8.5317 76.7155 8.26896C76.4472 7.99075 76.164 7.71255 75.8957 7.43434C75.6274 7.17159 75.3442 6.89339 75.0759 6.59973C74.8225 6.33698 74.6138 6.1206 74.4201 5.95058C74.2412 5.76511 74.0773 5.62601 73.9431 5.48691L73.8388 5.37872C73.6897 5.22416 73.496 4.99232 73.2426 4.69866C72.9892 4.405 72.7209 4.03406 72.393 3.61676C71.5881 2.47303 71.1708 1.77751 71.1708 1.49931C71.1708 1.39112 71.1708 1.31384 71.1857 1.31384C71.2453 1.25202 71.3943 1.12837 71.6328 0.989268ZM73.6599 10.1082C73.8984 10.1082 74.0474 10.1391 74.1071 10.2164C74.4797 10.541 74.8672 10.8964 75.2697 11.2828C75.6721 11.6692 76.0596 12.0556 76.4174 12.4575C76.5515 12.612 76.7006 12.7975 76.8347 12.9984C76.9837 13.1994 77.1328 13.4312 77.2819 13.6785C77.6247 14.3122 77.8035 14.7604 77.8035 15.0695C77.8035 16.0278 77.1477 16.8469 75.8212 17.527C75.2697 17.8052 74.7629 18.0216 74.3008 18.1607C73.8388 18.2998 73.3767 18.3771 72.9445 18.3771C72.9743 18.3771 72.9445 18.3616 72.855 18.3461C72.7656 18.3307 72.6911 18.2998 72.6166 18.2689V18.2843C72.5569 18.2689 72.5122 18.2534 72.4824 18.238C72.4526 18.2225 72.4228 18.2225 72.4079 18.2225H72.4228C72.1247 18.1607 71.8862 18.1143 71.7073 18.0834C71.5285 18.0525 71.3943 18.0061 71.3198 17.9443C70.7236 17.6352 70.2466 17.156 69.874 16.5069C69.5163 15.8114 69.3374 15.1777 69.3374 14.6058C69.3374 14.5749 69.3672 14.4667 69.4418 14.2813C69.5163 14.0958 69.5908 13.864 69.6653 13.6012C69.8293 13.1839 70.0529 12.7821 70.351 12.3802C70.6491 11.9784 71.0068 11.592 71.4092 11.221C72.2588 10.4946 73.019 10.1082 73.6599 10.1082Z" fill="#FBFBFB"/>
<path d="M96.764 18.7791C96.7193 18.7791 96.6597 18.7791 96.5852 18.7946C96.4957 18.7946 96.4212 18.8255 96.3318 18.8409C96.2722 18.8564 96.2125 18.8718 96.1529 18.8873C96.0933 18.9027 96.0188 18.9182 95.9591 18.9337C95.4971 19.0728 95.1841 19.15 95.0499 19.15C94.8413 19.1809 94.6028 19.1964 94.3345 19.2119C94.0662 19.2273 93.7681 19.2273 93.4551 19.2273C92.9483 19.2273 92.4415 19.2119 91.9497 19.181C91.4578 19.15 90.9659 19.1037 90.489 19.0573C90.3846 19.0418 90.2654 19.0418 90.176 19.0418C90.0716 19.0418 89.9822 19.0418 89.8928 19.0418C89.6543 19.0109 89.5052 18.9646 89.4158 18.8873C89.3264 18.81 89.2817 18.7482 89.2817 18.7018L89.1773 5.17798C89.073 4.40519 88.7302 4.0188 88.1489 4.0188H83.2749V4.63703C83.6177 4.93069 84.0649 5.08525 84.6164 5.10071C85.1231 5.13162 85.466 5.19344 85.6299 5.28617C85.7939 5.37891 85.8982 5.51801 85.9429 5.71894C85.9429 5.82713 85.9429 5.95077 85.9578 6.08988C85.9578 6.22898 85.9727 6.38354 85.9727 6.56901C85.9727 6.73902 85.9727 6.92449 85.9578 7.14087C85.9578 7.35725 85.9429 7.58909 85.9429 7.82093C85.928 8.23824 85.9578 8.54735 86.0323 8.77919C86.1069 9.01102 86.1665 9.15013 86.241 9.2274H85.9131V11.0821C85.9131 11.0976 85.9131 11.1285 85.928 11.1748C85.928 11.2212 85.9429 11.2676 85.9429 11.2985C85.9578 11.3758 85.9578 11.4376 85.9578 11.5149C85.9578 11.5921 85.9578 11.654 85.9578 11.7003C85.9429 11.7776 85.928 11.8858 85.8982 12.0249C85.8684 12.1795 85.8535 12.2722 85.8535 12.334V18.8873C85.8535 19.2428 85.9131 19.5673 86.0174 19.8455H86.0025C86.1814 20.402 86.4944 20.6802 86.9267 20.6802H93.7681C93.9171 20.6802 94.1407 20.6492 94.4537 20.5874C94.7518 20.5256 95.1245 20.4483 95.5716 20.3247C96.1678 20.1856 96.615 20.0156 96.928 19.8455C97.241 19.6601 97.4049 19.4901 97.4049 19.3046V18.9491C97.2708 18.8564 97.1516 18.81 97.0621 18.7791C96.9131 18.7946 96.8386 18.7791 96.764 18.7791Z" fill="#FBFBFB"/>
<path d="M106.898 9.83043C106.958 9.90771 107.018 10.0314 107.077 10.1859C107.167 10.495 107.375 10.6496 107.674 10.6496C107.957 10.6496 108.24 10.5105 108.523 10.2168C108.836 9.92316 109 9.61404 109 9.30493C109 8.5785 108.419 8.03755 107.271 7.69752C106.869 7.58933 106.481 7.4966 106.079 7.43478C105.676 7.37295 105.274 7.34204 104.842 7.34204C104.081 7.34204 103.351 7.43477 102.621 7.6357C102.308 7.72844 102.01 7.83663 101.741 7.92936C101.473 8.02209 101.294 8.08392 101.22 8.13029C100.907 8.28485 100.594 8.47032 100.266 8.67124C99.9527 8.87217 99.6695 9.08854 99.4161 9.30493C98.5963 10.0623 98.0001 11.0205 97.6424 12.1643H97.6573C97.5083 12.5816 97.4039 12.968 97.3443 13.3234C97.2847 13.6789 97.2549 14.0035 97.2549 14.3126C97.2549 15.4409 97.4785 16.4764 97.9405 17.4347C98.1939 18.0065 98.5665 18.5166 99.0286 18.9648C99.4907 19.413 99.9825 19.7685 100.504 20.0467C100.936 20.2476 101.294 20.4022 101.548 20.5258C101.801 20.6495 101.965 20.7268 102.025 20.7577C102.531 20.8968 103.172 20.9741 103.932 20.9741C104.365 20.9741 104.767 20.9277 105.11 20.8195C105.587 20.6495 106.019 20.4949 106.392 20.3558C106.764 20.2167 107.077 20.0776 107.346 19.9231C107.45 19.8458 107.569 19.784 107.688 19.7067C107.808 19.6294 107.942 19.5521 108.061 19.4439C108.255 19.2739 108.389 19.1194 108.464 18.9957C108.538 18.8721 108.583 18.7484 108.583 18.6402C108.583 18.3002 108.434 18.1302 108.136 18.1302C107.972 18.1302 107.688 18.2229 107.271 18.3929C107.197 18.4239 107.107 18.4702 107.003 18.5166C106.794 18.6248 106.63 18.7021 106.511 18.7021C105.363 18.9957 104.678 19.1503 104.454 19.1503C103.679 19.1503 102.889 18.8721 102.069 18.3157H102.084C101.16 17.6665 100.668 16.9092 100.579 16.0591C100.564 15.9973 100.549 15.9355 100.549 15.8736C100.549 15.7964 100.534 15.7345 100.519 15.6882C100.489 15.58 100.474 15.4718 100.474 15.3945C100.474 15.3018 100.459 15.2245 100.445 15.1318C100.445 15.1163 100.445 15.1009 100.445 15.0854C100.445 15.0699 100.445 15.0236 100.459 14.9463C100.459 14.9154 100.459 14.869 100.474 14.8072C100.474 14.7454 100.489 14.6835 100.489 14.6526C100.564 14.6217 100.758 14.6063 101.085 14.5908H101.1C101.354 14.5754 101.562 14.5599 101.756 14.5599C101.935 14.5599 102.069 14.529 102.159 14.5135L105.229 14.4672C105.378 14.4672 105.617 14.5599 105.93 14.7454C106.272 14.9618 106.496 15.0699 106.615 15.0699C106.779 15.0699 106.913 15.039 107.033 14.9772C107.092 14.9463 107.182 14.8999 107.331 14.8227C107.48 14.7454 107.629 14.6526 107.778 14.529C108.21 14.2199 108.419 13.9262 108.419 13.6789C108.419 13.1689 107.972 12.9061 107.077 12.9061H103.992C103.977 12.9061 103.962 12.9061 103.932 12.8907C103.903 12.8907 103.873 12.8752 103.843 12.8752C103.798 12.8752 103.754 12.8752 103.709 12.8752C103.664 12.8752 103.604 12.8752 103.53 12.8598H103.545C103.426 12.8443 103.321 12.8289 103.232 12.8289C103.142 12.8289 103.098 12.8134 103.068 12.8134H100.922C100.668 12.8134 100.564 12.6743 100.594 12.3806C100.594 12.3034 100.683 12.0715 100.877 11.6697C101.071 11.2678 101.309 10.8969 101.622 10.5568C101.92 10.2168 102.233 9.92316 102.576 9.67587C103.202 9.24311 103.873 9.04218 104.558 9.04218C104.856 9.04218 105.244 9.104 105.736 9.22765C106.272 9.39766 106.615 9.53676 106.764 9.6295H106.749C106.764 9.67587 106.839 9.75315 106.898 9.83043Z" fill="#FBFBFB"/>
<path d="M20.2274 41.19C21.5838 41.8391 22.3589 42.1946 22.5377 42.2564C22.9402 42.3492 23.3724 42.4264 23.8494 42.4574C24.3263 42.4883 24.8182 42.5037 25.3399 42.5037C25.9212 42.5037 26.4876 42.4419 27.054 42.3028C27.6204 42.1637 28.1868 41.9782 28.7681 41.7309C28.8575 41.6846 29.0662 41.5918 29.3494 41.4682C29.6475 41.3291 30.0052 41.1745 30.4076 40.9891C30.5716 40.9118 30.7505 40.819 30.9293 40.6954C31.1082 40.5718 31.3019 40.4326 31.4808 40.2626C31.9727 39.8299 32.2261 39.4589 32.2261 39.1498C32.2261 38.7171 32.0323 38.5161 31.6448 38.5161C31.4957 38.5161 31.3168 38.547 31.1231 38.6089C30.9293 38.6707 30.6759 38.7634 30.3927 38.8716C30.1095 39.0107 29.871 39.1189 29.6773 39.1962C29.4835 39.2735 29.3345 39.3353 29.2301 39.3507L27.6651 39.7835H27.68C27.0391 39.9535 26.5025 40.0463 26.1001 40.0463C24.9375 40.0463 23.745 39.6135 22.5228 38.748C21.1367 37.8361 20.3616 36.6769 20.2125 35.2395C20.1976 35.1777 20.1976 35.1313 20.1976 35.1004C20.1976 35.0695 20.1976 35.0386 20.1827 35.0077C20.1529 34.7604 20.1231 34.544 20.0933 34.3276C20.0635 34.1267 20.0337 33.9567 20.0039 33.8485C20.0039 33.7248 20.0188 33.493 20.0635 33.1375C20.0784 33.0448 20.4063 32.9675 21.0472 32.9211C21.4049 32.8902 21.7179 32.8748 21.9862 32.8593C22.2545 32.8438 22.4483 32.8284 22.5526 32.8129H22.657C22.9998 32.8129 23.3724 32.8129 23.7599 32.7975C24.1475 32.7975 24.5499 32.782 24.9524 32.782C25.3548 32.782 25.7572 32.7666 26.1448 32.7666C26.5323 32.7666 26.9049 32.7511 27.2627 32.7511C27.3968 32.7666 27.5608 32.8129 27.7545 32.8748C27.9483 32.952 28.1421 33.0448 28.3507 33.1684C28.8128 33.4466 29.1407 33.6012 29.3196 33.6012C29.558 33.6012 29.7518 33.5703 29.9009 33.493H29.886C30.035 33.4466 30.199 33.3693 30.3629 33.2611C30.5418 33.153 30.7504 33.0139 30.9889 32.8438C31.6 32.4265 31.8981 32.0401 31.8981 31.6692C31.8981 31.2519 31.6299 30.9582 31.0784 30.7728C30.7206 30.6491 30.3629 30.5873 30.0052 30.5873H25.3697C25.2952 30.5873 25.0716 30.5718 24.6841 30.5255C24.535 30.51 24.386 30.4946 24.2369 30.4791C24.0879 30.4636 24.0133 30.4637 23.9835 30.4637H20.7938C20.5703 30.4637 20.4212 30.4482 20.3467 30.4173H20.3616C20.2274 30.3245 20.1678 30.1082 20.1976 29.7372C20.1976 29.6136 20.3467 29.2426 20.6448 28.6244C21.241 27.3725 22.0906 26.3679 23.1936 25.5951H23.1787C24.1922 24.9305 25.2057 24.5904 26.2193 24.5904C26.7112 24.5904 27.3223 24.6986 28.0526 24.915C28.4103 25.0232 28.7084 25.1314 28.9618 25.2241C29.2152 25.3169 29.409 25.4251 29.5431 25.5332C29.7965 25.7187 29.9903 26.0124 30.1542 26.4297C30.3182 26.8624 30.5865 27.0634 30.9293 27.0634C31.287 27.0634 31.7044 26.8624 32.1664 26.4451V26.4606C32.6136 26.0278 32.8521 25.5951 32.8521 25.1623C32.8521 24.0649 31.8832 23.2612 29.9456 22.7512C28.8128 22.4575 27.7098 22.303 26.6664 22.303C25.5635 22.303 24.4754 22.473 23.3724 22.7976C22.8209 22.9521 22.3738 23.0912 22.031 23.2149C21.6881 23.3385 21.4348 23.4313 21.2857 23.5085C20.3318 23.9568 19.4524 24.5441 18.6475 25.286C18.0364 25.8424 17.4998 26.476 17.0676 27.1716C16.6353 27.8825 16.2776 28.6553 15.9944 29.5054C15.7261 30.3709 15.5472 31.0201 15.4727 31.4528C15.428 31.7001 15.4131 32.102 15.4131 32.6893C15.4131 34.3585 15.7559 35.9041 16.4415 37.326C16.8589 38.207 17.3806 38.9643 18.0066 39.598C18.6773 40.2472 19.3928 40.7727 20.2274 41.19Z" fill="#FBFBFB"/>
<path d="M48.4128 42.1633C48.4575 42.1324 48.5171 42.086 48.5917 42.0396C48.6662 41.9778 48.7258 41.9469 48.7407 41.916V41.406C48.6364 41.3441 48.5768 41.3287 48.5917 41.3441C48.4575 41.2514 48.3383 41.1896 48.2489 41.1123C48.1594 41.0505 48.0998 41.0041 48.0551 40.9887C47.757 40.8805 47.4291 40.6023 47.0863 40.185C46.7434 39.7522 46.4006 39.1958 46.0727 38.4694C45.9684 38.2221 45.864 37.9902 45.7597 37.7584C45.6703 37.5266 45.5659 37.3102 45.4765 37.1247C45.238 36.5837 45.0294 36.1046 44.8207 35.6719C44.6269 35.2391 44.448 34.8682 44.3139 34.559C44.0754 34.1417 43.8817 33.7708 43.7028 33.4462C43.5239 33.1216 43.3898 32.8589 43.2556 32.658C42.6445 31.4833 41.9887 30.556 41.3329 29.845C40.6621 29.1341 40.0212 28.794 39.4101 28.794H38.9928C38.9033 28.7786 38.8139 28.7786 38.7245 28.7786C38.6351 28.7786 38.5903 28.7786 38.5605 28.7786H38.0836C37.9643 28.794 37.86 28.794 37.7855 28.794C37.7109 28.794 37.6513 28.794 37.6364 28.794L36.4887 28.8558C36.2502 28.8868 36.0565 28.964 35.8776 29.0877V29.5359C36.131 29.7523 36.444 29.8759 36.8464 29.9223C37.234 29.9687 37.4725 30.015 37.5917 30.0459C37.696 30.0923 37.7855 30.1387 37.86 30.216C38.9183 31.437 39.4399 32.3179 39.4399 32.8589C39.4399 32.9671 39.425 33.0444 39.3803 33.0907C38.9033 33.6162 38.5307 34.0335 38.2773 34.3427C38.0239 34.6518 37.86 34.8372 37.8004 34.93C37.5619 35.2082 37.3532 35.4709 37.1594 35.6873C36.9657 35.9037 36.8017 36.1046 36.6378 36.2746C34.8342 38.5621 33.9399 39.8295 33.9399 40.0613C33.9399 40.4322 34.1486 40.8032 34.5511 41.1896C34.9684 41.576 35.3261 41.8078 35.6391 41.9006C35.9223 41.9933 36.2651 42.0706 36.6527 42.1169C37.0402 42.1633 37.4426 42.1788 37.8898 42.1788C38.5754 42.1788 39.0822 42.1324 39.3952 42.0551C39.8871 41.9315 40.4833 41.6223 41.1689 41.1432H41.154C42.1527 40.4786 42.7787 40.1386 43.0321 40.1386C43.0917 40.1386 43.1364 40.185 43.1811 40.2622C43.2258 40.3395 43.2855 40.4322 43.3302 40.525V40.4786L43.4345 40.695C43.5686 40.8959 43.673 41.0505 43.7475 41.1587C43.822 41.2669 43.8817 41.3596 43.9413 41.4214C44.3437 41.8696 44.6716 42.1324 44.9548 42.1633C45.0443 42.1788 45.238 42.1788 45.5361 42.1788C45.8193 42.1788 46.2069 42.1788 46.6689 42.1788C47.1608 42.1788 47.5483 42.1788 47.8464 42.1788C48.1445 42.1942 48.3383 42.1788 48.4128 42.1633ZM42.2272 38.763C42.1228 38.8403 42.0036 38.933 41.8695 39.0258C41.8397 39.0567 41.8098 39.0721 41.78 39.103C41.7502 39.1185 41.7204 39.1494 41.6906 39.1803L41.5266 39.304L41.5416 39.2885C41.2733 39.4431 41.0497 39.5667 40.8708 39.644C40.692 39.7367 40.5727 39.7831 40.5131 39.814C40.1554 39.9377 39.8275 40.0458 39.5443 40.1077C39.2611 40.185 38.9928 40.2159 38.7394 40.2159C38.486 40.2159 38.173 40.1077 37.7706 39.8758C37.383 39.6285 37.1893 39.3813 37.1893 39.134C37.1893 38.9021 37.3681 38.5312 37.7258 38.0057C37.8153 37.913 37.8898 37.8048 37.9494 37.712C38.0239 37.6193 38.0836 37.5111 38.1581 37.4184L38.337 37.1865C38.3668 37.1556 38.4115 37.0938 38.486 36.9856C38.5605 36.8774 38.6351 36.7692 38.7245 36.661C39.0822 36.2128 39.4101 35.8264 39.7082 35.4864C40.0063 35.1464 40.2448 34.8991 40.4237 34.7445C40.5429 34.8218 40.7367 35.1155 40.9752 35.6409C41.4074 36.5374 41.7502 37.2329 41.9887 37.7275C42.2272 38.2221 42.3315 38.5157 42.3315 38.6085C42.3762 38.6239 42.3315 38.6857 42.2272 38.763Z" fill="#FBFBFB"/>
<path d="M62.7509 41.4221C63.0192 41.2985 63.1832 41.1903 63.2279 41.0975L63.1832 40.8657C62.9745 40.6339 62.6764 40.5257 62.3038 40.5257C62.0057 40.5102 61.797 40.4793 61.7076 40.4175L61.7225 40.4329C61.4542 40.232 61.1114 39.9693 60.7387 39.6292C60.3512 39.2892 59.919 38.8719 59.4271 38.3928C58.339 37.3727 57.8024 36.7854 57.8024 36.6617C57.862 36.6154 57.9366 36.569 58.026 36.4917C58.1154 36.4144 58.2049 36.3372 58.3241 36.2599C58.4433 36.1671 58.5775 36.0744 58.7414 35.9353C59.1737 35.5953 59.5612 35.2862 59.8891 34.9925C60.2171 34.7143 60.5002 34.4515 60.7089 34.2043H60.694C61.4244 33.3696 61.7821 32.535 61.7821 31.7004C61.7821 30.9894 61.5883 30.3557 61.2008 29.7839C60.9623 29.4748 60.694 29.2275 60.3959 29.042C60.0978 28.8565 59.755 28.7793 59.3824 28.7793C58.8458 28.7793 58.3092 28.8565 57.7875 29.0111C57.2658 29.1656 56.7442 29.3975 56.2374 29.7221C55.5219 30.1703 54.8363 30.7421 54.1954 31.4531C53.8377 31.8395 53.6141 32.1177 53.5396 32.3032C53.5247 32.2877 53.5098 32.2723 53.4948 32.2568C53.4799 32.2414 53.4501 32.2104 53.4501 32.1795C53.4799 31.9632 53.4501 31.6386 53.3607 31.1904V31.2058C53.3309 31.0667 53.316 30.9276 53.316 30.804C53.316 30.6803 53.3011 30.5876 53.2862 30.5258C53.2862 30.5103 53.2862 30.4948 53.2713 30.4794C53.2713 30.4639 53.2564 30.4485 53.2564 30.433L53.2415 30.4176L53.2564 30.2939C53.2564 30.2012 53.2564 30.1394 53.2564 30.1085C53.2564 30.0621 53.2415 29.9694 53.2117 29.8148C53.1818 29.7839 53.1371 29.7221 53.0924 29.6448C53.0328 29.552 53.003 29.5057 52.9732 29.4748C52.9135 29.382 52.8688 29.3202 52.8241 29.2429C52.7794 29.1811 52.7347 29.1193 52.69 29.042C52.5558 28.9338 52.2726 28.872 51.8702 28.872C51.7957 28.872 51.7659 28.872 51.751 28.8565C51.6913 28.8411 51.6466 28.8256 51.6168 28.8102C51.587 28.7947 51.5572 28.7947 51.5274 28.7947H51.4678L51.0504 28.7483C50.797 28.702 50.6331 28.6865 50.5585 28.6865C49.7984 28.6865 49.3363 28.9029 49.1724 29.3511C49.3065 29.552 49.6344 29.7221 50.1412 29.8612C50.4095 29.9694 50.5734 30.1857 50.6182 30.4949C50.6182 31.0667 50.6182 31.7159 50.6033 32.4268C50.6033 33.1533 50.5883 33.8797 50.5883 34.6215C50.5883 35.3634 50.5883 36.1053 50.5734 36.8163C50.5734 37.5427 50.5585 38.1764 50.5585 38.7483C50.5287 38.8101 50.5138 38.8874 50.5138 39.011C50.5138 39.1347 50.5138 39.2892 50.4989 39.4901C50.4989 39.5365 50.4989 39.5829 50.484 39.6138C50.484 39.6602 50.4691 39.7065 50.4691 39.7374C50.4244 40.1856 50.3648 40.603 50.2604 40.9739H50.2753C50.2604 40.9893 50.2455 41.0203 50.2306 41.0666C50.2157 41.113 50.171 41.1748 50.0965 41.283C49.9623 41.5458 49.8878 41.7312 49.8878 41.8858C50.1412 42.1485 50.648 42.2722 51.3932 42.2722C52.7794 42.2722 53.4799 41.9785 53.4799 41.3912V39.8147C53.4799 39.7529 53.465 39.6601 53.4352 39.521L53.3905 39.3665V35.0079C53.3905 34.3743 53.9271 33.5087 55.0003 32.3959C56.1032 31.2522 57.087 30.6803 57.9813 30.6494C58.2198 30.634 58.4135 30.6958 58.5924 30.804C58.7713 30.9276 58.9203 31.1131 59.0694 31.3449C59.3227 31.7777 59.4569 32.195 59.442 32.6123C59.4271 32.8596 59.3377 33.1223 59.1588 33.416C58.9799 33.7097 58.6967 34.0342 58.2943 34.3897H58.3092C58.1154 34.5752 57.8322 34.807 57.4596 35.0852C57.087 35.3634 56.61 35.7035 56.0436 36.1053H56.0585C55.1791 36.7081 54.7469 37.1099 54.7469 37.3418C54.7469 37.4963 54.9406 37.8054 55.3282 38.2537C55.7157 38.7019 56.2672 39.2737 56.9677 39.9538C57.713 40.6802 58.3539 41.2366 58.9054 41.623C59.4569 42.0094 59.8742 42.2104 60.1574 42.2104C60.3065 42.2104 60.5301 42.1794 60.8431 42.1022C61.1412 42.0249 61.4691 41.9167 61.8268 41.7776C62.1696 41.6694 62.4677 41.5458 62.7509 41.4221Z" fill="#FBFBFB"/>
<path d="M72.1414 30.8967C72.1712 30.8658 72.201 30.8503 72.2308 30.8349C72.2607 30.8194 72.2905 30.8039 72.3203 30.7885C72.4693 30.7576 72.6184 30.7267 72.7525 30.6803C72.8867 30.6339 73.0208 30.603 73.1401 30.5721H74.3921C74.4219 30.5721 74.4815 30.5721 74.556 30.5721C74.6455 30.5721 74.72 30.5721 74.8094 30.5567C74.8989 30.5412 74.9734 30.5412 75.0628 30.5412C75.1523 30.5412 75.2268 30.5412 75.2864 30.5257C75.659 30.5103 76.0316 30.4794 76.4043 30.4485C76.7769 30.4176 77.0899 30.3712 77.3731 30.3094C77.4625 30.2939 77.5371 30.263 77.6414 30.2012C77.7308 30.1394 77.8501 30.0621 77.9842 29.9693C78.2376 29.7993 78.3718 29.5984 78.3718 29.3511C78.3718 29.0111 78.1333 28.8411 77.6712 28.8411C77.5669 28.8411 77.4029 28.8565 77.1943 28.872C76.9856 28.8874 76.7471 28.9183 76.4788 28.9493L69.8758 28.9029C69.2349 28.9956 68.6983 29.0574 68.2661 29.0884C68.1916 29.1038 68.1319 29.1193 68.0425 29.1193C67.968 29.1193 67.8935 29.1347 67.8189 29.1502C67.6252 29.1811 67.3569 29.2429 66.9992 29.3511C66.6563 29.4593 66.2986 29.5829 65.9409 29.7066C65.8216 29.753 65.6875 29.7993 65.5534 29.8611C65.4192 29.923 65.3149 29.9848 65.2105 30.0466C65.0317 30.1548 64.8677 30.2785 64.7336 30.4021C64.5994 30.5257 64.5249 30.6494 64.5249 30.7576C64.5249 31.0358 64.7187 31.1903 65.1211 31.1903C65.2702 31.1903 65.4341 31.1594 65.613 31.0822H65.6577C65.6726 31.0822 65.6875 31.0822 65.7024 31.0667C66.7905 30.8967 67.5804 30.804 68.0872 30.804C68.4897 30.804 68.7132 30.804 68.7729 30.8194C68.9815 30.8658 69.1008 30.9431 69.1157 31.0512C69.1604 31.2522 69.1753 31.4531 69.1753 31.654C69.1902 31.5922 69.2051 31.5922 69.2051 31.6386C69.2051 31.6849 69.22 31.7622 69.22 31.8549C69.22 31.9477 69.2349 32.0404 69.2349 32.1486C69.2349 32.2413 69.2498 32.3341 69.2498 32.3804L69.0412 37.0636C69.0412 37.3418 69.0412 37.6818 69.0561 38.0527C69.0561 38.4237 69.0859 38.8101 69.1008 39.1965C69.1157 39.5056 69.1455 39.8765 69.1902 40.3093C69.2349 40.742 69.2945 41.1903 69.3691 41.6694C69.4138 41.9476 69.6075 42.1021 69.9653 42.1021C70.636 42.1021 71.4409 41.7158 72.3501 40.9275C72.5439 40.742 72.6929 40.5875 72.7972 40.4638C72.9016 40.3402 72.9612 40.232 72.9612 40.1547C72.9612 39.9847 72.8867 39.8611 72.7376 39.7683C72.5886 39.6756 72.4395 39.6138 72.2905 39.5829H72.2458C72.0967 39.521 72.0222 39.4901 72.0222 39.4747V31.7158C72.0669 31.2213 72.0967 30.9431 72.1414 30.8967Z" fill="#FBFBFB"/>
<path d="M84.1255 23.4158C83.9467 23.4158 83.574 23.5703 82.9927 23.864H83.0076C82.486 24.1422 82.0239 24.3895 81.6215 24.575C81.219 24.7604 80.8911 24.9304 80.6079 25.0541C79.654 25.5178 79.1621 25.9196 79.1621 26.2442C79.1621 26.5997 79.4155 26.7851 79.9074 26.7851C80.0117 26.7851 80.1608 26.7697 80.3247 26.7233C80.4887 26.6769 80.6675 26.5997 80.8613 26.4915L81.2339 26.306C81.2935 26.2751 81.3383 26.2442 81.383 26.2133C81.3979 26.2287 81.3979 26.2442 81.3979 26.2596C81.3979 26.306 81.3979 26.3369 81.4128 26.3524L81.4575 26.816C81.4575 27.2797 81.4575 27.8516 81.4575 28.5007C81.4575 29.1499 81.4575 29.8299 81.4724 30.5254C81.4724 31.221 81.4873 31.8856 81.4873 32.5502C81.4873 33.2148 81.4873 33.7712 81.4873 34.2503C81.4724 34.3585 81.4575 34.5285 81.4575 34.7294C81.4575 34.9303 81.4426 35.1622 81.4426 35.4095C81.4426 35.6568 81.4277 35.9041 81.4277 36.1514C81.4277 36.3987 81.4277 36.6305 81.4277 36.8469L81.3084 42.1018C81.3084 42.3491 81.3979 42.5346 81.5917 42.6892C81.7705 42.8437 81.9792 42.921 82.2028 42.921C82.2624 42.921 82.4114 42.8746 82.6499 42.7819C82.9033 42.6892 83.2163 42.5655 83.6187 42.411C84.051 42.2255 84.3938 42.0709 84.677 41.9318C84.9602 41.7927 85.154 41.6845 85.2434 41.5763C85.2434 41.3136 85.2285 41.159 85.1987 41.1127C85.1242 41.0045 85.0645 40.8963 85.0198 40.819C84.9751 40.7417 84.9304 40.6799 84.9006 40.6335C84.8708 40.5254 84.8559 40.3862 84.841 40.2162C84.8261 40.0462 84.8261 39.8762 84.8261 39.6753H84.4087C84.4385 39.6598 84.513 39.5671 84.6323 39.3971C84.7515 39.2271 84.8261 38.9798 84.8559 38.6707C84.8857 38.3615 84.9006 38.0833 84.9006 37.8669C84.9006 37.6506 84.9006 37.496 84.8857 37.4033C84.8708 37.4033 84.8708 36.7232 84.8708 35.3786C84.9602 35.0076 85.1987 34.5749 85.6011 34.0957C86.0036 33.6166 86.5401 33.122 87.2109 32.6429C88.5821 31.6537 89.6702 31.1437 90.4602 31.1437C91.4141 31.1437 92.1445 31.8701 92.6363 33.3075C92.8301 33.8175 92.9642 34.3276 93.0537 34.8376C93.1431 35.3477 93.1729 35.8422 93.1729 36.3368C93.1729 37.2796 92.9792 38.2224 92.5916 39.1807C92.2041 40.139 91.6377 41.0818 90.8924 42.0091C90.654 42.2873 90.4751 42.5501 90.3559 42.751C90.2366 42.9674 90.177 43.1374 90.177 43.2919C90.177 43.462 90.2515 43.6011 90.4006 43.6938C90.8328 43.7247 91.28 43.5083 91.7569 43.0756H91.742C92.3233 42.5964 92.8301 42.0864 93.2624 41.5454C93.6946 41.0045 94.097 40.4481 94.4548 39.8453H94.4399C94.5889 39.598 94.7231 39.3971 94.8274 39.2271C94.9317 39.0571 95.0361 38.9179 95.1106 38.7943C95.3043 38.2997 95.4534 37.8824 95.5875 37.5424C95.7068 37.2024 95.7962 36.9551 95.8558 36.8005C95.8856 36.7387 95.9006 36.7078 95.9006 36.6769C96.0198 36.2286 96.0794 35.5949 96.0794 34.7758C96.0794 34.0957 96.0198 33.4466 95.8856 32.8284C95.7515 32.2101 95.5577 31.6537 95.3044 31.1746C94.9466 30.5254 94.4846 29.9999 93.9182 29.629C93.3518 29.2581 92.696 29.0571 91.9656 29.0571C90.8179 29.0571 89.6702 29.3663 88.5225 29.969C88.1648 30.17 87.7773 30.4018 87.3599 30.68C86.9426 30.9582 86.4954 31.2828 86.0334 31.6537C85.3477 32.2256 84.99 32.5038 84.9453 32.5038C84.9155 32.5038 84.9006 32.4883 84.9006 32.4574L84.7962 32.0247L84.8559 24.1422C84.8559 23.6785 84.6174 23.4158 84.1255 23.4158Z" fill="#FBFBFB"/>
<path d="M47.3506 52.3339C47.3655 52.2719 47.3804 52.179 47.3953 52.0552C47.3804 52.1016 47.3804 52.1481 47.3655 52.1945C47.3506 52.241 47.3357 52.2874 47.3208 52.3339C47.3357 52.4113 47.3506 52.3958 47.3506 52.3339Z" fill="#FBFBFB"/>
<path d="M47.4566 51.7922C47.4566 51.684 47.4267 51.514 47.3671 51.2976C47.2926 51.0503 47.2181 50.8803 47.1435 50.7876C46.92 50.4939 46.7262 50.3239 46.5772 50.2621C46.5026 50.2312 46.443 50.2157 46.3685 50.2003C46.294 50.1848 46.2194 50.1848 46.13 50.1848C46.0108 50.1848 45.8915 50.1848 45.7723 50.2003C45.653 50.2157 45.5338 50.2312 45.4146 50.2621C45.3549 50.2775 45.2953 50.293 45.2208 50.3239C45.1463 50.3548 45.0717 50.4012 44.9823 50.4476C44.9227 50.4785 44.8482 50.5248 44.7885 50.5558C44.7289 50.5867 44.6693 50.6176 44.6097 50.664C44.565 50.6949 44.5352 50.7258 44.4755 50.7567C44.4308 50.7876 44.3861 50.8185 44.3414 50.834C44.2669 50.8803 44.2072 50.9267 44.1625 50.9576C44.1178 50.9885 44.088 51.004 44.0731 51.004C43.9986 51.004 43.9688 50.9576 43.9688 50.8494C43.9688 50.834 43.9688 50.8185 43.9688 50.803C43.9688 50.7876 43.9688 50.7567 43.9688 50.7412C43.9688 50.7258 43.9688 50.6949 43.9688 50.664C43.9688 50.633 43.9688 50.6176 43.9688 50.6021C43.9688 50.3394 43.8495 50.2157 43.611 50.2157C43.5365 50.2157 43.462 50.2157 43.3875 50.2312C43.3129 50.2466 43.2384 50.2621 43.149 50.2776C43.0894 50.293 43.0297 50.3239 42.9701 50.3394C42.9105 50.3548 42.8509 50.3703 42.7913 50.3857C42.7465 50.4012 42.7018 50.4167 42.6571 50.4167C42.6124 50.4321 42.5826 50.4321 42.5379 50.4476C42.4932 50.463 42.4484 50.4785 42.4037 50.4785C42.359 50.4939 42.3292 50.4939 42.2994 50.5094C42.2696 50.5248 42.2249 50.5248 42.1951 50.5403C42.1652 50.5403 42.1354 50.5558 42.1056 50.5558C41.9864 50.5867 41.9268 50.6639 41.9268 50.7567C41.9268 50.8803 42.0758 50.9576 42.3739 51.0194C42.4484 51.004 42.5081 50.9885 42.5826 50.9885C42.6571 50.9731 42.7167 50.9576 42.7913 50.9576C42.8807 50.9885 42.9254 51.0194 42.9254 51.0349V51.5295C42.9254 51.6531 42.9254 51.7613 42.9254 51.854C42.9254 51.9468 42.9254 52.0086 42.9403 52.055C42.9552 52.2095 42.9552 52.5032 42.9701 52.9359C42.9701 53.3533 42.9701 53.9251 42.9701 54.6206V55.9653C42.9701 56.0271 42.9552 56.0735 42.9403 56.0889C42.9254 56.1044 42.9105 56.1198 42.8956 56.1353C42.8807 56.1508 42.8807 56.1508 42.8658 56.1662C42.8509 56.1817 42.836 56.1971 42.836 56.1971C42.7913 56.259 42.7614 56.3053 42.7614 56.3362C42.7614 56.4444 42.836 56.5062 42.985 56.5062C43.1341 56.5062 43.3129 56.4444 43.5365 56.3053C43.8197 56.1199 43.9688 55.9344 43.9688 55.718V54.3115C43.9688 54.2961 43.9688 54.2961 43.9688 54.2652C43.9688 54.2497 43.9688 54.2342 43.9688 54.2188V52.565C43.9688 52.5496 43.9688 52.4723 43.9539 52.3332C43.9389 52.1941 43.9389 52.1168 43.9389 52.1013C43.9389 51.9622 43.9389 51.8386 43.9539 51.7459C43.9688 51.6995 44.0284 51.6222 44.1476 51.514C44.2669 51.4213 44.4159 51.3131 44.6097 51.1894C44.8184 51.0658 44.9972 50.9731 45.1612 50.8958C45.3251 50.8185 45.4444 50.7876 45.5338 50.7876C45.5487 50.7876 45.6679 50.8185 45.8766 50.8803C46.0704 50.9421 46.2194 51.0503 46.3238 51.2204C46.4132 51.3749 46.4579 51.5295 46.4579 51.7149C46.4579 51.8231 46.4281 51.9622 46.3834 52.1168C46.3387 52.2713 46.2791 52.4105 46.2045 52.565C46.0406 52.8896 45.817 53.1678 45.5636 53.3996C45.504 53.446 45.4295 53.4924 45.34 53.5387C45.2953 53.5542 45.2506 53.5696 45.2208 53.5851C45.191 53.6005 45.1612 53.6006 45.1463 53.6006C45.1314 53.6006 45.1165 53.6005 45.0717 53.5851C45.0419 53.5696 44.9823 53.5542 44.9227 53.5387C44.7736 53.4769 44.6842 53.446 44.6693 53.446C44.6097 53.446 44.5202 53.4769 44.401 53.5542C44.252 53.6469 44.1774 53.7551 44.1774 53.8633C44.1774 53.9869 44.2669 54.0797 44.4308 54.157C44.4755 54.1724 44.5352 54.2033 44.6097 54.2188C44.6842 54.2342 44.7289 54.2497 44.7736 54.2497C45.2357 54.2497 45.7574 54.0179 46.3238 53.5542C46.8156 53.1678 47.1436 52.7505 47.2777 52.3332C47.2777 52.3023 47.2777 52.2404 47.2777 52.1477C47.2777 52.055 47.2777 51.9313 47.2777 51.7768H47.4566V51.7922Z" fill="#FBFBFB"/>
<path d="M50.7509 53.8014C50.7658 53.8323 50.7808 53.8478 50.7957 53.8787V53.8632L50.8255 53.9251C50.8702 53.9869 50.9 54.0333 50.9298 54.0642C50.9596 54.0951 50.9745 54.126 50.9894 54.1414C51.1087 54.2806 51.213 54.3578 51.3024 54.3733C51.3322 54.3733 51.3919 54.3733 51.4813 54.3733C51.5707 54.3733 51.69 54.3733 51.839 54.3733C51.9881 54.3733 52.1073 54.3733 52.1967 54.3733C52.2862 54.3733 52.3458 54.3733 52.3756 54.3733C52.3905 54.3578 52.4054 54.3578 52.4352 54.3269C52.465 54.3115 52.4799 54.296 52.4799 54.2805V54.126C52.4501 54.1105 52.4352 54.0951 52.4352 54.1105C52.3905 54.0796 52.3607 54.0642 52.3309 54.0333C52.3011 54.0023 52.2862 54.0023 52.2713 54.0023C52.1818 53.9714 52.0775 53.8787 51.9732 53.7551C51.8688 53.616 51.7645 53.4459 51.6602 53.2296C51.6303 53.1523 51.6005 53.075 51.5707 53.0132C51.5409 52.9359 51.5111 52.8741 51.4813 52.8122C51.4068 52.6422 51.3471 52.4877 51.2726 52.364C51.213 52.2249 51.1534 52.1167 51.1087 52.024C51.0341 51.9004 50.9745 51.7767 50.9149 51.684C50.8553 51.5758 50.8106 51.4985 50.7808 51.4367C50.587 51.0812 50.3932 50.7875 50.1846 50.5712C49.9759 50.3548 49.7821 50.2466 49.5883 50.2466H49.4542C49.4244 50.2466 49.3946 50.2466 49.3648 50.2466C49.335 50.2466 49.3201 50.2466 49.3201 50.2466H49.171C49.1263 50.2466 49.0965 50.2466 49.0816 50.2466C49.0667 50.2466 49.0369 50.2466 49.0369 50.2466L48.6791 50.262C48.6046 50.2775 48.545 50.2929 48.4854 50.3393V50.4784C48.5599 50.5402 48.6642 50.5866 48.7835 50.6021C48.9027 50.6175 48.9772 50.633 49.007 50.6484C49.0369 50.6639 49.0667 50.6793 49.0965 50.6948C49.4244 51.0812 49.5883 51.3439 49.5883 51.514C49.5883 51.5449 49.5883 51.5758 49.5734 51.5912C49.4244 51.7613 49.3051 51.8849 49.2306 51.9776C49.1561 52.0704 49.0965 52.1322 49.0816 52.1631C49.007 52.2558 48.9474 52.3331 48.8878 52.3949C48.8282 52.4568 48.7686 52.5186 48.7238 52.5804C48.1575 53.2914 47.8892 53.6778 47.8892 53.7551C47.8892 53.8632 47.9488 53.9869 48.0829 54.1105C48.2171 54.2342 48.3214 54.296 48.4257 54.3269C48.5152 54.3578 48.6195 54.3733 48.7388 54.3887C48.858 54.4042 48.9921 54.4042 49.1263 54.4042C49.335 54.4042 49.4989 54.3887 49.5883 54.3578C49.7374 54.3115 49.9312 54.2187 50.1398 54.0796C50.4528 53.8787 50.6466 53.7705 50.7211 53.7705C50.7211 53.7705 50.736 53.7705 50.7509 53.8014ZM50.4528 53.3377C50.423 53.3687 50.3783 53.3841 50.3336 53.415C50.3187 53.4305 50.3187 53.4305 50.3038 53.4459C50.2889 53.4614 50.2889 53.4614 50.274 53.4614L50.2293 53.5078C50.1398 53.5541 50.0802 53.6005 50.0206 53.6159C49.961 53.6469 49.9312 53.6623 49.9014 53.6623C49.797 53.7087 49.6927 53.7396 49.6032 53.7551C49.5138 53.7705 49.4244 53.786 49.3499 53.786C49.2753 53.786 49.171 53.7551 49.0518 53.6778C48.9325 53.6005 48.8729 53.5232 48.8729 53.4459C48.8729 53.3687 48.9325 53.2605 49.0369 53.0904C49.0667 53.0595 49.0816 53.0286 49.1114 52.9977C49.1263 52.9668 49.1561 52.9359 49.171 52.905L49.2306 52.8277C49.2455 52.8122 49.2604 52.7968 49.2753 52.7659C49.3051 52.735 49.3201 52.7041 49.3499 52.6577C49.4542 52.5186 49.5585 52.3949 49.6629 52.2868C49.7672 52.1786 49.8268 52.1013 49.8864 52.0549C49.9312 52.0704 49.9759 52.1631 50.0653 52.3331C50.1995 52.6113 50.3038 52.8277 50.3783 52.9823C50.4528 53.1368 50.4827 53.2296 50.4827 53.2605C50.4976 53.2914 50.4827 53.3068 50.4528 53.3377Z" fill="#FBFBFB"/>
<path d="M54.3467 52.8899C54.3467 52.9363 54.4063 53.029 54.5256 53.1681C54.6448 53.3072 54.8237 53.4772 55.0323 53.6936C55.2559 53.9255 55.4646 54.0955 55.6285 54.2191C55.7925 54.3428 55.9266 54.4046 56.0161 54.4046C56.0608 54.4046 56.1353 54.3891 56.2247 54.3737C56.3142 54.3582 56.4185 54.3119 56.5377 54.2809C56.6421 54.25 56.7315 54.2037 56.8209 54.1727C56.9104 54.1264 56.9551 54.0955 56.97 54.08L56.9551 54.0027C56.8955 53.9255 56.806 53.8945 56.6868 53.8945C56.5974 53.8945 56.5377 53.8791 56.5079 53.8636C56.4185 53.8018 56.3142 53.7245 56.1949 53.6163C56.0757 53.5082 55.9415 53.3845 55.7925 53.2299C55.4497 52.9054 55.2857 52.7354 55.2857 52.689C55.3006 52.6735 55.3304 52.6581 55.3602 52.6426C55.3901 52.6272 55.4199 52.5963 55.4497 52.5653C55.4795 52.5344 55.5242 52.5035 55.5838 52.4726C55.718 52.3644 55.8372 52.2717 55.9415 52.179C56.0459 52.0862 56.1353 52.0089 56.1949 51.9317C56.4185 51.6689 56.5377 51.4062 56.5377 51.1589C56.5377 50.9425 56.4781 50.7416 56.3589 50.5561C56.2844 50.4634 56.2098 50.3861 56.1055 50.3243C56.0161 50.2624 55.9117 50.247 55.7925 50.247C55.6285 50.247 55.4646 50.2779 55.3006 50.3243C55.1367 50.3706 54.9727 50.4479 54.8237 50.5406C54.6001 50.6797 54.3914 50.8497 54.1827 51.0816C54.0784 51.2052 54.0039 51.2825 53.9741 51.3443L53.9592 51.3289C53.9592 51.3289 53.9443 51.3134 53.9443 51.298C53.9592 51.2361 53.9443 51.128 53.9144 50.9889C53.8995 50.9425 53.8995 50.8961 53.8995 50.8652C53.8995 50.8188 53.8995 50.8034 53.8846 50.7725V50.757V50.7416V50.6952C53.8846 50.6643 53.8846 50.6488 53.8846 50.6334C53.8846 50.6179 53.8846 50.587 53.8697 50.5406C53.8548 50.5252 53.8548 50.5097 53.825 50.4943C53.8101 50.4634 53.7952 50.4479 53.7803 50.4479C53.7654 50.417 53.7505 50.4015 53.7356 50.3706C53.7207 50.3397 53.7058 50.3243 53.6909 50.3088C53.6462 50.2779 53.5567 50.2624 53.4375 50.2624C53.4226 50.2624 53.4077 50.2624 53.3928 50.2624C53.3779 50.2624 53.363 50.247 53.3481 50.247C53.3331 50.247 53.3332 50.247 53.3182 50.247H53.3033L53.1692 50.2315C53.0947 50.2161 53.035 50.2161 53.0201 50.2161C52.7817 50.2161 52.6475 50.2779 52.5879 50.417C52.6326 50.4788 52.7369 50.5252 52.886 50.5715C52.9754 50.6025 53.0201 50.6797 53.035 50.7725C53.035 50.9425 53.035 51.1434 53.035 51.3753C53.035 51.5916 53.035 51.8235 53.035 52.0553C53.035 52.2871 53.035 52.519 53.035 52.7354C53.035 52.9517 53.035 53.1527 53.035 53.3381C53.0201 53.3536 53.0201 53.3845 53.0201 53.4154C53.0201 53.4463 53.0201 53.5082 53.0201 53.57C53.0201 53.5854 53.0201 53.6009 53.0201 53.6163C53.0201 53.6318 53.0201 53.6473 53.0201 53.6627C53.0052 53.8018 52.9903 53.9255 52.9605 54.0491C52.9605 54.0491 52.9456 54.0646 52.9456 54.08C52.9456 54.0955 52.9307 54.1109 52.9009 54.1418C52.8562 54.2191 52.8413 54.2809 52.8413 54.3273C52.9158 54.4046 53.0798 54.451 53.3033 54.451C53.7356 54.451 53.9443 54.3582 53.9443 54.1727V53.6782C53.9443 53.6627 53.9443 53.6318 53.9294 53.5854L53.9144 53.5391V52.179C53.9144 51.978 54.0784 51.7153 54.4063 51.3753C54.7491 51.0198 55.0621 50.8343 55.3304 50.8343C55.405 50.8343 55.4646 50.8498 55.5242 50.8807C55.5838 50.9116 55.6285 50.9734 55.6733 51.0507C55.7478 51.1898 55.7925 51.3134 55.7925 51.4371C55.7925 51.5144 55.7627 51.5916 55.7031 51.6844C55.6434 51.7771 55.554 51.8698 55.4348 51.9935C55.3751 52.0553 55.2857 52.1171 55.1665 52.2099C55.0472 52.3026 54.8982 52.3953 54.7342 52.519C54.4957 52.689 54.3467 52.8281 54.3467 52.8899Z" fill="#FBFBFB"/>
<path d="M57.0272 52.3168C57.0272 52.3016 57.0272 52.2713 57.0127 52.2561C57.0127 52.2713 57.0272 52.3016 57.0272 52.3168Z" fill="#FBFBFB"/>
<path d="M60.3032 54.1882V54.25C60.3032 54.2655 60.3032 54.2809 60.3032 54.2964C60.3032 54.3118 60.3032 54.3273 60.3032 54.3427V55.7492C60.3032 55.9656 60.4671 56.1511 60.795 56.3211C61.0484 56.4447 61.2422 56.5066 61.4061 56.5066C61.5701 56.5066 61.6446 56.4447 61.6446 56.3365C61.6446 56.2902 61.6148 56.2438 61.5701 56.1974C61.5552 56.182 61.5403 56.1665 61.5403 56.1511C61.5403 56.1356 61.5254 56.1356 61.4956 56.1047C61.4807 56.0892 61.4807 56.0893 61.4807 56.0738C61.4807 56.0583 61.4658 56.0583 61.4658 56.0583C61.4508 56.0429 61.4359 56.012 61.421 55.9811C61.4061 55.9501 61.3912 55.9347 61.3763 55.9038C61.3614 55.2546 61.3614 54.6055 61.3614 53.9564C61.3614 53.3072 61.3465 52.6735 61.3465 52.0089C61.3465 51.978 61.3465 51.9316 61.3465 51.8853C61.3465 51.8389 61.3316 51.7771 61.3316 51.7153C61.3316 51.6534 61.3167 51.5607 61.3167 51.4525C61.3167 51.3443 61.3018 51.2052 61.2869 51.0352C61.2869 51.0043 61.272 50.9579 61.2571 50.8961C61.2422 50.8343 61.2273 50.757 61.2124 50.6797C61.1975 50.587 61.1676 50.5097 61.1527 50.4479C61.1378 50.3861 61.1229 50.3551 61.0931 50.3242C60.9441 50.247 60.7503 50.1851 60.4969 50.1697C60.4522 50.1697 60.4224 50.1697 60.3777 50.1851C60.333 50.2006 60.2882 50.2006 60.2435 50.216C60.1988 50.2315 60.169 50.247 60.1243 50.2624C60.0945 50.2779 60.0647 50.3088 60.0498 50.3242C60.0647 50.3551 60.0647 50.3861 60.0796 50.417C60.0945 50.4479 60.1094 50.4942 60.1392 50.5252C60.1839 50.587 60.2137 50.6488 60.2435 50.6952C60.2733 50.7415 60.2733 50.8034 60.2733 50.8343C60.2733 50.8961 60.2584 50.927 60.2137 50.927C60.1839 50.927 60.1392 50.9116 60.0796 50.8806C60.02 50.8497 59.9305 50.8188 59.8262 50.7724C59.7517 50.7415 59.692 50.7106 59.6324 50.6797C59.5728 50.6488 59.5132 50.6179 59.4387 50.5715C59.3492 50.5252 59.2598 50.4788 59.1853 50.4479C59.1107 50.417 59.0511 50.4015 58.9915 50.3861C58.7679 50.3242 58.5294 50.2933 58.2761 50.2933C58.0972 50.2933 57.9332 50.3242 57.814 50.3706C57.6799 50.4324 57.4861 50.6024 57.2476 50.9116C57.2178 50.9579 57.1731 51.0197 57.1284 51.1125C57.0836 51.2052 57.0538 51.3134 57.0091 51.4216C56.9793 51.5298 56.9495 51.6225 56.9346 51.7153C56.9197 51.808 56.9048 51.8698 56.9048 51.9162H57.0389C57.0389 52.0707 57.0389 52.1789 57.024 52.2562C57.0091 52.3335 57.0091 52.3644 56.9942 52.318C57.1135 52.7817 57.4414 53.2299 57.963 53.6472C58.4996 54.08 59.0064 54.3118 59.4834 54.3118C59.5877 54.3118 59.692 54.2809 59.8113 54.2191C59.9752 54.1418 60.0498 54.0491 60.0498 53.9409C60.0498 53.8172 59.9752 53.7245 59.8262 53.6318C59.7069 53.5545 59.6175 53.5081 59.5579 53.5081C59.543 53.5081 59.4536 53.539 59.3045 53.6009C59.1704 53.6472 59.0958 53.6781 59.0958 53.6781C59.0809 53.6781 59.0511 53.6781 59.0213 53.6627C58.9915 53.6472 58.9468 53.6318 58.9021 53.6163C58.8574 53.6009 58.8126 53.57 58.7828 53.5545C58.753 53.539 58.7083 53.5081 58.6934 53.4927C58.44 53.2608 58.2313 52.9826 58.0674 52.689C57.9929 52.5499 57.9481 52.4108 57.9034 52.2717C57.8736 52.1326 57.8438 52.0089 57.8438 51.8853C57.8438 51.7153 57.8885 51.5452 57.9929 51.3907C58.1121 51.2052 58.2612 51.097 58.44 51.0507C58.6487 50.9888 58.753 50.9579 58.7828 50.9579C58.9766 50.9579 59.2598 51.0507 59.6473 51.2516C60.02 51.4371 60.2137 51.5916 60.2286 51.7153C60.2435 51.7925 60.2584 51.9162 60.2584 52.0707V52.6426L60.3032 54.1882Z" fill="#FBFBFB"/>
<path d="M57.0419 52.3944C57.0273 52.3793 57.0273 52.3489 57.0273 52.3337C57.0419 52.3641 57.0419 52.3944 57.0419 52.3944Z" fill="#FBFBFB"/>
<path d="M65.8077 54.1578C65.8226 54.1578 65.8375 54.1424 65.8375 54.1424C65.8822 54.1269 65.8971 54.1269 65.912 54.1269H65.9269C65.9269 54.1269 65.9418 54.1269 65.9567 54.1269C65.9717 54.1269 65.9866 54.1269 66.0015 54.1269C66.0462 54.3896 66.1654 54.5133 66.3443 54.5133C66.389 54.5133 66.4784 54.4978 66.6275 54.4515C66.7765 54.4051 66.9703 54.3433 67.1939 54.2814C67.2237 54.266 67.2535 54.2505 67.2833 54.2351C67.3131 54.2196 67.3429 54.1887 67.3578 54.1578V54.0032C67.2982 54.0032 67.2535 54.0033 67.2237 53.9878C67.2088 53.9878 67.1939 53.9878 67.179 53.9878C67.1641 53.9878 67.1492 53.9878 67.1343 53.9878C67.0746 53.9878 67.0299 53.9569 67.0001 53.9105C67.0001 53.8951 67.0001 53.8951 67.0001 53.8796C67.0001 53.8641 67.0001 53.8641 67.0001 53.8487C66.9852 53.8023 66.9703 53.756 66.9703 53.7096C66.9703 53.6632 66.9554 53.6323 66.9554 53.6169C66.9405 53.4005 66.9107 53.215 66.8958 53.045C66.8809 52.875 66.866 52.7513 66.866 52.6431C66.8511 52.3495 66.8212 52.0404 66.7914 51.7003C66.7616 51.3758 66.7169 51.0203 66.6871 50.6648C66.6573 50.402 66.538 50.2784 66.3294 50.2784C66.3145 50.2784 66.2698 50.2784 66.2101 50.2939C66.1505 50.3093 66.0611 50.3093 65.9567 50.3402C65.8375 50.3557 65.7332 50.3866 65.6437 50.402C65.5543 50.4175 65.4798 50.433 65.4202 50.4484C65.3904 50.4639 65.3456 50.4948 65.3009 50.5411C65.2562 50.5875 65.2413 50.6184 65.2413 50.6648C65.2413 50.773 65.3158 50.8194 65.4649 50.8194C65.4798 50.8194 65.4947 50.8194 65.5096 50.8194C65.5245 50.8194 65.5394 50.8193 65.5692 50.8039C65.5841 50.8039 65.599 50.8039 65.6139 50.7884C65.6288 50.773 65.6437 50.7884 65.6437 50.773C65.7183 50.773 65.7481 50.7884 65.763 50.8194C65.7779 50.8657 65.8077 50.9275 65.8077 50.9894C65.8226 51.0512 65.8375 51.1439 65.8375 51.2367C65.8375 51.283 65.8375 51.3139 65.8375 51.3448C65.8375 51.3758 65.8375 51.4221 65.8524 51.453C65.8524 51.484 65.8524 51.5303 65.8524 51.5612C65.8524 51.5921 65.8524 51.6385 65.8524 51.6694C65.8524 51.7003 65.8524 51.7158 65.8524 51.7467C65.8524 51.7622 65.8524 51.7931 65.8524 51.7931C65.8524 51.8085 65.8524 51.824 65.8524 51.8394L65.8673 52.2722C65.8673 52.2877 65.8673 52.3186 65.8673 52.3958C65.8673 52.4731 65.8822 52.5813 65.8822 52.7204C65.8971 52.8595 65.8971 52.9677 65.8971 53.045C65.8971 53.1223 65.8971 53.1532 65.8971 53.1686H66.0015C65.9866 53.1841 65.9567 53.1995 65.9418 53.2305C65.9269 53.2614 65.912 53.3077 65.912 53.3541C65.912 53.4005 65.912 53.4468 65.912 53.4932C65.912 53.5396 65.912 53.5705 65.8971 53.5859C65.8822 53.6787 65.7034 53.756 65.3904 53.8178C65.137 53.8641 64.9134 53.8951 64.7047 53.8951C64.2427 53.8951 63.8998 53.756 63.6614 53.4623C63.4378 53.1995 63.3185 52.8286 63.3185 52.3804C63.3185 52.2722 63.3334 52.1176 63.3782 51.9631C63.408 51.7931 63.4676 51.6076 63.5272 51.3758C63.6316 51.0357 63.8402 50.773 64.1383 50.603C64.2128 50.5566 64.2427 50.4948 64.2427 50.4175C64.2427 50.3093 64.1681 50.2629 64.0191 50.2629C63.9744 50.2629 63.8253 50.2939 63.5719 50.3402C63.4378 50.3711 63.3185 50.4175 63.1993 50.4484C63.0801 50.4793 62.9906 50.5102 62.9012 50.5411C62.8416 50.5721 62.782 50.5875 62.7372 50.6184C62.6925 50.6493 62.6478 50.6648 62.6329 50.6802L62.5882 50.7884C62.6031 50.8657 62.6478 50.9121 62.7223 50.8966L62.8714 50.8657V50.8812C62.8565 50.9121 62.8565 50.943 62.8416 50.9739C62.7372 51.113 62.6478 51.2521 62.5733 51.3758C62.4988 51.4994 62.4391 51.6231 62.3944 51.7158C62.2901 51.9476 62.2305 52.1949 62.2305 52.4422C62.2305 52.7977 62.3348 53.1532 62.5435 53.5241C62.618 53.6478 62.7223 53.7714 62.8565 53.8951C62.9906 54.0187 63.1248 54.1114 63.2887 54.1887C63.5868 54.3433 63.9147 54.4206 64.2725 54.4206C64.2874 54.4206 64.3172 54.4206 64.3172 54.4206C64.3321 54.4206 64.347 54.4205 64.3619 54.4051C64.3768 54.4051 64.4066 54.4051 64.4215 54.4051C64.5259 54.4051 64.6749 54.3896 64.8538 54.3587C65.0326 54.3278 65.2413 54.2815 65.4649 54.2351C65.4947 54.2351 65.5245 54.2196 65.5543 54.2042C65.5841 54.1887 65.6437 54.1733 65.6885 54.1424H65.6736C65.7779 54.1578 65.7928 54.1578 65.8077 54.1578Z" fill="#FBFBFB"/>
<path d="M70.8453 51.0047C70.8602 51.0356 70.8751 51.0665 70.9049 51.1129C70.9347 51.2057 70.9944 51.252 71.0838 51.252C71.1732 51.252 71.2627 51.2057 71.3521 51.1129C71.4564 51.0202 71.5011 50.9274 71.5011 50.8347C71.5011 50.6029 71.3223 50.4483 70.9645 50.3401C70.8453 50.3092 70.7112 50.2783 70.5919 50.2628C70.4727 50.2474 70.3385 50.2319 70.2044 50.2319C69.9659 50.2319 69.7423 50.2629 69.5187 50.3247C69.4144 50.3556 69.325 50.3865 69.2505 50.4174C69.161 50.4483 69.1163 50.4638 69.0865 50.4792C68.9822 50.5256 68.8927 50.5874 68.7884 50.6492C68.6841 50.7111 68.6095 50.7729 68.5201 50.8502C68.2667 51.082 68.0879 51.3757 67.9686 51.7466C67.9239 51.8703 67.8941 51.9939 67.8643 52.1021C67.8345 52.2103 67.8345 52.3185 67.8345 52.4112C67.8345 52.7667 67.909 53.0913 68.0431 53.3849C68.1177 53.5549 68.2369 53.7249 68.386 53.864C68.535 54.0032 68.6841 54.1113 68.848 54.2041C68.9822 54.2659 69.0865 54.3123 69.1759 54.3586C69.2505 54.3895 69.3101 54.4205 69.325 54.4359C69.4889 54.4823 69.6827 54.4977 69.9212 54.4977C70.0553 54.4977 70.1746 54.4823 70.2789 54.4514C70.428 54.405 70.5621 54.3432 70.6814 54.3123C70.8006 54.2659 70.89 54.2195 70.9795 54.1732C71.0093 54.1577 71.054 54.1268 71.0838 54.1113C71.1285 54.0959 71.1583 54.065 71.203 54.0341C71.2627 53.9877 71.3074 53.9413 71.3223 53.895C71.3372 53.8486 71.3521 53.8177 71.3521 53.7868C71.3521 53.6786 71.3074 53.6322 71.2179 53.6322C71.1732 53.6322 71.0838 53.6631 70.9496 53.7095C70.9347 53.7249 70.9049 53.725 70.8602 53.7559C70.8006 53.7868 70.741 53.8177 70.7112 53.8177C70.3534 53.9104 70.1448 53.9568 70.0702 53.9568C69.8318 53.9568 69.5784 53.8641 69.325 53.694C69.0418 53.4931 68.8778 53.2613 68.8629 52.9831C68.8629 52.9676 68.8629 52.9522 68.848 52.9212C68.8331 52.8903 68.848 52.8749 68.8331 52.8594C68.8182 52.8285 68.8182 52.7976 68.8182 52.7667C68.8182 52.7358 68.8182 52.7203 68.8033 52.6894V52.674C68.8033 52.674 68.8033 52.6585 68.8033 52.6276C68.8033 52.6121 68.8033 52.5967 68.8033 52.5812C68.8033 52.5658 68.8033 52.5503 68.8033 52.5349C68.8182 52.5194 68.8927 52.5194 68.9822 52.5194C69.0567 52.5194 69.1312 52.5194 69.1908 52.5039C69.2505 52.5039 69.2952 52.5039 69.3101 52.4885L70.264 52.473C70.3087 52.473 70.3832 52.5039 70.4876 52.5658C70.5919 52.6276 70.6664 52.6585 70.6963 52.6585C70.741 52.6585 70.7857 52.643 70.8304 52.6276C70.8453 52.6121 70.8751 52.5967 70.9198 52.5812C70.9645 52.5658 71.0093 52.5194 71.054 52.4885C71.1881 52.3958 71.2477 52.303 71.2477 52.2257C71.2477 52.0712 71.1136 51.9939 70.8304 51.9939H69.8765H69.8616C69.8467 51.9939 69.8467 51.9939 69.8318 51.9939C69.8169 51.9939 69.8019 51.9939 69.787 51.9939C69.7721 51.9939 69.7572 51.9939 69.7274 51.9939C69.6827 51.9939 69.6529 51.9939 69.638 51.9784C69.6082 51.9784 69.5933 51.9784 69.5933 51.9784H68.9225C68.848 51.9784 68.8182 51.9321 68.8182 51.8393C68.8182 51.8239 68.848 51.7466 68.9076 51.623C68.9673 51.4993 69.0418 51.3911 69.1312 51.2829C69.2206 51.1747 69.325 51.082 69.4293 51.0047C69.6231 50.8656 69.8318 50.8038 70.0404 50.8038C70.1299 50.8038 70.2491 50.8193 70.3981 50.8656C70.5621 50.912 70.6664 50.9584 70.7112 50.9893C70.8155 50.9584 70.8304 50.9893 70.8453 51.0047Z" fill="#FBFBFB"/>
</svg>
