<svg width="35" height="24" viewBox="0 0 35 24" fill="none" xmlns="http://www.w3.org/2000/svg">
<path d="M34.1053 1.89474C34.1053 2.39725 33.9056 2.87918 33.5503 3.23452C33.195 3.58985 32.713 3.78947 32.2105 3.78947H1.89474C1.39222 3.78947 0.910287 3.58985 0.554955 3.23452C0.199623 2.87918 0 2.39725 0 1.89474C0 1.39222 0.199623 0.910287 0.554955 0.554955C0.910287 0.199623 1.39222 0 1.89474 0H32.2105C32.713 0 33.195 0.199623 33.5503 0.554955C33.9056 0.910287 34.1053 1.39222 34.1053 1.89474ZM34.1053 12C34.1053 12.5025 33.9056 12.9844 33.5503 13.3398C33.195 13.6951 32.713 13.8947 32.2105 13.8947H1.89474C1.39222 13.8947 0.910287 13.6951 0.554955 13.3398C0.199623 12.9844 0 12.5025 0 12C0 11.4975 0.199623 11.0156 0.554955 10.6602C0.910287 10.3049 1.39222 10.1053 1.89474 10.1053H32.2105C32.713 10.1053 33.195 10.3049 33.5503 10.6602C33.9056 11.0156 34.1053 11.4975 34.1053 12ZM34.1053 22.1053C34.1053 22.6078 33.9056 23.0897 33.5503 23.445C33.195 23.8004 32.713 24 32.2105 24H1.89474C1.39222 24 0.910287 23.8004 0.554955 23.445C0.199623 23.0897 0 22.6078 0 22.1053C0 21.6027 0.199623 21.1208 0.554955 20.7655C0.910287 20.4102 1.39222 20.2105 1.89474 20.2105H32.2105C32.713 20.2105 33.195 20.4102 33.5503 20.7655C33.9056 21.1208 34.1053 21.6027 34.1053 22.1053Z" fill="#FBFBFB"/>
</svg>
